<?xml version="1.0" encoding="UTF-8"?>
<svg version="1.1" xmlns="http://www.w3.org/2000/svg" width="22207" height="10418">
<path d="M0 0 C390.39 0 780.78 0 1183 0 C1183 479.16 1183 958.32 1183 1452 C969.82 1452 756.64 1452 537 1452 C537 1274.79 537 1097.58 537 915 C484.2 915 431.4 915 377 915 C377 1092.21 377 1269.42 377 1452 C288.23 1452 199.46 1452 108 1452 C108 1629.54 108 1807.08 108 1990 C-193.62 1990 -495.24 1990 -806 1990 C-806 1865.26 -806 1740.52 -806 1612 C-628.79 1612 -451.58 1612 -269 1612 C-269 1434.79 -269 1257.58 -269 1075 C-180.23 1075 -91.46 1075 0 1075 C0 1022.2 0 969.4 0 915 C-88.77 915 -177.54 915 -269 915 C-269 826.23 -269 737.46 -269 646 C-410.57 646 -552.14 646 -698 646 C-698 698.8 -698 751.6 -698 806 C-609.23 806 -520.46 806 -429 806 C-429 930.41 -429 1054.82 -429 1183 C-517.77 1183 -606.54 1183 -698 1183 C-698 1271.77 -698 1360.54 -698 1452 C-822.41 1452 -946.82 1452 -1075 1452 C-1075 1363.23 -1075 1274.46 -1075 1183 C-1127.8 1183 -1180.6 1183 -1235 1183 C-1235 1324.57 -1235 1466.14 -1235 1612 C-1146.56 1612 -1058.12 1612 -967 1612 C-967 1789.54 -967 1967.08 -967 2150 C-789.46 2150 -611.92 2150 -429 2150 C-429 2274.41 -429 2398.82 -429 2527 C-606.54 2527 -784.08 2527 -967 2527 C-967 2579.8 -967 2632.6 -967 2687 C-878.23 2687 -789.46 2687 -698 2687 C-698 2811.74 -698 2936.48 -698 3065 C-1141.52 3065 -1585.04 3065 -2042 3065 C-2042 3117.8 -2042 3170.6 -2042 3225 C-1775.69 3225 -1509.38 3225 -1235 3225 C-1235 3349.41 -1235 3473.82 -1235 3602 C-1412.54 3602 -1590.08 3602 -1773 3602 C-1773 3779.54 -1773 3957.08 -1773 4140 C-2057.13 4140 -2341.26 4140 -2634 4140 C-2634 4104.03 -2634 4068.06 -2634 4031 C-2385.51 4031 -2137.02 4031 -1881 4031 C-1881 3853.79 -1881 3676.58 -1881 3494 C-1703.79 3494 -1526.58 3494 -1344 3494 C-1344 3440.87 -1344 3387.74 -1344 3333 C-1609.98 3333 -1875.96 3333 -2150 3333 C-2150 3208.59 -2150 3084.18 -2150 2956 C-1706.48 2956 -1262.96 2956 -806 2956 C-806 2903.2 -806 2850.4 -806 2796 C-894.77 2796 -983.54 2796 -1075 2796 C-1075 2671.59 -1075 2547.18 -1075 2419 C-897.79 2419 -720.58 2419 -538 2419 C-538 2365.87 -538 2312.74 -538 2258 C-715.21 2258 -892.42 2258 -1075 2258 C-1075 2080.79 -1075 1903.58 -1075 1721 C-1163.77 1721 -1252.54 1721 -1344 1721 C-1344 1507.82 -1344 1294.64 -1344 1075 C-1219.59 1075 -1095.18 1075 -967 1075 C-967 1163.77 -967 1252.54 -967 1344 C-913.87 1344 -860.74 1344 -806 1344 C-806 1255.23 -806 1166.46 -806 1075 C-717.56 1075 -629.12 1075 -538 1075 C-538 1022.2 -538 969.4 -538 915 C-626.44 915 -714.88 915 -806 915 C-806 790.26 -806 665.52 -806 537 C-592.82 537 -379.64 537 -160 537 C-160 625.77 -160 714.54 -160 806 C-71.56 806 16.88 806 108 806 C108 930.41 108 1054.82 108 1183 C19.56 1183 -68.88 1183 -160 1183 C-160 1360.54 -160 1538.08 -160 1721 C-337.54 1721 -515.08 1721 -698 1721 C-698 1773.8 -698 1826.6 -698 1881 C-467.66 1881 -237.32 1881 0 1881 C0 1703.79 0 1526.58 0 1344 C88.77 1344 177.54 1344 269 1344 C269 1166.46 269 988.92 269 806 C393.41 806 517.82 806 646 806 C646 983.54 646 1161.08 646 1344 C787.57 1344 929.14 1344 1075 1344 C1075 936.12 1075 528.24 1075 108 C755.89 108 436.78 108 108 108 C108 249.57 108 391.14 108 537 C249.57 537 391.14 537 537 537 C537 448.56 537 360.12 537 269 C661.74 269 786.48 269 915 269 C915 553.13 915 837.26 915 1130 C879.03 1130 843.06 1130 806 1130 C806 881.51 806 633.02 806 377 C753.2 377 700.4 377 646 377 C646 465.77 646 554.54 646 646 C432.82 646 219.64 646 0 646 C0 432.82 0 219.64 0 0 Z " fill="#292E38" transform="translate(3126,3529)"/>
<path d="M0 0 C106.59 0 213.18 0 323 0 C323 35.97 323 71.94 323 109 C252.05 109 181.1 109 108 109 C108 161.8 108 214.6 108 269 C196.77 269 285.54 269 377 269 C377 393.41 377 517.82 377 646 C199.79 646 22.58 646 -160 646 C-160 787.57 -160 929.14 -160 1075 C-107.2 1075 -54.4 1075 0 1075 C0 986.23 0 897.46 0 806 C124.41 806 248.82 806 377 806 C377 1196.72 377 1587.44 377 1990 C288.23 1990 199.46 1990 108 1990 C108 2220.34 108 2450.68 108 2688 C285.54 2688 463.08 2688 646 2688 C646 2953.98 646 3219.96 646 3494 C698.8 3494 751.6 3494 806 3494 C806 3405.23 806 3316.46 806 3225 C894.77 3225 983.54 3225 1075 3225 C1075 3172.2 1075 3119.4 1075 3065 C986.23 3065 897.46 3065 806 3065 C806 2940.59 806 2816.18 806 2688 C1107.95 2688 1409.9 2688 1721 2688 C1721 2776.44 1721 2864.88 1721 2956 C1773.8 2956 1826.6 2956 1881 2956 C1881 2867.56 1881 2779.12 1881 2688 C2005.41 2688 2129.82 2688 2258 2688 C2258 2989.62 2258 3291.24 2258 3602 C2080.79 3602 1903.58 3602 1721 3602 C1721 3868.31 1721 4134.62 1721 4409 C1632.23 4409 1543.46 4409 1452 4409 C1452 4497.44 1452 4585.88 1452 4677 C1274.79 4677 1097.58 4677 915 4677 C915 4765.77 915 4854.54 915 4946 C790.26 4946 665.52 4946 537 4946 C537 4857.23 537 4768.46 537 4677 C484.2 4677 431.4 4677 377 4677 C377 4765.77 377 4854.54 377 4946 C252.59 4946 128.18 4946 0 4946 C0 4857.23 0 4768.46 0 4677 C-177.54 4677 -355.08 4677 -538 4677 C-538 4463.82 -538 4250.64 -538 4031 C-413.26 4031 -288.52 4031 -160 4031 C-160 4119.77 -160 4208.54 -160 4300 C158.78 4300 477.56 4300 806 4300 C806 4211.23 806 4122.46 806 4031 C930.41 4031 1054.82 4031 1183 4031 C1183 4137.92 1183 4244.84 1183 4355 C1147.36 4355 1111.72 4355 1075 4355 C1075 4284.05 1075 4213.1 1075 4140 C1022.2 4140 969.4 4140 915 4140 C915 4228.77 915 4317.54 915 4409 C524.28 4409 133.56 4409 -269 4409 C-269 4320.23 -269 4231.46 -269 4140 C-321.8 4140 -374.6 4140 -429 4140 C-429 4281.57 -429 4423.14 -429 4569 C-251.79 4569 -74.58 4569 108 4569 C108 4657.77 108 4746.54 108 4838 C161.13 4838 214.26 4838 269 4838 C269 4749.23 269 4660.46 269 4569 C393.41 4569 517.82 4569 646 4569 C646 4657.77 646 4746.54 646 4838 C698.8 4838 751.6 4838 806 4838 C806 4749.23 806 4660.46 806 4569 C983.54 4569 1161.08 4569 1344 4569 C1344 4480.23 1344 4391.46 1344 4300 C1432.44 4300 1520.88 4300 1612 4300 C1612 4034.02 1612 3768.04 1612 3494 C1789.54 3494 1967.08 3494 2150 3494 C2150 3263.66 2150 3033.32 2150 2796 C2097.2 2796 2044.4 2796 1990 2796 C1990 2884.77 1990 2973.54 1990 3065 C1865.26 3065 1740.52 3065 1612 3065 C1612 2976.23 1612 2887.46 1612 2796 C1381.99 2796 1151.98 2796 915 2796 C915 2848.8 915 2901.6 915 2956 C1003.44 2956 1091.88 2956 1183 2956 C1183 3080.74 1183 3205.48 1183 3334 C1094.56 3334 1006.12 3334 915 3334 C915 3422.44 915 3510.88 915 3602 C790.26 3602 665.52 3602 537 3602 C537 3336.02 537 3070.04 537 2796 C359.79 2796 182.58 2796 0 2796 C0 2494.05 0 2192.1 0 1881 C88.77 1881 177.54 1881 269 1881 C269 1562.22 269 1243.44 269 915 C215.87 915 162.74 915 108 915 C108 1003.77 108 1092.54 108 1184 C-16.41 1184 -140.82 1184 -269 1184 C-269 970.82 -269 757.64 -269 538 C-91.46 538 86.08 538 269 538 C269 484.87 269 431.74 269 377 C180.23 377 91.46 377 0 377 C0 252.59 0 128.18 0 0 Z " fill="#292E38" transform="translate(10445,2006)"/>
<path d="M0 0 C213.18 0 426.36 0 646 0 C646 88.77 646 177.54 646 269 C823.21 269 1000.42 269 1183 269 C1183 482.18 1183 695.36 1183 915 C1094.23 915 1005.46 915 914 915 C914 1056.57 914 1198.14 914 1344 C1055.57 1344 1197.14 1344 1343 1344 C1343 1078.02 1343 812.04 1343 538 C1644.95 538 1946.9 538 2258 538 C2258 751.18 2258 964.36 2258 1184 C2080.79 1184 1903.58 1184 1721 1184 C1721 1361.21 1721 1538.42 1721 1721 C1632.23 1721 1543.46 1721 1452 1721 C1452 1951.34 1452 2181.68 1452 2419 C1717.98 2419 1983.96 2419 2258 2419 C2258 2507.77 2258 2596.54 2258 2688 C2346.77 2688 2435.54 2688 2527 2688 C2527 2776.77 2527 2865.54 2527 2957 C2579.8 2957 2632.6 2957 2687 2957 C2687 2868.23 2687 2779.46 2687 2688 C2793.92 2688 2900.84 2688 3011 2688 C3011 2723.64 3011 2759.28 3011 2796 C2940.05 2796 2869.1 2796 2796 2796 C2796 2884.77 2796 2973.54 2796 3065 C2671.26 3065 2546.52 3065 2418 3065 C2418 2976.23 2418 2887.46 2418 2796 C2329.56 2796 2241.12 2796 2150 2796 C2150 2707.56 2150 2619.12 2150 2528 C1883.69 2528 1617.38 2528 1343 2528 C1343 2226.05 1343 1924.1 1343 1613 C1431.77 1613 1520.54 1613 1612 1613 C1612 1435.46 1612 1257.92 1612 1075 C1789.54 1075 1967.08 1075 2150 1075 C2150 933.43 2150 791.86 2150 646 C1919.66 646 1689.32 646 1452 646 C1452 912.31 1452 1178.62 1452 1453 C1238.82 1453 1025.64 1453 806 1453 C806 1239.82 806 1026.64 806 807 C894.77 807 983.54 807 1075 807 C1075 665.43 1075 523.86 1075 378 C897.46 378 719.92 378 537 378 C537 289.23 537 200.46 537 109 C395.43 109 253.86 109 108 109 C108 197.77 108 286.54 108 378 C-69.21 378 -246.42 378 -429 378 C-429 466.44 -429 554.88 -429 646 C-606.54 646 -784.08 646 -967 646 C-967 787.57 -967 929.14 -967 1075 C-914.2 1075 -861.4 1075 -807 1075 C-807 986.56 -807 898.12 -807 807 C-682.26 807 -557.52 807 -429 807 C-429 895.44 -429 983.88 -429 1075 C-340.56 1075 -252.12 1075 -161 1075 C-161 1163.77 -161 1252.54 -161 1344 C-19.43 1344 122.14 1344 268 1344 C268 1255.23 268 1166.46 268 1075 C356.77 1075 445.54 1075 537 1075 C537 897.79 537 720.58 537 538 C643.92 538 750.84 538 861 538 C861 573.64 861 609.28 861 646 C790.05 646 719.1 646 646 646 C646 823.54 646 1001.08 646 1184 C557.23 1184 468.46 1184 377 1184 C377 1272.77 377 1361.54 377 1453 C163.82 1453 -49.36 1453 -269 1453 C-269 1364.23 -269 1275.46 -269 1184 C-357.77 1184 -446.54 1184 -538 1184 C-538 1095.23 -538 1006.46 -538 915 C-590.8 915 -643.6 915 -698 915 C-698 1003.77 -698 1092.54 -698 1184 C-822.41 1184 -946.82 1184 -1075 1184 C-1075 970.82 -1075 757.64 -1075 538 C-897.79 538 -720.58 538 -538 538 C-538 449.23 -538 360.46 -538 269 C-360.46 269 -182.92 269 0 269 C0 180.23 0 91.46 0 0 Z " fill="#292E38" transform="translate(14539,1916)"/>
<path d="M0 0 C124.41 0 248.82 0 377 0 C377 106.59 377 213.18 377 323 C341.36 323 305.72 323 269 323 C269 252.05 269 181.1 269 108 C215.87 108 162.74 108 108 108 C108 249.57 108 391.14 108 537 C196.77 537 285.54 537 377 537 C377 661.41 377 785.82 377 914 C288.23 914 199.46 914 108 914 C108 1002.77 108 1091.54 108 1183 C19.56 1183 -68.88 1183 -160 1183 C-160 1324.57 -160 1466.14 -160 1612 C-107.2 1612 -54.4 1612 0 1612 C0 1523.23 0 1434.46 0 1343 C124.41 1343 248.82 1343 377 1343 C377 1431.77 377 1520.54 377 1612 C465.77 1612 554.54 1612 646 1612 C646 1789.54 646 1967.08 646 2150 C734.77 2150 823.54 2150 915 2150 C915 2238.44 915 2326.88 915 2418 C1003.44 2418 1091.88 2418 1183 2418 C1183 2631.18 1183 2844.36 1183 3064 C1005.79 3064 828.58 3064 646 3064 C646 3205.57 646 3347.14 646 3493 C734.77 3493 823.54 3493 915 3493 C915 3581.77 915 3670.54 915 3762 C967.8 3762 1020.6 3762 1075 3762 C1075 3584.79 1075 3407.58 1075 3225 C1199.41 3225 1323.82 3225 1452 3225 C1452 3402.21 1452 3579.42 1452 3762 C1504.8 3762 1557.6 3762 1612 3762 C1612 3673.23 1612 3584.46 1612 3493 C1700.77 3493 1789.54 3493 1881 3493 C1881 3404.56 1881 3316.12 1881 3225 C1969.77 3225 2058.54 3225 2150 3225 C2150 3047.46 2150 2869.92 2150 2687 C2451.95 2687 2753.9 2687 3065 2687 C3065 2988.95 3065 3290.9 3065 3602 C2851.82 3602 2638.64 3602 2419 3602 C2419 3477.59 2419 3353.18 2419 3225 C2525.59 3225 2632.18 3225 2742 3225 C2742 3260.64 2742 3296.28 2742 3333 C2671.05 3333 2600.1 3333 2527 3333 C2527 3385.8 2527 3438.6 2527 3493 C2668.57 3493 2810.14 3493 2956 3493 C2956 3262.99 2956 3032.98 2956 2796 C2725.66 2796 2495.32 2796 2258 2796 C2258 2973.21 2258 3150.42 2258 3333 C2169.56 3333 2081.12 3333 1990 3333 C1990 3421.77 1990 3510.54 1990 3602 C1901.23 3602 1812.46 3602 1721 3602 C1721 3690.77 1721 3779.54 1721 3871 C1596.59 3871 1472.18 3871 1344 3871 C1344 3693.46 1344 3515.92 1344 3333 C1290.87 3333 1237.74 3333 1183 3333 C1183 3510.54 1183 3688.08 1183 3871 C1058.59 3871 934.18 3871 806 3871 C806 3782.23 806 3693.46 806 3602 C717.23 3602 628.46 3602 537 3602 C537 3388.82 537 3175.64 537 2956 C714.54 2956 892.08 2956 1075 2956 C1075 2814.43 1075 2672.86 1075 2527 C986.23 2527 897.46 2527 806 2527 C806 2438.23 806 2349.46 806 2258 C717.23 2258 628.46 2258 537 2258 C537 2080.79 537 1903.58 537 1721 C448.56 1721 360.12 1721 269 1721 C269 1632.23 269 1543.46 269 1452 C215.87 1452 162.74 1452 108 1452 C108 1540.77 108 1629.54 108 1721 C-16.41 1721 -140.82 1721 -269 1721 C-269 1507.82 -269 1294.64 -269 1075 C-180.23 1075 -91.46 1075 0 1075 C0 986.23 0 897.46 0 806 C88.77 806 177.54 806 269 806 C269 753.2 269 700.4 269 646 C180.23 646 91.46 646 0 646 C0 432.82 0 219.64 0 0 Z " fill="#292E38" transform="translate(15345,3798)"/>
<path d="M0 0 C124.41 0 248.82 0 377 0 C377 177.54 377 355.08 377 538 C642.98 538 908.96 538 1183 538 C1183 751.18 1183 964.36 1183 1184 C1005.79 1184 828.58 1184 646 1184 C646 1236.8 646 1289.6 646 1344 C734.44 1344 822.88 1344 914 1344 C914 1468.41 914 1592.82 914 1721 C736.79 1721 559.58 1721 377 1721 C377 1862.57 377 2004.14 377 2150 C554.21 2150 731.42 2150 914 2150 C914 2274.74 914 2399.48 914 2528 C612.38 2528 310.76 2528 0 2528 C0 2439.23 0 2350.46 0 2259 C-88.77 2259 -177.54 2259 -269 2259 C-269 2134.59 -269 2010.18 -269 1882 C-162.41 1882 -55.82 1882 54 1882 C54 1917.64 54 1953.28 54 1990 C-16.95 1990 -87.9 1990 -161 1990 C-161 2042.8 -161 2095.6 -161 2150 C-72.23 2150 16.54 2150 108 2150 C108 2238.77 108 2327.54 108 2419 C338.34 2419 568.68 2419 806 2419 C806 2366.2 806 2313.4 806 2259 C628.46 2259 450.92 2259 268 2259 C268 2045.82 268 1832.64 268 1613 C445.54 1613 623.08 1613 806 1613 C806 1560.2 806 1507.4 806 1453 C717.23 1453 628.46 1453 537 1453 C537 1328.26 537 1203.52 537 1075 C714.54 1075 892.08 1075 1075 1075 C1075 933.43 1075 791.86 1075 646 C808.69 646 542.38 646 268 646 C268 468.79 268 291.58 268 109 C215.2 109 162.4 109 108 109 C108 197.77 108 286.54 108 378 C19.23 378 -69.54 378 -161 378 C-161 430.8 -161 483.6 -161 538 C-72.23 538 16.54 538 108 538 C108 626.77 108 715.54 108 807 C196.77 807 285.54 807 377 807 C377 1020.18 377 1233.36 377 1453 C288.23 1453 199.46 1453 108 1453 C108 1523.95 108 1594.9 108 1668 C72.36 1668 36.72 1668 0 1668 C0 1561.08 0 1454.16 0 1344 C88.44 1344 176.88 1344 268 1344 C268 1202.43 268 1060.86 268 915 C179.56 915 91.12 915 0 915 C0 826.23 0 737.46 0 646 C-88.77 646 -177.54 646 -269 646 C-269 521.59 -269 397.18 -269 269 C-180.23 269 -91.46 269 0 269 C0 180.23 0 91.46 0 0 Z " fill="#292E38" transform="translate(14539,5141)"/>
<path d="M0 0 C106.59 0 213.18 0 323 0 C323 35.64 323 71.28 323 108 C252.05 108 181.1 108 108 108 C108 161.13 108 214.26 108 269 C196.77 269 285.54 269 377 269 C377 357.44 377 445.88 377 537 C465.77 537 554.54 537 646 537 C646 661.74 646 786.48 646 915 C557.23 915 468.46 915 377 915 C377 967.8 377 1020.6 377 1075 C554.54 1075 732.08 1075 915 1075 C915 1163.77 915 1252.54 915 1344 C967.8 1344 1020.6 1344 1075 1344 C1075 1166.46 1075 988.92 1075 806 C1199.41 806 1323.82 806 1452 806 C1452 983.54 1452 1161.08 1452 1344 C1540.77 1344 1629.54 1344 1721 1344 C1721 1432.44 1721 1520.88 1721 1612 C1773.8 1612 1826.6 1612 1881 1612 C1881 1470.43 1881 1328.86 1881 1183 C1792.23 1183 1703.46 1183 1612 1183 C1612 917.02 1612 651.04 1612 377 C1523.56 377 1435.12 377 1344 377 C1344 288.23 1344 199.46 1344 108 C1113.66 108 883.32 108 646 108 C646 161.13 646 214.26 646 269 C734.77 269 823.54 269 915 269 C915 375.59 915 482.18 915 592 C879.03 592 843.06 592 806 592 C806 521.05 806 450.1 806 377 C717.23 377 628.46 377 537 377 C537 252.59 537 128.18 537 0 C838.95 0 1140.9 0 1452 0 C1452 88.77 1452 177.54 1452 269 C1540.77 269 1629.54 269 1721 269 C1721 534.98 1721 800.96 1721 1075 C1809.77 1075 1898.54 1075 1990 1075 C1990 1288.18 1990 1501.36 1990 1721 C1865.26 1721 1740.52 1721 1612 1721 C1612 1632.23 1612 1543.46 1612 1452 C1523.56 1452 1435.12 1452 1344 1452 C1344 1274.79 1344 1097.58 1344 915 C1290.87 915 1237.74 915 1183 915 C1183 1092.21 1183 1269.42 1183 1452 C1058.59 1452 934.18 1452 806 1452 C806 1363.23 806 1274.46 806 1183 C628.79 1183 451.58 1183 269 1183 C269 1058.59 269 934.18 269 806 C357.44 806 445.88 806 537 806 C537 753.2 537 700.4 537 646 C448.56 646 360.12 646 269 646 C269 557.23 269 468.46 269 377 C180.23 377 91.46 377 0 377 C0 252.59 0 128.18 0 0 Z " fill="#292E38" transform="translate(4201,1379)"/>
<path d="M0 0 C106.59 0 213.18 0 323 0 C323 35.64 323 71.28 323 108 C252.05 108 181.1 108 108 108 C108 161.13 108 214.26 108 269 C196.77 269 285.54 269 377 269 C377 393.41 377 517.82 377 646 C163.82 646 -49.36 646 -269 646 C-269 557.23 -269 468.46 -269 377 C-321.8 377 -374.6 377 -429 377 C-429 518.57 -429 660.14 -429 806 C-340.23 806 -251.46 806 -160 806 C-160 930.41 -160 1054.82 -160 1183 C-248.77 1183 -337.54 1183 -429 1183 C-429 1324.57 -429 1466.14 -429 1612 C-251.79 1612 -74.58 1612 108 1612 C108 1825.18 108 2038.36 108 2258 C19.56 2258 -68.88 2258 -160 2258 C-160 2311.13 -160 2364.26 -160 2419 C-18.43 2419 123.14 2419 269 2419 C269 2330.23 269 2241.46 269 2150 C357.44 2150 445.88 2150 537 2150 C537 1972.46 537 1794.92 537 1612 C750.18 1612 963.36 1612 1183 1612 C1183 1736.74 1183 1861.48 1183 1990 C1094.56 1990 1006.12 1990 915 1990 C915 2060.95 915 2131.9 915 2205 C879.03 2205 843.06 2205 806 2205 C806 2098.08 806 1991.16 806 1881 C894.77 1881 983.54 1881 1075 1881 C1075 1828.2 1075 1775.4 1075 1721 C933.43 1721 791.86 1721 646 1721 C646 1898.21 646 2075.42 646 2258 C557.23 2258 468.46 2258 377 2258 C377 2346.77 377 2435.54 377 2527 C163.82 2527 -49.36 2527 -269 2527 C-269 2402.59 -269 2278.18 -269 2150 C-180.23 2150 -91.46 2150 0 2150 C0 2008.43 0 1866.86 0 1721 C-177.54 1721 -355.08 1721 -538 1721 C-538 1507.82 -538 1294.64 -538 1075 C-449.23 1075 -360.46 1075 -269 1075 C-269 1022.2 -269 969.4 -269 915 C-357.77 915 -446.54 915 -538 915 C-538 701.82 -538 488.64 -538 269 C-413.26 269 -288.52 269 -160 269 C-160 357.44 -160 445.88 -160 537 C-18.43 537 123.14 537 269 537 C269 484.2 269 431.4 269 377 C180.23 377 91.46 377 0 377 C0 252.59 0 128.18 0 0 Z " fill="#292E38" transform="translate(17495,1379)"/>
<path d="M0 0 C213.18 0 426.36 0 646 0 C646 124.41 646 248.82 646 377 C557.23 377 468.46 377 377 377 C377 607.34 377 837.68 377 1075 C465.77 1075 554.54 1075 646 1075 C646 1163.44 646 1251.88 646 1343 C734.44 1343 822.88 1343 914 1343 C914 1431.77 914 1520.54 914 1612 C1055.57 1612 1197.14 1612 1343 1612 C1343 1434.79 1343 1257.58 1343 1075 C1467.74 1075 1592.48 1075 1721 1075 C1721 1163.44 1721 1251.88 1721 1343 C1773.8 1343 1826.6 1343 1881 1343 C1881 1201.43 1881 1059.86 1881 914 C1792.23 914 1703.46 914 1612 914 C1612 736.79 1612 559.58 1612 377 C1523.23 377 1434.46 377 1343 377 C1343 252.59 1343 128.18 1343 0 C1449.92 0 1556.84 0 1667 0 C1667 35.64 1667 71.28 1667 108 C1596.05 108 1525.1 108 1452 108 C1452 160.8 1452 213.6 1452 268 C1540.77 268 1629.54 268 1721 268 C1721 445.54 1721 623.08 1721 806 C1809.44 806 1897.88 806 1989 806 C1989 1019.18 1989 1232.36 1989 1452 C1864.59 1452 1740.18 1452 1612 1452 C1612 1363.23 1612 1274.46 1612 1183 C1559.2 1183 1506.4 1183 1452 1183 C1452 1360.54 1452 1538.08 1452 1721 C1238.82 1721 1025.64 1721 806 1721 C806 1632.23 806 1543.46 806 1452 C717.23 1452 628.46 1452 537 1452 C537 1363.23 537 1274.46 537 1183 C448.23 1183 359.46 1183 268 1183 C268 881.05 268 579.1 268 268 C356.77 268 445.54 268 537 268 C537 215.2 537 162.4 537 108 C395.43 108 253.86 108 108 108 C108 196.77 108 285.54 108 377 C-16.41 377 -140.82 377 -269 377 C-269 270.08 -269 163.16 -269 53 C-233.36 53 -197.72 53 -161 53 C-161 123.95 -161 194.9 -161 268 C-107.87 268 -54.74 268 0 268 C0 179.56 0 91.12 0 0 Z " fill="#292E38" transform="translate(10714,1469)"/>
<path d="M0 0 C745.14 0 1490.28 0 2258 0 C2258 88.77 2258 177.54 2258 269 C2311.13 269 2364.26 269 2419 269 C2419 180.23 2419 91.46 2419 0 C2614.36 0 2809.72 0 3011 0 C3011 35.64 3011 71.28 3011 108 C2851.28 108 2691.56 108 2527 108 C2527 196.77 2527 285.54 2527 377 C2402.59 377 2278.18 377 2150 377 C2150 288.23 2150 199.46 2150 108 C1476.14 108 802.28 108 108 108 C108 161.13 108 214.26 108 269 C462.75 269 817.5 269 1183 269 C1183 357.44 1183 445.88 1183 537 C1236.13 537 1289.26 537 1344 537 C1344 448.56 1344 360.12 1344 269 C1468.41 269 1592.82 269 1721 269 C1721 357.44 1721 445.88 1721 537 C1969.16 537 2217.32 537 2473 537 C2473 572.97 2473 608.94 2473 646 C2188.87 646 1904.74 646 1612 646 C1612 557.23 1612 468.46 1612 377 C1559.2 377 1506.4 377 1452 377 C1452 465.77 1452 554.54 1452 646 C1327.59 646 1203.18 646 1075 646 C1075 557.23 1075 468.46 1075 377 C720.25 377 365.5 377 0 377 C0 252.59 0 128.18 0 0 Z " fill="#292E38" transform="translate(14270,1379)"/>
<path d="M0 0 C35.64 0 71.28 0 108 0 C108 106.92 108 213.84 108 324 C-246.75 324 -601.5 324 -967 324 C-967 412.77 -967 501.54 -967 593 C-1055.44 593 -1143.88 593 -1235 593 C-1235 681.44 -1235 769.88 -1235 861 C-1323.77 861 -1412.54 861 -1504 861 C-1504 1002.57 -1504 1144.14 -1504 1290 C-1185.22 1290 -866.44 1290 -538 1290 C-538 1201.56 -538 1113.12 -538 1022 C-449.23 1022 -360.46 1022 -269 1022 C-269 968.87 -269 915.74 -269 861 C-357.77 861 -446.54 861 -538 861 C-538 772.56 -538 684.12 -538 593 C-590.8 593 -643.6 593 -698 593 C-698 770.21 -698 947.42 -698 1130 C-893.36 1130 -1088.72 1130 -1290 1130 C-1290 1094.36 -1290 1058.72 -1290 1022 C-1130.28 1022 -970.56 1022 -806 1022 C-806 844.46 -806 666.92 -806 484 C-681.59 484 -557.18 484 -429 484 C-429 572.77 -429 661.54 -429 753 C-340.23 753 -251.46 753 -160 753 C-160 877.41 -160 1001.82 -160 1130 C-248.77 1130 -337.54 1130 -429 1130 C-429 1218.77 -429 1307.54 -429 1399 C-819.72 1399 -1210.44 1399 -1613 1399 C-1613 1185.82 -1613 972.64 -1613 753 C-1524.23 753 -1435.46 753 -1344 753 C-1344 664.23 -1344 575.46 -1344 484 C-1255.23 484 -1166.46 484 -1075 484 C-1075 395.23 -1075 306.46 -1075 215 C-720.25 215 -365.5 215 0 215 C0 144.05 0 73.1 0 0 Z " fill="#292E38" transform="translate(2051,1701)"/>
<path d="M0 0 C35.97 0 71.94 0 109 0 C109 106.59 109 213.18 109 323 C20.23 323 -68.54 323 -160 323 C-160 376.13 -160 429.26 -160 484 C17.21 484 194.42 484 377 484 C377 608.41 377 732.82 377 861 C111.02 861 -154.96 861 -429 861 C-429 913.8 -429 966.6 -429 1021 C-340.23 1021 -251.46 1021 -160 1021 C-160 1145.41 -160 1269.82 -160 1398 C-248.77 1398 -337.54 1398 -429 1398 C-429 1451.13 -429 1504.26 -429 1559 C-251.46 1559 -73.92 1559 109 1559 C109 1683.41 109 1807.82 109 1936 C-68.54 1936 -246.08 1936 -429 1936 C-429 1988.8 -429 2041.6 -429 2096 C-180.51 2096 67.98 2096 324 2096 C324 2131.97 324 2167.94 324 2205 C39.87 2205 -244.26 2205 -537 2205 C-537 2080.26 -537 1955.52 -537 1827 C-359.79 1827 -182.58 1827 0 1827 C0 1774.2 0 1721.4 0 1667 C-177.21 1667 -354.42 1667 -537 1667 C-537 1542.59 -537 1418.18 -537 1290 C-448.56 1290 -360.12 1290 -269 1290 C-269 1237.2 -269 1184.4 -269 1130 C-357.44 1130 -445.88 1130 -537 1130 C-537 1005.26 -537 880.52 -537 752 C-271.02 752 -5.04 752 269 752 C269 699.2 269 646.4 269 592 C91.46 592 -86.08 592 -269 592 C-269 467.59 -269 343.18 -269 215 C-180.23 215 -91.46 215 0 215 C0 144.05 0 73.1 0 0 Z " fill="#292E38" transform="translate(14001,5464)"/>
<path d="M0 0 C213.18 0 426.36 0 646 0 C646 124.41 646 248.82 646 377 C557.56 377 469.12 377 378 377 C378 429.8 378 482.6 378 537 C555.21 537 732.42 537 915 537 C915 625.77 915 714.54 915 806 C967.8 806 1020.6 806 1075 806 C1075 717.23 1075 628.46 1075 537 C1252.54 537 1430.08 537 1613 537 C1613 466.05 1613 395.1 1613 322 C1648.64 322 1684.28 322 1721 322 C1721 428.92 1721 535.84 1721 646 C1543.79 646 1366.58 646 1184 646 C1184 734.77 1184 823.54 1184 915 C1059.59 915 935.18 915 807 915 C807 826.23 807 737.46 807 646 C629.46 646 451.92 646 269 646 C269 521.59 269 397.18 269 269 C357.77 269 446.54 269 538 269 C538 215.87 538 162.74 538 108 C396.43 108 254.86 108 109 108 C109 338.34 109 568.68 109 806 C286.21 806 463.42 806 646 806 C646 983.54 646 1161.08 646 1344 C716.95 1344 787.9 1344 861 1344 C861 1379.64 861 1415.28 861 1452 C754.41 1452 647.82 1452 538 1452 C538 1274.79 538 1097.58 538 915 C360.46 915 182.92 915 0 915 C0 613.05 0 311.1 0 0 Z " fill="#E9BC08" transform="translate(19734,5679)"/>
<path d="M0 0 C284.13 0 568.26 0 861 0 C861 88.77 861 177.54 861 269 C1179.78 269 1498.56 269 1827 269 C1827 180.23 1827 91.46 1827 0 C2040.18 0 2253.36 0 2473 0 C2473 124.41 2473 248.82 2473 377 C2384.23 377 2295.46 377 2204 377 C2204 518.57 2204 660.14 2204 806 C2257.13 806 2310.26 806 2365 806 C2365 717.56 2365 629.12 2365 538 C2489.41 538 2613.82 538 2742 538 C2742 751.18 2742 964.36 2742 1184 C2635.08 1184 2528.16 1184 2418 1184 C2418 1148.03 2418 1112.06 2418 1075 C2488.95 1075 2559.9 1075 2633 1075 C2633 933.43 2633 791.86 2633 646 C2580.2 646 2527.4 646 2473 646 C2473 734.77 2473 823.54 2473 915 C2348.59 915 2224.18 915 2096 915 C2096 701.82 2096 488.64 2096 269 C2184.77 269 2273.54 269 2365 269 C2365 216.2 2365 163.4 2365 109 C2223.43 109 2081.86 109 1936 109 C1936 197.44 1936 285.88 1936 377 C1545.28 377 1154.56 377 752 377 C752 288.56 752 200.12 752 109 C503.84 109 255.68 109 0 109 C0 73.03 0 37.06 0 0 Z " fill="#292E38" transform="translate(7274,6306)"/>
<path d="M0 0 C124.41 0 248.82 0 377 0 C377 213.18 377 426.36 377 646 C288.23 646 199.46 646 108 646 C108 698.8 108 751.6 108 806 C196.77 806 285.54 806 377 806 C377 930.41 377 1054.82 377 1183 C288.23 1183 199.46 1183 108 1183 C108 1235.8 108 1288.6 108 1343 C196.77 1343 285.54 1343 377 1343 C377 1467.74 377 1592.48 377 1721 C4.1 1721 -368.8 1721 -753 1721 C-753 1685.03 -753 1649.06 -753 1612 C-415.74 1612 -78.48 1612 269 1612 C269 1559.2 269 1506.4 269 1452 C180.23 1452 91.46 1452 0 1452 C0 1327.59 0 1203.18 0 1075 C88.77 1075 177.54 1075 269 1075 C269 1021.87 269 968.74 269 914 C180.23 914 91.46 914 0 914 C0 789.59 0 665.18 0 537 C88.77 537 177.54 537 269 537 C269 395.43 269 253.86 269 108 C215.87 108 162.74 108 108 108 C108 196.77 108 285.54 108 377 C-264.57 377 -637.14 377 -1021 377 C-1021 341.03 -1021 305.06 -1021 268 C-684.07 268 -347.14 268 0 268 C0 179.56 0 91.12 0 0 Z " fill="#292E38" transform="translate(18570,5948)"/>
<path d="M0 0 C35.64 0 71.28 0 108 0 C108 70.95 108 141.9 108 215 C196.77 215 285.54 215 377 215 C377 428.18 377 641.36 377 861 C252.59 861 128.18 861 0 861 C0 772.23 0 683.46 0 592 C-53.13 592 -106.26 592 -161 592 C-161 946.75 -161 1301.5 -161 1667 C-285.41 1667 -409.82 1667 -538 1667 C-538 1578.56 -538 1490.12 -538 1399 C-626.77 1399 -715.54 1399 -807 1399 C-807 1097.05 -807 795.1 -807 484 C-682.26 484 -557.52 484 -429 484 C-429 679.36 -429 874.72 -429 1076 C-464.97 1076 -500.94 1076 -538 1076 C-538 916.28 -538 756.56 -538 592 C-590.8 592 -643.6 592 -698 592 C-698 822.34 -698 1052.68 -698 1290 C-609.23 1290 -520.46 1290 -429 1290 C-429 1378.77 -429 1467.54 -429 1559 C-376.2 1559 -323.4 1559 -269 1559 C-269 1204.25 -269 849.5 -269 484 C-144.59 484 -20.18 484 108 484 C108 572.77 108 661.54 108 753 C160.8 753 213.6 753 268 753 C268 611.43 268 469.86 268 324 C179.56 324 91.12 324 0 324 C0 217.08 0 110.16 0 0 Z " fill="#292E38" transform="translate(1245,4120)"/>
<path d="M0 0 C35.97 0 71.94 0 109 0 C109 159.72 109 319.44 109 484 C161.8 484 214.6 484 269 484 C269 395.23 269 306.46 269 215 C393.41 215 517.82 215 646 215 C646 428.18 646 641.36 646 861 C166.84 861 -312.32 861 -806 861 C-806 772.56 -806 684.12 -806 593 C-858.8 593 -911.6 593 -966 593 C-966 681.44 -966 769.88 -966 861 C-1090.74 861 -1215.48 861 -1344 861 C-1344 772.56 -1344 684.12 -1344 593 C-1396.8 593 -1449.6 593 -1504 593 C-1504 663.95 -1504 734.9 -1504 808 C-1539.64 808 -1575.28 808 -1612 808 C-1612 701.08 -1612 594.16 -1612 484 C-1487.59 484 -1363.18 484 -1235 484 C-1235 572.77 -1235 661.54 -1235 753 C-1182.2 753 -1129.4 753 -1075 753 C-1075 664.23 -1075 575.46 -1075 484 C-950.59 484 -826.18 484 -698 484 C-698 572.77 -698 661.54 -698 753 C-290.12 753 117.76 753 538 753 C538 611.43 538 469.86 538 324 C484.87 324 431.74 324 377 324 C377 412.77 377 501.54 377 593 C252.59 593 128.18 593 0 593 C0 397.31 0 201.62 0 0 Z " fill="#292E38" transform="translate(10176,6897)"/>
<path d="M0 0 C390.72 0 781.44 0 1184 0 C1184 88.77 1184 177.54 1184 269 C1272.77 269 1361.54 269 1453 269 C1453 357.77 1453 446.54 1453 538 C1541.44 538 1629.88 538 1721 538 C1721 662.41 1721 786.82 1721 915 C1632.56 915 1544.12 915 1453 915 C1453 967.8 1453 1020.6 1453 1075 C1523.95 1075 1594.9 1075 1668 1075 C1668 1110.97 1668 1146.94 1668 1184 C1561.08 1184 1454.16 1184 1344 1184 C1344 1059.26 1344 934.52 1344 806 C1432.77 806 1521.54 806 1613 806 C1613 753.2 1613 700.4 1613 646 C1524.23 646 1435.46 646 1344 646 C1344 557.23 1344 468.46 1344 377 C1255.23 377 1166.46 377 1075 377 C1075 288.56 1075 200.12 1075 109 C756.22 109 437.44 109 109 109 C109 161.8 109 214.6 109 269 C197.77 269 286.54 269 378 269 C378 357.77 378 446.54 378 538 C430.8 538 483.6 538 538 538 C538 449.23 538 360.46 538 269 C644.59 269 751.18 269 861 269 C861 304.64 861 340.28 861 377 C790.05 377 719.1 377 646 377 C646 465.77 646 554.54 646 646 C521.59 646 397.18 646 269 646 C269 557.23 269 468.46 269 377 C180.23 377 91.46 377 0 377 C0 252.59 0 128.18 0 0 Z " fill="#292E38" transform="translate(438,3260)"/>
<path d="M0 0 C124.74 0 249.48 0 378 0 C378 177.21 378 354.42 378 537 C430.8 537 483.6 537 538 537 C538 448.56 538 360.12 538 269 C662.41 269 786.82 269 915 269 C915 482.18 915 695.36 915 915 C560.25 915 205.5 915 -160 915 C-160 1074.39 -160 1233.78 -160 1398 C-195.64 1398 -231.28 1398 -268 1398 C-268 1202.64 -268 1007.28 -268 806 C86.75 806 441.5 806 807 806 C807 664.43 807 522.86 807 377 C753.87 377 700.74 377 646 377 C646 465.77 646 554.54 646 646 C521.59 646 397.18 646 269 646 C269 468.46 269 290.92 269 108 C216.2 108 163.4 108 109 108 C109 196.77 109 285.54 109 377 C20.23 377 -68.54 377 -160 377 C-160 429.8 -160 482.6 -160 537 C-89.05 537 -18.1 537 55 537 C55 572.97 55 608.94 55 646 C-51.59 646 -158.18 646 -268 646 C-268 521.59 -268 397.18 -268 269 C-179.56 269 -91.12 269 0 269 C0 180.23 0 91.46 0 0 Z " fill="#292E38" transform="translate(4738,3529)"/>
<path d="M0 0 C213.18 0 426.36 0 646 0 C646 213.18 646 426.36 646 646 C557.23 646 468.46 646 377 646 C377 698.8 377 751.6 377 806 C465.77 806 554.54 806 646 806 C646 930.74 646 1055.48 646 1184 C432.82 1184 219.64 1184 0 1184 C0 1095.23 0 1006.46 0 915 C-52.8 915 -105.6 915 -160 915 C-160 1003.77 -160 1092.54 -160 1184 C-284.74 1184 -409.48 1184 -538 1184 C-538 1077.08 -538 970.16 -538 860 C-502.03 860 -466.06 860 -429 860 C-429 930.95 -429 1001.9 -429 1075 C-376.2 1075 -323.4 1075 -269 1075 C-269 986.23 -269 897.46 -269 806 C-144.59 806 -20.18 806 108 806 C108 894.77 108 983.54 108 1075 C249.57 1075 391.14 1075 537 1075 C537 1022.2 537 969.4 537 915 C448.56 915 360.12 915 269 915 C269 790.59 269 666.18 269 538 C357.44 538 445.88 538 537 538 C537 396.43 537 254.86 537 109 C395.43 109 253.86 109 108 109 C108 161.8 108 214.6 108 269 C178.95 269 249.9 269 323 269 C323 304.64 323 340.28 323 377 C216.41 377 109.82 377 0 377 C0 252.59 0 128.18 0 0 Z " fill="#292E38" transform="translate(9370,2006)"/>
<path d="M0 0 C301.95 0 603.9 0 915 0 C915 177.21 915 354.42 915 537 C967.8 537 1020.6 537 1075 537 C1075 359.79 1075 182.58 1075 0 C1288.18 0 1501.36 0 1721 0 C1721 177.21 1721 354.42 1721 537 C1773.8 537 1826.6 537 1881 537 C1881 377.61 1881 218.22 1881 54 C1916.97 54 1952.94 54 1990 54 C1990 249.36 1990 444.72 1990 646 C1865.26 646 1740.52 646 1612 646 C1612 468.46 1612 290.92 1612 108 C1470.43 108 1328.86 108 1183 108 C1183 285.54 1183 463.08 1183 646 C1058.59 646 934.18 646 806 646 C806 468.46 806 290.92 806 108 C575.66 108 345.32 108 108 108 C108 161.13 108 214.26 108 269 C178.95 269 249.9 269 323 269 C323 304.64 323 340.28 323 377 C216.41 377 109.82 377 0 377 C0 252.59 0 128.18 0 0 Z " fill="#292E38" transform="translate(7220,5500)"/>
<path d="M0 0 C124.74 0 249.48 0 378 0 C378 106.92 378 213.84 378 324 C342.03 324 306.06 324 269 324 C269 253.05 269 182.1 269 109 C216.2 109 163.4 109 109 109 C109 250.57 109 392.14 109 538 C250.57 538 392.14 538 538 538 C538 449.23 538 360.46 538 269 C662.41 269 786.82 269 915 269 C915 357.77 915 446.54 915 538 C1145.34 538 1375.68 538 1613 538 C1613 396.43 1613 254.86 1613 109 C1560.2 109 1507.4 109 1453 109 C1453 197.44 1453 285.88 1453 377 C1346.08 377 1239.16 377 1129 377 C1129 341.36 1129 305.72 1129 269 C1199.95 269 1270.9 269 1344 269 C1344 180.23 1344 91.46 1344 0 C1468.41 0 1592.82 0 1721 0 C1721 213.18 1721 426.36 1721 646 C1419.38 646 1117.76 646 807 646 C807 557.23 807 468.46 807 377 C753.87 377 700.74 377 646 377 C646 465.77 646 554.54 646 646 C432.82 646 219.64 646 0 646 C0 432.82 0 219.64 0 0 Z " fill="#292E38" transform="translate(10982,3081)"/>
<path d="M0 0 C124.41 0 248.82 0 377 0 C377 88.77 377 177.54 377 269 C429.8 269 482.6 269 537 269 C537 180.23 537 91.46 537 0 C661.41 0 785.82 0 914 0 C914 213.18 914 426.36 914 646 C718.64 646 523.28 646 322 646 C322 610.36 322 574.72 322 538 C481.72 538 641.44 538 806 538 C806 396.43 806 254.86 806 109 C753.2 109 700.4 109 646 109 C646 197.77 646 286.54 646 378 C521.26 378 396.52 378 268 378 C268 289.23 268 200.46 268 109 C215.2 109 162.4 109 108 109 C108 286.21 108 463.42 108 646 C-105.18 646 -318.36 646 -538 646 C-538 521.59 -538 397.18 -538 269 C-449.23 269 -360.46 269 -269 269 C-269 198.05 -269 127.1 -269 54 C-233.36 54 -197.72 54 -161 54 C-161 160.92 -161 267.84 -161 378 C-249.44 378 -337.88 378 -429 378 C-429 430.8 -429 483.6 -429 538 C-287.43 538 -145.86 538 0 538 C0 360.46 0 182.92 0 0 Z " fill="#292E38" transform="translate(11789,3887)"/>
<path d="M0 0 C124.74 0 249.48 0 378 0 C378 195.69 378 391.38 378 593 C342.03 593 306.06 593 269 593 C269 433.28 269 273.56 269 109 C216.2 109 163.4 109 109 109 C109 339.34 109 569.68 109 807 C197.77 807 286.54 807 378 807 C378 1197.39 378 1587.78 378 1990 C253.26 1990 128.52 1990 0 1990 C0 1901.23 0 1812.46 0 1721 C-70.95 1721 -141.9 1721 -215 1721 C-215 1685.36 -215 1649.72 -215 1613 C-108.08 1613 -1.16 1613 109 1613 C109 1701.77 109 1790.54 109 1882 C161.8 1882 214.6 1882 269 1882 C269 1562.89 269 1243.78 269 915 C180.23 915 91.46 915 0 915 C0 613.05 0 311.1 0 0 Z " fill="#292E38" transform="translate(5813,4066)"/>
<path d="M0 0 C195.69 0 391.38 0 593 0 C593 124.41 593 248.82 593 377 C504.23 377 415.46 377 324 377 C324 465.77 324 554.54 324 646 C199.59 646 75.18 646 -53 646 C-53 557.23 -53 468.46 -53 377 C-106.13 377 -159.26 377 -214 377 C-214 518.57 -214 660.14 -214 806 C16.34 806 246.68 806 484 806 C484 735.05 484 664.1 484 591 C519.97 591 555.94 591 593 591 C593 697.92 593 804.84 593 915 C291.05 915 -10.9 915 -322 915 C-322 701.82 -322 488.64 -322 269 C-197.59 269 -73.18 269 55 269 C55 357.44 55 445.88 55 537 C107.8 537 160.6 537 215 537 C215 448.56 215 360.12 215 269 C303.77 269 392.54 269 484 269 C484 215.87 484 162.74 484 108 C324.28 108 164.56 108 0 108 C0 72.36 0 36.72 0 0 Z " fill="#292E38" transform="translate(5598,6754)"/>
<path d="M0 0 C124.41 0 248.82 0 377 0 C377 106.59 377 213.18 377 323 C341.36 323 305.72 323 269 323 C269 252.05 269 181.1 269 108 C215.87 108 162.74 108 108 108 C108 196.77 108 285.54 108 377 C19.56 377 -68.88 377 -160 377 C-160 429.8 -160 482.6 -160 537 C17.21 537 194.42 537 377 537 C377 661.74 377 786.48 377 915 C75.05 915 -226.9 915 -538 915 C-538 719.31 -538 523.62 -538 322 C-502.03 322 -466.06 322 -429 322 C-429 481.72 -429 641.44 -429 806 C-198.66 806 31.68 806 269 806 C269 753.2 269 700.4 269 646 C91.46 646 -86.08 646 -269 646 C-269 521.59 -269 397.18 -269 269 C-180.23 269 -91.46 269 0 269 C0 180.23 0 91.46 0 0 Z " fill="#E9BC08" transform="translate(21347,6754)"/>
<path d="M0 0 C106.59 0 213.18 0 323 0 C323 35.64 323 71.28 323 108 C252.05 108 181.1 108 108 108 C108 161.13 108 214.26 108 269 C249.57 269 391.14 269 537 269 C537 180.23 537 91.46 537 0 C750.18 0 963.36 0 1183 0 C1183 301.95 1183 603.9 1183 915 C1005.79 915 828.58 915 646 915 C646 985.95 646 1056.9 646 1130 C610.03 1130 574.06 1130 537 1130 C537 1023.08 537 916.16 537 806 C714.54 806 892.08 806 1075 806 C1075 575.66 1075 345.32 1075 108 C933.43 108 791.86 108 646 108 C646 196.77 646 285.54 646 377 C432.82 377 219.64 377 0 377 C0 252.59 0 128.18 0 0 Z " fill="#E9BC08" transform="translate(20541,5679)"/>
<path d="M0 0 C124.74 0 249.48 0 378 0 C378 301.95 378 603.9 378 915 C23.25 915 -331.5 915 -697 915 C-697 985.95 -697 1056.9 -697 1130 C-732.97 1130 -768.94 1130 -806 1130 C-806 1023.08 -806 916.16 -806 806 C-451.25 806 -96.5 806 269 806 C269 575.99 269 345.98 269 109 C216.2 109 163.4 109 109 109 C109 197.44 109 285.88 109 377 C-15.41 377 -139.82 377 -268 377 C-268 270.41 -268 163.82 -268 54 C-232.36 54 -196.72 54 -160 54 C-160 124.95 -160 195.9 -160 269 C-107.2 269 -54.4 269 0 269 C0 180.23 0 91.46 0 0 Z " fill="#292E38" transform="translate(1513,5410)"/>
<path d="M0 0 C35.97 0 71.94 0 109 0 C109 372.9 109 745.8 109 1130 C-104.18 1130 -317.36 1130 -537 1130 C-537 1005.26 -537 880.52 -537 752 C-448.23 752 -359.46 752 -268 752 C-268 610.43 -268 468.86 -268 323 C-321.13 323 -374.26 323 -429 323 C-429 393.95 -429 464.9 -429 538 C-464.64 538 -500.28 538 -537 538 C-537 431.41 -537 324.82 -537 215 C-412.59 215 -288.18 215 -160 215 C-160 428.18 -160 641.36 -160 861 C-248.77 861 -337.54 861 -429 861 C-429 913.8 -429 966.6 -429 1021 C-287.43 1021 -145.86 1021 0 1021 C0 684.07 0 347.14 0 0 Z " fill="#292E38" transform="translate(4738,6539)"/>
<path d="M0 0 C195.36 0 390.72 0 592 0 C592 35.97 592 71.94 592 109 C432.28 109 272.56 109 108 109 C108 197.44 108 285.88 108 377 C19.23 377 -69.54 377 -161 377 C-161 465.77 -161 554.54 -161 646 C-338.21 646 -515.42 646 -698 646 C-698 734.77 -698 823.54 -698 915 C-822.41 915 -946.82 915 -1075 915 C-1075 826.23 -1075 737.46 -1075 646 C-1234.72 646 -1394.44 646 -1559 646 C-1559 610.36 -1559 574.72 -1559 538 C-1363.64 538 -1168.28 538 -967 538 C-967 626.44 -967 714.88 -967 806 C-914.2 806 -861.4 806 -807 806 C-807 717.56 -807 629.12 -807 538 C-629.46 538 -451.92 538 -269 538 C-269 449.23 -269 360.46 -269 269 C-180.23 269 -91.46 269 0 269 C0 180.23 0 91.46 0 0 Z " fill="#292E38" transform="translate(11789,5231)"/>
<path d="M0 0 C213.18 0 426.36 0 646 0 C646 124.41 646 248.82 646 377 C539.41 377 432.82 377 323 377 C323 341.03 323 305.06 323 268 C393.95 268 464.9 268 538 268 C538 215.2 538 162.4 538 108 C396.43 108 254.86 108 109 108 C109 249.57 109 391.14 109 537 C339.01 537 569.02 537 806 537 C806 448.23 806 359.46 806 268 C912.92 268 1019.84 268 1130 268 C1130 303.97 1130 339.94 1130 377 C1059.05 377 988.1 377 915 377 C915 465.77 915 554.54 915 646 C613.05 646 311.1 646 0 646 C0 432.82 0 219.64 0 0 Z " fill="#292E38" transform="translate(5007,5948)"/>
<path d="M0 0 C106.92 0 213.84 0 324 0 C324 35.97 324 71.94 324 109 C253.05 109 182.1 109 109 109 C109 197.44 109 285.88 109 377 C-68.54 377 -246.08 377 -429 377 C-429 518.57 -429 660.14 -429 806 C-251.46 806 -73.92 806 109 806 C109 930.74 109 1055.48 109 1184 C-86.69 1184 -282.38 1184 -484 1184 C-484 1148.03 -484 1112.06 -484 1075 C-324.28 1075 -164.56 1075 0 1075 C0 1022.2 0 969.4 0 915 C-177.21 915 -354.42 915 -537 915 C-537 701.82 -537 488.64 -537 269 C-359.79 269 -182.58 269 0 269 C0 180.23 0 91.46 0 0 Z " fill="#292E38" transform="translate(8026,2006)"/>
<path d="M0 0 C35.64 0 71.28 0 108 0 C108 106.92 108 213.84 108 324 C-69.21 324 -246.42 324 -429 324 C-429 501.21 -429 678.42 -429 861 C-553.41 861 -677.82 861 -806 861 C-806 772.56 -806 684.12 -806 593 C-859.13 593 -912.26 593 -967 593 C-967 770.21 -967 947.42 -967 1130 C-1073.59 1130 -1180.18 1130 -1290 1130 C-1290 1094.36 -1290 1058.72 -1290 1022 C-1219.05 1022 -1148.1 1022 -1075 1022 C-1075 844.46 -1075 666.92 -1075 484 C-950.59 484 -826.18 484 -698 484 C-698 572.77 -698 661.54 -698 753 C-645.2 753 -592.4 753 -538 753 C-538 575.46 -538 397.92 -538 215 C-360.46 215 -182.92 215 0 215 C0 144.05 0 73.1 0 0 Z " fill="#292E38" transform="translate(18570,1701)"/>
<path d="M0 0 C124.41 0 248.82 0 377 0 C377 106.59 377 213.18 377 323 C341.03 323 305.06 323 268 323 C268 252.05 268 181.1 268 108 C215.2 108 162.4 108 108 108 C108 249.57 108 391.14 108 537 C249.57 537 391.14 537 537 537 C537 359.79 537 182.58 537 0 C821.13 0 1105.26 0 1398 0 C1398 35.64 1398 71.28 1398 108 C1149.84 108 901.68 108 646 108 C646 285.54 646 463.08 646 646 C432.82 646 219.64 646 0 646 C0 432.82 0 219.64 0 0 Z " fill="#292E38" transform="translate(16689,5948)"/>
<path d="M0 0 C284.13 0 568.26 0 861 0 C861 88.77 861 177.54 861 269 C913.8 269 966.6 269 1021 269 C1021 180.23 1021 91.46 1021 0 C1234.18 0 1447.36 0 1667 0 C1667 88.77 1667 177.54 1667 269 C1755.77 269 1844.54 269 1936 269 C1936 375.59 1936 482.18 1936 592 C1900.03 592 1864.06 592 1827 592 C1827 521.05 1827 450.1 1827 377 C1738.56 377 1650.12 377 1559 377 C1559 288.23 1559 199.46 1559 108 C1417.43 108 1275.86 108 1130 108 C1130 196.77 1130 285.54 1130 377 C1005.26 377 880.52 377 752 377 C752 288.23 752 199.46 752 108 C503.84 108 255.68 108 0 108 C0 72.36 0 36.72 0 0 Z " fill="#292E38" transform="translate(761,1379)"/>
<path d="M0 0 C124.41 0 248.82 0 377 0 C377 177.54 377 355.08 377 538 C465.77 538 554.54 538 646 538 C646 644.59 646 751.18 646 861 C610.36 861 574.72 861 538 861 C538 790.05 538 719.1 538 646 C449.23 646 360.46 646 269 646 C269 468.79 269 291.58 269 109 C216.2 109 163.4 109 109 109 C109 286.21 109 463.42 109 646 C-68.54 646 -246.08 646 -429 646 C-429 805.72 -429 965.44 -429 1130 C-464.64 1130 -500.28 1130 -537 1130 C-537 934.64 -537 739.28 -537 538 C-359.79 538 -182.58 538 0 538 C0 360.46 0 182.92 0 0 Z " fill="#292E38" transform="translate(18301,2185)"/>
<path d="M0 0 C301.62 0 603.24 0 914 0 C914 106.92 914 213.84 914 324 C878.36 324 842.72 324 806 324 C806 253.05 806 182.1 806 109 C575.66 109 345.32 109 108 109 C108 161.8 108 214.6 108 269 C285.54 269 463.08 269 646 269 C646 357.77 646 446.54 646 538 C716.95 538 787.9 538 861 538 C861 573.64 861 609.28 861 646 C754.08 646 647.16 646 537 646 C537 557.56 537 469.12 537 378 C359.79 378 182.58 378 0 378 C0 253.26 0 128.52 0 0 Z " fill="#292E38" transform="translate(4470,5141)"/>
<path d="M0 0 C124.41 0 248.82 0 377 0 C377 88.77 377 177.54 377 269 C429.8 269 482.6 269 537 269 C537 180.23 537 91.46 537 0 C643.92 0 750.84 0 861 0 C861 35.97 861 71.94 861 109 C790.05 109 719.1 109 646 109 C646 197.44 646 285.88 646 377 C521.59 377 397.18 377 269 377 C269 288.56 269 200.12 269 109 C215.87 109 162.74 109 108 109 C108 250.57 108 392.14 108 538 C267.72 538 427.44 538 592 538 C592 573.64 592 609.28 592 646 C396.64 646 201.28 646 0 646 C0 432.82 0 219.64 0 0 Z " fill="#292E38" transform="translate(16420,3260)"/>
<path d="M0 0 C390.39 0 780.78 0 1183 0 C1183 124.41 1183 248.82 1183 377 C1076.41 377 969.82 377 860 377 C860 341.03 860 305.06 860 268 C930.95 268 1001.9 268 1075 268 C1075 215.2 1075 162.4 1075 108 C755.89 108 436.78 108 108 108 C108 160.8 108 213.6 108 268 C267.72 268 427.44 268 592 268 C592 303.97 592 339.94 592 377 C396.64 377 201.28 377 0 377 C0 252.59 0 128.18 0 0 Z " fill="#292E38" transform="translate(7489,1469)"/>
<path d="M0 0 C106.59 0 213.18 0 323 0 C323 35.64 323 71.28 323 108 C252.05 108 181.1 108 108 108 C108 160.8 108 213.6 108 268 C196.77 268 285.54 268 377 268 C377 481.18 377 694.36 377 914 C288.23 914 199.46 914 108 914 C108 967.13 108 1020.26 108 1075 C196.77 1075 285.54 1075 377 1075 C377 1181.59 377 1288.18 377 1398 C341.36 1398 305.72 1398 269 1398 C269 1327.05 269 1256.1 269 1183 C180.23 1183 91.46 1183 0 1183 C0 1058.59 0 934.18 0 806 C88.77 806 177.54 806 269 806 C269 664.43 269 522.86 269 377 C180.23 377 91.46 377 0 377 C0 252.59 0 128.18 0 0 Z " fill="#292E38" transform="translate(11520,1469)"/>
<path d="M0 0 C35.97 0 71.94 0 109 0 C109 425.7 109 851.4 109 1290 C197.77 1290 286.54 1290 378 1290 C378 1414.41 378 1538.82 378 1667 C271.08 1667 164.16 1667 54 1667 C54 1631.36 54 1595.72 54 1559 C124.95 1559 195.9 1559 269 1559 C269 1505.87 269 1452.74 269 1398 C180.23 1398 91.46 1398 0 1398 C0 936.66 0 475.32 0 0 Z " fill="#292E38" transform="translate(2588,2239)"/>
<path d="M0 0 C35.97 0 71.94 0 109 0 C109 70.95 109 141.9 109 215 C197.77 215 286.54 215 378 215 C378 339.41 378 463.82 378 592 C289.23 592 200.46 592 109 592 C109 644.8 109 697.6 109 752 C250.57 752 392.14 752 538 752 C538 681.05 538 610.1 538 537 C573.64 537 609.28 537 646 537 C646 643.92 646 750.84 646 861 C432.82 861 219.64 861 0 861 C0 736.59 0 612.18 0 484 C88.77 484 177.54 484 269 484 C269 430.87 269 377.74 269 323 C180.23 323 91.46 323 0 323 C0 216.41 0 109.82 0 0 Z " fill="#292E38" transform="translate(438,6539)"/>
<path d="M0 0 C106.92 0 213.84 0 324 0 C324 35.64 324 71.28 324 108 C253.05 108 182.1 108 109 108 C109 373.98 109 639.96 109 914 C20.23 914 -68.54 914 -160 914 C-160 1002.77 -160 1091.54 -160 1183 C-355.36 1183 -550.72 1183 -752 1183 C-752 1147.36 -752 1111.72 -752 1075 C-592.61 1075 -433.22 1075 -269 1075 C-269 986.23 -269 897.46 -269 806 C-180.23 806 -91.46 806 0 806 C0 540.02 0 274.04 0 0 Z " fill="#292E38" transform="translate(12326,5769)"/>
<path d="M0 0 C106.92 0 213.84 0 324 0 C324 88.44 324 176.88 324 268 C465.57 268 607.14 268 753 268 C753 179.56 753 91.12 753 0 C877.41 0 1001.82 0 1130 0 C1130 88.44 1130 176.88 1130 268 C1200.95 268 1271.9 268 1345 268 C1345 303.97 1345 339.94 1345 377 C1238.41 377 1131.82 377 1022 377 C1022 288.23 1022 199.46 1022 108 C968.87 108 915.74 108 861 108 C861 196.77 861 285.54 861 377 C647.82 377 434.64 377 215 377 C215 288.23 215 199.46 215 108 C144.05 108 73.1 108 0 108 C0 72.36 0 36.72 0 0 Z " fill="#292E38" transform="translate(15667,4873)"/>
<path d="M0 0 C195.36 0 390.72 0 592 0 C592 550.11 592 1100.22 592 1667 C556.36 1667 520.72 1667 484 1667 C484 1152.86 484 638.72 484 109 C324.28 109 164.56 109 0 109 C0 73.03 0 37.06 0 0 Z " fill="#292E38" transform="translate(1836,2185)"/>
<path d="M0 0 C195.36 0 390.72 0 592 0 C592 35.97 592 71.94 592 109 C432.61 109 273.22 109 109 109 C109 161.8 109 214.6 109 269 C286.21 269 463.42 269 646 269 C646 393.41 646 517.82 646 646 C539.41 646 432.82 646 323 646 C323 610.36 323 574.72 323 538 C393.95 538 464.9 538 538 538 C538 485.2 538 432.4 538 378 C360.46 378 182.92 378 0 378 C0 253.26 0 128.52 0 0 Z " fill="#292E38" transform="translate(5007,2991)"/>
<path d="M0 0 C124.41 0 248.82 0 377 0 C377 106.59 377 213.18 377 323 C341.03 323 305.06 323 268 323 C268 252.05 268 181.1 268 108 C215.2 108 162.4 108 108 108 C108 196.77 108 285.54 108 377 C19.23 377 -69.54 377 -161 377 C-161 429.8 -161 482.6 -161 537 C-1.28 537 158.44 537 323 537 C323 572.97 323 608.94 323 646 C127.64 646 -67.72 646 -269 646 C-269 521.26 -269 396.52 -269 268 C-180.23 268 -91.46 268 0 268 C0 179.56 0 91.12 0 0 Z " fill="#292E38" transform="translate(4470,2723)"/>
<path d="M0 0 C35.64 0 71.28 0 108 0 C108 159.72 108 319.44 108 484 C196.77 484 285.54 484 377 484 C377 697.18 377 910.36 377 1130 C252.59 1130 128.18 1130 0 1130 C0 1023.08 0 916.16 0 806 C35.64 806 71.28 806 108 806 C108 876.95 108 947.9 108 1021 C161.13 1021 214.26 1021 269 1021 C269 879.43 269 737.86 269 592 C180.23 592 91.46 592 0 592 C0 396.64 0 201.28 0 0 Z " fill="#292E38" transform="translate(4201,5195)"/>
<path d="M0 0 C195.36 0 390.72 0 592 0 C592 124.41 592 248.82 592 377 C290.05 377 -11.9 377 -323 377 C-323 270.41 -323 163.82 -323 54 C-287.03 54 -251.06 54 -214 54 C-214 124.95 -214 195.9 -214 269 C16.34 269 246.68 269 484 269 C484 215.87 484 162.74 484 108 C324.28 108 164.56 108 0 108 C0 72.36 0 36.72 0 0 Z " fill="#292E38" transform="translate(5061,4604)"/>
<path d="M0 0 C106.92 0 213.84 0 324 0 C324 35.64 324 71.28 324 108 C253.05 108 182.1 108 109 108 C109 249.57 109 391.14 109 537 C197.77 537 286.54 537 378 537 C378 661.74 378 786.48 378 915 C271.08 915 164.16 915 54 915 C54 879.03 54 843.06 54 806 C124.95 806 195.9 806 269 806 C269 753.2 269 700.4 269 646 C180.23 646 91.46 646 0 646 C0 432.82 0 219.64 0 0 Z " fill="#E9BC08" transform="translate(19734,6754)"/>
<path d="M0 0 C213.18 0 426.36 0 646 0 C646 124.74 646 249.48 646 378 C539.41 378 432.82 378 323 378 C323 342.03 323 306.06 323 269 C393.95 269 464.9 269 538 269 C538 216.2 538 163.4 538 109 C396.43 109 254.86 109 109 109 C109 197.77 109 286.54 109 378 C2.08 378 -104.84 378 -215 378 C-215 342.03 -215 306.06 -215 269 C-144.05 269 -73.1 269 0 269 C0 180.23 0 91.46 0 0 Z " fill="#292E38" transform="translate(1782,7291)"/>
<path d="M0 0 C213.18 0 426.36 0 646 0 C646 88.77 646 177.54 646 269 C716.95 269 787.9 269 861 269 C861 304.97 861 340.94 861 378 C754.41 378 647.82 378 538 378 C538 289.23 538 200.46 538 109 C396.43 109 254.86 109 109 109 C109 161.8 109 214.6 109 269 C179.95 269 250.9 269 324 269 C324 304.97 324 340.94 324 378 C217.08 378 110.16 378 0 378 C0 253.26 0 128.52 0 0 Z " fill="#292E38" transform="translate(16957,4066)"/>
<path d="M0 0 C213.18 0 426.36 0 646 0 C646 88.44 646 176.88 646 268 C698.8 268 751.6 268 806 268 C806 197.05 806 126.1 806 53 C841.97 53 877.94 53 915 53 C915 159.92 915 266.84 915 377 C790.26 377 665.52 377 537 377 C537 288.23 537 199.46 537 108 C395.43 108 253.86 108 108 108 C108 178.95 108 249.9 108 323 C72.36 323 36.72 323 0 323 C0 216.41 0 109.82 0 0 Z " fill="#292E38" transform="translate(9370,1469)"/>
<path d="M0 0 C195.69 0 391.38 0 593 0 C593 124.74 593 249.48 593 378 C397.31 378 201.62 378 0 378 C0 342.03 0 306.06 0 269 C159.72 269 319.44 269 484 269 C484 216.2 484 163.4 484 109 C324.28 109 164.56 109 0 109 C0 73.03 0 37.06 0 0 Z " fill="#292E38" transform="translate(3448,5141)"/>
<path d="M0 0 C106.92 0 213.84 0 324 0 C324 88.77 324 177.54 324 269 C376.8 269 429.6 269 484 269 C484 180.23 484 91.46 484 0 C590.59 0 697.18 0 807 0 C807 35.97 807 71.94 807 109 C736.05 109 665.1 109 592 109 C592 197.77 592 286.54 592 378 C467.59 378 343.18 378 215 378 C215 289.23 215 200.46 215 109 C144.05 109 73.1 109 0 109 C0 73.03 0 37.06 0 0 Z " fill="#292E38" transform="translate(11036,7112)"/>
<path d="M0 0 C106.92 0 213.84 0 324 0 C324 35.97 324 71.94 324 109 C253.05 109 182.1 109 109 109 C109 161.8 109 214.6 109 269 C197.77 269 286.54 269 378 269 C378 393.41 378 517.82 378 646 C271.08 646 164.16 646 54 646 C54 610.36 54 574.72 54 538 C124.95 538 195.9 538 269 538 C269 484.87 269 431.74 269 377 C180.23 377 91.46 377 0 377 C0 252.59 0 128.18 0 0 Z " fill="#292E38" transform="translate(5813,3260)"/>
<path d="M0 0 C35.97 0 71.94 0 109 0 C109 106.92 109 213.84 109 324 C20.23 324 -68.54 324 -160 324 C-160 412.44 -160 500.88 -160 592 C-284.41 592 -408.82 592 -537 592 C-537 485.41 -537 378.82 -537 269 C-501.36 269 -465.72 269 -429 269 C-429 339.95 -429 410.9 -429 484 C-376.2 484 -323.4 484 -269 484 C-269 395.23 -269 306.46 -269 215 C-180.23 215 -91.46 215 0 215 C0 144.05 0 73.1 0 0 Z " fill="#292E38" transform="translate(9101,1791)"/>
<path d="M0 0 C284.13 0 568.26 0 861 0 C861 35.64 861 71.28 861 108 C612.84 108 364.68 108 109 108 C109 267.72 109 427.44 109 592 C73.03 592 37.06 592 0 592 C0 396.64 0 201.28 0 0 Z " fill="#292E38" transform="translate(438,1648)"/>
<path d="M0 0 C35.64 0 71.28 0 108 0 C108 336.93 108 673.86 108 1021 C178.95 1021 249.9 1021 323 1021 C323 1056.97 323 1092.94 323 1130 C216.41 1130 109.82 1130 0 1130 C0 757.1 0 384.2 0 0 Z " fill="#292E38" transform="translate(15614,6539)"/>
<path d="M0 0 C35.64 0 71.28 0 108 0 C108 70.95 108 141.9 108 215 C445.26 215 782.52 215 1130 215 C1130 250.64 1130 286.28 1130 323 C757.1 323 384.2 323 0 323 C0 216.41 0 109.82 0 0 Z " fill="#292E38" transform="translate(8295,2329)"/>
<path d="M0 0 C106.92 0 213.84 0 324 0 C324 35.64 324 71.28 324 108 C253.05 108 182.1 108 109 108 C109 356.49 109 604.98 109 861 C73.03 861 37.06 861 0 861 C0 576.87 0 292.74 0 0 Z " fill="#292E38" transform="translate(5007,6754)"/>
<path d="M0 0 C35.97 0 71.94 0 109 0 C109 106.59 109 213.18 109 323 C20.23 323 -68.54 323 -160 323 C-160 411.77 -160 500.54 -160 592 C-266.92 592 -373.84 592 -484 592 C-484 556.36 -484 520.72 -484 484 C-413.05 484 -342.1 484 -269 484 C-269 395.23 -269 306.46 -269 215 C-180.23 215 -91.46 215 0 215 C0 144.05 0 73.1 0 0 Z " fill="#292E38" transform="translate(15076,4389)"/>
<path d="M0 0 C195.69 0 391.38 0 593 0 C593 88.44 593 176.88 593 268 C663.95 268 734.9 268 808 268 C808 303.97 808 339.94 808 377 C701.08 377 594.16 377 484 377 C484 288.23 484 199.46 484 108 C324.28 108 164.56 108 0 108 C0 72.36 0 36.72 0 0 Z " fill="#292E38" transform="translate(13517,1648)"/>
<path d="M0 0 C106.92 0 213.84 0 324 0 C324 35.64 324 71.28 324 108 C253.05 108 182.1 108 109 108 C109 196.77 109 285.54 109 377 C-15.74 377 -140.48 377 -269 377 C-269 270.41 -269 163.82 -269 54 C-233.03 54 -197.06 54 -160 54 C-160 124.95 -160 195.9 -160 269 C-107.2 269 -54.4 269 0 269 C0 180.23 0 91.46 0 0 Z " fill="#292E38" transform="translate(18301,1379)"/>
<path d="M0 0 C35.97 0 71.94 0 109 0 C109 195.36 109 390.72 109 592 C-15.41 592 -139.82 592 -268 592 C-268 485.41 -268 378.82 -268 269 C-232.36 269 -196.72 269 -160 269 C-160 339.95 -160 410.9 -160 484 C-107.2 484 -54.4 484 0 484 C0 324.28 0 164.56 0 0 Z " fill="#292E38" transform="translate(10982,3941)"/>
<path d="M0 0 C106.59 0 213.18 0 323 0 C323 35.97 323 71.94 323 109 C252.05 109 181.1 109 108 109 C108 197.44 108 285.88 108 377 C-16.41 377 -140.82 377 -269 377 C-269 270.41 -269 163.82 -269 54 C-233.03 54 -197.06 54 -160 54 C-160 124.95 -160 195.9 -160 269 C-107.2 269 -54.4 269 0 269 C0 180.23 0 91.46 0 0 Z " fill="#292E38" transform="translate(16420,5410)"/>
<path d="M0 0 C35.64 0 71.28 0 108 0 C108 70.95 108 141.9 108 215 C196.77 215 285.54 215 377 215 C377 339.41 377 463.82 377 592 C270.41 592 163.82 592 54 592 C54 556.36 54 520.72 54 484 C124.95 484 195.9 484 269 484 C269 431.2 269 378.4 269 324 C180.23 324 91.46 324 0 324 C0 217.08 0 110.16 0 0 Z " fill="#292E38" transform="translate(10445,5016)"/>
<path d="M0 0 C106.59 0 213.18 0 323 0 C323 88.77 323 177.54 323 269 C375.8 269 428.6 269 483 269 C483 198.05 483 127.1 483 54 C518.97 54 554.94 54 592 54 C592 160.59 592 267.18 592 377 C467.59 377 343.18 377 215 377 C215 288.23 215 199.46 215 108 C144.05 108 73.1 108 0 108 C0 72.36 0 36.72 0 0 Z " fill="#292E38" transform="translate(7274,6575)"/>
<path d="M0 0 C35.97 0 71.94 0 109 0 C109 70.95 109 141.9 109 215 C161.8 215 214.6 215 269 215 C269 144.05 269 73.1 269 0 C304.97 0 340.94 0 378 0 C378 106.92 378 213.84 378 324 C253.26 324 128.52 324 0 324 C0 217.08 0 110.16 0 0 Z " fill="#292E38" transform="translate(8832,6897)"/>
<path d="M0 0 C106.92 0 213.84 0 324 0 C324 124.74 324 249.48 324 378 C217.08 378 110.16 378 0 378 C0 342.03 0 306.06 0 269 C70.95 269 141.9 269 215 269 C215 216.2 215 163.4 215 109 C144.05 109 73.1 109 0 109 C0 73.03 0 37.06 0 0 Z " fill="#292E38" transform="translate(13517,1916)"/>
<path d="M0 0 C124.41 0 248.82 0 377 0 C377 106.92 377 213.84 377 324 C341.36 324 305.72 324 269 324 C269 253.05 269 182.1 269 109 C216.2 109 163.4 109 109 109 C109 179.95 109 250.9 109 324 C73.03 324 37.06 324 0 324 C0 217.08 0 110.16 0 0 Z " fill="#292E38" transform="translate(8026,7112)"/>
<path d="M0 0 C124.41 0 248.82 0 377 0 C377 106.92 377 213.84 377 324 C341.36 324 305.72 324 269 324 C269 253.05 269 182.1 269 109 C216.2 109 163.4 109 109 109 C109 179.95 109 250.9 109 324 C73.03 324 37.06 324 0 324 C0 217.08 0 110.16 0 0 Z " fill="#292E38" transform="translate(14001,6485)"/>
<path d="M0 0 C124.41 0 248.82 0 377 0 C377 106.92 377 213.84 377 324 C341.03 324 305.06 324 268 324 C268 253.05 268 182.1 268 109 C215.2 109 162.4 109 108 109 C108 179.95 108 250.9 108 324 C72.36 324 36.72 324 0 324 C0 217.08 0 110.16 0 0 Z " fill="#292E38" transform="translate(5545,5141)"/>
<path d="M0 0 C35.97 0 71.94 0 109 0 C109 70.95 109 141.9 109 215 C161.8 215 214.6 215 269 215 C269 144.05 269 73.1 269 0 C304.64 0 340.28 0 377 0 C377 106.92 377 213.84 377 324 C252.59 324 128.18 324 0 324 C0 217.08 0 110.16 0 0 Z " fill="#292E38" transform="translate(707,4120)"/>
<path d="M0 0 C35.97 0 71.94 0 109 0 C109 70.95 109 141.9 109 215 C161.8 215 214.6 215 269 215 C269 144.05 269 73.1 269 0 C304.64 0 340.28 0 377 0 C377 106.92 377 213.84 377 324 C252.59 324 128.18 324 0 324 C0 217.08 0 110.16 0 0 Z " fill="#292E38" transform="translate(1782,3045)"/>
<path d="M0 0 C124.41 0 248.82 0 377 0 C377 106.92 377 213.84 377 324 C341.36 324 305.72 324 269 324 C269 253.05 269 182.1 269 109 C215.87 109 162.74 109 108 109 C108 179.95 108 250.9 108 324 C72.36 324 36.72 324 0 324 C0 217.08 0 110.16 0 0 Z " fill="#E9BC08" transform="translate(20272,7291)"/>
<path d="M0 0 C124.41 0 248.82 0 377 0 C377 106.92 377 213.84 377 324 C341.36 324 305.72 324 269 324 C269 253.05 269 182.1 269 109 C215.87 109 162.74 109 108 109 C108 179.95 108 250.9 108 324 C72.36 324 36.72 324 0 324 C0 217.08 0 110.16 0 0 Z " fill="#292E38" transform="translate(8295,2812)"/>
<path d="M0 0 C35.64 0 71.28 0 108 0 C108 159.72 108 319.44 108 484 C178.95 484 249.9 484 323 484 C323 519.97 323 555.94 323 593 C216.41 593 109.82 593 0 593 C0 397.31 0 201.62 0 0 Z " fill="#292E38" transform="translate(8564,5822)"/>
<path d="M0 0 C35.97 0 71.94 0 109 0 C109 70.95 109 141.9 109 215 C268.72 215 428.44 215 593 215 C593 250.64 593 286.28 593 323 C397.31 323 201.62 323 0 323 C0 216.41 0 109.82 0 0 Z " fill="#292E38" transform="translate(438,5733)"/>
<path d="M0 0 C35.64 0 71.28 0 108 0 C108 70.95 108 141.9 108 215 C161.13 215 214.26 215 269 215 C269 144.05 269 73.1 269 0 C304.64 0 340.28 0 377 0 C377 106.59 377 213.18 377 323 C252.59 323 128.18 323 0 323 C0 216.41 0 109.82 0 0 Z " fill="#292E38" transform="translate(2051,6808)"/>
<path d="M0 0 C35.64 0 71.28 0 108 0 C108 70.95 108 141.9 108 215 C196.77 215 285.54 215 377 215 C377 321.59 377 428.18 377 538 C341.36 538 305.72 538 269 538 C269 467.05 269 396.1 269 323 C180.23 323 91.46 323 0 323 C0 216.41 0 109.82 0 0 Z " fill="#292E38" transform="translate(14270,2508)"/>
<path d="M0 0 C35.97 0 71.94 0 109 0 C109 177.87 109 355.74 109 539 C73.03 539 37.06 539 0 539 C0 361.13 0 183.26 0 0 Z " fill="#292E38" transform="translate(2588,6270)"/>
<path d="M0 0 C35.97 0 71.94 0 109 0 C109 177.87 109 355.74 109 539 C73.03 539 37.06 539 0 539 C0 361.13 0 183.26 0 0 Z " fill="#292E38" transform="translate(6951,5822)"/>
<path d="M0 0 C35.97 0 71.94 0 109 0 C109 70.95 109 141.9 109 215 C179.95 215 250.9 215 324 215 C324 250.97 324 286.94 324 324 C217.08 324 110.16 324 0 324 C0 217.08 0 110.16 0 0 Z " fill="#292E38" transform="translate(16151,3851)"/>
<path d="M0 0 C35.97 0 71.94 0 109 0 C109 177.87 109 355.74 109 539 C73.03 539 37.06 539 0 539 C0 361.13 0 183.26 0 0 Z " fill="#292E38" transform="translate(438,3851)"/>
<path d="M0 0 C106.92 0 213.84 0 324 0 C324 35.97 324 71.94 324 109 C253.05 109 182.1 109 109 109 C109 179.95 109 250.9 109 324 C73.03 324 37.06 324 0 324 C0 217.08 0 110.16 0 0 Z " fill="#292E38" transform="translate(11251,2006)"/>
<path d="M0 0 C35.97 0 71.94 0 109 0 C109 177.54 109 355.08 109 538 C73.03 538 37.06 538 0 538 C0 360.46 0 182.92 0 0 Z " fill="#292E38" transform="translate(14807,2239)"/>
<path d="M0 0 C35.64 0 71.28 0 108 0 C108 106.92 108 213.84 108 324 C1.41 324 -105.18 324 -215 324 C-215 288.03 -215 252.06 -215 215 C-144.05 215 -73.1 215 0 215 C0 144.05 0 73.1 0 0 Z " fill="#292E38" transform="translate(17495,7345)"/>
<path d="M0 0 C106.92 0 213.84 0 324 0 C324 35.64 324 71.28 324 108 C253.05 108 182.1 108 109 108 C109 178.95 109 249.9 109 323 C73.03 323 37.06 323 0 323 C0 216.41 0 109.82 0 0 Z " fill="#292E38" transform="translate(16151,4604)"/>
<path d="M0 0 C35.64 0 71.28 0 108 0 C108 70.95 108 141.9 108 215 C178.95 215 249.9 215 323 215 C323 250.97 323 286.94 323 324 C216.41 324 109.82 324 0 324 C0 217.08 0 110.16 0 0 Z " fill="#292E38" transform="translate(5276,1701)"/>
<path d="M0 0 C35.64 0 71.28 0 108 0 C108 177.87 108 355.74 108 539 C72.36 539 36.72 539 0 539 C0 361.13 0 183.26 0 0 Z " fill="#292E38" transform="translate(18839,1701)"/>
<path d="M0 0 C89.1 0 178.2 0 270 0 C270 35.97 270 71.94 270 109 C180.9 109 91.8 109 0 109 C0 73.03 0 37.06 0 0 Z " fill="#292E38" transform="translate(7542,7112)"/>
<path d="M0 0 C35.97 0 71.94 0 109 0 C109 89.1 109 178.2 109 270 C73.03 270 37.06 270 0 270 C0 180.9 0 91.8 0 0 Z " fill="#292E38" transform="translate(2588,7076)"/>
<path d="M0 0 C89.1 0 178.2 0 270 0 C270 35.97 270 71.94 270 109 C180.9 109 91.8 109 0 109 C0 73.03 0 37.06 0 0 Z " fill="#292E38" transform="translate(15936,6485)"/>
<path d="M0 0 C35.97 0 71.94 0 109 0 C109 89.1 109 178.2 109 270 C73.03 270 37.06 270 0 270 C0 180.9 0 91.8 0 0 Z " fill="#292E38" transform="translate(7757,5822)"/>
<path d="M0 0 C89.1 0 178.2 0 270 0 C270 35.97 270 71.94 270 109 C180.9 109 91.8 109 0 109 C0 73.03 0 37.06 0 0 Z " fill="#292E38" transform="translate(1298,5141)"/>
<path d="M0 0 C35.97 0 71.94 0 109 0 C109 89.1 109 178.2 109 270 C73.03 270 37.06 270 0 270 C0 180.9 0 91.8 0 0 Z " fill="#292E38" transform="translate(1513,3851)"/>
<path d="M0 0 C89.1 0 178.2 0 270 0 C270 35.97 270 71.94 270 109 C180.9 109 91.8 109 0 109 C0 73.03 0 37.06 0 0 Z " fill="#292E38" transform="translate(13786,3260)"/>
<path d="M0 0 C89.1 0 178.2 0 270 0 C270 35.97 270 71.94 270 109 C180.9 109 91.8 109 0 109 C0 73.03 0 37.06 0 0 Z " fill="#292E38" transform="translate(15936,2185)"/>
<path d="M0 0 C35.97 0 71.94 0 109 0 C109 89.1 109 178.2 109 270 C73.03 270 37.06 270 0 270 C0 180.9 0 91.8 0 0 Z " fill="#292E38" transform="translate(12057,2060)"/>
<path d="M0 0 C35.97 0 71.94 0 109 0 C109 89.1 109 178.2 109 270 C73.03 270 37.06 270 0 270 C0 180.9 0 91.8 0 0 Z " fill="#292E38" transform="translate(10176,2060)"/>
<path d="M0 0 C89.1 0 178.2 0 270 0 C270 35.97 270 71.94 270 109 C180.9 109 91.8 109 0 109 C0 73.03 0 37.06 0 0 Z " fill="#292E38" transform="translate(7542,2006)"/>
<path d="M0 0 C35.97 0 71.94 0 109 0 C109 89.1 109 178.2 109 270 C73.03 270 37.06 270 0 270 C0 180.9 0 91.8 0 0 Z " fill="#292E38" transform="translate(6082,1970)"/>
<path d="M0 0 C35.97 0 71.94 0 109 0 C109 89.1 109 178.2 109 270 C73.03 270 37.06 270 0 270 C0 180.9 0 91.8 0 0 Z " fill="#292E38" transform="translate(8832,1522)"/>
<path d="M0 0 C88.77 0 177.54 0 269 0 C269 35.97 269 71.94 269 109 C180.23 109 91.46 109 0 109 C0 73.03 0 37.06 0 0 Z " fill="#292E38" transform="translate(4255,6485)"/>
<path d="M0 0 C88.77 0 177.54 0 269 0 C269 35.97 269 71.94 269 109 C180.23 109 91.46 109 0 109 C0 73.03 0 37.06 0 0 Z " fill="#292E38" transform="translate(9424,6037)"/>
<path d="M0 0 C88.77 0 177.54 0 269 0 C269 35.97 269 71.94 269 109 C180.23 109 91.46 109 0 109 C0 73.03 0 37.06 0 0 Z " fill="#292E38" transform="translate(7274,6037)"/>
<path d="M0 0 C35.97 0 71.94 0 109 0 C109 88.77 109 177.54 109 269 C73.03 269 37.06 269 0 269 C0 180.23 0 91.46 0 0 Z " fill="#292E38" transform="translate(4738,5733)"/>
<path d="M0 0 C88.77 0 177.54 0 269 0 C269 35.97 269 71.94 269 109 C180.23 109 91.46 109 0 109 C0 73.03 0 37.06 0 0 Z " fill="#292E38" transform="translate(16474,2185)"/>
<path d="M0 0 C89.1 0 178.2 0 270 0 C270 35.64 270 71.28 270 108 C180.9 108 91.8 108 0 108 C0 72.36 0 36.72 0 0 Z " fill="#292E38" transform="translate(15130,7023)"/>
<path d="M0 0 C35.64 0 71.28 0 108 0 C108 89.1 108 178.2 108 270 C72.36 270 36.72 270 0 270 C0 180.9 0 91.8 0 0 Z " fill="#292E38" transform="translate(8564,6897)"/>
<path d="M0 0 C89.1 0 178.2 0 270 0 C270 35.64 270 71.28 270 108 C180.9 108 91.8 108 0 108 C0 72.36 0 36.72 0 0 Z " fill="#292E38" transform="translate(8080,6844)"/>
<path d="M0 0 C89.1 0 178.2 0 270 0 C270 35.64 270 71.28 270 108 C180.9 108 91.8 108 0 108 C0 72.36 0 36.72 0 0 Z " fill="#E9BC08" transform="translate(20594,6754)"/>
<path d="M0 0 C89.1 0 178.2 0 270 0 C270 35.64 270 71.28 270 108 C180.9 108 91.8 108 0 108 C0 72.36 0 36.72 0 0 Z " fill="#292E38" transform="translate(17817,6754)"/>
<path d="M0 0 C89.1 0 178.2 0 270 0 C270 35.64 270 71.28 270 108 C180.9 108 91.8 108 0 108 C0 72.36 0 36.72 0 0 Z " fill="#292E38" transform="translate(17011,6754)"/>
<path d="M0 0 C89.1 0 178.2 0 270 0 C270 35.64 270 71.28 270 108 C180.9 108 91.8 108 0 108 C0 72.36 0 36.72 0 0 Z " fill="#292E38" transform="translate(15130,5948)"/>
<path d="M0 0 C89.1 0 178.2 0 270 0 C270 35.64 270 71.28 270 108 C180.9 108 91.8 108 0 108 C0 72.36 0 36.72 0 0 Z " fill="#292E38" transform="translate(1298,5948)"/>
<path d="M0 0 C35.64 0 71.28 0 108 0 C108 89.1 108 178.2 108 270 C72.36 270 36.72 270 0 270 C0 180.9 0 91.8 0 0 Z " fill="#292E38" transform="translate(11789,5822)"/>
<path d="M0 0 C89.1 0 178.2 0 270 0 C270 35.64 270 71.28 270 108 C180.9 108 91.8 108 0 108 C0 72.36 0 36.72 0 0 Z " fill="#292E38" transform="translate(16205,2723)"/>
<path d="M0 0 C89.1 0 178.2 0 270 0 C270 35.64 270 71.28 270 108 C180.9 108 91.8 108 0 108 C0 72.36 0 36.72 0 0 Z " fill="#292E38" transform="translate(7811,2544)"/>
<path d="M0 0 C35.64 0 71.28 0 108 0 C108 89.1 108 178.2 108 270 C72.36 270 36.72 270 0 270 C0 180.9 0 91.8 0 0 Z " fill="#292E38" transform="translate(4201,1970)"/>
<path d="M0 0 C35.64 0 71.28 0 108 0 C108 89.1 108 178.2 108 270 C72.36 270 36.72 270 0 270 C0 180.9 0 91.8 0 0 Z " fill="#292E38" transform="translate(12595,1791)"/>
<path d="M0 0 C89.1 0 178.2 0 270 0 C270 35.64 270 71.28 270 108 C180.9 108 91.8 108 0 108 C0 72.36 0 36.72 0 0 Z " fill="#292E38" transform="translate(13786,1379)"/>
<path d="M0 0 C89.1 0 178.2 0 270 0 C270 35.64 270 71.28 270 108 C180.9 108 91.8 108 0 108 C0 72.36 0 36.72 0 0 Z " fill="#292E38" transform="translate(5867,1379)"/>
<path d="M0 0 C35.64 0 71.28 0 108 0 C108 88.77 108 177.54 108 269 C72.36 269 36.72 269 0 269 C0 180.23 0 91.46 0 0 Z " fill="#292E38" transform="translate(10445,3404)"/>
<path d="M0 0 C35.64 0 71.28 0 108 0 C108 88.77 108 177.54 108 269 C72.36 269 36.72 269 0 269 C0 180.23 0 91.46 0 0 Z " fill="#292E38" transform="translate(4201,2508)"/>
<path d="M0 0 C35.64 0 71.28 0 108 0 C108 88.77 108 177.54 108 269 C72.36 269 36.72 269 0 269 C0 180.23 0 91.46 0 0 Z " fill="#292E38" transform="translate(2051,2508)"/>
</svg>
