<?xml version="1.0" encoding="UTF-8"?>
<svg version="1.1" xmlns="http://www.w3.org/2000/svg" width="1024" height="1024">
<path d="M0 0 C1.89380402 0.00273422 1.89380402 0.00273422 3.8258667 0.00552368 C88.18216094 0.20969409 170.48606296 20.73112928 243.5625 63.3125 C244.43583984 63.8168457 245.30917969 64.32119141 246.20898438 64.84082031 C269.08230259 78.07728979 290.58069357 93.53756467 310.6015625 110.78515625 C313.29576751 113.08482728 316.03917481 115.29716362 318.8125 117.5 C330.26132887 126.84463022 340.7247982 137.39530234 351.1875 147.8125 C352.28783569 148.90582642 352.28783569 148.90582642 353.41040039 150.02124023 C357.99874661 154.62326887 362.3298688 159.38339153 366.5625 164.3125 C367.60802023 165.50379452 368.65486492 166.69392815 369.703125 167.8828125 C376.4467653 175.57529594 382.96529474 183.39252065 389.18554688 191.51464844 C390.11336123 192.7260713 391.04442373 193.93501251 391.97851562 195.14160156 C405.51292825 212.64110259 417.49688221 231.16734554 428.5625 250.3125 C429.02221191 251.10414551 429.48192383 251.89579102 429.95556641 252.71142578 C442.75035563 274.89238887 452.84739009 298.26196714 461.5625 322.3125 C461.9126416 323.26705078 462.2627832 324.22160156 462.62353516 325.20507812 C472.59371322 352.65048461 479.16807545 381.47772854 483.5625 410.3125 C483.78993896 411.80064209 483.78993896 411.80064209 484.02197266 413.31884766 C487.70591204 438.03969345 488.95042533 462.77615582 488.875 487.75 C488.87226578 489.64380402 488.87226578 489.64380402 488.86947632 491.5758667 C488.66530591 575.93216094 468.14387072 658.23606296 425.5625 731.3125 C425.0581543 732.18583984 424.55380859 733.05917969 424.03417969 733.95898438 C410.79771021 756.83230259 395.33743533 778.33069357 378.08984375 798.3515625 C375.79017272 801.04576751 373.57783638 803.78917481 371.375 806.5625 C361.87892348 818.19309284 351.14731731 828.8090896 340.5625 839.4375 C339.78600098 840.21867188 339.00950195 840.99984375 338.20947266 841.8046875 C334.03751342 845.96499071 329.77872517 849.95833584 325.31347656 853.80224609 C323.14299317 855.67433341 321.04295489 857.6178253 318.9375 859.5625 C313.35116803 864.59699066 307.47082432 869.19215472 301.52246094 873.78515625 C299.50239036 875.35934179 297.50390292 876.95804157 295.5078125 878.5625 C278.85253099 891.86761415 261.05599761 903.71414983 242.5625 914.3125 C241.93408203 914.67939941 241.30566406 915.04629883 240.65820312 915.42431641 C180.8069974 950.30809438 113.37863862 969.57255578 44.5625 975.3125 C43.00257324 975.45389404 43.00257324 975.45389404 41.41113281 975.59814453 C28.23667856 976.65232717 15.02072464 976.55629189 1.8125 976.5625 C0.52215851 976.56317474 -0.76818298 976.56384949 -2.09762573 976.56454468 C-22.70812701 976.54745987 -42.98937786 975.91840889 -63.4375 973.3125 C-64.11504333 973.22764343 -64.79258667 973.14278687 -65.49066162 973.05535889 C-94.69251335 969.38049036 -123.37859287 963.26835802 -151.4375 954.3125 C-152.45021973 953.99087891 -153.46293945 953.66925781 -154.50634766 953.33789062 C-211.56714946 934.97757662 -263.54712762 904.6852016 -309.4375 866.3125 C-310.02837402 865.82072266 -310.61924805 865.32894531 -311.22802734 864.82226562 C-324.60120575 853.65869847 -337.16092177 841.66375866 -349.5 829.375 C-350.67792114 828.20408813 -350.67792114 828.20408813 -351.87963867 827.00952148 C-356.60464695 822.27136148 -361.08349512 817.39162993 -365.4375 812.3125 C-366.48292 811.12111752 -367.52976643 809.930985 -368.578125 808.7421875 C-375.3217653 801.04970406 -381.84029474 793.23247935 -388.06054688 785.11035156 C-388.98836123 783.8989287 -389.91942373 782.68998749 -390.85351562 781.48339844 C-404.38792825 763.98389741 -416.37188221 745.45765446 -427.4375 726.3125 C-428.12706787 725.12503174 -428.12706787 725.12503174 -428.83056641 723.91357422 C-441.62535563 701.73261113 -451.72239009 678.36303286 -460.4375 654.3125 C-460.7876416 653.35794922 -461.1377832 652.40339844 -461.49853516 651.41992188 C-471.46871322 623.97451539 -478.04307545 595.14727146 -482.4375 566.3125 C-482.66493896 564.82435791 -482.66493896 564.82435791 -482.89697266 563.30615234 C-486.58091204 538.58530655 -487.82542533 513.84884418 -487.75 488.875 C-487.74817719 487.61246399 -487.74635437 486.34992798 -487.74447632 485.0491333 C-487.54030591 400.69283906 -467.01887072 318.38893704 -424.4375 245.3125 C-423.9331543 244.43916016 -423.42880859 243.56582031 -422.90917969 242.66601562 C-400.50535804 203.95102878 -371.54868942 169.43481088 -340.0625 137.8125 C-339.32555908 137.07088623 -338.58861816 136.32927246 -337.8293457 135.56518555 C-333.19359563 130.94302545 -328.40445579 126.57441135 -323.4375 122.3125 C-322.25797276 121.27864501 -321.07955746 120.24351981 -319.90234375 119.20703125 C-294.34127284 96.82448328 -266.83047275 77.35148947 -237.4375 60.3125 C-236.64150391 59.8498877 -235.84550781 59.38727539 -235.02539062 58.91064453 C-212.84879506 46.11959832 -189.48263227 36.02565292 -165.4375 27.3125 C-164.48294922 26.9623584 -163.52839844 26.6122168 -162.54492188 26.25146484 C-135.09951539 16.28128678 -106.27227146 9.70692455 -77.4375 5.3125 C-76.44540527 5.16087402 -75.45331055 5.00924805 -74.43115234 4.85302734 C-49.71030655 1.16908796 -24.97384418 -0.07542533 0 0 Z " fill="#828282" transform="translate(511.4375,23.6875)"/>
<path d="M0 0 C1.29679688 0.19464844 2.59359375 0.38929688 3.9296875 0.58984375 C29.70993889 4.68774234 52.36209314 17.09505866 72 34 C72.92941406 34.7940625 73.85882813 35.588125 74.81640625 36.40625 C81.28908942 42.09572951 86.79958663 48.13545435 92 55 C92.4007373 55.52577637 92.80147461 56.05155273 93.21435547 56.59326172 C100.02145234 65.59053735 105.77840615 75.00487812 111 85 C111.60585938 86.15628906 112.21171875 87.31257813 112.8359375 88.50390625 C130.57595273 124.42543031 134 163.37591006 134 203 C44.57 203 -44.86 203 -137 203 C-135.46893466 239.74556827 -130.55343342 272.07934584 -102.8125 298.125 C-80.51577859 317.02118158 -54.00885498 324.66725521 -25.1875 324.4375 C-24.35238892 324.43379395 -23.51727783 324.43008789 -22.65686035 324.42626953 C1.3105266 324.27484584 23.13891888 319.85772426 42 304 C42.87140625 303.278125 43.7428125 302.55625 44.640625 301.8125 C58.41859317 289.93209631 63.94559958 277.69040147 69 260 C88.47 260 107.94 260 128 260 C124.20591016 294.14680857 105.59156533 323.5502065 79.25512695 345.02294922 C65.49020299 355.79736252 50.35744191 363.05648009 34 369 C32.93007813 369.40992188 31.86015625 369.81984375 30.7578125 370.2421875 C27.5285525 371.37111579 24.33186242 372.2184951 21 373 C20.23896973 373.18046875 19.47793945 373.3609375 18.69384766 373.546875 C-10.71526292 380.13540611 -46.59099123 380.84599601 -75.69726562 372.640625 C-77.8257428 372.04847868 -79.94888917 371.55261425 -82.109375 371.09375 C-117.73216632 362.97716464 -150.14344432 337.26213972 -169.43652344 306.7175293 C-185.19210471 280.93535847 -193.37668202 252.7011045 -198 223 C-198.18111328 221.87295654 -198.36222656 220.74591309 -198.54882812 219.5847168 C-199.90140827 211.05235318 -200.69550284 202.62741944 -201 194 C-201.05099854 192.72648682 -201.05099854 192.72648682 -201.10302734 191.42724609 C-201.98217853 166.49416132 -198.76583742 141.72894768 -191 118 C-190.76023438 117.26652344 -190.52046875 116.53304687 -190.2734375 115.77734375 C-186.7925204 105.39197021 -182.15740169 95.64838378 -177 86 C-176.67241699 85.38350586 -176.34483398 84.76701172 -176.00732422 84.13183594 C-164.26327972 62.23536632 -147.85344715 43.77477886 -128 29 C-127.42781738 28.57283691 -126.85563477 28.14567383 -126.26611328 27.70556641 C-103.57255652 11.03580926 -77.72302177 2.2843758 -50 -1 C-49.28835693 -1.09498779 -48.57671387 -1.18997559 -47.84350586 -1.2878418 C-32.0902381 -3.28024497 -15.62483622 -2.63731312 0 0 Z " fill="#FEFEFE" transform="translate(355,324)"/>
<path d="M0 0 C10.18693058 -0.4658609 20.37128726 -0.81992294 30.56674385 -1.03624344 C35.30307155 -1.1401488 40.03206016 -1.28064195 44.76416016 -1.50878906 C75.17311303 -2.93646408 75.17311303 -2.93646408 83.00512695 1.82818604 C87.71117823 6.32539815 90.45019093 11.56213109 92.92791748 17.5222168 C94.40713653 20.94096866 96.34583344 23.68576135 98.515625 26.7109375 C99.76232634 28.59769788 101.00716999 30.48568729 102.25 32.375 C107.13381657 39.7520843 112.10854865 47.01567806 117.3046875 54.17578125 C121.75049226 60.39956032 125.91137952 66.82583517 130.1171875 73.21289062 C133.31555292 78.0520175 136.56615641 82.82436815 140 87.5 C144.14878689 93.14912164 148.02110525 98.9597286 151.875 104.8125 C157.74256851 113.67417356 163.72019861 122.42565579 170 131 C178.57124698 120.39182138 186.5082412 109.36605725 194.14233398 98.06982422 C197.62784689 92.93683143 201.23806598 87.93338899 205 83 C209.96838341 76.4824328 214.61828042 69.78565799 219.21264648 63.00048828 C222.99576309 57.42745525 226.90052866 51.96670929 230.91088867 46.55566406 C234.81161812 41.2851321 238.59350353 35.93644989 242.36157227 30.57055664 C246.72938992 24.35985565 251.16967611 18.20324515 255.63623047 12.06323242 C256.14814941 11.35787354 256.66006836 10.65251465 257.1875 9.92578125 C257.63480469 9.31130127 258.08210938 8.69682129 258.54296875 8.0637207 C260.13877732 5.89681269 260.13877732 5.89681269 261.63238525 2.91358948 C264 0 264 0 267.32830811 -0.7215271 C268.66511666 -0.73884829 270.00260514 -0.72311532 271.33886719 -0.68115234 C272.43702003 -0.68246658 272.43702003 -0.68246658 273.55735779 -0.68380737 C275.97162468 -0.67963473 278.38309516 -0.63300597 280.796875 -0.5859375 C282.47266115 -0.57474401 284.14846697 -0.56620454 285.82427979 -0.56021118 C290.23067633 -0.53732435 294.6358823 -0.4784038 299.04180908 -0.4119873 C303.53942763 -0.35056077 308.03723896 -0.32319547 312.53515625 -0.29296875 C321.35729335 -0.22865927 330.1785476 -0.12628256 339 0 C334.65158659 7.68238974 334.65158659 7.68238974 332.0390625 10.953125 C331.21946045 11.9901355 331.21946045 11.9901355 330.38330078 13.0480957 C329.80306152 13.77472412 329.22282227 14.50135254 328.625 15.25 C323.67777332 21.52508461 318.8389775 27.86033618 314.125 34.3125 C309.08227414 41.2107032 303.9477227 48.03034365 298.75 54.8125 C294.40874467 60.48050605 290.10585372 66.15880896 286 72 C281.23679245 78.77637519 276.20094042 85.33580436 271.1640625 91.91015625 C266.71275775 97.72852838 262.3275176 103.58907773 258 109.5 C252.41788355 117.1216133 246.71644902 124.64505816 240.97412109 132.14648438 C235.86853957 138.8284436 230.85167701 145.57079778 225.90014648 152.36767578 C223.29192333 155.93818182 220.65803977 159.4649483 217.87109375 162.8984375 C217.39397949 163.49140625 216.91686523 164.084375 216.42529297 164.6953125 C215.16194124 166.25243538 213.88053194 167.79486021 212.59765625 169.3359375 C210.74041463 171.83127705 210.74041463 171.83127705 211.24267578 174.41137695 C212.01848287 177.0631766 212.95169417 178.82016641 214.51953125 181.08203125 C215.30179077 182.22019287 215.30179077 182.22019287 216.09985352 183.38134766 C216.66502686 184.18362793 217.2302002 184.9859082 217.8125 185.8125 C218.39636475 186.65345215 218.98022949 187.4944043 219.58178711 188.36083984 C223.77806103 194.3655498 228.1196716 200.25064617 232.55029297 206.08374023 C236.63625074 211.47160289 240.54926193 216.96747302 244.42993164 222.50439453 C248.07546432 227.70248968 251.77318427 232.85990837 255.5 238 C259.70704228 243.80553095 263.8759547 249.63522 268 255.5 C274.25432876 264.39076572 280.6211553 273.19833001 287 282 C293.88325617 291.49766801 300.73384082 301.01432033 307.48291016 310.60791016 C313.24814524 318.79186072 319.12553993 326.894291 325 335 C331.51786103 343.99348777 338.02346826 352.99452524 344.4375 362.0625 C344.90937744 362.72838135 345.38125488 363.3942627 345.86743164 364.08032227 C348.35248651 367.60393379 350.78437146 371.15742017 353.17211914 374.74780273 C353.70414444 375.54733871 354.23616974 376.34687469 354.78431702 377.17063904 C355.1854924 377.77432816 355.58666779 378.37801727 356 379 C345.70805082 379.25536154 335.41685999 379.45056193 325.12238312 379.56993389 C320.34151491 379.62724209 315.56282021 379.70490008 310.78320312 379.82983398 C306.16644621 379.94974957 301.55177294 380.01520264 296.93357849 380.04364967 C295.17589 380.06390769 293.41831027 380.10347334 291.66151428 380.16303062 C277.9784571 380.60826483 277.9784571 380.60826483 273.32363892 376.82441711 C271.2233364 373.98573309 269.60836776 371.14017904 268 368 C266.90822496 366.34636292 265.79607253 364.70595518 264.66162109 363.08129883 C263.57171577 361.437151 262.48404827 359.79151788 261.3984375 358.14453125 C260.17726422 356.3025613 258.95556886 354.46093739 257.73339844 352.61962891 C256.80690491 351.22287933 256.80690491 351.22287933 255.86169434 349.7979126 C252.87821017 345.31407883 249.86612847 340.84969249 246.8515625 336.38671875 C246.26283356 335.51478378 245.67410461 334.64284882 245.0675354 333.74449158 C243.86760608 331.96769631 242.66750128 330.19101954 241.46722412 328.41445923 C224.77662524 303.70813706 224.77662524 303.70813706 216.875 291.8125 C209.69571202 281.00801709 202.44353625 270.25303204 195.1875 259.5 C194.61441101 258.6502359 194.04132202 257.8004718 193.4508667 256.92495728 C187.57412542 248.21242396 181.68341041 239.50980795 175.73828125 230.84375 C175.27278366 230.16405151 174.80728607 229.48435303 174.3276825 228.78405762 C172.3365358 225.75358654 172.3365358 225.75358654 170 223 C169.38608398 223.92522461 169.38608398 223.92522461 168.75976562 224.86914062 C161.08290764 236.41274057 153.31088747 247.89230396 145.55419922 259.38232422 C136.31679985 273.06645715 136.31679985 273.06645715 127.14257812 286.79296875 C122.42749677 293.85054722 117.66644419 300.87734604 112.91656494 307.91152954 C104.28777953 320.69093083 95.66194518 333.47151986 87.125 346.3125 C86.58532089 347.08392838 86.04564178 347.85535675 85.48960876 348.65016174 C82.32047011 353.24664076 79.60889534 357.67656664 77.3918457 362.80786133 C74.30896431 369.31818854 71.06467972 374.89233856 65 379 C53.8423591 382.98426197 40.32733822 381.16032608 28.73931885 380.51062012 C24.25624042 380.28348647 19.7704037 380.1846675 15.28320312 380.07421875 C6.51458037 379.83985564 -2.24062879 379.46573148 -11 379 C-10.05786479 377.582274 -9.11511716 376.16495498 -8.17211914 374.74780273 C-7.64719376 373.95848862 -7.12226837 373.1691745 -6.58143616 372.35594177 C-4.25292315 368.88704356 -1.85295463 365.47119485 0.5625 362.0625 C1.07425781 361.33869141 1.58601562 360.61488281 2.11328125 359.86914062 C6.41692887 353.79493895 10.77504359 347.76083671 15.14282227 341.73266602 C18.79896542 336.68074895 22.41304607 331.60123527 26 326.5 C30.66136749 319.87077288 35.38944431 313.29271463 40.14453125 306.73046875 C43.79995588 301.67917792 47.41357962 296.60047648 51 291.5 C55.12391276 285.63512143 59.29325447 279.80574605 63.5 274 C69.74043252 265.38473364 75.88201356 256.70248236 82 248 C88.6539279 238.53517186 95.35032529 229.10543177 102.13989258 219.73730469 C106.34230448 213.93143178 110.48751586 208.08729222 114.5925293 202.2121582 C117.07601641 198.67091264 119.60363576 195.17879608 122.23046875 191.7421875 C122.74786621 191.05987061 123.26526367 190.37755371 123.79833984 189.67456055 C124.78388651 188.38120932 125.7798426 187.09570287 126.78759766 185.81958008 C129.31228227 182.77180496 129.31228227 182.77180496 129.77099609 179.03662109 C128.93890101 176.83860426 127.94253968 175.23212722 126.55078125 173.33984375 C126.03974854 172.63867432 125.52871582 171.93750488 125.00219727 171.21508789 C124.44459717 170.46348389 123.88699707 169.71187988 123.3125 168.9375 C122.73234131 168.14529053 122.15218262 167.35308105 121.55444336 166.53686523 C119.7089969 164.02007728 117.85488527 161.50983688 116 159 C114.8380809 157.41960949 113.67661345 155.83888681 112.515625 154.2578125 C109.60509149 150.29782164 106.68677398 146.34363864 103.76611328 142.39111328 C100.84043897 138.43008838 97.92049694 134.46484283 95 130.5 C93.8333611 128.91664621 92.66669442 127.33331288 91.5 125.75 C89.16666667 122.58333333 86.83333333 119.41666667 84.5 116.25 C83.92241943 115.46616943 83.34483887 114.68233887 82.74975586 113.87475586 C81.58379194 112.29231815 80.41793896 110.70979869 79.25219727 109.12719727 C76.32568557 105.15448113 73.39722466 101.18323006 70.46484375 97.21484375 C64.72576518 89.44400126 59.01570381 81.65511304 53.375 73.8125 C49.31032322 68.16136904 45.1931778 62.55644303 41 57 C36.25009514 50.70582955 31.61019511 44.33938522 27.00708008 37.93725586 C22.93851018 32.28400197 18.82443412 26.66589293 14.6875 21.0625 C14.10097656 20.26755127 13.51445313 19.47260254 12.91015625 18.65356445 C10.81004986 15.80738334 8.70974112 12.96135169 6.60888672 10.11572266 C5.4451125 8.53730629 4.28487885 6.95628104 3.125 5.375 C2.50882813 4.53710938 1.89265625 3.69921875 1.2578125 2.8359375 C0 1 0 1 0 0 Z " fill="#FEFEFE" transform="translate(514,323)"/>
<path d="M0 0 C1.77027869 1.5394868 3.52028456 3.1025739 5.25 4.6875 C6.16394531 5.50863281 7.07789063 6.32976562 8.01953125 7.17578125 C26.42003065 24.54688208 37.73448593 49.56990427 40.25 74.6875 C40.25 76.6675 40.25 78.6475 40.25 80.6875 C-28.39 80.6875 -97.03 80.6875 -167.75 80.6875 C-166.58485449 63.21031739 -166.58485449 63.21031739 -164.5625 56.125 C-164.34110352 55.32618408 -164.11970703 54.52736816 -163.89160156 53.7043457 C-156.27055522 27.16088965 -139.53711348 4.52063219 -115.3671875 -9.07495117 C-107.74908932 -13.18179554 -100.15130126 -16.14907478 -91.75 -18.3125 C-90.491875 -18.704375 -89.23375 -19.09625 -87.9375 -19.5 C-58.56401232 -26.9873596 -23.57867124 -18.77560858 0 0 Z " fill="#828282" transform="translate(385.75,396.3125)"/>
</svg>
