<?xml version="1.0" encoding="UTF-8"?>
<svg version="1.1" xmlns="http://www.w3.org/2000/svg" width="2500" height="2500">
<path d="M0 0 C28.30675489 12.94406988 41.40890701 50.64672702 53.93769836 76.99971008 C59.35439016 88.38359491 64.90606966 99.69282801 70.5645752 110.95822144 C72.0239383 113.86378509 73.48051828 116.77073083 74.93652344 119.67797852 C78.02829321 125.85027831 81.12325314 132.02097498 84.21875 138.19140625 C87.81561573 145.3612448 91.41104088 152.53179886 95.00305176 159.70407104 C96.41407307 162.51979716 97.82755992 165.33427512 99.24121094 168.14868164 C104.30492362 178.24779698 109.24783164 188.39639615 114.10168457 198.59799194 C118.47700092 207.77491121 123.00141847 216.87353372 127.5645752 225.95822144 C129.0239383 228.86378509 130.48051828 231.77073083 131.93652344 234.67797852 C135.02829321 240.85027831 138.12325314 247.02097498 141.21875 253.19140625 C144.81561573 260.3612448 148.41104088 267.53179886 152.00305176 274.70407104 C153.41407307 277.51979716 154.82755992 280.33427512 156.24121094 283.14868164 C161.30492362 293.24779698 166.24783164 303.39639615 171.10168457 313.59799194 C175.47700092 322.77491121 180.00141847 331.87353372 184.5645752 340.95822144 C186.0239383 343.86378509 187.48051828 346.77073083 188.93652344 349.67797852 C192.02829321 355.85027831 195.12325314 362.02097498 198.21875 368.19140625 C201.81561573 375.3612448 205.41104088 382.53179886 209.00305176 389.70407104 C210.41407307 392.51979716 211.82755992 395.33427512 213.24121094 398.14868164 C217.81915476 407.27897406 222.31711141 416.44083715 226.70507812 425.6640625 C231.59794967 435.94805882 236.63851007 446.15162755 241.74977112 456.32861328 C243.24273467 459.30138903 244.7329231 462.27554308 246.22253418 465.25 C249.3856357 471.5649582 252.55192567 477.87831432 255.71875 484.19140625 C259.39821834 491.5264585 263.07625074 498.86222406 266.75086975 506.19970703 C268.19513157 509.08190954 269.64185746 511.96286504 271.08874512 514.84375 C276.20446746 525.04723955 281.20210943 535.29876342 286.10562611 545.60587502 C290.50873027 554.84199161 295.06394365 563.99840353 299.65627098 573.14161301 C301.12740286 576.07073695 302.59576741 579.0012352 304.06355286 581.93203735 C307.17547949 588.14465084 310.29060917 594.35565479 313.40625 600.56640625 C317.03546608 607.80101269 320.66326728 615.03632205 324.28768349 622.2733345 C325.71714249 625.12588964 327.14904838 627.97720671 328.58110046 630.82846069 C333.95375919 641.54403171 339.17623638 652.31645292 344.21875 663.19140625 C346.27875465 660.10139928 347.73379527 657.05973389 349.28125 653.68359375 C349.73575027 652.69316322 349.73575027 652.69316322 350.19943237 651.682724 C351.20909393 649.47874241 352.21421525 647.27272888 353.21875 645.06640625 C353.56955627 644.29799408 353.92036255 643.52958191 354.28179932 642.73788452 C360.38980344 629.35201375 366.33390065 615.89717174 372.22509766 602.41473389 C377.80893723 589.63640089 383.47539475 576.89881576 389.21875 564.19140625 C395.28417416 550.76997567 401.25839098 537.31229212 407.15625 523.81640625 C413.62501656 509.01494344 420.22419129 494.27780147 426.90917969 479.57281494 C432.53389646 467.1953761 438.06259262 454.77997224 443.50637817 442.32189941 C446.73308579 434.94035294 449.97447257 427.56524398 453.21875 420.19140625 C453.52252563 419.49990479 453.82630127 418.80840332 454.13928223 418.09594727 C465.88411412 391.38495543 465.88411412 391.38495543 474.21875 381.19140625 C474.93417969 380.29808594 475.64960937 379.40476562 476.38671875 378.484375 C485.98631777 367.15175103 499.16891429 357.97655974 514.21875 356.19140625 C529.69720167 354.99911836 542.92695261 359.98868302 554.72265625 369.92578125 C561.8592487 376.4034395 567.46393355 383.18079059 572.44813156 391.38498783 C573.16409441 392.56204665 573.16409441 392.56204665 573.89452116 393.76288444 C578.53423935 401.5182354 582.53064837 409.53275476 586.40827069 417.68972934 C588.54379217 422.18024615 590.71268959 426.65470021 592.87473297 431.13249016 C593.31855859 432.05406479 593.7623842 432.97563942 594.21965908 433.92514055 C598.81289294 443.45382196 603.52296831 452.92276721 608.25457764 462.38331604 C609.11316611 464.1016403 609.97174164 465.81997103 610.83030462 467.53830802 C613.06298721 472.00514152 615.29789624 476.47085804 617.53320336 480.9363786 C619.98699127 485.83952501 622.43837539 490.74387316 624.89009094 495.64805603 C629.11133271 504.0910571 633.3340068 512.53334043 637.55773163 520.97509956 C643.66408897 533.17959277 649.76816522 545.38522578 655.87173298 557.59111428 C665.7809194 577.40731306 675.69188179 597.22262303 685.60400391 617.03735352 C695.21726106 636.25465068 704.82965975 655.47237684 714.44091797 674.69067383 C714.73859268 675.28589173 715.0362674 675.88110964 715.34296256 676.49436445 C718.62982836 683.06664633 721.91667097 689.6389398 725.20350409 696.21123803 C749.87267162 745.5392519 774.5447394 794.86581474 799.21875 844.19140625 C801.44945466 844.41251156 801.44945466 844.41251156 803.37464643 842.28045481 C804.27762676 841.37508882 805.18060709 840.46972283 806.11095047 839.5369215 C806.61557591 839.03370496 807.12020136 838.53048841 807.64011848 838.01202288 C809.34961678 836.30483193 811.05181561 834.59053802 812.75421143 832.87626648 C813.9829684 831.64623474 815.21216884 830.41664587 816.44177699 829.18746501 C819.83519434 825.79269124 823.22233159 822.39170987 826.6085515 818.98975885 C830.25616679 815.32739365 833.90955184 811.67079272 837.56231689 808.01356506 C843.89829981 801.66837727 850.230773 795.31970411 856.5610733 788.96884727 C865.72745116 779.77297846 874.90074082 770.58402906 884.07604298 761.3970655 C898.97879612 746.4752746 913.8781837 731.55012862 928.77441406 716.62182617 C929.66679514 715.72752716 930.55917623 714.83322814 931.47859916 713.91182915 C941.42172869 703.9471798 951.36403925 693.98171394 961.30541992 684.01531982 C964.90314879 680.40856059 968.50088444 676.80180814 972.09863281 673.19506836 C972.98629039 672.30518912 973.87394798 671.41530988 974.78850427 670.49846461 C989.61122429 655.63897005 1004.43980764 640.78534168 1019.27296519 625.93626624 C1028.41927313 616.77964178 1037.56052229 607.61802376 1046.69525871 598.44985513 C1052.96504031 592.15786757 1059.24025485 585.87133275 1065.51969448 579.58898403 C1069.1383882 575.96824959 1072.7546057 572.34513148 1076.36416626 568.71529007 C1079.67673953 565.384194 1082.99634991 562.06027466 1086.32140002 558.74163411 C1087.51533705 557.5475781 1088.7067846 556.35102576 1089.89529553 555.15156873 C1106.75834975 538.14113587 1126.20797185 521.25475271 1151.40625 520.94140625 C1164.71310245 520.96402871 1175.55201089 526.02916026 1185.21875 535.19140625 C1203.60050665 557.7396944 1206.15780253 586.43125578 1210.86931062 614.16763282 C1211.59940113 618.45626946 1212.33752753 622.74352424 1213.07463074 627.03096008 C1214.35333067 634.47493539 1215.62715767 641.91973095 1216.89764404 649.3651123 C1218.76885157 660.3305646 1220.64798213 671.29464854 1222.52898645 682.25842404 C1225.43508856 699.19780523 1228.336843 716.13792708 1231.23527861 733.07862163 C1235.52833031 758.17020708 1239.83315562 783.2597578 1244.1438942 808.34831023 C1244.66858363 811.40201614 1245.19324431 814.45572699 1245.71789551 817.50943947 C1247.12011609 825.67100188 1248.52234267 833.83256326 1249.92464828 841.99411106 C1252.41011835 856.46014122 1254.89419083 870.92641095 1257.37744141 885.39282227 C1257.55468797 886.42538599 1257.73193454 887.45794972 1257.91455221 888.52180326 C1258.63097777 892.69542308 1259.34739453 896.86904441 1260.063802 901.04266733 C1268.79155509 951.8885111 1277.52762613 1002.73292298 1286.26734257 1053.57671165 C1286.9527921 1057.56436512 1287.63823097 1061.55202042 1288.32366991 1065.53967571 C1291.23468639 1082.47499047 1294.14576332 1099.41029483 1297.0569458 1116.34558105 C1301.85996503 1144.28631052 1306.6625661 1172.22711182 1311.46484375 1200.16796875 C1311.63501164 1201.15804782 1311.80517954 1202.14812689 1311.98050404 1203.16820836 C1313.52766727 1212.16999207 1315.07482591 1221.17177656 1316.62197876 1230.17356205 C1319.03294261 1244.20124494 1321.44394992 1258.22892037 1323.85498047 1272.2565918 C1330.16400787 1308.96331975 1336.47292984 1345.67006581 1342.7814399 1382.37688267 C1345.98965161 1401.04423389 1349.19792881 1419.71157385 1352.40625 1438.37890625 C1352.57423473 1439.35631145 1352.74221947 1440.33371666 1352.91529465 1441.3407402 C1361.46909853 1491.11027786 1370.02435763 1540.87956508 1378.58203125 1590.6484375 C1378.77957079 1591.79727165 1378.97711034 1592.9461058 1379.18063593 1594.12975311 C1383.18998475 1617.44697628 1387.19944989 1640.76417944 1391.20920122 1664.0813334 C1393.39082945 1676.76775363 1395.57239881 1689.45418399 1397.75390625 1702.140625 C1397.94952573 1703.2782365 1398.14514522 1704.41584801 1398.34669256 1705.58793259 C1404.08277352 1738.94591028 1409.81610391 1772.30435971 1415.54700851 1805.66322708 C1416.70400584 1812.39792359 1417.8611013 1819.13260323 1419.01821899 1825.86727905 C1419.58488493 1829.16542068 1420.15155013 1832.46356243 1420.71821523 1835.76170421 C1421.0913164 1837.93324901 1421.46441906 1840.10479357 1421.83752322 1842.27633786 C1423.98507775 1854.77562163 1426.13224492 1867.27497178 1428.27872223 1879.77444059 C1429.60474713 1887.4960431 1430.9312172 1895.21756905 1432.2580114 1902.93903941 C1433.01347783 1907.33569051 1433.76875389 1911.73237405 1434.52343559 1916.12915993 C1435.21380526 1920.15123534 1435.90474709 1924.17321207 1436.59612381 1928.19511449 C1436.8617474 1929.74076927 1437.12719127 1931.28645494 1437.3924464 1932.83217299 C1438.96321036 1941.98363252 1440.558408 1951.13033824 1442.18215942 1960.27255249 C1442.51035377 1962.12605984 1442.83848225 1963.97957886 1443.16654301 1965.83310986 C1443.79436117 1969.38008018 1444.42771281 1972.92600224 1445.06416225 1976.47143269 C1445.3491072 1978.07887326 1445.63384738 1979.68635014 1445.91835022 1981.29386902 C1446.05059797 1982.02180755 1446.18284572 1982.74974607 1446.31910098 1983.49974334 C1447.58156676 1990.68914275 1447.58156676 1990.68914275 1447.21875 1994.19140625 C1445.00097656 1996.04980469 1445.00097656 1996.04980469 1441.859375 1997.80078125 C1441.29238388 1998.12446686 1440.72539276 1998.44815247 1440.14122009 1998.78164673 C1438.90847048 1999.48267237 1437.67082798 2000.17514667 1436.42904663 2000.86004639 C1433.75805826 2002.33344565 1431.11076996 2003.84730283 1428.46110535 2005.35861206 C1427.08442214 2006.14311387 1425.70648252 2006.92541464 1424.3273468 2007.70559692 C1417.59753829 2011.51705699 1410.99914664 2015.52314352 1404.40625 2019.56640625 C1394.38986667 2025.68701521 1384.3208492 2031.71343713 1374.21875 2037.69140625 C1364.18165768 2043.631717 1354.17695 2049.61974945 1344.21875 2055.69140625 C1333.58546155 2062.17467412 1322.8950827 2068.55617967 1312.17773438 2074.89941406 C1302.82190969 2080.43845696 1293.50184988 2086.03136764 1284.21875 2091.69140625 C1273.58546155 2098.17467412 1262.8950827 2104.55617967 1252.17773438 2110.89941406 C1242.82190969 2116.43845696 1233.50184988 2122.03136764 1224.21875 2127.69140625 C1213.58546155 2134.17467412 1202.8950827 2140.55617967 1192.17773438 2146.89941406 C1182.82190969 2152.43845696 1173.50184988 2158.03136764 1164.21875 2163.69140625 C1154.26054463 2169.76306632 1144.25562745 2175.75072604 1134.21875 2181.69140625 C1122.86989486 2188.40921196 1111.56829076 2195.19890072 1100.3046875 2202.05859375 C1091.77040431 2207.25552136 1083.20877335 2212.4052165 1074.63525391 2217.53710938 C1067.53880182 2221.7889449 1060.46491831 2226.07689121 1053.39941406 2230.37988281 C1042.03876709 2237.29810313 1030.62622242 2244.12326162 1019.17965698 2250.89831543 C1009.82318757 2256.43771981 1000.50248087 2262.03098291 991.21875 2267.69140625 C980.58546155 2274.17467412 969.8950827 2280.55617967 959.17773438 2286.89941406 C949.82190969 2292.43845696 940.50184988 2298.03136764 931.21875 2303.69140625 C920.58546155 2310.17467412 909.8950827 2316.55617967 899.17773438 2322.89941406 C889.82190969 2328.43845696 880.50184988 2334.03136764 871.21875 2339.69140625 C860.58546155 2346.17467412 849.8950827 2352.55617967 839.17773438 2358.89941406 C829.82190969 2364.43845696 820.50184988 2370.03136764 811.21875 2375.69140625 C800.58546155 2382.17467412 789.8950827 2388.55617967 779.17773438 2394.89941406 C769.82190969 2400.43845696 760.50184988 2406.03136764 751.21875 2411.69140625 C740.58546155 2418.17467412 729.8950827 2424.55617967 719.17773438 2430.89941406 C710.39499421 2436.09916675 701.63978963 2441.33993069 692.92443848 2446.65188599 C682.81876005 2452.81072311 672.69805492 2458.94457644 662.5390625 2465.01513672 C661.19083209 2465.82184911 659.84376402 2466.6305083 658.49804688 2467.44140625 C632.91557651 2482.84814323 632.91557651 2482.84814323 619.65625 2486.31640625 C618.79950684 2486.54956543 617.94276367 2486.78272461 617.06005859 2487.02294922 C598.59113955 2491.86073956 579.69145193 2495.03845456 560.78125 2497.56640625 C559.55744629 2497.73414551 558.33364258 2497.90188477 557.07275391 2498.07470703 C541.81625215 2499.99289191 527.87381149 2499.24742785 512.84375 2496.56640625 C511.26173115 2496.29216478 509.67969971 2496.01799593 508.09765625 2495.74389648 C476.10390823 2490.12656608 448.56405666 2481.8767314 420.78125 2464.9453125 C414.72104807 2461.26570378 408.58905984 2457.70720262 402.46875 2454.12890625 C392.86797603 2448.51211008 383.283001 2442.87024645 373.71875 2437.19140625 C363.68162994 2431.23271912 353.62210898 2425.31376902 343.54882812 2419.41650391 C334.88607995 2414.34490028 326.23519151 2409.25386142 317.59765625 2404.1394043 C312.50364201 2401.12553897 307.40228511 2398.1245659 302.29296875 2395.13671875 C301.39178566 2394.60964828 301.39178566 2394.60964828 300.47239685 2394.07192993 C299.86509232 2393.71674286 299.25778778 2393.36155579 298.63208008 2392.99560547 C297.39012613 2392.26922383 296.14818282 2391.542824 294.90625 2390.81640625 C293.98227921 2390.27599701 293.98227921 2390.27599701 293.03964233 2389.72467041 C284.50200263 2384.72879262 276.00181026 2379.67550499 267.53125 2374.56640625 C258.07275641 2368.86257277 248.53365572 2363.31361389 238.95288086 2357.81811523 C230.39250657 2352.89668593 221.91963956 2347.84022655 213.46386719 2342.74169922 C203.51684646 2336.75070258 193.48699713 2330.90726192 183.44824219 2325.07177734 C177.48989186 2321.60252922 171.54165759 2318.11601895 165.59375 2314.62890625 C164.66689392 2314.08559662 164.66689392 2314.08559662 163.72131348 2313.53131104 C155.00249081 2308.4196965 146.29503055 2303.2891667 137.59838867 2298.13989258 C132.504168 2295.12580038 127.40253809 2292.12471384 122.29296875 2289.13671875 C121.39178566 2288.60964828 121.39178566 2288.60964828 120.47239685 2288.07192993 C119.86509232 2287.71674286 119.25778778 2287.36155579 118.63208008 2286.99560547 C117.39012613 2286.26922383 116.14818282 2285.542824 114.90625 2284.81640625 C114.29026947 2284.45613342 113.67428894 2284.0958606 113.03964233 2283.72467041 C104.50200263 2278.72879262 96.00181026 2273.67550499 87.53125 2268.56640625 C78.07275641 2262.86257277 68.53365572 2257.31361389 58.95288086 2251.81811523 C50.39250657 2246.89668593 41.91963956 2241.84022655 33.46386719 2236.74169922 C23.51684646 2230.75070258 13.48699713 2224.90726192 3.44824219 2219.07177734 C-2.51010814 2215.60252922 -8.45834241 2212.11601895 -14.40625 2208.62890625 C-15.33310608 2208.08559662 -15.33310608 2208.08559662 -16.27868652 2207.53131104 C-24.99750919 2202.4196965 -33.70496945 2197.2891667 -42.40161133 2192.13989258 C-47.495832 2189.12580038 -52.59746191 2186.12471384 -57.70703125 2183.13671875 C-58.60821434 2182.60964828 -58.60821434 2182.60964828 -59.52760315 2182.07192993 C-60.13490768 2181.71674286 -60.74221222 2181.36155579 -61.36791992 2180.99560547 C-62.60987387 2180.26922383 -63.85181718 2179.542824 -65.09375 2178.81640625 C-65.70973053 2178.45613342 -66.32571106 2178.0958606 -66.96035767 2177.72467041 C-75.49799737 2172.72879262 -83.99818974 2167.67550499 -92.46875 2162.56640625 C-101.92724359 2156.86257277 -111.46634428 2151.31361389 -121.04711914 2145.81811523 C-129.60749343 2140.89668593 -138.08036044 2135.84022655 -146.53613281 2130.74169922 C-156.48315354 2124.75070258 -166.51300287 2118.90726192 -176.55175781 2113.07177734 C-182.51010814 2109.60252922 -188.45834241 2106.11601895 -194.40625 2102.62890625 C-195.33310608 2102.08559662 -195.33310608 2102.08559662 -196.27868652 2101.53131104 C-204.99750919 2096.4196965 -213.70496945 2091.2891667 -222.40161133 2086.13989258 C-227.495832 2083.12580038 -232.59746191 2080.12471384 -237.70703125 2077.13671875 C-238.60821434 2076.60964828 -238.60821434 2076.60964828 -239.52760315 2076.07192993 C-240.13490768 2075.71674286 -240.74221222 2075.36155579 -241.36791992 2074.99560547 C-242.60987387 2074.26922383 -243.85181718 2073.542824 -245.09375 2072.81640625 C-246.01772079 2072.27599701 -246.01772079 2072.27599701 -246.96035767 2071.72467041 C-255.49799737 2066.72879262 -263.99818974 2061.67550499 -272.46875 2056.56640625 C-280.85211389 2051.51091711 -289.28968409 2046.5629002 -297.78125 2041.69140625 C-307.46116321 2036.13808228 -317.07075085 2030.48096139 -326.61523438 2024.69775391 C-331.77477607 2021.57483003 -336.95436165 2018.50615437 -342.203125 2015.53515625 C-343.22567383 2014.95072754 -344.24822266 2014.36629883 -345.30175781 2013.76416016 C-347.24128321 2012.65899303 -349.18827046 2011.56678682 -351.14355469 2010.48974609 C-352.00368164 2009.99684082 -352.86380859 2009.50393555 -353.75 2008.99609375 C-354.50732422 2008.57312012 -355.26464844 2008.15014648 -356.04492188 2007.71435547 C-358.4060766 2005.64336515 -358.40627494 2004.29034855 -358.78125 2001.19140625 C-358.51678276 1998.16130829 -358.51678276 1998.16130829 -357.95773315 1994.7088623 C-357.80600839 1993.74896171 -357.80600839 1993.74896171 -357.65121847 1992.76966918 C-357.30950708 1990.62171097 -356.95526255 1988.4760115 -356.60107422 1986.33007812 C-356.35129469 1984.77667109 -356.10229344 1983.22313875 -355.85400486 1981.66949272 C-355.16948497 1977.40039417 -354.47404088 1973.13313617 -353.77686763 1968.86608839 C-353.02945765 1964.27932835 -352.29228725 1959.69092249 -351.55397034 1955.10269165 C-350.27344979 1947.15351462 -348.98668986 1939.20536814 -347.69577026 1931.25787354 C-345.63334761 1918.55991527 -343.58351005 1905.85994151 -341.53540039 1893.15966797 C-340.83519389 1888.81867964 -340.13487572 1884.47770933 -339.43449402 1880.13674927 C-339.26000207 1879.05523114 -339.08551013 1877.97371301 -338.90573055 1876.85942161 C-337.65427662 1869.10402931 -336.40103221 1861.34892758 -335.14692688 1853.59396362 C-330.52588779 1825.01785825 -325.92432101 1796.43871481 -321.34765625 1767.85546875 C-321.19961461 1766.93093132 -321.05157298 1766.00639388 -320.89904523 1765.05384016 C-319.41361628 1755.77688413 -317.92873078 1746.49984119 -316.44426495 1737.22273099 C-314.48933507 1725.00553083 -312.53275008 1712.7885963 -310.57543945 1700.57177734 C-310.42479188 1699.63148029 -310.2741443 1698.69118323 -310.11893165 1697.72239232 C-309.5109703 1693.92769629 -308.90300243 1690.1330013 -308.29502124 1686.33830845 C-306.78451437 1676.91049578 -305.27428774 1667.48263823 -303.76408756 1658.05477643 C-298.38952377 1624.50258347 -293.01421005 1590.95051064 -287.63862747 1557.39848089 C-286.91835436 1552.9028517 -286.19808498 1548.4072219 -285.47782516 1543.91159058 C-277.1154246 1491.71616586 -268.75076024 1439.52110416 -260.38456607 1387.32628739 C-259.90750703 1384.35002141 -259.43044903 1381.37375526 -258.953391 1378.39748912 C-256.88587546 1365.49868911 -254.8183524 1352.59989032 -252.75082779 1339.70109177 C-251.38549756 1331.18311809 -250.02016914 1322.66514412 -248.65484273 1314.14716983 C-248.40582167 1312.59358174 -248.15680054 1311.03999367 -247.90777934 1309.48640561 C-234.44096422 1225.46992632 -220.97655028 1141.45306374 -205.21875 1043.06640625 C-205.02917095 1041.8827202 -204.8395919 1040.69903416 -204.64426804 1039.47947884 C-202.5691552 1026.52296314 -200.49406306 1013.56644412 -198.41897583 1000.60992432 C-198.23607093 999.46789511 -198.05316603 998.32586591 -197.86471856 997.14922976 C-196.95191177 991.44980597 -196.03910771 985.75038173 -195.12630844 980.05095673 C-187.82840874 934.48368775 -180.52830854 888.91677147 -173.22725916 843.35000706 C-172.78227657 840.57281322 -172.3372955 837.79561914 -171.89231491 835.01842499 C-169.26613596 818.62803164 -166.63993279 802.23764218 -164.01368713 785.84725952 C-159.86314896 759.94376876 -155.71277075 734.04025236 -151.5625 708.13671875 C-151.41250738 707.20055395 -151.26251476 706.26438914 -151.10797691 705.29985571 C-149.74292949 696.78004009 -148.37788371 688.2602242 -147.01284027 679.74040794 C-144.89333425 666.51167035 -142.77381914 653.28293421 -140.65429688 640.05419922 C-140.50482385 639.12128186 -140.35535082 638.18836449 -140.2013483 637.2271769 C-139.44656448 632.51628762 -138.69178051 627.80539837 -137.93699646 623.09450912 C-136.5777989 614.61124887 -135.21860274 606.1279884 -133.85940647 597.64472795 C-133.1041877 592.9311207 -132.34896885 588.21751348 -131.59375 583.50390625 C-131.29166667 581.61848958 -130.98958333 579.73307292 -130.6875 577.84765625 C-129.55468759 570.77734432 -129.55468759 570.77734432 -128.42187518 563.70703238 C-128.11979124 561.82161194 -127.81770731 559.9361915 -127.51562339 558.05077106 C-126.76042434 553.33728712 -126.00522517 548.62380321 -125.25002575 543.91031933 C-123.8905398 535.42525497 -122.53105469 526.94019048 -121.17157406 518.45512527 C-120.41622249 513.74067261 -119.66087022 509.02622007 -118.90551758 504.31176758 C-118.75596355 503.37834207 -118.60640952 502.44491657 -118.45232356 501.48320544 C-116.33994858 488.29905129 -114.2275342 475.11490345 -112.11509526 461.93075955 C-110.7577109 453.45904945 -109.40033812 444.9873375 -108.04296875 436.515625 C-107.89362562 435.58353517 -107.74428249 434.65144535 -107.59041381 433.69111037 C-104.24930893 412.83837023 -100.90837017 391.9856035 -97.56804109 371.13273907 C-97.10790916 368.26024766 -96.64777251 365.387757 -96.18763542 362.51526642 C-94.80671457 353.89456732 -93.42583518 345.27386159 -92.045102 336.65313244 C-89.01383749 317.72729874 -85.98162431 298.80161855 -82.94562936 279.87654305 C-81.75389202 272.44755054 -80.562445 265.01851148 -79.37110281 257.5894556 C-79.07447758 255.73974708 -78.7778407 253.89004043 -78.48119211 252.04033566 C-74.52506538 227.37179168 -70.58605063 202.70059282 -66.66706949 178.02612001 C-66.51382178 177.06125269 -66.36057407 176.09638538 -66.2026825 175.10227966 C-65.9731435 173.65704753 -65.9731435 173.65704753 -65.73896736 172.1826188 C-63.7868724 159.8939613 -61.82828202 147.60633807 -59.86906528 135.31881428 C-58.30587999 125.51283811 -56.748627 115.705957 -55.19933182 105.89777654 C-54.15382745 99.2821324 -53.10136339 92.66761891 -52.04353565 86.05393416 C-51.43828934 82.26834566 -50.83609937 78.48234227 -50.24263573 74.69488716 C-43.67151703 32.79428852 -43.67151703 32.79428852 -35.78125 18.19140625 C-35.08708984 16.86882813 -35.08708984 16.86882813 -34.37890625 15.51953125 C-27.01080482 2.30776317 -15.33560496 -4.4585256 0 0 Z " fill="#FECA27" transform="translate(705.78125,0.80859375)"/>
<path d="M0 0 C28.30675489 12.94406988 41.40890701 50.64672702 53.93769836 76.99971008 C59.35439016 88.38359491 64.90606966 99.69282801 70.5645752 110.95822144 C72.0239383 113.86378509 73.48051828 116.77073083 74.93652344 119.67797852 C78.02829321 125.85027831 81.12325314 132.02097498 84.21875 138.19140625 C87.81561573 145.3612448 91.41104088 152.53179886 95.00305176 159.70407104 C96.41407307 162.51979716 97.82755992 165.33427512 99.24121094 168.14868164 C104.30492362 178.24779698 109.24783164 188.39639615 114.10168457 198.59799194 C118.47700092 207.77491121 123.00141847 216.87353372 127.5645752 225.95822144 C129.0239383 228.86378509 130.48051828 231.77073083 131.93652344 234.67797852 C135.02829321 240.85027831 138.12325314 247.02097498 141.21875 253.19140625 C144.81561573 260.3612448 148.41104088 267.53179886 152.00305176 274.70407104 C153.41407307 277.51979716 154.82755992 280.33427512 156.24121094 283.14868164 C161.30492362 293.24779698 166.24783164 303.39639615 171.10168457 313.59799194 C175.47700092 322.77491121 180.00141847 331.87353372 184.5645752 340.95822144 C186.0239383 343.86378509 187.48051828 346.77073083 188.93652344 349.67797852 C192.02829321 355.85027831 195.12325314 362.02097498 198.21875 368.19140625 C201.81561573 375.3612448 205.41104088 382.53179886 209.00305176 389.70407104 C210.41407307 392.51979716 211.82755992 395.33427512 213.24121094 398.14868164 C217.81915476 407.27897406 222.31711141 416.44083715 226.70507812 425.6640625 C231.59794967 435.94805882 236.63851007 446.15162755 241.74977112 456.32861328 C243.24273467 459.30138903 244.7329231 462.27554308 246.22253418 465.25 C249.3856357 471.5649582 252.55192567 477.87831432 255.71875 484.19140625 C259.39821834 491.5264585 263.07625074 498.86222406 266.75086975 506.19970703 C268.19513157 509.08190954 269.64185746 511.96286504 271.08874512 514.84375 C276.20446746 525.04723955 281.20210943 535.29876342 286.10562611 545.60587502 C290.50873027 554.84199161 295.06394365 563.99840353 299.65627098 573.14161301 C301.12740286 576.07073695 302.59576741 579.0012352 304.06355286 581.93203735 C307.17547949 588.14465084 310.29060917 594.35565479 313.40625 600.56640625 C317.03546608 607.80101269 320.66326728 615.03632205 324.28768349 622.2733345 C325.71714249 625.12588964 327.14904838 627.97720671 328.58110046 630.82846069 C333.95375919 641.54403171 339.17623638 652.31645292 344.21875 663.19140625 C346.27875465 660.10139928 347.73379527 657.05973389 349.28125 653.68359375 C349.73575027 652.69316322 349.73575027 652.69316322 350.19943237 651.682724 C351.20909393 649.47874241 352.21421525 647.27272888 353.21875 645.06640625 C353.56955627 644.29799408 353.92036255 643.52958191 354.28179932 642.73788452 C360.38980344 629.35201375 366.33390065 615.89717174 372.22509766 602.41473389 C377.80893723 589.63640089 383.47539475 576.89881576 389.21875 564.19140625 C395.28417416 550.76997567 401.25839098 537.31229212 407.15625 523.81640625 C413.62501656 509.01494344 420.22419129 494.27780147 426.90917969 479.57281494 C432.53389646 467.1953761 438.06259262 454.77997224 443.50637817 442.32189941 C446.73308579 434.94035294 449.97447257 427.56524398 453.21875 420.19140625 C453.52252563 419.49990479 453.82630127 418.80840332 454.13928223 418.09594727 C465.88411412 391.38495543 465.88411412 391.38495543 474.21875 381.19140625 C474.93417969 380.29808594 475.64960937 379.40476562 476.38671875 378.484375 C485.98631777 367.15175103 499.16891429 357.97655974 514.21875 356.19140625 C529.69720167 354.99911836 542.92695261 359.98868302 554.72265625 369.92578125 C561.85911783 376.40332071 567.46394931 383.18069544 572.44819355 391.38467789 C572.92550539 392.16936739 573.40281724 392.95405689 573.89459308 393.76252486 C578.53502943 401.51912212 582.53006342 409.5356102 586.4073588 417.69428876 C588.54252948 422.18507581 590.71134963 426.65966414 592.8737545 431.13738251 C593.31761974 432.05875903 593.76148497 432.98013556 594.21880067 433.92943259 C598.80946391 443.4481489 603.52339749 452.90358562 608.26130676 462.34967041 C608.68440209 463.19399169 609.10749741 464.03831298 609.5434138 464.90821975 C612.20908203 470.22775453 614.87797699 475.54566423 617.54786241 480.86308336 C620.00391135 485.75598032 622.45723795 490.65024206 624.91082764 495.54437256 C628.59449105 502.89160402 632.27890464 510.23845837 635.96424922 517.58484671 C643.18662057 531.98214374 650.40272087 546.38257642 657.61662292 560.78411865 C658.75948721 563.06561989 659.90235282 565.34712046 661.04521972 567.62862039 C663.35543322 572.24052964 665.66561659 576.85245398 667.97578561 581.46438551 C673.86971185 593.23071778 679.76399741 604.99686997 685.65893555 616.76269531 C686.54403432 618.52929035 686.54403432 618.52929035 687.44701388 620.33157417 C696.7647754 638.92851531 706.09047536 657.52146462 715.41925978 676.11287834 C725.64019807 696.48240502 735.85071153 716.85713384 746.05062121 737.23719954 C752.1430715 749.40939138 758.24401093 761.57725111 764.35591992 773.73968431 C768.52764254 782.04312165 772.68919775 790.35160196 776.84264336 798.66419652 C779.23953913 803.4604954 781.64101356 808.25435854 784.0546627 813.04225159 C786.26103934 817.41921657 788.45454864 821.80237444 790.63776668 826.19093463 C791.4317002 827.78107624 792.23043062 829.36883323 793.03428898 830.95398071 C794.12204175 833.1006277 795.19235158 835.25510736 796.25857258 837.41250992 C796.73764782 838.342648 796.73764782 838.342648 797.22640136 839.29157674 C799.0732338 843.08704008 799.43793623 845.17279851 798.21875 849.19140625 C796.85615565 851.0534611 796.85615565 851.0534611 795.07642062 852.83242029 C794.39889246 853.51936004 793.7213643 854.20629978 793.02330498 854.91405589 C792.26958177 855.65774359 791.51585855 856.4014313 790.73929524 857.16765499 C789.542506 858.37211276 789.542506 858.37211276 788.32153919 859.600903 C786.09187916 861.84074839 783.85341497 864.07134956 781.61104676 866.2984593 C779.16960115 868.72768421 776.7397827 871.16849232 774.30847621 873.60785735 C770.02492822 877.90236795 765.73394364 882.18933587 761.43812171 886.47156727 C755.00712711 892.88229574 748.5876868 899.30450236 742.17050323 905.72905205 C731.23498475 916.67645076 720.28998344 927.61432405 709.33986282 938.54711533 C698.23797579 949.63151002 687.14044577 960.72023971 676.04825211 971.81433487 C674.99864454 972.86411458 674.99864454 972.86411458 673.92783279 973.93510197 C670.36007609 977.50348415 666.79239056 981.07193747 663.22473017 984.64041594 C637.3782873 1010.49249398 611.52216328 1036.33487124 585.66092682 1062.17214966 C560.04055398 1087.76884425 534.42431459 1113.3696639 508.81362152 1138.9760437 C508.01867734 1139.77085023 507.22373316 1140.56565677 506.40469976 1141.38454835 C499.14419154 1148.64380379 491.88373432 1155.90311024 484.6233383 1163.16247791 C466.57303485 1181.21022349 448.52209169 1199.25732916 430.47071457 1217.30400085 C429.64861248 1218.12588967 428.8265104 1218.94777848 427.97949613 1219.79457302 C387.97126074 1259.79231776 347.95565766 1299.78268928 307.93945312 1339.77246094 C294.05034851 1353.65239925 280.16127638 1367.53237007 266.27233887 1381.41247559 C265.41099516 1382.2732715 264.54965145 1383.13406741 263.66220641 1384.02094805 C223.64318263 1424.01460964 183.62938335 1464.01349667 143.61693682 1504.01373846 C141.02019789 1506.60968513 138.4234567 1509.20562954 135.82671506 1511.8015735 C118.6176538 1529.00535554 101.40868278 1546.20922786 84.19977235 1563.41316077 C49.94472415 1597.65829952 15.68914777 1631.90290992 -18.56679195 1666.14715688 C-20.19855834 1667.77836631 -21.83032436 1669.40957611 -23.46209 1671.04078628 C-99.68946439 1747.24220604 -175.92360636 1823.43685378 -317.47003685 1964.89984032 C-319.06909673 1966.49791655 -320.66815591 1968.09599348 -322.26721495 1969.69407055 C-327.10498802 1974.52887104 -331.94277025 1979.36366237 -336.78057075 1984.19843543 C-338.45384687 1985.87067594 -340.12712283 1987.54291663 -341.80039859 1989.21515751 C-342.91663896 1990.33068907 -342.91663896 1990.33068907 -344.05542963 1991.46875661 C-344.7427918 1992.15569636 -345.43015396 1992.84263611 -346.13834529 1993.55039221 C-347.08586539 1994.49543578 -347.08586539 1994.49543578 -348.05252731 1995.45957113 C-349.1410409 1996.5500445 -350.22488652 1997.64521723 -351.30195952 1998.74699204 C-353.65308947 2001.14631668 -355.64222868 2002.91254571 -358.78125 2004.19140625 C-356.8511456 1989.55858326 -354.69743615 1974.97664882 -352.34008789 1960.40698242 C-352.00293771 1958.31062579 -351.66602331 1956.21423122 -351.32932091 1954.11780262 C-350.60499476 1949.61111282 -349.87902446 1945.10469218 -349.15173149 1940.59848022 C-347.97314175 1933.29605337 -346.79828175 1925.99302905 -345.62379456 1918.68994141 C-343.92410866 1908.12347801 -342.22269341 1897.55729453 -340.52008057 1886.99130249 C-337.80977945 1870.17151107 -335.10339048 1853.35109131 -332.39794922 1836.53051758 C-332.28423794 1835.82354748 -332.17052666 1835.11657737 -332.05336958 1834.38818394 C-331.01384014 1827.92517215 -329.97433912 1821.46215578 -328.93491626 1814.99912685 C-327.76691666 1807.73663496 -326.59882214 1800.47415837 -325.43048096 1793.21172142 C-316.42612377 1737.24011572 -307.45964993 1681.26249089 -298.50991821 1625.28212357 C-295.36942938 1605.63862773 -292.22787747 1585.99530184 -289.08624411 1566.35198903 C-288.71929406 1564.05759243 -288.35234973 1561.76319492 -287.98541117 1559.46879649 C-279.63204038 1507.23681522 -271.2580476 1455.00814728 -262.87937784 1402.78021908 C-262.16659011 1398.33708777 -261.45381855 1393.89395387 -260.74104697 1389.45081997 C-259.68074485 1382.84132031 -258.62043589 1376.23182175 -257.56012785 1369.62232304 C-256.6864625 1364.17627306 -255.81279869 1358.73022284 -254.93913841 1353.28417206 C-254.24661229 1348.96724064 -253.55407709 1344.65031068 -252.86153603 1340.33338165 C-245.70768435 1295.73983586 -238.56090063 1251.14515885 -231.41669989 1206.55006599 C-230.96915508 1203.75643482 -230.52160564 1200.96280439 -230.07405472 1198.16917419 C-227.41279044 1181.55744842 -224.75159757 1164.94571121 -222.0905304 1148.33395386 C-217.91103435 1122.24340189 -213.731073 1096.15292449 -209.55078125 1070.0625 C-209.32605184 1068.65989642 -209.32605184 1068.65989642 -209.09678245 1067.22895741 C-207.73386898 1058.72260814 -206.37095059 1050.21625966 -205.00802517 1041.7099123 C-202.89033449 1028.49289156 -200.77267119 1015.27586644 -198.6550293 1002.05883789 C-198.50553444 1001.12578225 -198.35603957 1000.19272661 -198.20201457 999.23139656 C-197.44707109 994.51949944 -196.69212808 989.80760225 -195.93718529 985.09570503 C-194.57792443 976.61202066 -193.21865938 968.12833696 -191.85939467 959.6446532 C-191.10417961 954.93107091 -190.34896482 950.21748858 -189.59375 945.50390625 C-189.29166667 943.61848958 -188.98958333 941.73307292 -188.6875 939.84765625 C-188.53796875 938.914375 -188.3884375 937.98109375 -188.234375 937.01953125 C-173.28125 843.69140625 -158.328125 750.36328125 -128.42187518 563.70703238 C-128.11979124 561.82161194 -127.81770731 559.9361915 -127.51562339 558.05077106 C-126.76042434 553.33728712 -126.00522517 548.62380321 -125.25002575 543.91031933 C-123.8905398 535.42525497 -122.53105469 526.94019048 -121.17157406 518.45512527 C-120.41622249 513.74067261 -119.66087022 509.02622007 -118.90551758 504.31176758 C-118.75596355 503.37834207 -118.60640952 502.44491657 -118.45232356 501.48320544 C-116.33994858 488.29905129 -114.2275342 475.11490345 -112.11509526 461.93075955 C-110.7577109 453.45904945 -109.40033812 444.9873375 -108.04296875 436.515625 C-107.89362562 435.58353517 -107.74428249 434.65144535 -107.59041381 433.69111037 C-104.24930893 412.83837023 -100.90837017 391.9856035 -97.56804109 371.13273907 C-97.10790916 368.26024766 -96.64777251 365.387757 -96.18763542 362.51526642 C-94.80671457 353.89456732 -93.42583518 345.27386159 -92.045102 336.65313244 C-89.01383749 317.72729874 -85.98162431 298.80161855 -82.94562936 279.87654305 C-81.75389202 272.44755054 -80.562445 265.01851148 -79.37110281 257.5894556 C-79.07447758 255.73974708 -78.7778407 253.89004043 -78.48119211 252.04033566 C-74.52506538 227.37179168 -70.58605063 202.70059282 -66.66706949 178.02612001 C-66.51382178 177.06125269 -66.36057407 176.09638538 -66.2026825 175.10227966 C-65.9731435 173.65704753 -65.9731435 173.65704753 -65.73896736 172.1826188 C-63.7868724 159.8939613 -61.82828202 147.60633807 -59.86906528 135.31881428 C-58.30587999 125.51283811 -56.748627 115.705957 -55.19933182 105.89777654 C-54.15382745 99.2821324 -53.10136339 92.66761891 -52.04353565 86.05393416 C-51.43828934 82.26834566 -50.83609937 78.48234227 -50.24263573 74.69488716 C-43.67151703 32.79428852 -43.67151703 32.79428852 -35.78125 18.19140625 C-35.08708984 16.86882813 -35.08708984 16.86882813 -34.37890625 15.51953125 C-27.01080482 2.30776317 -15.33560496 -4.4585256 0 0 Z " fill="#FEA000" transform="translate(705.78125,0.80859375)"/>
<path d="M0 0 C2.64543904 2.36199915 4.06910391 4.76870369 5.64453125 7.93261719 C6.14936035 8.93927429 6.65418945 9.9459314 7.17431641 10.98309326 C7.71491699 12.07664124 8.25551758 13.17018921 8.8125 14.296875 C9.66593994 16.00656464 9.66593994 16.00656464 10.53662109 17.75079346 C11.74731366 20.1767868 12.95405896 22.60468758 14.15771484 25.03417969 C15.95883561 28.66952174 17.77004059 32.29975058 19.58203125 35.9296875 C24.80821285 46.41768867 29.98822947 56.92319774 35 67.515625 C40.28056306 78.65124049 45.79438708 89.66823132 51.3125 100.6875 C51.78136627 101.62381508 52.25023254 102.56013016 52.73330688 103.52481842 C56.15271276 110.35129646 59.57598705 117.17583188 63 124 C66.43166099 130.83941091 69.86187146 137.67954205 73.28866577 144.52139282 C74.63320582 147.20416631 75.98021453 149.88568919 77.32739258 152.56713867 C81.79481401 161.47579348 86.17715619 170.41852862 90.45898438 179.41796875 C95.3613015 189.72002199 100.41062161 199.94202579 105.53102112 210.13720703 C107.02398467 213.10998278 108.5141731 216.08413683 110.00378418 219.05859375 C113.1668857 225.37355195 116.33317567 231.68690807 119.5 238 C123.17946834 245.33505225 126.85750074 252.67081781 130.53211975 260.00830078 C131.97638157 262.89050329 133.42310746 265.77145879 134.86999512 268.65234375 C139.98813043 278.86064657 144.98819062 289.11700766 149.89411163 299.42893982 C154.26542471 308.59854147 158.78640697 317.68957036 163.3458252 326.76681519 C164.8051883 329.67237884 166.26176828 332.57932458 167.71777344 335.48657227 C170.80954321 341.65887206 173.90450314 347.82956873 177 354 C180.59686573 361.16983855 184.19229088 368.34039261 187.78430176 375.51266479 C189.19532307 378.32839091 190.60880992 381.14286887 192.02246094 383.95727539 C194.23452903 388.36590081 196.42794437 392.78345808 198.61254883 397.20574951 C199.59086092 399.17601635 200.57641102 401.14269736 201.56713867 403.10675049 C203.15849924 406.26324502 204.72921574 409.42933683 206.296875 412.59765625 C207.04677704 414.06796547 207.04677704 414.06796547 207.81182861 415.56797791 C208.25903259 416.48148514 208.70623657 417.39499237 209.16699219 418.33618164 C209.77133087 419.54426231 209.77133087 419.54426231 210.38787842 420.77674866 C211 423 211 423 210.41522981 424.74631235 C208.36599669 428.00962078 205.68894161 430.58381993 202.96844459 433.28225374 C202.33956593 433.91393704 201.71068727 434.54562033 201.06275168 435.19644554 C198.9359593 437.33024521 196.80206209 439.45679714 194.66817856 441.58350372 C193.12723572 443.12653125 191.58673144 444.66999684 190.04662842 446.2138626 C185.78311273 450.48521457 181.5133347 454.75025935 177.24257174 459.01436337 C173.08614783 463.16625894 168.93442763 467.32284918 164.7825745 471.47931471 C156.1831951 480.08790695 147.57905564 488.69172732 138.97234154 497.29298592 C130.24691262 506.01291771 121.52365095 514.73500898 112.80304146 523.45976067 C112.25281038 524.01025009 111.7025793 524.56073952 111.13567455 525.12791044 C108.89477575 527.36987574 106.65389241 529.61185649 104.41302869 531.85385685 C83.52636535 552.75110708 62.63476394 573.64341401 41.74001312 594.53257751 C41.12046493 595.15196012 40.50091673 595.77134272 39.86259435 596.4094945 C39.24205898 597.02986401 38.62152361 597.65023352 37.98218413 598.28940211 C19.0941021 617.17244224 0.20788743 636.05734758 -18.67647552 654.94410706 C-19.9399731 656.20775958 -21.20347099 657.47141179 -22.46696921 658.73506368 C-27.54418203 663.81289741 -32.62138664 668.89073935 -37.69857927 673.96859327 C-51.89254595 688.16439418 -66.08685923 702.3598485 -80.28144455 716.55503082 C-80.9278949 717.20150847 -81.57434526 717.84798612 -82.24038502 718.51405399 C-102.84659359 739.12108141 -123.45433898 759.72657124 -144.06312943 780.33101654 C-145.06611908 781.33379544 -145.06611908 781.33379544 -146.08937114 782.35683251 C-156.94865863 793.21382997 -167.80802053 804.070753 -178.66738872 814.92766973 C-221.73452762 857.98509676 -264.79658317 901.04760093 -307.85400391 944.11474609 C-318.70300439 954.96618888 -329.55201498 965.81762154 -340.40109634 976.66898346 C-341.06907799 977.337106 -341.73705964 978.00522855 -342.42528316 978.69359723 C-363.00603948 999.27866491 -383.58803634 1019.86249152 -404.1713829 1040.44496918 C-404.81741554 1041.09097465 -405.46344818 1041.73698012 -406.12905757 1042.40256151 C-420.30958873 1056.58246776 -434.490441 1070.76205283 -448.67158296 1084.94134823 C-453.74558635 1090.01469331 -458.81957366 1095.08805446 -463.89355637 1100.16142022 C-465.15588078 1101.42358984 -466.41820652 1102.68575813 -467.68053362 1103.94792507 C-486.56180576 1122.82680833 -505.44086329 1141.70790377 -524.31841666 1160.5905055 C-524.93763367 1161.20988811 -525.55685068 1161.82927071 -526.19483185 1162.46742249 C-526.81291109 1163.08566709 -527.43099032 1163.70391169 -528.06779924 1164.34089098 C-548.89771412 1185.17631786 -569.73138971 1206.00797777 -590.5693396 1226.83536875 C-592.80538667 1229.07031107 -595.04141807 1231.30526907 -597.27743721 1233.54023933 C-597.82620978 1234.08875149 -598.37498235 1234.63726365 -598.9403844 1235.20239739 C-607.64205019 1243.90011298 -616.34035817 1252.60117862 -625.03728868 1261.30362881 C-633.58178697 1269.85340793 -642.12983388 1278.39962528 -650.68171147 1286.94202343 C-655.25928846 1291.51482063 -659.83524007 1296.08921367 -664.40685156 1300.66797549 C-668.56089021 1304.82844536 -672.71945288 1308.98433527 -676.88176497 1313.13652758 C-678.38207274 1314.63481111 -679.88068672 1316.13479302 -681.37744648 1317.63662096 C-683.40274836 1319.66829651 -685.43407062 1321.69375534 -687.46704793 1323.71774626 C-688.04706411 1324.30254392 -688.62708029 1324.88734158 -689.22467271 1325.48986039 C-692.59259368 1328.82741843 -695.96773812 1331.49920255 -700 1334 C-698.31722971 1328.02015558 -695.39834175 1322.76918485 -692.5 1317.3125 C-691.96028564 1316.28793701 -691.42057129 1315.26337402 -690.86450195 1314.20776367 C-689.76257222 1312.11671038 -688.65882176 1310.02661552 -687.55322266 1307.9375 C-686.19993997 1305.3781323 -684.8534052 1302.81545878 -683.51171875 1300.25 C-679.92507637 1293.39785096 -676.30817198 1286.56315382 -672.640625 1279.75390625 C-671.40600718 1277.46106824 -670.17164044 1275.16809501 -668.9375 1272.875 C-668.62375427 1272.2920517 -668.31000854 1271.70910339 -667.98675537 1271.10848999 C-662.26553827 1260.46656054 -656.72371333 1249.73728705 -651.21575928 1238.98376465 C-646.49878845 1229.77988053 -641.6757423 1220.65349343 -636.66723633 1211.60400391 C-631.51469501 1202.23242208 -626.680527 1192.69908962 -621.81274414 1183.17773438 C-617.33840134 1174.43053747 -612.82764896 1165.71855924 -608.0625 1157.125 C-602.20404605 1146.55648222 -596.73525681 1135.79475893 -591.24099731 1125.03424072 C-586.60494121 1115.95913351 -581.94461962 1106.91218524 -577 1098 C-571.57385691 1088.21519975 -566.47090783 1078.27182559 -561.375 1068.3125 C-560.95754517 1067.49677521 -560.54009033 1066.68105042 -560.10998535 1065.84060669 C-558.48108636 1062.65732183 -556.85232663 1059.47396578 -555.22387695 1056.29045105 C-549.8210206 1045.73398239 -544.29070986 1035.24947762 -538.66796875 1024.80859375 C-537.42417684 1022.49755776 -536.18062839 1020.18639278 -534.9375 1017.875 C-534.62311981 1017.29078278 -534.30873962 1016.70656555 -533.98483276 1016.10464478 C-528.26421861 1005.46401503 -522.72306145 994.73601435 -517.21575928 983.98376465 C-512.49878845 974.77988053 -507.6757423 965.65349343 -502.66723633 956.60400391 C-497.51469501 947.23242208 -492.680527 937.69908962 -487.81274414 928.17773438 C-483.33840134 919.43053747 -478.82764896 910.71855924 -474.0625 902.125 C-468.20404605 891.55648222 -462.73525681 880.79475893 -457.24099731 870.03424072 C-452.60494121 860.95913351 -447.94461962 851.91218524 -443 843 C-437.57385691 833.21519975 -432.47090783 823.27182559 -427.375 813.3125 C-426.95754517 812.49677521 -426.54009033 811.68105042 -426.10998535 810.84060669 C-424.48108636 807.65732183 -422.85232663 804.47396578 -421.22387695 801.29045105 C-415.80908156 790.71065509 -410.26433559 780.20417832 -404.6328125 769.73828125 C-403.37994419 767.40899564 -402.12725875 765.07961323 -400.875 762.75 C-400.55967316 762.16355713 -400.24434631 761.57711426 -399.91946411 760.97290039 C-394.7460967 751.34335065 -389.68807174 741.65779899 -384.6875 731.9375 C-384.34693573 731.27555634 -384.00637146 730.61361267 -383.65548706 729.93161011 C-382.32766 727.350391 -380.99997279 724.7691 -379.67250061 722.18769836 C-374.43146468 712.00127994 -369.08815389 701.87102039 -363.65625 691.78515625 C-362.41638992 689.48191979 -361.17681626 687.17852912 -359.9375 684.875 C-359.46633759 683.9994899 -359.46633759 683.9994899 -358.98565674 683.10629272 C-353.26442951 672.46444626 -347.72257789 661.73526299 -342.2147522 650.98175049 C-337.95820531 642.67603213 -333.64745901 634.4151304 -329.125 626.25 C-323.2488517 615.63922508 -317.75734983 604.83784811 -312.24227905 594.0368042 C-307.58458811 584.91953008 -302.90156076 575.83058883 -297.9375 566.875 C-292.71706277 557.45527216 -287.78551801 547.89613216 -282.875 538.3125 C-282.48113098 537.54394684 -282.08726196 536.77539368 -281.68145752 535.98355103 C-280.14267574 532.98058039 -278.60406202 529.97752375 -277.0657959 526.97428894 C-271.7099195 516.52326372 -266.23225879 506.1401575 -260.6640625 495.80078125 C-259.42158109 493.49234495 -258.17932687 491.18378829 -256.9375 488.875 C-256.62321045 488.29096405 -256.3089209 487.7069281 -255.98510742 487.10519409 C-250.26405247 476.46371897 -244.72239164 465.73489936 -239.2147522 454.98175049 C-234.95820531 446.67603213 -230.64745901 438.4151304 -226.125 430.25 C-220.2484896 419.63857122 -214.75660882 408.83653834 -209.24127197 398.03479004 C-204.17784531 388.12309718 -199.03723098 378.27627016 -193.63671875 368.54296875 C-188.72731957 359.63031293 -184.1266972 350.56139571 -179.5 341.5 C-174.4251143 331.56094879 -169.34844856 321.63681253 -163.9375 311.875 C-158.71706277 302.45527216 -153.78551801 292.89613216 -148.875 283.3125 C-148.48113098 282.54394684 -148.08726196 281.77539368 -147.68145752 280.98355103 C-146.14267574 277.98058039 -144.60406202 274.97752375 -143.0657959 271.97428894 C-137.7099195 261.52326372 -132.23225879 251.1401575 -126.6640625 240.80078125 C-125.42158109 238.49234495 -124.17932687 236.18378829 -122.9375 233.875 C-122.46606567 232.99894608 -122.46606567 232.99894608 -121.98510742 232.10519409 C-116.26405247 221.46371897 -110.72239164 210.73489936 -105.2147522 199.98175049 C-100.95820531 191.67603213 -96.64745901 183.4151304 -92.125 175.25 C-86.2484896 164.63857122 -80.75660882 153.83653834 -75.24127197 143.03479004 C-70.17784531 133.12309718 -65.03723098 123.27627016 -59.63671875 113.54296875 C-54.72731957 104.63031293 -50.1266972 95.56139571 -45.5 86.5 C-39.99936992 75.72713786 -34.44673042 65.00572131 -28.57958984 54.42651367 C-22.92756922 44.16932494 -17.63996547 33.72057445 -12.31616211 23.29052734 C-8.3187323 15.46510343 -4.27092633 7.68126204 0 0 Z " fill="#F57F17" transform="translate(1050,668)"/>
</svg>
