<?xml version="1.0" encoding="UTF-8"?>
<svg version="1.1" xmlns="http://www.w3.org/2000/svg" width="3000" height="3000">
<path d="M0 0 C990 0 1980 0 3000 0 C2993.24999408 7.87500691 2993.24999408 7.87500691 2990.14135611 10.98399305 C2989.43184798 11.69600471 2988.72233984 12.40801636 2987.99133146 13.14160413 C2986.84643041 14.28299343 2986.84643041 14.28299343 2985.67840004 15.4474411 C2984.85163576 16.27565882 2984.02487148 17.10387654 2983.17305374 17.95719177 C2980.88404111 20.24921835 2978.59281343 22.5390031 2976.30061986 24.8278477 C2973.80498059 27.32094474 2971.31224785 29.81694512 2968.81913888 32.312572 C2964.45127314 36.68404674 2960.08155338 41.05366128 2955.71060753 45.4220562 C2949.21079543 51.91808525 2942.71384476 58.41697053 2936.21745257 64.91641946 C2924.61440451 76.52473379 2913.00849612 88.13018503 2901.40137078 99.73442234 C2891.24318818 109.89008984 2881.08593495 120.04668571 2870.92960739 130.20420837 C2870.25602995 130.87786221 2869.5824525 131.55151604 2868.88846362 132.24558362 C2866.15421379 134.98014478 2863.4199675 137.71470947 2860.68572702 140.44927998 C2835.03294909 166.10511735 2809.37725505 191.75803686 2783.72025662 217.40965348 C2760.92531237 240.19985262 2738.13295389 262.99263474 2715.34277344 285.78759766 C2689.73970655 311.39601933 2664.13502456 337.00282436 2638.52773511 362.60702372 C2635.79782827 365.33660984 2633.06792537 368.0661999 2630.33802414 370.79579163 C2629.66584824 371.46788845 2628.99367234 372.13998527 2628.30112748 372.83244866 C2618.15068395 382.98175472 2608.00147484 393.13229409 2597.85286331 403.28343201 C2586.31263215 414.82652165 2574.77061714 426.36782428 2563.22624351 437.90677106 C2556.76536688 444.36471069 2550.30586725 450.82402042 2543.84834575 457.285315 C2539.53446431 461.60143894 2535.21876642 465.91574091 2530.90158846 470.22856752 C2528.44213075 472.68564715 2525.98346121 475.14350125 2523.52699251 477.60356945 C2520.87805387 480.2555439 2518.22606141 482.90442694 2515.57328224 485.5525589 C2514.43540469 486.6939482 2514.43540469 486.6939482 2513.27453971 487.85839587 C2509.95195012 491.16934377 2506.60212033 494.39055454 2503.04747903 497.4521718 C2498.36878281 501.4894931 2494.02755795 505.83700567 2489.66705322 510.21269226 C2488.75525095 511.12364029 2487.84344867 512.03458832 2486.90401602 512.97314084 C2484.38178617 515.49314494 2481.86267089 518.01624219 2479.34406632 520.53986885 C2476.60016458 523.28812312 2473.85333453 526.03344805 2471.10687637 528.77914715 C2466.29654564 533.58894564 2461.48806666 538.40058912 2456.68080139 543.21345139 C2449.53218912 550.37036314 2442.38069004 557.52438503 2435.22857797 564.67779914 C2423.19503064 576.71368018 2411.16374218 588.75181678 2399.13366699 600.79116821 C2382.70507193 617.23237035 2366.27319355 633.67028807 2349.84043741 650.10733116 C2342.18380743 657.76596738 2334.52733808 665.4247642 2326.87091064 673.08360291 C2325.7212395 674.23363557 2325.7212395 674.23363557 2324.54834267 675.40690122 C2306.30843571 693.65261852 2288.07010234 711.89990855 2269.83203125 730.14746094 C2269.03410473 730.9458011 2268.23617821 731.74414127 2267.4140721 732.56667356 C2255.2759872 744.71105488 2243.13798432 756.85551817 2231 769 C2218.0560361 781.95089285 2205.11204205 794.90175555 2192.16796875 807.85253906 C2190.97172287 809.04940683 2190.97172287 809.04940683 2189.75131041 810.27045374 C2171.54467375 828.48653832 2153.33758749 846.7021732 2135.12908936 864.91639709 C2133.98126034 866.0645876 2133.98126034 866.0645876 2132.81024286 867.23597387 C2125.17093155 874.8776705 2117.53154154 882.51928845 2109.89203404 890.16078894 C2093.47744906 906.57969098 2077.06424594 922.99997102 2060.65383041 939.42304042 C2048.69259058 951.39346162 2036.72963962 963.36217039 2024.76489735 975.32909083 C2017.6552084 982.44019522 2010.54694391 989.55271676 2003.44068523 996.66724911 C1998.69441566 1001.41877353 1993.94633616 1006.16848416 1989.19678216 1010.91672549 C1986.49038924 1013.62247719 1983.78479724 1016.32901664 1981.08142138 1019.03778303 C1978.1679715 1021.95700822 1975.25065218 1024.87233587 1972.33294678 1027.78730774 C1971.49632051 1028.62684687 1970.65969424 1029.466386 1969.79771566 1030.3313657 C1965.63773324 1034.48078655 1961.39644969 1038.44785778 1956.94505525 1042.28155536 C1953.48951533 1045.33450414 1950.25668135 1048.60805011 1947.00341797 1051.8735342 C1946.23610743 1052.6396909 1945.46879689 1053.40584759 1944.67823452 1054.19522116 C1942.1138441 1056.75696974 1939.553029 1059.32226209 1936.9921875 1061.88755798 C1935.13346072 1063.74584857 1933.2745362 1065.6039394 1931.41536808 1067.46178824 C1927.37686899 1071.49821921 1923.34022192 1075.53649481 1919.30479622 1079.57599831 C1913.30430048 1085.58254064 1907.30092783 1091.58620143 1901.29696981 1097.58928273 C1891.19638337 1107.68855659 1881.09812239 1117.79015262 1871.00119019 1127.89307976 C1861.00569797 1137.89449144 1851.00917019 1147.8948662 1841.01126099 1157.89386177 C1840.3893412 1158.5158503 1839.76742141 1159.13783882 1839.12665557 1159.77867549 C1835.96816176 1162.93750763 1832.80964948 1166.0963213 1829.65113008 1169.25512785 C1807.28641512 1191.62194255 1784.92401891 1213.99107423 1762.56298828 1236.36157227 C1740.84118166 1258.09256502 1719.1183236 1279.82250586 1697.39404297 1301.55102539 C1696.72426407 1302.22093581 1696.05448518 1302.89084623 1695.36440995 1303.58105697 C1688.6381398 1310.30864565 1681.91184829 1317.03621298 1675.18554113 1323.76376465 C1661.48359633 1337.46824558 1647.78179412 1351.17286905 1634.08007812 1364.87757874 C1633.13512881 1365.82273398 1633.13512881 1365.82273398 1632.17108962 1366.78698327 C1590.11167092 1408.85560076 1548.05557581 1450.92754085 1506 1493 C1506.95468175 1494.12020807 1507.91027687 1495.23963778 1508.86625534 1496.35873944 C1509.39830399 1496.98220544 1509.93035264 1497.60567145 1510.47852397 1498.24803037 C1512.28570169 1500.32898362 1514.17711603 1502.2972447 1516.12913513 1504.24266052 C1516.89295502 1505.00640991 1517.6567749 1505.7701593 1518.44374084 1506.55705261 C1519.26208908 1507.37023453 1520.08043732 1508.18341644 1520.92358398 1509.02124023 C1521.80079102 1509.896987 1522.67799805 1510.77273376 1523.58178711 1511.67501831 C1525.47783815 1513.56727789 1527.37476012 1515.45861215 1529.27325249 1517.34841728 C1532.28188502 1520.34342599 1535.28660904 1523.3423359 1538.29078674 1526.34181213 C1545.21115155 1533.25017836 1552.13653113 1540.15351025 1559.0619812 1547.05677795 C1565.41120338 1553.38576371 1571.75933219 1559.71583617 1578.10340363 1566.04998547 C1581.08308391 1569.0247166 1584.06517692 1571.99700022 1587.04921138 1574.96736324 C1589.35048678 1577.25935436 1591.64847522 1579.55463768 1593.94702148 1581.84936523 C1595.17150749 1583.06610176 1595.17150749 1583.06610176 1596.42073059 1584.30741882 C1599.82082034 1587.70719592 1603.14850044 1591.11431098 1606.27149963 1594.77149963 C1611.42694822 1600.75435236 1617.11570133 1606.2380524 1622.70898438 1611.80664062 C1623.98950665 1613.08524077 1625.26979926 1614.36407097 1626.54988098 1615.64311218 C1629.29409317 1618.38417738 1632.03984773 1621.12368458 1634.78681946 1623.86198425 C1639.13551116 1628.19708853 1643.48032801 1632.53606259 1647.82458496 1636.87561035 C1657.04675921 1646.08671123 1666.27315731 1655.29357591 1675.5 1664.5 C1685.46303867 1674.4409909 1695.42533914 1684.38271487 1705.38275576 1694.3293376 C1709.69632286 1698.63793965 1714.01231233 1702.94409556 1718.33020782 1707.24835968 C1721.02095885 1709.93162148 1723.70960962 1712.61698034 1726.3977108 1715.3028965 C1727.63878098 1716.54210377 1728.88071072 1717.78045092 1730.12359047 1719.01784325 C1740.68203206 1729.53115546 1740.68203206 1729.53115546 1744.4942627 1733.9942627 C1749.58274856 1739.95009506 1755.25321647 1745.37517444 1760.80078125 1750.8984375 C1762.0911556 1752.18688976 1763.38130031 1753.47557204 1764.67123413 1754.76446533 C1767.43672731 1757.52681133 1770.20376297 1760.28759934 1772.97201538 1763.04718018 C1777.35431154 1767.41588989 1781.73273374 1771.78846853 1786.1105957 1776.16162109 C1795.40409988 1785.44405149 1804.70182777 1794.72224594 1814 1804 C1824.04002742 1814.01798018 1834.07931698 1824.03669315 1844.1137228 1834.06030464 C1848.46074156 1838.40235806 1852.81018287 1842.74196536 1857.16152954 1847.0796814 C1859.87303926 1849.7837024 1862.58244919 1852.48982001 1865.29130936 1855.19649506 C1866.54205495 1856.44537759 1867.79366018 1857.69339992 1869.04621506 1858.94046783 C1874.57703861 1864.4478357 1880.03896654 1869.94707162 1885.11148071 1875.88563538 C1889.74445923 1881.07266521 1894.78165568 1885.9010665 1899.70898438 1890.80664062 C1900.98950665 1892.08524077 1902.26979926 1893.36407097 1903.54988098 1894.64311218 C1906.29409317 1897.38417738 1909.03984773 1900.12368458 1911.78681946 1902.86198425 C1916.13551116 1907.19708853 1920.48032801 1911.53606259 1924.82458496 1915.87561035 C1934.04675921 1925.08671123 1943.27315731 1934.29357591 1952.5 1943.5 C1962.46303867 1953.4409909 1972.42533914 1963.38271487 1982.38275576 1973.3293376 C1986.69632286 1977.63793965 1991.01231233 1981.94409556 1995.33020782 1986.24835968 C1998.02095885 1988.93162148 2000.70960962 1991.61698034 2003.3977108 1994.3028965 C2004.63878098 1995.54210377 2005.88071072 1996.78045092 2007.12359047 1998.01784325 C2017.68203206 2008.53115546 2017.68203206 2008.53115546 2021.4942627 2012.9942627 C2026.58274856 2018.95009506 2032.25321647 2024.37517444 2037.80078125 2029.8984375 C2039.0911556 2031.18688976 2040.38130031 2032.47557204 2041.67123413 2033.76446533 C2044.43672731 2036.52681133 2047.20376297 2039.28759934 2049.97201538 2042.04718018 C2054.35431154 2046.41588989 2058.73273374 2050.78846853 2063.1105957 2055.16162109 C2072.40409988 2064.44405149 2081.70182777 2073.72224594 2091 2083 C2101.04002742 2093.01798018 2111.07931698 2103.03669315 2121.1137228 2113.06030464 C2125.46074156 2117.40235806 2129.81018287 2121.74196536 2134.16152954 2126.0796814 C2136.87303926 2128.7837024 2139.58244919 2131.48982001 2142.29130936 2134.19649506 C2143.54205495 2135.44537759 2144.79366018 2136.69339992 2146.04621506 2137.94046783 C2151.57703861 2143.4478357 2157.03896654 2148.94707162 2162.11148071 2154.88563538 C2166.74445923 2160.07266521 2171.78165568 2164.9010665 2176.70898438 2169.80664062 C2177.98950665 2171.08524077 2179.26979926 2172.36407097 2180.54988098 2173.64311218 C2183.29409317 2176.38417738 2186.03984773 2179.12368458 2188.78681946 2181.86198425 C2193.13551116 2186.19708853 2197.48032801 2190.53606259 2201.82458496 2194.87561035 C2211.04675921 2204.08671123 2220.27315731 2213.29357591 2229.5 2222.5 C2239.46303867 2232.4409909 2249.42533914 2242.38271487 2259.38275576 2252.3293376 C2263.69632286 2256.63793965 2268.01231233 2260.94409556 2272.33020782 2265.24835968 C2275.02095885 2267.93162148 2277.70960962 2270.61698034 2280.3977108 2273.3028965 C2281.63878098 2274.54210377 2282.88071072 2275.78045092 2284.12359047 2277.01784325 C2294.68203206 2287.53115546 2294.68203206 2287.53115546 2298.4942627 2291.9942627 C2303.58274856 2297.95009506 2309.25321647 2303.37517444 2314.80078125 2308.8984375 C2316.0911556 2310.18688976 2317.38130031 2311.47557204 2318.67123413 2312.76446533 C2321.43672731 2315.52681133 2324.20376297 2318.28759934 2326.97201538 2321.04718018 C2331.35431154 2325.41588989 2335.73273374 2329.78846853 2340.1105957 2334.16162109 C2349.40409988 2343.44405149 2358.70182777 2352.72224594 2368 2362 C2378.04002742 2372.01798018 2388.07931698 2382.03669315 2398.1137228 2392.06030464 C2402.46074156 2396.40235806 2406.81018287 2400.74196536 2411.16152954 2405.0796814 C2413.87303926 2407.7837024 2416.58244919 2410.48982001 2419.29130936 2413.19649506 C2420.54205495 2414.44537759 2421.79366018 2415.69339992 2423.04621506 2416.94046783 C2428.57703861 2422.4478357 2434.03896654 2427.94707162 2439.11148071 2433.88563538 C2443.74445923 2439.07266521 2448.78165568 2443.9010665 2453.70898438 2448.80664062 C2454.98950665 2450.08524077 2456.26979926 2451.36407097 2457.54988098 2452.64311218 C2460.29409317 2455.38417738 2463.03984773 2458.12368458 2465.78681946 2460.86198425 C2470.13551116 2465.19708853 2474.48032801 2469.53606259 2478.82458496 2473.87561035 C2488.04675921 2483.08671123 2497.27315731 2492.29357591 2506.5 2501.5 C2516.46303867 2511.4409909 2526.42533914 2521.38271487 2536.38275576 2531.3293376 C2540.69632286 2535.63793965 2545.01231233 2539.94409556 2549.33020782 2544.24835968 C2552.02095885 2546.93162148 2554.70960962 2549.61698034 2557.3977108 2552.3028965 C2558.63878098 2553.54210377 2559.88071072 2554.78045092 2561.12359047 2556.01784325 C2571.68203206 2566.53115546 2571.68203206 2566.53115546 2575.4942627 2570.9942627 C2580.58274856 2576.95009506 2586.25321647 2582.37517444 2591.80078125 2587.8984375 C2593.0911556 2589.18688976 2594.38130031 2590.47557204 2595.67123413 2591.76446533 C2598.43672731 2594.52681133 2601.20376297 2597.28759934 2603.97201538 2600.04718018 C2608.35431154 2604.41588989 2612.73273374 2608.78846853 2617.1105957 2613.16162109 C2626.40409988 2622.44405149 2635.70182777 2631.72224594 2645 2641 C2655.04002742 2651.01798018 2665.07931698 2661.03669315 2675.1137228 2671.06030464 C2679.46074156 2675.40235806 2683.81018287 2679.74196536 2688.16152954 2684.0796814 C2690.87303926 2686.7837024 2693.58244919 2689.48982001 2696.29130936 2692.19649506 C2697.54205495 2693.44537759 2698.79366018 2694.69339992 2700.04621506 2695.94046783 C2705.57703861 2701.4478357 2711.03896654 2706.94707162 2716.11148071 2712.88563538 C2720.74445923 2718.07266521 2725.78165568 2722.9010665 2730.70898438 2727.80664062 C2731.98950665 2729.08524077 2733.26979926 2730.36407097 2734.54988098 2731.64311218 C2737.29409317 2734.38417738 2740.03984773 2737.12368458 2742.78681946 2739.86198425 C2747.13551116 2744.19708853 2751.48032801 2748.53606259 2755.82458496 2752.87561035 C2765.04675921 2762.08671123 2774.27315731 2771.29357591 2783.5 2780.5 C2793.46303867 2790.4409909 2803.42533914 2800.38271487 2813.38275576 2810.3293376 C2817.69632286 2814.63793965 2822.01231233 2818.94409556 2826.33020782 2823.24835968 C2829.02095885 2825.93162148 2831.70960962 2828.61698034 2834.3977108 2831.3028965 C2835.63878098 2832.54210377 2836.88071072 2833.78045092 2838.12359047 2835.01784325 C2848.68203206 2845.53115546 2848.68203206 2845.53115546 2852.4942627 2849.9942627 C2857.58274856 2855.95009506 2863.25321647 2861.37517444 2868.80078125 2866.8984375 C2870.0911556 2868.18688976 2871.38130031 2869.47557204 2872.67123413 2870.76446533 C2875.43672731 2873.52681133 2878.20376297 2876.28759934 2880.97201538 2879.04718018 C2885.35431154 2883.41588989 2889.73273374 2887.78846853 2894.1105957 2892.16162109 C2903.40409988 2901.44405149 2912.70182777 2910.72224594 2922 2920 C2932.04002742 2930.01798018 2942.07931698 2940.03669315 2952.1137228 2950.06030464 C2956.46074156 2954.40235806 2960.81018287 2958.74196536 2965.16152954 2963.0796814 C2967.87303926 2965.7837024 2970.58244919 2968.48982001 2973.29130936 2971.19649506 C2974.54205495 2972.44537759 2975.79366018 2973.69339992 2977.04621506 2974.94046783 C2985.12666606 2982.98665042 2992.69685955 2991.23623146 3000 3000 C2010 3000 1020 3000 0 3000 C0 2010 0 1020 0 0 Z " fill="#F5801D" transform="translate(0,0)"/>
<path d="M0 0 C1.11981563 0.95442505 2.23886382 1.90975058 3.35758877 2.86545384 C4.29246739 3.66330364 4.29246739 3.66330364 5.24623245 4.47727162 C7.34112156 6.29618263 9.32519263 8.19932498 11.28735352 10.16036987 C12.06096222 10.93115875 12.83457092 11.70194763 13.63162231 12.49609375 C14.45572601 13.32222168 15.27982971 14.14834961 16.12890625 14.99951172 C17.01601288 15.88486603 17.90311951 16.77022034 18.81710815 17.68240356 C21.23219494 20.0938617 23.64503333 22.50752495 26.0567131 24.9223876 C28.59302575 27.46124872 31.13179646 29.99765005 33.67016602 32.53445435 C37.93197495 36.79444848 42.19168166 41.05653614 46.45019531 45.31982422 C51.35672814 50.23179483 56.26684802 55.14015761 61.17885303 60.04665554 C65.4127672 64.27601471 69.64470823 68.50734079 73.87504101 72.74028218 C76.39427177 75.26106307 78.91415201 77.78118474 81.43582153 80.29952621 C84.25046105 83.11070982 87.06095832 85.92601288 89.87109375 88.74169922 C90.69519745 89.56377869 91.51930115 90.38585815 92.36837769 91.23284912 C95.7846647 94.6615886 99.13252627 98.09676558 102.27624512 101.77822876 C107.43063927 107.75824263 113.117697 113.24003925 118.70898438 118.80664062 C119.98950665 120.08524077 121.26979926 121.36407097 122.54988098 122.64311218 C125.29409317 125.38417738 128.03984773 128.12368458 130.78681946 130.86198425 C135.13551116 135.19708853 139.48032801 139.53606259 143.82458496 143.87561035 C153.04675921 153.08671123 162.27315731 162.29357591 171.5 171.5 C181.46303867 181.4409909 191.42533914 191.38271487 201.38275576 201.3293376 C205.69632286 205.63793965 210.01231233 209.94409556 214.33020782 214.24835968 C217.02095885 216.93162148 219.70960962 219.61698034 222.3977108 222.3028965 C223.63878098 223.54210377 224.88071072 224.78045092 226.12359047 226.01784325 C236.68203206 236.53115546 236.68203206 236.53115546 240.4942627 240.9942627 C245.58274856 246.95009506 251.25321647 252.37517444 256.80078125 257.8984375 C258.0911556 259.18688976 259.38130031 260.47557204 260.67123413 261.76446533 C263.43672731 264.52681133 266.20376297 267.28759934 268.97201538 270.04718018 C273.35431154 274.41588989 277.73273374 278.78846853 282.1105957 283.16162109 C291.40409988 292.44405149 300.70182777 301.72224594 310 311 C320.04002742 321.01798018 330.07931698 331.03669315 340.1137228 341.06030464 C344.46074156 345.40235806 348.81018287 349.74196536 353.16152954 354.0796814 C355.87303926 356.7837024 358.58244919 359.48982001 361.29130936 362.19649506 C362.54205495 363.44537759 363.79366018 364.69339992 365.04621506 365.94046783 C370.57703861 371.4478357 376.03896654 376.94707162 381.11148071 382.88563538 C385.74445923 388.07266521 390.78165568 392.9010665 395.70898438 397.80664062 C396.98950665 399.08524077 398.26979926 400.36407097 399.54988098 401.64311218 C402.29409317 404.38417738 405.03984773 407.12368458 407.78681946 409.86198425 C412.13551116 414.19708853 416.48032801 418.53606259 420.82458496 422.87561035 C430.04675921 432.08671123 439.27315731 441.29357591 448.5 450.5 C458.46303867 460.4409909 468.42533914 470.38271487 478.38275576 480.3293376 C482.69632286 484.63793965 487.01231233 488.94409556 491.33020782 493.24835968 C494.02095885 495.93162148 496.70960962 498.61698034 499.3977108 501.3028965 C500.63878098 502.54210377 501.88071072 503.78045092 503.12359047 505.01784325 C513.68203206 515.53115546 513.68203206 515.53115546 517.4942627 519.9942627 C522.58274856 525.95009506 528.25321647 531.37517444 533.80078125 536.8984375 C535.0911556 538.18688976 536.38130031 539.47557204 537.67123413 540.76446533 C540.43672731 543.52681133 543.20376297 546.28759934 545.97201538 549.04718018 C550.35431154 553.41588989 554.73273374 557.78846853 559.1105957 562.16162109 C568.40409988 571.44405149 577.70182777 580.72224594 587 590 C597.04002742 600.01798018 607.07931698 610.03669315 617.1137228 620.06030464 C621.46074156 624.40235806 625.81018287 628.74196536 630.16152954 633.0796814 C632.87303926 635.7837024 635.58244919 638.48982001 638.29130936 641.19649506 C639.54205495 642.44537759 640.79366018 643.69339992 642.04621506 644.94046783 C647.57703861 650.4478357 653.03896654 655.94707162 658.11148071 661.88563538 C662.74445923 667.07266521 667.78165568 671.9010665 672.70898438 676.80664062 C673.98950665 678.08524077 675.26979926 679.36407097 676.54988098 680.64311218 C679.29409317 683.38417738 682.03984773 686.12368458 684.78681946 688.86198425 C689.13551116 693.19708853 693.48032801 697.53606259 697.82458496 701.87561035 C707.04675921 711.08671123 716.27315731 720.29357591 725.5 729.5 C735.46303867 739.4409909 745.42533914 749.38271487 755.38275576 759.3293376 C759.69632286 763.63793965 764.01231233 767.94409556 768.33020782 772.24835968 C771.02095885 774.93162148 773.70960962 777.61698034 776.3977108 780.3028965 C777.63878098 781.54210377 778.88071072 782.78045092 780.12359047 784.01784325 C790.68203206 794.53115546 790.68203206 794.53115546 794.4942627 798.9942627 C799.58274856 804.95009506 805.25321647 810.37517444 810.80078125 815.8984375 C812.0911556 817.18688976 813.38130031 818.47557204 814.67123413 819.76446533 C817.43672731 822.52681133 820.20376297 825.28759934 822.97201538 828.04718018 C827.35431154 832.41588989 831.73273374 836.78846853 836.1105957 841.16162109 C845.40409988 850.44405149 854.70182777 859.72224594 864 869 C874.04002742 879.01798018 884.07931698 889.03669315 894.1137228 899.06030464 C898.46074156 903.40235806 902.81018287 907.74196536 907.16152954 912.0796814 C909.87303926 914.7837024 912.58244919 917.48982001 915.29130936 920.19649506 C916.54205495 921.44537759 917.79366018 922.69339992 919.04621506 923.94046783 C924.57703861 929.4478357 930.03896654 934.94707162 935.11148071 940.88563538 C939.74445923 946.07266521 944.78165568 950.9010665 949.70898438 955.80664062 C950.98950665 957.08524077 952.26979926 958.36407097 953.54988098 959.64311218 C956.29409317 962.38417738 959.03984773 965.12368458 961.78681946 967.86198425 C966.13551116 972.19708853 970.48032801 976.53606259 974.82458496 980.87561035 C984.04675921 990.08671123 993.27315731 999.29357591 1002.5 1008.5 C1012.46303867 1018.4409909 1022.42533914 1028.38271487 1032.38275576 1038.3293376 C1036.69632286 1042.63793965 1041.01231233 1046.94409556 1045.33020782 1051.24835968 C1048.02095885 1053.93162148 1050.70960962 1056.61698034 1053.3977108 1059.3028965 C1054.63878098 1060.54210377 1055.88071072 1061.78045092 1057.12359047 1063.01784325 C1067.68203206 1073.53115546 1067.68203206 1073.53115546 1071.4942627 1077.9942627 C1076.58274856 1083.95009506 1082.25321647 1089.37517444 1087.80078125 1094.8984375 C1089.0911556 1096.18688976 1090.38130031 1097.47557204 1091.67123413 1098.76446533 C1094.43672731 1101.52681133 1097.20376297 1104.28759934 1099.97201538 1107.04718018 C1104.35431154 1111.41588989 1108.73273374 1115.78846853 1113.1105957 1120.16162109 C1122.40409988 1129.44405149 1131.70182777 1138.72224594 1141 1148 C1151.04002742 1158.01798018 1161.07931698 1168.03669315 1171.1137228 1178.06030464 C1175.46074156 1182.40235806 1179.81018287 1186.74196536 1184.16152954 1191.0796814 C1186.87303926 1193.7837024 1189.58244919 1196.48982001 1192.29130936 1199.19649506 C1193.54205495 1200.44537759 1194.79366018 1201.69339992 1196.04621506 1202.94046783 C1201.57703861 1208.4478357 1207.03896654 1213.94707162 1212.11148071 1219.88563538 C1216.74445923 1225.07266521 1221.78165568 1229.9010665 1226.70898438 1234.80664062 C1227.98950665 1236.08524077 1229.26979926 1237.36407097 1230.54988098 1238.64311218 C1233.29409317 1241.38417738 1236.03984773 1244.12368458 1238.78681946 1246.86198425 C1243.13551116 1251.19708853 1247.48032801 1255.53606259 1251.82458496 1259.87561035 C1261.04675921 1269.08671123 1270.27315731 1278.29357591 1279.5 1287.5 C1289.46303867 1297.4409909 1299.42533914 1307.38271487 1309.38275576 1317.3293376 C1313.69632286 1321.63793965 1318.01231233 1325.94409556 1322.33020782 1330.24835968 C1325.02095885 1332.93162148 1327.70960962 1335.61698034 1330.3977108 1338.3028965 C1331.63878098 1339.54210377 1332.88071072 1340.78045092 1334.12359047 1342.01784325 C1344.68203206 1352.53115546 1344.68203206 1352.53115546 1348.4942627 1356.9942627 C1353.58274856 1362.95009506 1359.25321647 1368.37517444 1364.80078125 1373.8984375 C1366.0911556 1375.18688976 1367.38130031 1376.47557204 1368.67123413 1377.76446533 C1371.43672731 1380.52681133 1374.20376297 1383.28759934 1376.97201538 1386.04718018 C1381.35431154 1390.41588989 1385.73273374 1394.78846853 1390.1105957 1399.16162109 C1399.40409988 1408.44405149 1408.70182777 1417.72224594 1418 1427 C1428.04002742 1437.01798018 1438.07931698 1447.03669315 1448.1137228 1457.06030464 C1452.46074156 1461.40235806 1456.81018287 1465.74196536 1461.16152954 1470.0796814 C1463.87303926 1472.7837024 1466.58244919 1475.48982001 1469.29130936 1478.19649506 C1470.54205495 1479.44537759 1471.79366018 1480.69339992 1473.04621506 1481.94046783 C1481.12666606 1489.98665042 1488.69685955 1498.23623146 1496 1507 C506 1507 -484 1507 -1504 1507 C-1497.25000592 1499.1250069 -1497.25000592 1499.1250069 -1494.67240387 1496.54935604 C-1494.08161314 1495.95657424 -1493.49082241 1495.36379244 -1492.88212892 1494.75304756 C-1491.93654011 1493.81182803 -1491.93654011 1493.81182803 -1490.97184849 1492.85159397 C-1490.28491963 1492.16381086 -1489.59799077 1491.47602776 -1488.89024588 1490.76740274 C-1486.59192267 1488.46743752 -1484.29004889 1486.17105967 -1481.98817444 1483.87464905 C-1480.32135039 1482.20810508 -1478.65474794 1480.54133945 -1476.98834795 1478.87437147 C-1472.89100378 1474.77676278 -1468.79134496 1470.68148039 -1464.69071051 1466.58716462 C-1459.77727742 1461.68103182 -1454.86677705 1456.77196768 -1449.9563997 1451.8627768 C-1440.89298311 1442.80169315 -1431.82731198 1433.74286844 -1422.76042366 1424.68525887 C-1410.37674289 1412.31419026 -1397.99635122 1399.93983403 -1385.61683231 1387.56460088 C-1379.8473164 1381.79709114 -1374.07763985 1376.02974209 -1368.30792141 1370.26243496 C-1367.73035252 1369.68510708 -1367.15278363 1369.10777921 -1366.55771266 1368.51295655 C-1352.81443228 1354.77548578 -1339.06957902 1341.03958905 -1325.32446289 1327.30395508 C-1324.72315907 1326.70306491 -1324.12185526 1326.10217474 -1323.50233011 1325.48307577 C-1313.74490876 1315.73237099 -1303.98739198 1305.98176171 -1294.22986281 1296.23116481 C-1285.08849929 1287.0962939 -1275.94717045 1277.96138827 -1266.8059082 1268.82641602 C-1266.20508022 1268.22600262 -1265.60425223 1267.62558922 -1264.98521733 1267.00698147 C-1251.26566441 1253.29687841 -1237.54656224 1239.58632471 -1223.82887173 1225.87435818 C-1222.96386612 1225.00971406 -1222.96386612 1225.00971406 -1222.08138565 1224.12760239 C-1216.3239882 1218.3725904 -1210.5666695 1212.61749964 -1204.80946832 1206.8622913 C-1192.44459147 1194.50172935 -1180.0783391 1182.14254807 -1167.70929015 1169.78616098 C-1158.69273063 1160.77878956 -1149.67788968 1151.7697013 -1140.6648348 1142.75882298 C-1135.78232179 1137.87759941 -1130.89898902 1132.99720266 -1126.01335526 1128.11910248 C-1121.54107603 1123.65356991 -1117.07110628 1119.18573905 -1112.6029598 1114.71607142 C-1110.9861389 1113.099522 -1109.36846676 1111.48382341 -1107.74985886 1109.86906327 C-1105.54891009 1107.67310402 -1103.35108393 1105.47406493 -1101.15399265 1103.27424717 C-1100.21191559 1102.33653939 -1100.21191559 1102.33653939 -1099.25080666 1101.37988803 C-1096.30938268 1098.42859277 -1093.48038702 1095.43396124 -1090.76922506 1092.26922506 C-1085.96704473 1086.72071557 -1080.73116152 1081.59636973 -1075.53840637 1076.41815186 C-1074.37246211 1075.25177082 -1073.20673797 1074.08516971 -1072.04121292 1072.91836977 C-1068.8393463 1069.71427112 -1065.63437358 1066.51329537 -1062.42888533 1063.31282049 C-1058.94148069 1059.82975921 -1055.45699581 1056.34377903 -1051.97214222 1052.85816574 C-1045.86456142 1046.75005212 -1039.7551317 1040.64379274 -1033.64448929 1034.53874207 C-1024.55780076 1025.46034519 -1015.47399433 1016.37906861 -1006.39079937 1007.29717648 C-991.10931412 992.01802612 -975.82557222 976.741135 -960.5406189 961.4654541 C-945.40060151 946.33457721 -930.26182742 931.20245795 -915.12466431 916.06872559 C-914.65430571 915.59847414 -914.18394711 915.1282227 -913.69933523 914.64372122 C-908.44359475 909.38917183 -903.18789384 904.13458287 -897.93220913 898.8799777 C-888.21177153 889.16153956 -878.49116757 879.44326782 -868.77052307 869.72503662 C-868.28417571 869.23880954 -867.79782835 868.75258246 -867.29674318 868.25162122 C-844.15371607 845.11433421 -821.00917301 821.97856384 -797.86427968 798.84314368 C-796.3287172 797.30820955 -794.79315549 795.77327466 -793.25759394 794.2383396 C-777.32348852 778.31073845 -761.38929205 762.38322838 -745.45508143 746.45573246 C-730.03882155 731.04596851 -714.62258739 715.63617882 -699.20643066 700.22631166 C-697.67129834 698.69180599 -696.13616526 697.15730107 -694.60103209 695.62279624 C-671.47640702 672.50762549 -648.35223445 649.39200231 -625.22947693 626.27496338 C-624.74348663 625.78909373 -624.25749632 625.30322408 -623.75677904 624.80263111 C-614.04701406 615.09527251 -604.33731507 605.3878479 -594.62775606 595.68028328 C-589.37697808 590.43058484 -584.12617201 585.1809145 -578.87533569 579.93127441 C-578.40558085 579.46162604 -577.93582601 578.99197767 -577.45183618 578.50809753 C-561.85190645 562.91173981 -546.24997782 547.31738336 -530.64710209 531.72397292 C-515.45048551 516.53653347 -500.2555775 501.34738649 -485.06245923 486.15644741 C-476.03173246 477.12713711 -466.99958544 468.09925279 -457.96543432 459.07336865 C-451.93434674 453.04752997 -445.90506588 447.01988759 -439.87725925 440.9907669 C-436.44067859 437.55354407 -433.00330233 434.11712723 -429.56371176 430.68291616 C-426.43401508 427.55808573 -423.30663682 424.43095428 -420.18108226 421.30198091 C-419.05766168 420.17813949 -417.93340243 419.05513563 -416.80819748 417.93308073 C-411.56426673 412.70298923 -406.41355975 407.44672269 -401.5928415 401.81945211 C-398.83169237 398.6654794 -395.8609155 395.72535442 -392.89171696 392.76866913 C-392.20829057 392.0840889 -391.52486419 391.39950867 -390.82072791 390.69418359 C-388.54040318 388.41122151 -386.25654308 386.1318304 -383.97267151 383.85241699 C-382.31649655 382.19580574 -380.66054145 380.53897467 -379.00478691 378.88194323 C-374.93789275 374.81304938 -370.86868557 370.74647933 -366.79849059 366.68088758 C-361.92104312 361.80869064 -357.04652019 356.93357172 -352.17209695 352.05834948 C-343.17722961 343.06217005 -334.18004168 334.06831489 -325.18152046 325.07579041 C-316.27421418 316.17440484 -307.36794604 307.27198267 -298.46305656 298.36817932 C-297.90899903 297.81419053 -297.3549415 297.26020173 -296.78409434 296.6894254 C-293.97022439 293.87589379 -291.15637293 291.06234371 -288.34252857 288.24878651 C-268.42151471 268.32987204 -248.49818429 248.41327612 -228.57348633 228.49804688 C-209.21912072 209.15286832 -189.86580775 189.80663768 -170.51391602 170.45898438 C-169.61886349 169.56412914 -169.61886349 169.56412914 -168.7057291 168.65119603 C-162.71330701 162.66009248 -156.72090629 156.66896756 -150.72852121 150.67782699 C-138.52176956 138.47361143 -126.31487535 126.26953847 -114.1078949 114.06555176 C-113.54666036 113.50445451 -112.98542582 112.94335726 -112.40718417 112.36525706 C-74.9405113 74.90778202 -37.47050506 37.45364148 0 0 Z " fill="#3779DD" transform="translate(1504,1493)"/>
<path d="M0 0 C496.98 0 993.96 0 1506 0 C1499.33567663 7.77504394 1499.33567663 7.77504394 1496.0625 10.9375 C1493.52415465 13.43767474 1491.11763711 15.97154638 1488.8125 18.6875 C1485.55569958 22.48335704 1482.05387562 25.98622453 1478.5 29.5 C1474.44533738 33.50911741 1470.56021837 37.55864516 1466.87109375 41.91015625 C1463.85849309 45.27496075 1460.61427958 48.40545188 1457.40209961 51.57836914 C1454.65658173 54.30324079 1452.00722524 57.05032325 1449.5 60 C1446.5073396 63.52077694 1443.2846735 66.7554753 1440 70 C1436.73617385 73.22398087 1433.53169859 76.43517847 1430.5625 79.9375 C1426.87389834 84.2786307 1422.80756243 88.21834341 1418.76025391 92.22021484 C1415.29629877 95.66020488 1412.02882616 99.18544944 1408.87109375 102.91015625 C1405.85849309 106.27496075 1402.61427958 109.40545188 1399.40209961 112.57836914 C1396.65658173 115.30324079 1394.00722524 118.05032325 1391.5 121 C1388.5073396 124.52077694 1385.2846735 127.7554753 1382 131 C1378.73617385 134.22398087 1375.53169859 137.43517847 1372.5625 140.9375 C1368.87389834 145.2786307 1364.80756243 149.21834341 1360.76025391 153.22021484 C1357.29629877 156.66020488 1354.02882616 160.18544944 1350.87109375 163.91015625 C1347.85849309 167.27496075 1344.61427958 170.40545188 1341.40209961 173.57836914 C1338.65658173 176.30324079 1336.00722524 179.05032325 1333.5 182 C1330.5073396 185.52077694 1327.2846735 188.7554753 1324 192 C1320.73617385 195.22398087 1317.53169859 198.43517847 1314.5625 201.9375 C1310.87389834 206.2786307 1306.80756243 210.21834341 1302.76025391 214.22021484 C1299.29629877 217.66020488 1296.02882616 221.18544944 1292.87109375 224.91015625 C1289.85849309 228.27496075 1286.61427958 231.40545188 1283.40209961 234.57836914 C1280.65658173 237.30324079 1278.00722524 240.05032325 1275.5 243 C1272.5073396 246.52077694 1269.2846735 249.7554753 1266 253 C1262.73617385 256.22398087 1259.53169859 259.43517847 1256.5625 262.9375 C1252.87389834 267.2786307 1248.80756243 271.21834341 1244.76025391 275.22021484 C1241.29629877 278.66020488 1238.02882616 282.18544944 1234.87109375 285.91015625 C1231.85849309 289.27496075 1228.61427958 292.40545188 1225.40209961 295.57836914 C1222.65658173 298.30324079 1220.00722524 301.05032325 1217.5 304 C1214.02389423 308.0895362 1210.21750344 311.8096054 1206.40234375 315.578125 C1203.65674514 318.30308001 1201.00730048 321.05023473 1198.5 324 C1195.02389423 328.0895362 1191.21750344 331.8096054 1187.40234375 335.578125 C1184.65674514 338.30308001 1182.00730048 341.05023473 1179.5 344 C1176.5073396 347.52077694 1173.2846735 350.7554753 1170 354 C1166.73617385 357.22398087 1163.53169859 360.43517847 1160.5625 363.9375 C1156.87389834 368.2786307 1152.80756243 372.21834341 1148.76025391 376.22021484 C1145.29629877 379.66020488 1142.02882616 383.18544944 1138.87109375 386.91015625 C1135.85849309 390.27496075 1132.61427958 393.40545188 1129.40209961 396.57836914 C1126.65658173 399.30324079 1124.00722524 402.05032325 1121.5 405 C1118.02389423 409.0895362 1114.21750344 412.8096054 1110.40234375 416.578125 C1107.65674514 419.30308001 1105.00730048 422.05023473 1102.5 425 C1099.5073396 428.52077694 1096.2846735 431.7554753 1093 435 C1089.73617385 438.22398087 1086.53169859 441.43517847 1083.5625 444.9375 C1079.87389834 449.2786307 1075.80756243 453.21834341 1071.76025391 457.22021484 C1068.29629877 460.66020488 1065.02882616 464.18544944 1061.87109375 467.91015625 C1058.85849309 471.27496075 1055.61427958 474.40545188 1052.40209961 477.57836914 C1049.65658173 480.30324079 1047.00722524 483.05032325 1044.5 486 C1041.02389423 490.0895362 1037.21750344 493.8096054 1033.40234375 497.578125 C1030.65674514 500.30308001 1028.00730048 503.05023473 1025.5 506 C1022.02389423 510.0895362 1018.21750344 513.8096054 1014.40234375 517.578125 C1011.65674514 520.30308001 1009.00730048 523.05023473 1006.5 526 C1003.5073396 529.52077694 1000.2846735 532.7554753 997 536 C993.73617385 539.22398087 990.53169859 542.43517847 987.5625 545.9375 C983.87389834 550.2786307 979.80756243 554.21834341 975.76025391 558.22021484 C972.29629877 561.66020488 969.02882616 565.18544944 965.87109375 568.91015625 C962.85849309 572.27496075 959.61427958 575.40545188 956.40209961 578.57836914 C953.65658173 581.30324079 951.00722524 584.05032325 948.5 587 C945.02389423 591.0895362 941.21750344 594.8096054 937.40234375 598.578125 C934.65674514 601.30308001 932.00730048 604.05023473 929.5 607 C926.5073396 610.52077694 923.2846735 613.7554753 920 617 C916.73617385 620.22398087 913.53169859 623.43517847 910.5625 626.9375 C906.87389834 631.2786307 902.80756243 635.21834341 898.76025391 639.22021484 C895.29629877 642.66020488 892.02882616 646.18544944 888.87109375 649.91015625 C885.85849309 653.27496075 882.61427958 656.40545188 879.40209961 659.57836914 C876.65658173 662.30324079 874.00722524 665.05032325 871.5 668 C868.02389423 672.0895362 864.21750344 675.8096054 860.40234375 679.578125 C857.65674514 682.30308001 855.00730048 685.05023473 852.5 688 C849.02389423 692.0895362 845.21750344 695.8096054 841.40234375 699.578125 C838.65674514 702.30308001 836.00730048 705.05023473 833.5 708 C830.5073396 711.52077694 827.2846735 714.7554753 824 718 C820.73617385 721.22398087 817.53169859 724.43517847 814.5625 727.9375 C810.87389834 732.2786307 806.80756243 736.21834341 802.76025391 740.22021484 C799.29629877 743.66020488 796.02882616 747.18544944 792.87109375 750.91015625 C789.85849309 754.27496075 786.61427958 757.40545188 783.40209961 760.57836914 C780.65658173 763.30324079 778.00722524 766.05032325 775.5 769 C772.02389423 773.0895362 768.21750344 776.8096054 764.40234375 780.578125 C761.65674514 783.30308001 759.00730048 786.05023473 756.5 789 C753.5073396 792.52077694 750.2846735 795.7554753 747 799 C743.73617385 802.22398087 740.53169859 805.43517847 737.5625 808.9375 C733.87389834 813.2786307 729.80756243 817.21834341 725.76025391 821.22021484 C722.29629877 824.66020488 719.02882616 828.18544944 715.87109375 831.91015625 C712.85849309 835.27496075 709.61427958 838.40545188 706.40209961 841.57836914 C703.65658173 844.30324079 701.00722524 847.05032325 698.5 850 C695.02389423 854.0895362 691.21750344 857.8096054 687.40234375 861.578125 C684.65674514 864.30308001 682.00730048 867.05023473 679.5 870 C676.02389423 874.0895362 672.21750344 877.8096054 668.40234375 881.578125 C665.65674514 884.30308001 663.00730048 887.05023473 660.5 890 C657.5073396 893.52077694 654.2846735 896.7554753 651 900 C647.73617385 903.22398087 644.53169859 906.43517847 641.5625 909.9375 C637.87389834 914.2786307 633.80756243 918.21834341 629.76025391 922.22021484 C626.29629877 925.66020488 623.02882616 929.18544944 619.87109375 932.91015625 C616.85849309 936.27496075 613.61427958 939.40545188 610.40209961 942.57836914 C607.65658173 945.30324079 605.00722524 948.05032325 602.5 951 C599.5073396 954.52077694 596.2846735 957.7554753 593 961 C589.73617385 964.22398087 586.53169859 967.43517847 583.5625 970.9375 C579.87389834 975.2786307 575.80756243 979.21834341 571.76025391 983.22021484 C568.29629877 986.66020488 565.02882616 990.18544944 561.87109375 993.91015625 C558.85849309 997.27496075 555.61427958 1000.40545188 552.40209961 1003.57836914 C549.65658173 1006.30324079 547.00722524 1009.05032325 544.5 1012 C541.5073396 1015.52077694 538.2846735 1018.7554753 535 1022 C531.73617385 1025.22398087 528.53169859 1028.43517847 525.5625 1031.9375 C521.87389834 1036.2786307 517.80756243 1040.21834341 513.76025391 1044.22021484 C510.29629877 1047.66020488 507.02882616 1051.18544944 503.87109375 1054.91015625 C500.85849309 1058.27496075 497.61427958 1061.40545188 494.40209961 1064.57836914 C491.65658173 1067.30324079 489.00722524 1070.05032325 486.5 1073 C483.5073396 1076.52077694 480.2846735 1079.7554753 477 1083 C473.73617385 1086.22398087 470.53169859 1089.43517847 467.5625 1092.9375 C463.87389834 1097.2786307 459.80756243 1101.21834341 455.76025391 1105.22021484 C452.29629877 1108.66020488 449.02882616 1112.18544944 445.87109375 1115.91015625 C442.85849309 1119.27496075 439.61427958 1122.40545188 436.40209961 1125.57836914 C433.65658173 1128.30324079 431.00722524 1131.05032325 428.5 1134 C425.5073396 1137.52077694 422.2846735 1140.7554753 419 1144 C415.73617385 1147.22398087 412.53169859 1150.43517847 409.5625 1153.9375 C405.87389834 1158.2786307 401.80756243 1162.21834341 397.76025391 1166.22021484 C394.29629877 1169.66020488 391.02882616 1173.18544944 387.87109375 1176.91015625 C384.85849309 1180.27496075 381.61427958 1183.40545188 378.40209961 1186.57836914 C375.65658173 1189.30324079 373.00722524 1192.05032325 370.5 1195 C367.5073396 1198.52077694 364.2846735 1201.7554753 361 1205 C357.73617385 1208.22398087 354.53169859 1211.43517847 351.5625 1214.9375 C347.87389834 1219.2786307 343.80756243 1223.21834341 339.76025391 1227.22021484 C336.29629877 1230.66020488 333.02882616 1234.18544944 329.87109375 1237.91015625 C326.85849309 1241.27496075 323.61427958 1244.40545188 320.40209961 1247.57836914 C317.65658173 1250.30324079 315.00722524 1253.05032325 312.5 1256 C309.5073396 1259.52077694 306.2846735 1262.7554753 303 1266 C299.73617385 1269.22398087 296.53169859 1272.43517847 293.5625 1275.9375 C289.87389834 1280.2786307 285.80756243 1284.21834341 281.76025391 1288.22021484 C278.29629877 1291.66020488 275.02882616 1295.18544944 271.87109375 1298.91015625 C268.85849309 1302.27496075 265.61427958 1305.40545188 262.40209961 1308.57836914 C259.65658173 1311.30324079 257.00722524 1314.05032325 254.5 1317 C251.5073396 1320.52077694 248.2846735 1323.7554753 245 1327 C241.73617385 1330.22398087 238.53169859 1333.43517847 235.5625 1336.9375 C231.87389834 1341.2786307 227.80756243 1345.21834341 223.76025391 1349.22021484 C220.29629877 1352.66020488 217.02882616 1356.18544944 213.87109375 1359.91015625 C210.85849309 1363.27496075 207.61427958 1366.40545188 204.40209961 1369.57836914 C201.65658173 1372.30324079 199.00722524 1375.05032325 196.5 1378 C193.5073396 1381.52077694 190.2846735 1384.7554753 187 1388 C183.73617385 1391.22398087 180.53169859 1394.43517847 177.5625 1397.9375 C173.87389834 1402.2786307 169.80756243 1406.21834341 165.76025391 1410.22021484 C162.29629877 1413.66020488 159.02882616 1417.18544944 155.87109375 1420.91015625 C152.85849309 1424.27496075 149.61427958 1427.40545188 146.40209961 1430.57836914 C143.65658173 1433.30324079 141.00722524 1436.05032325 138.5 1439 C135.02389423 1443.0895362 131.21750344 1446.8096054 127.40234375 1450.578125 C124.65674514 1453.30308001 122.00730048 1456.05023473 119.5 1459 C116.02389423 1463.0895362 112.21750344 1466.8096054 108.40234375 1470.578125 C105.65674514 1473.30308001 103.00730048 1476.05023473 100.5 1479 C97.06516532 1483.04098198 93.3203259 1486.73806641 89.52539062 1490.4375 C86.76254444 1493.15239291 84.15349399 1495.93942421 81.625 1498.875 C77.32556548 1503.8453353 72.64972314 1508.40103784 67.9609375 1513 C64.01978798 1516.89549914 60.29958979 1520.8955868 56.68359375 1525.09375 C54.0882582 1528.03232019 51.30294582 1530.76130509 48.5 1533.5 C44.44295803 1537.50655128 40.560008 1541.5588933 36.87109375 1545.91015625 C33.85849309 1549.27496075 30.61427958 1552.40545188 27.40209961 1555.57836914 C24.65658173 1558.30324079 22.00722524 1561.05032325 19.5 1564 C14.68320835 1569.66121685 9.28516778 1574.78192179 4 1580 C2.68 1581.32 1.36 1582.64 0 1584 C0 1061.28 0 538.56 0 0 Z " fill="#2C96FE" transform="translate(0,0)"/>
<path d="M0 0 C2.43177108 -0.00962288 4.86352506 -0.02495266 7.29522875 -0.04545447 C12.58903386 -0.07699025 17.88048551 -0.06825561 23.17403237 -0.0238596 C31.09794029 0.04233567 39.02055447 0.0329414 46.94463929 0.00907492 C60.45043174 -0.02942976 73.95549286 -0.00649852 87.46119404 0.0499506 C101.1448178 0.10689123 114.82806357 0.1353914 128.51180935 0.12922192 C129.37646852 0.12884892 130.24112769 0.12847592 131.13198865 0.12809162 C135.54098432 0.12605871 139.94997961 0.12356338 144.35897495 0.12090475 C176.26202234 0.10261273 208.16473335 0.1471888 240.0676775 0.22513103 C271.66042591 0.30213096 303.25303029 0.35220873 334.84587193 0.36621761 C335.82713194 0.36666497 336.80839195 0.36711232 337.81938711 0.36757323 C346.78172617 0.37164484 355.74406534 0.37538482 364.7064047 0.3787269 C386.98547219 0.3870389 409.26453631 0.39951 431.54360008 0.41480446 C433.06538527 0.41584415 433.06538527 0.41584415 434.61791359 0.41690484 C483.96499391 0.45098213 533.31197914 0.53297937 582.65899181 0.61890888 C599.78285176 0.64870055 616.90671203 0.67828031 634.03057384 0.70698261 C635.62361583 0.70965312 635.62361583 0.70965312 637.24884048 0.71237758 C686.62274283 0.79485542 735.9966615 0.84328483 785.37061466 0.88293495 C788.57613137 0.88550978 791.78164807 0.88809928 794.98716477 0.89069178 C816.230347 0.90784898 837.47352967 0.92441942 858.71671267 0.94059695 C900.98513167 0.97279121 943.25354756 1.00843307 985.52196172 1.04644356 C987.53487964 1.04825368 989.54779756 1.05006139 991.56071548 1.05186668 C1082.17408765 1.1331535 1172.78739012 1.25454576 1263.40069103 1.39332294 C1264.67335386 1.39527168 1264.67335386 1.39527168 1265.97172706 1.39725979 C1308.40467669 1.46226537 1350.83762248 1.52955991 1393.27056408 1.59962177 C1386.98196649 9.01357839 1386.98196649 9.01357839 1384.0199123 11.97332138 C1383.15952771 12.83669257 1383.15952771 12.83669257 1382.28176162 13.7175056 C1381.67062122 14.32573314 1381.05948082 14.93396068 1380.42982101 15.56061935 C1379.42981845 16.56190329 1379.42981845 16.56190329 1378.40961382 17.58341518 C1376.1802109 19.81445942 1373.94725924 22.04191695 1371.71430492 24.26940632 C1370.09697847 25.88645267 1368.47987365 27.50372072 1366.86297125 29.12119108 C1362.42286468 33.56159307 1357.97965056 37.99887412 1353.53593171 42.43566072 C1349.23502979 46.73084247 1344.93649179 51.02838746 1340.6379139 55.32589485 C1331.84496436 64.11651165 1323.04976047 72.90486956 1314.25333881 81.69201183 C1302.23888661 93.69385083 1290.22772444 105.69897836 1278.2174347 117.70498259 C1272.61973586 123.30067527 1267.02187638 128.89620725 1261.42397499 134.49169731 C1260.86360854 135.05182275 1260.30324209 135.61194819 1259.72589484 136.18904712 C1246.39239288 149.51673966 1233.05731797 162.84285804 1219.72198009 176.16871357 C1219.13861439 176.75166563 1218.55524869 177.33461769 1217.95420523 177.93523496 C1208.48790922 187.39481443 1199.02151777 196.85429839 1189.55511391 206.31376994 C1180.68653701 215.17585423 1171.81799479 224.03797324 1162.94951916 232.90015888 C1162.07517018 233.77388597 1162.07517018 233.77388597 1161.18315759 234.66526412 C1147.87264932 247.96632228 1134.56259195 261.26783122 1121.2539463 274.5707531 C1120.69445084 275.13000757 1120.13495538 275.68926204 1119.5585055 276.26546362 C1113.97253385 281.84904978 1108.38664096 287.43271473 1102.8008656 293.01649727 C1090.80487383 305.00817443 1078.80750686 316.99847109 1066.80734236 328.98597267 C1058.05963222 337.72449389 1049.3136414 346.46473264 1040.56943638 355.20676129 C1035.8327424 359.94216599 1031.09516225 364.6766756 1026.35541439 369.40902424 C1022.01636482 373.74132566 1017.67962655 378.07592685 1013.34471028 382.41236395 C1011.7763413 383.98046151 1010.20712151 385.54770868 1008.63696504 387.11401641 C1006.50136468 389.24462483 1004.36889041 391.37831532 1002.23714828 393.51278305 C1001.62834905 394.11866942 1001.01954982 394.72455579 1000.39230213 395.34880236 C997.49788017 398.25322789 994.71942185 401.20433804 992.05150217 404.31868368 C987.24461925 409.87045802 982.00566237 414.9993263 976.80897045 420.18146992 C975.64302619 421.34785095 974.47730205 422.51445207 973.311777 423.681252 C970.10991038 426.88535065 966.90493765 430.0863264 963.69944941 433.28680128 C960.21204477 436.76986256 956.72755989 440.25584274 953.2427063 443.74145603 C947.1351255 449.84956965 941.02569578 455.95582903 934.91505337 462.06087971 C925.82836484 471.13927658 916.74455841 480.22055316 907.66136345 489.30244529 C892.3798782 504.58159565 877.0961363 519.85848677 861.81118298 535.13416767 C846.67116559 550.26504456 831.5323915 565.39716382 816.39522839 580.53089619 C815.92486979 581.00114763 815.45451119 581.47139907 814.96989931 581.95590055 C809.71415883 587.21044994 804.45845792 592.46503891 799.20277321 597.71964407 C789.48233561 607.43808221 779.76173165 617.15635395 770.04108715 626.87458515 C769.55473979 627.36081223 769.06839242 627.84703932 768.56730726 628.34800055 C745.42428015 651.48528756 722.27973709 674.62105793 699.13484376 697.75647809 C697.59928128 699.29141222 696.06371957 700.82634711 694.52815802 702.36128217 C678.5940526 718.28888332 662.65985613 734.2163934 646.72564551 750.14388931 C631.30938563 765.55365326 615.89315147 780.96344295 600.47699474 796.37331011 C598.94186242 797.90781578 597.40672934 799.4423207 595.87159617 800.97682554 C572.7469711 824.09199629 549.62279853 847.20761947 526.50004101 870.32465839 C526.01405071 870.81052804 525.5280604 871.29639769 525.02734312 871.79699066 C515.31757814 881.50434926 505.60787915 891.21177387 495.89832014 900.91933849 C490.64754216 906.16903693 485.39673609 911.41870727 480.14589977 916.66834736 C479.67614493 917.13799573 479.20639009 917.60764411 478.72240026 918.09152425 C463.12247053 933.68788196 447.5205419 949.28223842 431.91766617 964.87564886 C416.72104959 980.0630883 401.52614158 995.25223529 386.33302331 1010.44317436 C377.30229654 1019.47248466 368.27014952 1028.50036898 359.2359984 1037.52625312 C353.20491082 1043.55209181 347.17562996 1049.57973418 341.14782333 1055.60885487 C337.71124267 1059.0460777 334.27386641 1062.48249455 330.83427584 1065.91670561 C327.70457916 1069.04153604 324.5772009 1072.1686675 321.45164634 1075.29764086 C320.32822576 1076.42148228 319.2039665 1077.54448614 318.07876156 1078.66654104 C312.83605936 1083.89540723 307.68663645 1089.15043963 302.86703466 1094.77637047 C300.08555189 1097.95296649 297.09261453 1100.91453292 294.10260487 1103.89342213 C293.41272458 1104.58475585 292.7228443 1105.27608957 292.01205856 1105.9883728 C289.70976521 1108.29430298 287.403944 1110.59667174 285.09810925 1112.89906025 C283.4261496 1114.57217261 281.75440793 1116.24550282 280.08286512 1117.91903162 C275.97689426 1122.02873785 271.8686089 1126.13611986 267.7593289 1130.24251707 C262.83507563 1135.16357574 257.91373273 1140.08754109 252.99246889 1145.011589 C243.35273714 1154.65658132 233.71015227 1164.29871721 224.06634482 1173.93963415 C215.63124505 1182.37221808 207.19707568 1190.80573118 198.76383114 1199.24017048 C198.20437334 1199.79970466 197.64491554 1200.35923884 197.06850448 1200.93572861 C194.79754393 1203.20700049 192.52658692 1205.47827591 190.25563572 1207.74955714 C168.96158333 1229.04666728 147.66461773 1250.3408621 126.36634469 1271.63375127 C107.43141202 1290.5639339 88.49907256 1309.49670638 69.56890392 1328.43165302 C48.30430374 1349.70160248 27.03809589 1370.96994241 5.76927412 1392.23567057 C3.5043137 1394.50031025 1.23935723 1396.76495389 -1.02559757 1399.02959919 C-1.86214738 1399.86603038 -1.86214738 1399.86603038 -2.71559717 1400.71935916 C-11.15092447 1409.15354723 -19.58501388 1417.58897185 -28.01850986 1426.02499104 C-37.59874204 1435.60807519 -47.18074438 1445.18938535 -56.76512258 1454.768323 C-62.13436325 1460.13461668 -67.50220906 1465.50229692 -72.86809676 1470.87194336 C-76.86321057 1474.86954804 -80.86090565 1478.86456277 -84.85965677 1482.85852879 C-86.48549817 1484.48324462 -88.11047953 1486.10882161 -89.73455493 1487.73530275 C-91.92626601 1489.93001353 -94.12097148 1492.12168328 -96.31652355 1494.31255054 C-97.28181497 1495.28135371 -97.28181497 1495.28135371 -98.26660722 1496.26972866 C-102.61528546 1500.59962177 -102.61528546 1500.59962177 -103.72943592 1500.59962177 C-103.78991608 1457.36557532 -103.84790732 1414.1315257 -103.90399647 1370.89747334 C-103.90564313 1369.62846108 -103.90564313 1369.62846108 -103.90732306 1368.33381222 C-104.02487407 1277.69007189 -104.12633063 1187.04633048 -104.19521046 1096.40253925 C-104.19674441 1094.38928477 -104.19827838 1092.37603029 -104.19981236 1090.36277581 C-104.23196133 1048.10479759 -104.26184527 1005.84681801 -104.28911238 963.58883636 C-104.30281181 942.36151186 -104.31694652 921.13418767 -104.33149278 899.90686374 C-104.33368451 896.70478563 -104.33586382 893.50270752 -104.3380426 890.3006294 C-104.37170567 840.98834497 -104.41470869 791.6760904 -104.48474598 742.36384296 C-104.48625187 741.30344332 -104.48775775 740.24304368 -104.48930927 739.15051071 C-104.51364561 722.05353646 -104.53876521 704.95656336 -104.56398877 687.85959039 C-104.6366212 638.61993637 -104.7034696 589.38030529 -104.73197365 540.14060307 C-104.73256253 539.12819937 -104.73315142 538.11579567 -104.73375815 537.07271308 C-104.74658104 514.84891559 -104.75642467 492.62511782 -104.76344673 470.40131777 C-104.76632461 461.45944118 -104.76963142 452.51756475 -104.77308559 443.57568836 C-104.77345329 442.59703411 -104.77382099 441.61837986 -104.77419983 440.61006942 C-104.78626396 409.06868809 -104.83325657 377.52747725 -104.89854021 345.98616475 C-104.96413421 314.21775001 -104.99553274 282.44950076 -104.97929979 250.68101658 C-104.97706586 246.29233 -104.97522467 241.90364333 -104.97362041 237.51495647 C-104.97329173 236.65463841 -104.97296304 235.79432035 -104.9726244 234.90793204 C-104.96843492 221.27752114 -105.00128617 207.64746007 -105.04954441 194.01714452 C-105.09622242 180.61860587 -105.10378853 167.22052124 -105.06958587 153.82193971 C-105.05070967 145.96356347 -105.06201343 138.10662598 -105.11782294 130.24841731 C-105.1558809 124.41742804 -105.13665914 118.58754806 -105.09497565 112.7565519 C-105.08710525 110.41004646 -105.09776733 108.06338878 -105.12902362 105.71707832 C-105.380814 85.54005208 -105.380814 85.54005208 -98.47296554 78.45429969 C-96.59701915 76.79152234 -94.68299117 75.17048944 -92.72943592 73.59962177 C-90.96277515 71.86644269 -89.21017835 70.11866972 -87.47943592 68.34962177 C-86.65701405 67.5375124 -85.83459217 66.72540302 -84.98724842 65.88868427 C-83.01802349 63.89220363 -81.17184086 61.85809713 -79.35443592 59.72462177 C-76.31512825 56.16675924 -73.05579246 52.88520789 -69.72943592 49.59962177 C-66.46560342 46.37564679 -63.26113406 43.16444277 -60.29193592 39.66212177 C-57.12933611 35.94004484 -53.69972896 32.53096105 -50.22943592 29.09962177 C-46.78005709 25.68891853 -43.3682369 22.30340693 -40.22943592 18.59962177 C-39.72769485 18.03875117 -39.22595378 17.47788056 -38.70900844 16.90001388 C-37.19060086 15.13552544 -35.76264914 13.29286786 -34.37812703 11.42148348 C-24.75809854 -0.6504294 -14.59590183 -0.22974005 0 0 Z " fill="#BC596F" transform="translate(103.72943592071533,1498.400378227234)"/>
<path d="M0 0 C26.07 0 52.14 0 79 0 C77.31148181 3.37703639 76.34574053 4.89006947 73.76953125 7.390625 C73.13515137 8.01340332 72.50077148 8.63618164 71.84716797 9.27783203 C71.17572754 9.92864746 70.50428711 10.57946289 69.8125 11.25 C68.43433998 12.60488357 67.05800937 13.96163071 65.68359375 15.3203125 C65.06540771 15.92633301 64.44722168 16.53235352 63.81030273 17.15673828 C61.37177877 19.63965884 59.10913196 22.25393151 56.8671875 24.9140625 C53.65513072 28.50242719 50.18308509 31.8358021 46.75952148 35.22094727 C43.29580909 38.66068587 40.02859965 42.18571662 36.87109375 45.91015625 C33.85849309 49.27496075 30.61427958 52.40545188 27.40209961 55.57836914 C24.65658173 58.30324079 22.00722524 61.05032325 19.5 64 C14.68320835 69.66121685 9.28516778 74.78192179 4 80 C2.68 81.32 1.36 82.64 0 84 C0 56.28 0 28.56 0 0 Z " fill="#0097DD" transform="translate(0,1500)"/>
<path d="M0 0 C5.46875 4.58984375 5.46875 4.58984375 7 6 C7 6.33 7 6.66 7 7 C2.71 7 -1.58 7 -6 7 C-4.02 4.69 -2.04 2.38 0 0 Z " fill="#8763FE" transform="translate(1504,1493)"/>
</svg>
