<?xml version="1.0" encoding="UTF-8"?>
<svg version="1.1" xmlns="http://www.w3.org/2000/svg" width="2418" height="2500">
<path d="M0 0 C1.94132813 -0.04253906 1.94132813 -0.04253906 3.921875 -0.0859375 C13.94312364 0.51378519 22.88760549 6.1135186 31.375 11 C33.02447632 11.93694702 33.02447632 11.93694702 34.70727539 12.89282227 C42.08698238 17.09660324 49.42132868 21.37543282 56.7265625 25.70703125 C72.09549172 34.80200186 87.63924296 43.60460182 103.1522522 52.45098877 C112.19307341 57.60824443 121.19443912 62.8299611 130.17675781 68.08837891 C137.79905778 72.54416344 145.45531311 76.93897146 153.125 81.3125 C167.59950369 89.56665636 182.03221846 97.89217372 196.45898438 106.22949219 C199.68068275 108.09102672 202.90271079 109.95198839 206.125 111.8125 C207.19105469 112.42802734 208.25710938 113.04355469 209.35546875 113.67773438 C217.93995597 118.62953042 226.54580293 123.54324868 235.15472412 128.45236206 C244.19471708 133.60916608 253.19525321 138.83043769 262.17675781 144.08837891 C269.79905778 148.54416344 277.45531311 152.93897146 285.125 157.3125 C299.59950369 165.56665636 314.03221846 173.89217372 328.45898438 182.22949219 C331.68068275 184.09102672 334.90271079 185.95198839 338.125 187.8125 C339.19105469 188.42802734 340.25710938 189.04355469 341.35546875 189.67773438 C349.93995597 194.62953042 358.54580293 199.54324868 367.15472412 204.45236206 C376.19471708 209.60916608 385.19525321 214.83043769 394.17675781 220.08837891 C401.79905778 224.54416344 409.45531311 228.93897146 417.125 233.3125 C427.2904719 239.10940995 437.44324365 244.92727492 447.57250977 250.78735352 C453.10439549 253.98735614 458.64392451 257.17284306 464.19921875 260.33203125 C501.15225472 281.38251573 501.15225472 281.38251573 506.25 298.375 C507.14501223 302.81169298 507.37665446 307.0162813 507.38061053 311.53863227 C507.38258304 312.24142254 507.38455555 312.94421281 507.38658784 313.66829975 C507.39199359 316.02764281 507.39030596 318.38692703 507.3886652 320.74627495 C507.39111281 322.46040199 507.39399673 324.17452846 507.39727798 325.88865411 C507.40506166 330.62002035 507.40662045 335.35137165 507.4072054 340.0827435 C507.40893176 345.22205607 507.41641561 350.36136069 507.42318195 355.50066864 C507.43425083 364.514785 507.44161536 373.52889855 507.44658089 382.54302025 C507.45398114 395.94676568 507.46706295 409.35050131 507.48132664 422.75424098 C507.50515672 445.29965781 507.5243599 467.84507607 507.54092598 490.39049911 C507.55734736 512.71981927 507.57582377 535.04913618 507.59705925 557.3784523 C507.59771764 558.07174553 507.59837604 558.76503875 507.59905439 559.47934087 C507.60506885 565.81144509 507.61110866 572.14354928 507.61717889 578.47565345 C507.63226894 594.21702027 507.647041 609.95838739 507.66159725 625.69975471 C507.66259196 626.77503188 507.66259196 626.77503188 507.66360676 627.87203182 C507.69584201 662.74834464 507.72441356 697.62466034 507.75268555 732.50097656 C507.76249941 744.60483808 507.77232946 756.70869958 507.78222656 768.81256104 C507.78284036 769.56323697 507.78345416 770.3139129 507.78408656 771.08733659 C507.81263916 805.98008815 507.84379327 840.87283725 507.87561907 875.76558596 C507.87768501 878.03066671 507.87974983 880.29574746 507.88181442 882.56082821 C507.89549829 897.57155386 507.90922701 912.58227946 507.92298577 927.59300503 C507.95036221 957.46098484 507.9774751 987.32896488 508.00440695 1017.1969451 C508.00568953 1018.61935731 508.0069723 1020.04176953 508.00825526 1021.46418175 C508.08574321 1107.37734592 508.15769938 1193.29051475 508.25 1305.375 C512.17153611 1303.18661732 516.09173163 1300.99584344 520.01171875 1298.8046875 C521.65182922 1297.88949341 521.65182922 1297.88949341 523.32507324 1296.95581055 C530.61561584 1292.87871169 537.85704062 1288.72556653 545.0625 1284.5 C546.16198975 1283.85619385 547.26147949 1283.2123877 548.39428711 1282.54907227 C549.2631958 1282.03916748 550.13210449 1281.5292627 551.02734375 1281.00390625 C557.69976054 1277.10145332 564.40980137 1273.2656442 571.125 1269.4375 C583.45048783 1262.40938099 595.74722356 1255.33259399 608.03222656 1248.23388672 C614.52125096 1244.48521966 621.0133695 1240.74191333 627.50488281 1236.99755859 C632.89748314 1233.88681661 638.28937822 1230.77486673 643.6796875 1227.66015625 C655.48629484 1220.83997363 667.31027 1214.0517674 679.15472412 1207.29763794 C687.21263212 1202.70105777 695.24417786 1198.0617584 703.25 1193.375 C711.84522672 1188.3431931 720.4731213 1183.37110928 729.125 1178.4375 C738.22079987 1173.25057574 747.30712263 1168.04818494 756.375 1162.8125 C757.44105469 1162.19697266 758.50710938 1161.58144531 759.60546875 1160.94726562 C762.82057523 1159.09029806 766.03535378 1157.23276421 769.25 1155.375 C783.19844368 1147.31410696 797.16003888 1139.27790574 811.15472412 1131.29763794 C820.18958567 1126.1437611 829.18525744 1120.92586227 838.16137695 1115.67041016 C847.02085322 1110.49093361 855.92739972 1105.39558505 864.84570312 1100.31835938 C866.99965988 1099.09138939 869.14262063 1097.84488162 871.27323103 1096.57780451 C874.11893537 1094.93541221 877.00128302 1093.5934984 880.02224398 1092.30427605 C889.0190051 1088.38596289 889.0190051 1088.38596289 895.34616315 1081.26820116 C897.1020482 1075.13333743 896.72909342 1068.80844184 896.5526123 1062.49217224 C896.56288841 1060.35722934 896.58152372 1058.22231317 896.60776663 1056.08750683 C896.65567898 1050.23464849 896.58552311 1044.38828942 896.49581265 1038.53614295 C896.41982271 1032.22041394 896.45384503 1025.90516029 896.47453308 1019.58914185 C896.49547997 1008.64892446 896.44792474 997.71108126 896.35237122 986.77132988 C896.25250872 975.29493349 896.19346574 963.81948235 896.18803406 952.34263802 C896.18767898 951.62810411 896.1873239 950.91357021 896.18695806 950.17738377 C896.18538647 946.5481869 896.18457225 942.91899029 896.18407053 939.28979314 C896.17936442 913.59548459 896.08894839 887.90213291 895.94580078 862.20825195 C895.80718095 837.27598868 895.69976986 812.3439619 895.64013672 787.41137695 C895.63828259 786.64322747 895.63642846 785.87507798 895.63451814 785.08365124 C895.59590742 769.03617817 895.56311986 752.98869406 895.53219101 736.94120456 C895.51932216 730.26486752 895.50607725 723.58853125 895.49275701 716.9121951 C895.48841515 714.71644827 895.48418491 712.52070124 895.47997266 710.32495416 C895.44248913 690.97488753 895.37285368 671.62521875 895.27524555 652.27536534 C895.23182343 643.56546848 895.19856656 634.85553178 895.16641641 626.14558654 C895.13812996 618.70594269 895.09709531 611.26651978 895.04604539 603.82699921 C895.01820441 599.3118083 895.00288527 594.7966404 894.99119383 590.2813815 C894.98327834 588.2148966 894.97015723 586.14842368 894.95129246 584.08200973 C894.81096012 568.31399723 895.89793297 557.1190782 906.5 544.75 C913.61399418 538.60609594 921.47902443 534.03555043 929.69067383 529.54663086 C936.06755433 526.05598556 942.35522475 522.42918906 948.625 518.75 C957.42741003 513.59099033 966.2613328 508.49037726 975.125 503.4375 C984.22097867 498.25089208 993.30712521 493.04818345 1002.375 487.8125 C1003.44105469 487.19697266 1004.50710938 486.58144531 1005.60546875 485.94726562 C1008.82057523 484.09029806 1012.03535378 482.23276421 1015.25 480.375 C1029.19844368 472.31410696 1043.16003888 464.27790574 1057.15472412 456.29763794 C1065.21263212 451.70105777 1073.24417786 447.0617584 1081.25 442.375 C1091.02502765 436.65251551 1100.84786956 431.0165656 1110.6875 425.40625 C1118.55537405 420.91944263 1126.40825402 416.40735242 1134.25 411.875 C1143.27530846 406.65857514 1152.31927803 401.47585025 1161.375 396.3125 C1170.02695859 391.37903266 1178.65477505 386.40680587 1187.25 381.375 C1195.84522672 376.3431931 1204.4731213 371.37110928 1213.125 366.4375 C1222.22079987 361.25057574 1231.30712263 356.04818494 1240.375 350.8125 C1241.44105469 350.19697266 1242.50710938 349.58144531 1243.60546875 348.94726562 C1246.82057523 347.09029806 1250.03535378 345.23276421 1253.25 343.375 C1267.19844368 335.31410696 1281.16003888 327.27790574 1295.15472412 319.29763794 C1303.21263212 314.70105777 1311.24417786 310.0617584 1319.25 305.375 C1329.01152394 299.66042084 1338.81458772 294.0208255 1348.65014648 288.43481445 C1354.60336929 285.05060656 1360.53032388 281.63002029 1366.41796875 278.1328125 C1367.58785161 277.44228499 1368.75793355 276.75209464 1369.92822266 276.06225586 C1372.11255483 274.77154277 1374.29109757 273.47095741 1376.46240234 272.15844727 C1387.01081486 265.95002637 1397.92566774 262.27218784 1410.17944336 265.03564453 C1418.66733133 267.52802932 1425.85991891 271.16773913 1433.4375 275.6875 C1434.65726961 276.40162737 1435.87782794 277.11440905 1437.09912109 277.82592773 C1439.60128358 279.28580852 1442.09934783 280.75233698 1444.59423828 282.22460938 C1450.16223207 285.50649344 1455.77178353 288.71627984 1461.375 291.9375 C1463.526386 293.17909104 1465.67742798 294.42127838 1467.828125 295.6640625 C1468.88837891 296.27668945 1469.94863281 296.88931641 1471.04101562 297.52050781 C1473.18033854 298.75683594 1475.31966146 299.99316406 1477.45898438 301.22949219 C1480.68068275 303.09102672 1483.90271079 304.95198839 1487.125 306.8125 C1488.19105469 307.42802734 1489.25710938 308.04355469 1490.35546875 308.67773438 C1498.93995597 313.62953042 1507.54580293 318.54324868 1516.15472412 323.45236206 C1525.19471708 328.60916608 1534.19525321 333.83043769 1543.17675781 339.08837891 C1550.79905778 343.54416344 1558.45531311 347.93897146 1566.125 352.3125 C1580.59950369 360.56665636 1595.03221846 368.89217372 1609.45898438 377.22949219 C1612.68068275 379.09102672 1615.90271079 380.95198839 1619.125 382.8125 C1620.19105469 383.42802734 1621.25710937 384.04355469 1622.35546875 384.67773438 C1630.93995597 389.62953042 1639.54580293 394.54324868 1648.15472412 399.45236206 C1657.19471708 404.60916608 1666.19525321 409.83043769 1675.17675781 415.08837891 C1682.79905778 419.54416344 1690.45531311 423.93897146 1698.125 428.3125 C1712.59950369 436.56665636 1727.03221846 444.89217372 1741.45898438 453.22949219 C1744.68068275 455.09102672 1747.90271079 456.95198839 1751.125 458.8125 C1752.19105469 459.42802734 1753.25710937 460.04355469 1754.35546875 460.67773438 C1762.93995597 465.62953042 1771.54580293 470.54324868 1780.15472412 475.45236206 C1789.19471708 480.60916608 1798.19525321 485.83043769 1807.17675781 491.08837891 C1814.7990577 495.5441634 1822.45530886 499.93897893 1830.125 504.3125 C1841.50996268 510.80477737 1852.875188 517.33006315 1864.21875 523.89453125 C1868.06305971 526.1180927 1871.91622458 528.32437687 1875.78125 530.51171875 C1890.50363626 538.86254078 1902.09012928 545.9416582 1907.60981364 562.88472839 C1908.65211938 566.93921088 1908.66318847 570.85914368 1908.63031673 575.02564049 C1908.63497665 575.95964668 1908.63963657 576.89365287 1908.6444377 577.85596228 C1908.65636896 580.97926364 1908.64699931 584.1021285 1908.63768005 587.22543335 C1908.64185377 589.48987932 1908.6473315 591.75432319 1908.65399987 594.01876318 C1908.66846806 600.23669797 1908.66420538 606.45450036 1908.65683305 612.67244244 C1908.65259259 618.69108424 1908.66241016 624.70969306 1908.67174067 630.72832508 C1908.69140102 643.79708312 1908.6937562 656.86580148 1908.68854547 669.93457077 C1908.68398726 681.37255031 1908.68458877 692.81051416 1908.69038582 704.24849319 C1908.69114269 705.7831174 1908.69189867 707.3177416 1908.69265376 708.8523658 C1908.69379896 711.1649451 1908.69494884 713.4775244 1908.69611301 715.7901037 C1908.70681719 737.28886457 1908.7115441 758.78762021 1908.70364285 780.28638268 C1908.70319709 781.50186078 1908.70319709 781.50186078 1908.70274232 782.741894 C1908.70029342 789.32213386 1908.69768181 795.90237365 1908.69505819 802.48261345 C1908.68495609 828.14891558 1908.69331078 853.8151523 1908.71655273 879.48144531 C1908.74262809 908.32329499 1908.75547253 937.16510528 1908.74836498 966.00696719 C1908.74764893 969.08260321 1908.74697454 972.15823924 1908.74632454 975.23387527 C1908.74615473 975.99116473 1908.74598492 976.74845419 1908.74580997 977.52869181 C1908.74350755 988.95730783 1908.75148125 1000.38588727 1908.76461601 1011.81449509 C1908.77952825 1024.81279891 1908.78036911 1037.81101702 1908.7625451 1050.809319 C1908.75382489 1057.44150917 1908.75192416 1064.07357125 1908.76719666 1070.70576286 C1908.7810065 1076.77794114 1908.77632788 1082.84981495 1908.75695742 1088.92197545 C1908.75318577 1091.11771444 1908.75615277 1093.31347761 1908.76656907 1095.50919513 C1908.83017105 1109.94356852 1908.52619864 1122.19940876 1898.25 1133.375 C1892.44294695 1139.19484016 1885.95328895 1143.06580947 1878.75 1146.9375 C1876.50808453 1148.16739507 1874.26722438 1149.39921547 1872.02734375 1150.6328125 C1870.89538574 1151.25446289 1869.76342773 1151.87611328 1868.59716797 1152.51660156 C1863.45643811 1155.37081277 1858.38253461 1158.33501461 1853.3125 1161.3125 C1851.31911496 1162.48064717 1849.32562449 1163.64861444 1847.33203125 1164.81640625 C1846.33510254 1165.4005127 1845.33817383 1165.98461914 1844.31103516 1166.58642578 C1829.38137097 1175.30988405 1814.36641086 1183.88648893 1799.3458252 1192.4520874 C1791.28773079 1197.04875438 1783.25599909 1201.688138 1775.25 1206.375 C1766.65477328 1211.4068069 1758.0268787 1216.37889072 1749.375 1221.3125 C1740.27920013 1226.49942426 1731.19287737 1231.70181506 1722.125 1236.9375 C1721.05894531 1237.55302734 1719.99289063 1238.16855469 1718.89453125 1238.80273438 C1715.67942477 1240.65970194 1712.46464622 1242.51723579 1709.25 1244.375 C1695.30155632 1252.43589304 1681.33996112 1260.47209426 1667.34527588 1268.45236206 C1659.28736788 1273.04894223 1651.25582214 1277.6882416 1643.25 1282.375 C1634.65477328 1287.4068069 1626.0268787 1292.37889072 1617.375 1297.3125 C1608.27920013 1302.49942426 1599.19287737 1307.70181506 1590.125 1312.9375 C1589.05894531 1313.55302734 1587.99289063 1314.16855469 1586.89453125 1314.80273438 C1583.67942477 1316.65970194 1580.46464622 1318.51723579 1577.25 1320.375 C1563.30155632 1328.43589304 1549.33996112 1336.47209426 1535.34527588 1344.45236206 C1527.28736788 1349.04894223 1519.25582214 1353.6882416 1511.25 1358.375 C1502.65477175 1363.4068078 1494.02681301 1368.37877352 1485.375 1373.3125 C1476.37963456 1378.44274873 1467.38967159 1383.58193735 1458.41766357 1388.75296021 C1456.72367061 1389.729156 1455.02907806 1390.7043111 1453.33447266 1391.67944336 C1451.8057251 1392.56128296 1451.8057251 1392.56128296 1450.24609375 1393.4609375 C1449.35075928 1393.9770459 1448.4554248 1394.4931543 1447.53295898 1395.02490234 C1445.73811936 1396.08633568 1443.98499745 1397.21833503 1442.25 1398.375 C1441.95109273 1401.20884059 1441.85076611 1403.82492851 1441.87641239 1406.66175652 C1441.87048511 1407.9691591 1441.87048511 1407.9691591 1441.86443809 1409.30297387 C1441.8547475 1412.25616802 1441.86662614 1415.20889676 1441.87818909 1418.16207886 C1441.87561711 1420.2877764 1441.87171859 1422.41347268 1441.8665995 1424.53916562 C1441.85627398 1430.4061453 1441.86466349 1436.27297577 1441.87589633 1442.13994837 C1441.88471476 1448.45786432 1441.8762571 1454.77575836 1441.86968994 1461.09367371 C1441.86051384 1472.05112223 1441.86183343 1483.00852138 1441.86987495 1493.96596909 C1441.88129037 1509.82183623 1441.87215133 1525.6776451 1441.85731315 1541.533507 C1441.85041902 1548.91765259 1441.84447741 1556.30179895 1441.83873653 1563.68594551 C1441.83815979 1564.42526425 1441.83758306 1565.164583 1441.83698884 1565.92630534 C1441.82345308 1583.53517852 1441.81887703 1601.14405194 1441.81616211 1618.75292969 C1441.81603896 1619.52362848 1441.81591581 1620.29432727 1441.81578893 1621.08838057 C1441.81307537 1638.2803567 1441.81215877 1655.47233242 1441.81321259 1672.66430872 C1441.81363735 1679.67399227 1441.81394489 1686.68367582 1441.81420898 1693.69335938 C1441.81424176 1694.46212647 1441.81427454 1695.23089356 1441.81430831 1696.02295663 C1441.81499424 1713.58068412 1441.81237754 1731.13840079 1441.7980566 1748.69612312 C1441.7971541 1749.8037317 1441.7971541 1749.8037317 1441.79623336 1750.9337162 C1441.79013486 1758.30673429 1441.78336752 1765.67975148 1441.77564783 1773.05276804 C1441.75918037 1788.88650501 1441.75314337 1804.72014459 1441.76848718 1820.55388469 C1441.77948005 1832.10322026 1441.77626335 1843.65245874 1441.75929613 1855.20179193 C1441.75059697 1861.45737708 1441.74847318 1867.71278657 1441.76382256 1873.96836281 C1441.77776891 1879.69793195 1441.77328266 1885.42718327 1441.75430154 1891.1567352 C1441.75069544 1893.22686138 1441.75382132 1895.29701285 1441.76445121 1897.36711489 C1441.83216607 1911.50996675 1441.47161141 1924.476233 1431.25 1935.375 C1425.32565314 1941.28269066 1418.64460922 1945.3164261 1411.375 1949.375 C1409.63831793 1950.36049816 1407.90164386 1951.34601075 1406.16546631 1952.33239746 C1404.375208 1953.34806426 1402.5827933 1954.35984023 1400.79003906 1955.37109375 C1395.25360034 1958.49888845 1389.75404259 1961.69067366 1384.25 1964.875 C1382.0808864 1966.12657463 1379.91161518 1967.37787612 1377.7421875 1968.62890625 C1373.43398349 1971.11430902 1369.12677211 1973.60141977 1364.8203125 1976.08984375 C1353.01370516 1982.91002637 1341.18973 1989.6982326 1329.34527588 1996.45236206 C1321.28736788 2001.04894223 1313.25582214 2005.6882416 1305.25 2010.375 C1295.47497235 2016.09748449 1285.65213044 2021.7334344 1275.8125 2027.34375 C1267.94462595 2031.83055737 1260.09174598 2036.34264758 1252.25 2040.875 C1243.22469154 2046.09142486 1234.18072197 2051.27414975 1225.125 2056.4375 C1216.47304141 2061.37096734 1207.84522495 2066.34319413 1199.25 2071.375 C1190.65477328 2076.4068069 1182.0268787 2081.37889072 1173.375 2086.3125 C1164.27920013 2091.49942426 1155.19287737 2096.70181506 1146.125 2101.9375 C1145.05894531 2102.55302734 1143.99289062 2103.16855469 1142.89453125 2103.80273438 C1139.67942477 2105.65970194 1136.46464622 2107.51723579 1133.25 2109.375 C1119.30155632 2117.43589304 1105.33996112 2125.47209426 1091.34527588 2133.45236206 C1083.28736788 2138.04894223 1075.25582214 2142.6882416 1067.25 2147.375 C1058.65477328 2152.4068069 1050.0268787 2157.37889072 1041.375 2162.3125 C1032.27920013 2167.49942426 1023.19287737 2172.70181506 1014.125 2177.9375 C1013.05894531 2178.55302734 1011.99289062 2179.16855469 1010.89453125 2179.80273438 C1007.67942477 2181.65970194 1004.46464622 2183.51723579 1001.25 2185.375 C987.30155632 2193.43589304 973.33996112 2201.47209426 959.34527588 2209.45236206 C951.28736788 2214.04894223 943.25582214 2218.6882416 935.25 2223.375 C925.47497235 2229.09748449 915.65213044 2234.7334344 905.8125 2240.34375 C897.94462595 2244.83055737 890.09174598 2249.34264758 882.25 2253.875 C873.22469154 2259.09142486 864.18072197 2264.27414975 855.125 2269.4375 C846.47304141 2274.37096734 837.84522495 2279.34319413 829.25 2284.375 C820.65477328 2289.4068069 812.0268787 2294.37889072 803.375 2299.3125 C794.27920013 2304.49942426 785.19287737 2309.70181506 776.125 2314.9375 C775.05894531 2315.55302734 773.99289062 2316.16855469 772.89453125 2316.80273438 C769.67942477 2318.65970194 766.46464622 2320.51723579 763.25 2322.375 C749.30155632 2330.43589304 735.33996112 2338.47209426 721.34527588 2346.45236206 C713.28736788 2351.04894223 705.25582214 2355.6882416 697.25 2360.375 C687.47497235 2366.09748449 677.65213044 2371.7334344 667.8125 2377.34375 C659.94462595 2381.83055737 652.09174598 2386.34264758 644.25 2390.875 C635.22469154 2396.09142486 626.18072197 2401.27414975 617.125 2406.4375 C608.47304141 2411.37096734 599.84522495 2416.34319413 591.25 2421.375 C582.65477328 2426.4068069 574.0268787 2431.37889072 565.375 2436.3125 C553.06742812 2443.33095292 540.78794474 2450.39691786 528.52050781 2457.48535156 C525.12603333 2459.44662601 521.73112205 2461.40714264 518.3359375 2463.3671875 C516.63050781 2464.35174927 516.63050781 2464.35174927 514.890625 2465.35620117 C511.60247343 2467.25337561 508.31301637 2469.14827058 505.0234375 2471.04296875 C501.60476972 2473.0127198 498.19165529 2474.9909007 494.7890625 2476.98828125 C483.08336099 2483.84127432 471.90227231 2488.71151254 458.02734375 2485.3359375 C438.1524688 2478.45939849 419.62520235 2465.38339011 401.57958984 2454.81567383 C393.87282128 2450.30673711 386.13161058 2445.85994047 378.375 2441.4375 C363.90035384 2433.18359497 349.46777984 2424.85782529 335.04101562 2416.52050781 C331.81931725 2414.65897328 328.59728921 2412.79801161 325.375 2410.9375 C324.30894531 2410.32197266 323.24289062 2409.70644531 322.14453125 2409.07226562 C313.56004403 2404.12046958 304.95419707 2399.20675132 296.34527588 2394.29763794 C287.30528292 2389.14083392 278.30474679 2383.91956231 269.32324219 2378.66162109 C261.70094222 2374.20583656 254.04468689 2369.81102854 246.375 2365.4375 C231.90049631 2357.18334364 217.46778154 2348.85782628 203.04101562 2340.52050781 C199.81931725 2338.65897328 196.59728921 2336.79801161 193.375 2334.9375 C192.30894531 2334.32197266 191.24289062 2333.70644531 190.14453125 2333.07226562 C181.56004403 2328.12046958 172.95419707 2323.20675132 164.34527588 2318.29763794 C155.30528292 2313.14083392 146.30474679 2307.91956231 137.32324219 2302.66162109 C129.70094222 2298.20583656 122.04468689 2293.81102854 114.375 2289.4375 C99.90049631 2281.18334364 85.46778154 2272.85782628 71.04101562 2264.52050781 C67.81931725 2262.65897328 64.59728921 2260.79801161 61.375 2258.9375 C60.30894531 2258.32197266 59.24289062 2257.70644531 58.14453125 2257.07226562 C49.56004403 2252.12046958 40.95419707 2247.20675132 32.34527588 2242.29763794 C23.30528292 2237.14083392 14.30474679 2231.91956231 5.32324219 2226.66162109 C-2.29905778 2222.20583656 -9.95531311 2217.81102854 -17.625 2213.4375 C-32.09950369 2205.18334364 -46.53221846 2196.85782628 -60.95898438 2188.52050781 C-64.18068275 2186.65897328 -67.40271079 2184.79801161 -70.625 2182.9375 C-71.69105469 2182.32197266 -72.75710938 2181.70644531 -73.85546875 2181.07226562 C-82.43995597 2176.12046958 -91.04580293 2171.20675132 -99.65472412 2166.29763794 C-108.69471708 2161.14083392 -117.69525321 2155.91956231 -126.67675781 2150.66162109 C-134.29905778 2146.20583656 -141.95531311 2141.81102854 -149.625 2137.4375 C-164.09950369 2129.18334364 -178.53221846 2120.85782628 -192.95898438 2112.52050781 C-196.18068275 2110.65897328 -199.40271079 2108.79801161 -202.625 2106.9375 C-203.69105469 2106.32197266 -204.75710938 2105.70644531 -205.85546875 2105.07226562 C-214.43995597 2100.12046958 -223.04580293 2095.20675132 -231.65472412 2090.29763794 C-240.69471708 2085.14083392 -249.69525321 2079.91956231 -258.67675781 2074.66162109 C-266.29905778 2070.20583656 -273.95531311 2065.81102854 -281.625 2061.4375 C-296.09950369 2053.18334364 -310.53221846 2044.85782628 -324.95898438 2036.52050781 C-328.18068275 2034.65897328 -331.40271079 2032.79801161 -334.625 2030.9375 C-336.22408203 2030.01420898 -336.22408203 2030.01420898 -337.85546875 2029.07226562 C-346.43995597 2024.12046958 -355.04580293 2019.20675132 -363.65472412 2014.29763794 C-372.69471708 2009.14083392 -381.69525321 2003.91956231 -390.67675781 1998.66162109 C-398.29905778 1994.20583656 -405.95531311 1989.81102854 -413.625 1985.4375 C-425.92689963 1978.4222817 -438.20038309 1971.35904028 -450.46191406 1964.2734375 C-453.90797456 1962.28379045 -457.3560701 1960.29771002 -460.8046875 1958.3125 C-461.9790191 1957.63617547 -463.15333565 1956.95982481 -464.32763672 1956.28344727 C-466.5346143 1955.01244356 -468.74194476 1953.74205229 -470.94970703 1952.47241211 C-475.72553337 1949.72059734 -480.49274604 1946.95493244 -485.234375 1944.14453125 C-486.00491211 1943.68796143 -486.77544922 1943.2313916 -487.56933594 1942.76098633 C-496.32899844 1937.19352059 -502.53640443 1929.64948406 -505.33095476 1919.52899487 C-506.19044633 1915.11099832 -506.02310075 1910.62947392 -506.00415033 1906.14475518 C-506.00732766 1905.01371594 -506.01050498 1903.8826767 -506.01377859 1902.71736354 C-506.02202904 1898.90428448 -506.01597683 1895.09136084 -506.01006222 1891.2782793 C-506.01194727 1888.51436624 -506.01684459 1885.75046032 -506.02159455 1882.9865509 C-506.03036451 1876.94637646 -506.03167148 1870.90623562 -506.02816027 1864.86605636 C-506.02293661 1855.82360328 -506.02918577 1846.781183 -506.03767375 1837.73873369 C-506.0517924 1822.32870237 -506.05634104 1806.91868129 -506.05570221 1791.5086441 C-506.05508076 1775.88750235 -506.05875499 1760.26637056 -506.06768227 1744.64523125 C-506.06824205 1743.65935189 -506.06880184 1742.67347253 -506.06937859 1741.65771804 C-506.07167018 1737.64251374 -506.07398853 1733.62730947 -506.07634189 1729.61210521 C-506.10086623 1687.7007241 -506.11100976 1645.78934704 -506.11586904 1603.87795959 C-506.11639273 1599.36502296 -506.11691857 1594.85208634 -506.11744571 1590.33914971 C-506.11757477 1589.21928961 -506.11770383 1588.09942951 -506.1178368 1586.94563426 C-506.12074098 1562.14266707 -506.12689866 1537.33970102 -506.13354302 1512.53673459 C-506.13626643 1502.32752411 -506.13889748 1492.1183136 -506.14152867 1481.9091031 C-506.14181958 1480.78111267 -506.14211049 1479.65312224 -506.14241022 1478.49095029 C-506.15903578 1413.84023923 -506.1708909 1349.18952872 -506.17332363 1284.5388155 C-506.17341826 1282.11871129 -506.17351327 1279.69860708 -506.17360866 1277.27850287 C-506.17403642 1266.35163235 -506.17444179 1255.42476182 -506.17484702 1244.4978913 C-506.17502862 1239.625199 -506.17521351 1234.7525067 -506.17539909 1229.8798144 C-506.17549111 1227.44094243 -506.17558151 1225.00207047 -506.17567028 1222.5631985 C-506.17848501 1145.43543118 -506.20021556 1068.30768998 -506.23706055 991.17993164 C-506.26452866 933.66971236 -506.29041792 876.15949807 -506.29700565 818.64927197 C-506.29713909 817.49200357 -506.29727253 816.33473518 -506.29741001 815.14239805 C-506.30028212 789.73941968 -506.30169956 764.33644141 -506.30176822 738.93346288 C-506.30180791 729.84414296 -506.30196486 720.75482303 -506.30218274 711.66550311 C-506.30223639 709.40425009 -506.3022845 707.14299706 -506.30232707 704.88174404 C-506.30307099 668.82866297 -506.31874804 632.77560765 -506.34193837 596.72253462 C-506.36518846 560.41671675 -506.37244858 524.11093204 -506.3577575 487.80510864 C-506.35572976 482.79066383 -506.35387584 477.77621898 -506.35212517 472.76177406 C-506.35177511 471.778786 -506.35142506 470.79579794 -506.35106439 469.78302236 C-506.34597338 454.20455419 -506.35768941 438.62614562 -506.37636972 423.04768972 C-506.39437935 407.73732451 -506.39461172 392.42704524 -506.3758074 377.11668003 C-506.36531229 368.1356961 -506.36853937 359.15496866 -506.39192616 350.17400761 C-506.40608968 344.21155047 -506.40216091 338.24928341 -506.38344466 332.28683924 C-506.37333836 328.90528491 -506.37374577 325.52464566 -506.39088022 322.14305874 C-506.40809577 318.50556964 -506.39451305 314.86942965 -506.37329382 311.23199064 C-506.38560193 310.1962523 -506.39791005 309.16051397 -506.41059114 308.09338962 C-506.29363459 298.52414414 -503.25954525 289.16373379 -496.625 282.0625 C-495.63113281 280.95455078 -495.63113281 280.95455078 -494.6171875 279.82421875 C-487.04377989 273.3548365 -477.96760059 268.69372827 -469.32836914 263.81079102 C-466.24267114 262.06636697 -463.16251441 260.31220525 -460.08203125 258.55859375 C-459.14872482 258.02762589 -459.14872482 258.02762589 -458.19656372 257.4859314 C-452.35562143 254.15895778 -446.5495328 250.7735957 -440.75 247.375 C-432.15501964 242.34277647 -423.52687448 237.37110688 -414.875 232.4375 C-405.77920013 227.25057574 -396.69287737 222.04818494 -387.625 216.8125 C-386.55894531 216.19697266 -385.49289062 215.58144531 -384.39453125 214.94726562 C-381.17942477 213.09029806 -377.96464622 211.23276421 -374.75 209.375 C-360.80155632 201.31410696 -346.83996112 193.27790574 -332.84527588 185.29763794 C-324.78736788 180.70105777 -316.75582214 176.0617584 -308.75 171.375 C-300.15477328 166.3431931 -291.5268787 161.37110928 -282.875 156.4375 C-273.77920013 151.25057574 -264.69287737 146.04818494 -255.625 140.8125 C-254.55894531 140.19697266 -253.49289063 139.58144531 -252.39453125 138.94726562 C-249.17942477 137.09029806 -245.96464622 135.23276421 -242.75 133.375 C-228.80155632 125.31410696 -214.83996112 117.27790574 -200.84527588 109.29763794 C-192.78736788 104.70105777 -184.75582214 100.0617584 -176.75 95.375 C-168.15477328 90.3431931 -159.5268787 85.37110928 -150.875 80.4375 C-141.77920013 75.25057574 -132.69287737 70.04818494 -123.625 64.8125 C-122.02591797 63.88920898 -122.02591797 63.88920898 -120.39453125 62.94726562 C-117.17942477 61.09029806 -113.96464622 59.23276421 -110.75 57.375 C-96.80495435 49.3160707 -82.84764925 41.28021947 -68.85534668 33.30368042 C-60.58220137 28.58597073 -52.3424723 23.81404333 -44.125 19 C-37.00099106 14.83664864 -29.87227093 10.68282911 -22.6875 6.625 C-21.97964355 6.21846191 -21.27178711 5.81192383 -20.54248047 5.39306641 C-13.83813188 1.64207516 -7.74045737 0.07648673 0 0 Z M-6.2265625 88.3828125 C-7.35964844 89.0325 -8.49273437 89.6821875 -9.66015625 90.3515625 C-10.89850967 91.06758353 -12.13678902 91.78373269 -13.375 92.5 C-14.65217067 93.23467597 -15.92951646 93.96904759 -17.20703125 94.703125 C-26.05115025 99.79109954 -34.86528012 104.93044188 -43.67089844 110.0847168 C-51.2949213 114.54211823 -58.95331376 118.93783136 -66.625 123.3125 C-75.72079987 128.49942426 -84.80712263 133.70181506 -93.875 138.9375 C-95.47408203 139.86079102 -95.47408203 139.86079102 -97.10546875 140.80273438 C-100.32057523 142.65970194 -103.53535378 144.51723579 -106.75 146.375 C-120.69844368 154.43589304 -134.66003888 162.47209426 -148.65472412 170.45236206 C-156.71263212 175.04894223 -164.74417786 179.6882416 -172.75 184.375 C-182.52502765 190.09748449 -192.34786956 195.7334344 -202.1875 201.34375 C-210.05537405 205.83055737 -217.90825402 210.34264758 -225.75 214.875 C-234.77530846 220.09142486 -243.81927803 225.27414975 -252.875 230.4375 C-261.52695859 235.37096734 -270.15477505 240.34319413 -278.75 245.375 C-287.34522672 250.4068069 -295.9731213 255.37889072 -304.625 260.3125 C-313.72080008 265.49942438 -322.8071013 270.70185168 -331.875 275.9375 C-332.93235352 276.54795166 -333.98970703 277.15840332 -335.07910156 277.78735352 C-339.43751757 280.30450823 -343.79520358 282.82292268 -348.15234375 285.34228516 C-360.97860403 292.75814932 -373.80860486 300.16144289 -386.75 307.375 C-386.75 308.035 -386.75 308.695 -386.75 309.375 C-386.09854004 309.75084229 -385.44708008 310.12668457 -384.77587891 310.51391602 C-382.79345161 311.65762407 -380.81103034 312.80134256 -378.82861328 313.94506836 C-376.49109133 315.29361329 -374.15353227 316.64209368 -371.81591797 317.99047852 C-365.94915714 321.37467101 -360.08297885 324.75985838 -354.21875 328.1484375 C-342.44603959 334.9491604 -330.65577681 341.71759392 -318.84527588 348.45236206 C-309.80528292 353.60916608 -300.80474679 358.83043769 -291.82324219 364.08837891 C-284.20094222 368.54416344 -276.54468689 372.93897146 -268.875 377.3125 C-254.40049631 385.56665636 -239.96778154 393.89217372 -225.54101562 402.22949219 C-222.31931725 404.09102672 -219.09728921 405.95198839 -215.875 407.8125 C-214.80894531 408.42802734 -213.74289062 409.04355469 -212.64453125 409.67773438 C-204.06004403 414.62953042 -195.45419707 419.54324868 -186.84527588 424.45236206 C-177.80528292 429.60916608 -168.80474679 434.83043769 -159.82324219 440.08837891 C-152.20094222 444.54416344 -144.54468689 448.93897146 -136.875 453.3125 C-122.40049631 461.56665636 -107.96778154 469.89217372 -93.54101562 478.22949219 C-90.31931725 480.09102672 -87.09728921 481.95198839 -83.875 483.8125 C-82.80894531 484.42802734 -81.74289062 485.04355469 -80.64453125 485.67773438 C-73.2420128 489.94773451 -65.82471045 494.19117269 -58.4012146 498.42453003 C-48.93096969 503.8253829 -39.47913556 509.25602055 -30.0625 514.75 C-29.0835376 515.31928223 -28.1045752 515.88856445 -27.09594727 516.47509766 C-22.58560772 519.10437493 -18.09871996 521.76130773 -13.65625 524.50390625 C-12.87467529 524.98102051 -12.09310059 525.45813477 -11.2878418 525.94970703 C-9.85448361 526.82749149 -8.42818255 527.71695946 -7.01098633 528.62060547 C-4.38871687 530.21899897 -2.39445166 531.37092119 0.71875 531.390625 C4.34215044 529.93679149 7.67713807 528.12597164 11.0625 526.1875 C11.84383301 525.74680176 12.62516602 525.30610352 13.43017578 524.85205078 C20.88254562 520.62947727 28.2733359 516.29939621 35.66381836 511.96972656 C43.45532213 507.40795335 51.28139458 502.9088745 59.125 498.4375 C71.45049481 491.40939327 83.74722363 484.33259395 96.03222656 477.23388672 C102.52125096 473.48521966 109.0133695 469.74191333 115.50488281 465.99755859 C120.89748314 462.88681661 126.28937822 459.77486673 131.6796875 456.66015625 C143.48629484 449.83997363 155.31027 443.0517674 167.15472412 436.29763794 C175.21263212 431.70105777 183.24417786 427.0617584 191.25 422.375 C199.84522672 417.3431931 208.4731213 412.37110928 217.125 407.4375 C226.22079987 402.25057574 235.30712263 397.04818494 244.375 391.8125 C245.97408203 390.88920898 245.97408203 390.88920898 247.60546875 389.94726562 C250.82057523 388.09029806 254.03535378 386.23276421 257.25 384.375 C271.19844368 376.31410696 285.16003888 368.27790574 299.15472412 360.29763794 C308.19329428 355.14164555 317.19277138 349.92179327 326.17236328 344.66381836 C333.24527597 340.5284979 340.34852427 336.44838149 347.4666748 332.3916626 C351.56376022 330.05593969 355.65772052 327.71474205 359.75195312 325.37402344 C362.10899552 324.0265055 364.4672239 322.681093 366.82617188 321.33691406 C370.22269 319.40036012 373.61162059 317.4507617 377 315.5 C378.03640625 314.91089844 379.0728125 314.32179688 380.140625 313.71484375 C381.0790625 313.17214844 382.0175 312.62945312 382.984375 312.0703125 C383.81163086 311.59609863 384.63888672 311.12188477 385.49121094 310.63330078 C386.07161133 310.21806152 386.65201172 309.80282227 387.25 309.375 C387.25 308.715 387.25 308.055 387.25 307.375 C386.58170166 307.0032666 385.91340332 306.6315332 385.22485352 306.24853516 C362.72999817 293.7245915 362.72999817 293.7245915 351.98095703 287.33740234 C345.26110087 283.35520634 338.47442613 279.49125979 331.6875 275.625 C322.84736496 270.58804329 314.02984623 265.51667026 305.25 260.375 C296.65485795 255.34304982 288.02687727 250.37110847 279.375 245.4375 C264.90049631 237.18334364 250.46778154 228.85782628 236.04101562 220.52050781 C232.81931725 218.65897328 229.59728921 216.79801161 226.375 214.9375 C225.30894531 214.32197266 224.24289062 213.70644531 223.14453125 213.07226562 C214.56004403 208.12046958 205.95419707 203.20675132 197.34527588 198.29763794 C188.30528292 193.14083392 179.30474679 187.91956231 170.32324219 182.66162109 C162.11084825 177.86088404 153.85738625 173.13359742 145.59375 168.421875 C136.05946795 162.98566155 126.54617796 157.51404894 117.04394531 152.02197266 C109.67778163 147.7676282 102.29587811 143.54150945 94.90625 139.328125 C84.67814665 133.49631169 74.48409984 127.6099777 64.32324219 121.66162109 C55.54008338 116.52723077 46.71063038 111.47526168 37.86962891 106.44140625 C31.81999228 102.99537339 25.78245628 99.5303946 19.765625 96.02734375 C18.55453904 95.32346171 17.34343902 94.61960389 16.13232422 93.91577148 C13.83431299 92.58002719 11.53974079 91.23888658 9.24658203 89.89477539 C7.71300049 89.00326782 7.71300049 89.00326782 6.1484375 88.09375 C4.79758057 87.30387695 4.79758057 87.30387695 3.41943359 86.49804688 C-0.62968483 84.40194686 -2.47917918 86.2259892 -6.2265625 88.3828125 Z M1396.37890625 352.12890625 C1395.34314453 352.72832031 1394.30738281 353.32773437 1393.24023438 353.9453125 C1392.10908203 354.60273438 1390.97792969 355.26015625 1389.8125 355.9375 C1388.63229328 356.62132132 1387.45195274 357.30491171 1386.27148438 357.98828125 C1383.81474459 359.41072203 1381.35858885 360.8341637 1378.90283203 362.25830078 C1373.35726805 365.47318679 1367.8032736 368.67345652 1362.25 371.875 C1355.77224143 375.6112134 1349.29510003 379.34848355 1342.8203125 383.08984375 C1331.01370516 389.91002637 1319.18973 396.6982326 1307.34527588 403.45236206 C1299.28736788 408.04894223 1291.25582214 412.6882416 1283.25 417.375 C1274.65477328 422.4068069 1266.0268787 427.37889072 1257.375 432.3125 C1248.27920013 437.49942426 1239.19287737 442.70181506 1230.125 447.9375 C1229.05894531 448.55302734 1227.99289062 449.16855469 1226.89453125 449.80273438 C1223.67942477 451.65970194 1220.46464622 453.51723579 1217.25 455.375 C1203.30155632 463.43589304 1189.33996112 471.47209426 1175.34527588 479.45236206 C1167.28736788 484.04894223 1159.25582214 488.6882416 1151.25 493.375 C1142.65477328 498.4068069 1134.0268787 503.37889072 1125.375 508.3125 C1116.27920013 513.49942426 1107.19287737 518.70181506 1098.125 523.9375 C1097.05894531 524.55302734 1095.99289062 525.16855469 1094.89453125 525.80273438 C1091.67942477 527.65970194 1088.46464622 529.51723579 1085.25 531.375 C1080.95877226 533.85492741 1076.667185 536.33422971 1072.375 538.8125 C1071.314021 539.42512695 1070.25304199 540.03775391 1069.15991211 540.66894531 C1060.42290909 545.70889133 1051.66372789 550.70937859 1042.90179443 555.70578003 C1033.30277601 561.18140761 1023.74993213 566.72932605 1014.25 572.375 C1016.66689788 575.06907427 1019.25164855 576.6420893 1022.4140625 578.37890625 C1023.4445874 578.94923584 1024.4751123 579.51956543 1025.53686523 580.10717773 C1026.63844971 580.71118408 1027.74003418 581.31519043 1028.875 581.9375 C1031.17134067 583.20955252 1033.46691315 584.48299278 1035.76171875 585.7578125 C1037.44080322 586.69028809 1037.44080322 586.69028809 1039.15380859 587.64160156 C1043.03083003 589.8121466 1046.86791126 592.04279121 1050.6875 594.3125 C1067.3938473 604.22269616 1084.27888673 613.82885049 1101.1522522 623.45098877 C1110.19307341 628.60824443 1119.19443912 633.8299611 1128.17675781 639.08837891 C1135.79905778 643.54416344 1143.45531311 647.93897146 1151.125 652.3125 C1165.59950369 660.56665636 1180.03221846 668.89217372 1194.45898438 677.22949219 C1197.68068275 679.09102672 1200.90271079 680.95198839 1204.125 682.8125 C1205.19105469 683.42802734 1206.25710938 684.04355469 1207.35546875 684.67773438 C1215.93995597 689.62953042 1224.54580293 694.54324868 1233.15472412 699.45236206 C1242.19471708 704.60916608 1251.19525321 709.83043769 1260.17675781 715.08837891 C1267.79905778 719.54416344 1275.45531311 723.93897146 1283.125 728.3125 C1297.59950369 736.56665636 1312.03221846 744.89217372 1326.45898438 753.22949219 C1329.68068275 755.09102672 1332.90271079 756.95198839 1336.125 758.8125 C1337.19105469 759.42802734 1338.25710938 760.04355469 1339.35546875 760.67773438 C1344.98517858 763.92512402 1350.62078589 767.16181829 1356.265625 770.3828125 C1356.85187653 770.71782272 1357.43812805 771.05283295 1358.04214478 771.397995 C1360.98756701 773.08018015 1363.93671614 774.75508339 1366.89404297 776.41625977 C1372.69039883 779.68421552 1378.36732406 783.05657619 1383.9296875 786.70703125 C1384.99558105 787.38693115 1386.06147461 788.06683105 1387.15966797 788.76733398 C1389.16121721 790.05146903 1391.13921434 791.37339911 1393.08642578 792.73852539 C1395.87099925 794.49789901 1398.02503625 795.68819685 1401.25 796.375 C1405.78163471 795.19818013 1409.34875263 792.9092093 1413.25 790.375 C1415.08210406 789.3278994 1416.91798213 788.2873709 1418.7578125 787.25390625 C1420.63231326 786.15201051 1422.50463557 785.04640225 1424.375 783.9375 C1426.48402286 782.69731764 1428.59341061 781.45775562 1430.703125 780.21875 C1431.78142578 779.58453125 1432.85972656 778.9503125 1433.97070312 778.296875 C1439.3399469 775.15015917 1444.73205548 772.04336723 1450.125 768.9375 C1451.20555664 768.31488281 1452.28611328 767.69226563 1453.39941406 767.05078125 C1455.59171575 765.7876196 1457.78409859 764.5245988 1459.9765625 763.26171875 C1463.2147516 761.3953162 1466.45139438 759.52626237 1469.6875 757.65625 C1481.49117161 750.83678895 1493.31279326 744.05032854 1505.15472412 737.29763794 C1513.21263212 732.70105777 1521.24417786 728.0617584 1529.25 723.375 C1537.84522672 718.3431931 1546.4731213 713.37110928 1555.125 708.4375 C1564.22079987 703.25057574 1573.30712263 698.04818494 1582.375 692.8125 C1583.97408203 691.88920898 1583.97408203 691.88920898 1585.60546875 690.94726562 C1588.82057523 689.09029806 1592.03535378 687.23276421 1595.25 685.375 C1609.19844368 677.31410696 1623.16003888 669.27790574 1637.15472412 661.29763794 C1645.21263212 656.70105777 1653.24417786 652.0617584 1661.25 647.375 C1669.84522672 642.3431931 1678.4731213 637.37110928 1687.125 632.4375 C1699.45025196 625.40896493 1711.74722067 618.33259566 1724.03222656 611.23388672 C1728.35361267 608.73745016 1732.67650057 606.24362118 1736.99951172 603.75 C1739.1548931 602.50669753 1741.31016773 601.26320997 1743.46533203 600.01953125 C1748.48714821 597.12165642 1753.50958549 594.22487589 1758.53442383 591.33224487 C1760.30045522 590.31552802 1762.06627431 589.29844342 1763.83203125 588.28125 C1766.03734155 587.01099127 1768.24304216 585.74140982 1770.44921875 584.47265625 C1776.75633895 580.83859212 1783.02255337 577.14401741 1789.25 573.375 C1786.75615208 570.57936225 1783.99784919 568.94246596 1780.74609375 567.109375 C1779.62654297 566.47451172 1778.50699219 565.83964844 1777.35351562 565.18554688 C1776.13151162 564.49869578 1774.90950638 563.81184688 1773.6875 563.125 C1771.77395465 562.04211798 1769.86142063 560.95746344 1767.94888306 559.87280273 C1766.64026896 559.1308546 1765.33132576 558.38948666 1764.02206421 557.64868164 C1757.74304359 554.09484671 1751.49449551 550.48911697 1745.25 546.875 C1736.81679096 542.00006358 1728.3682046 537.15292368 1719.90625 532.328125 C1709.67814665 526.49631169 1699.48409984 520.6099777 1689.32324219 514.66162109 C1681.70094222 510.20583656 1674.04468689 505.81102854 1666.375 501.4375 C1651.90049631 493.18334364 1637.46778154 484.85782628 1623.04101562 476.52050781 C1610.79341395 469.4437021 1598.53524882 462.38623553 1586.25 455.375 C1573.96758711 448.36538295 1561.71242205 441.3092758 1549.46777344 434.23388672 C1544.06329359 431.11175397 1538.65655282 427.99354119 1533.25 424.875 C1526.77233115 421.13863085 1520.29510017 417.40151653 1513.8203125 413.66015625 C1502.01370516 406.83997363 1490.18973 400.0517674 1478.34527588 393.29763794 C1469.31554583 388.14668833 1460.32473551 382.93216682 1451.35400391 377.67919922 C1442.28569067 372.37714297 1433.16739348 367.16458805 1424.0390625 361.96679688 C1417.49788021 358.24046762 1410.98557714 354.474185 1404.50683594 350.64038086 C1400.84411942 348.58673961 1399.95764222 350.05247976 1396.37890625 352.12890625 Z M-427.75 377.375 C-427.82147501 423.47590749 -427.89001034 469.57681915 -427.95629883 515.67773438 C-427.9575962 516.57982381 -427.95889357 517.48191324 -427.96023025 518.41133872 C-428.09914067 615.05435449 -428.21904745 711.69737167 -428.30046082 808.3404541 C-428.30227367 810.48669628 -428.30408654 812.63293846 -428.30589943 814.77918064 C-428.34389279 859.82749645 -428.37921026 904.87581404 -428.41143582 949.92413435 C-428.42762618 972.55276159 -428.44433084 995.18138843 -428.46152174 1017.81001494 C-428.46411197 1021.22349811 -428.46668751 1024.63698128 -428.46926244 1028.05046446 C-428.50905109 1080.62506213 -428.55988231 1133.1996207 -428.64263916 1185.77416992 C-428.64441884 1186.90491924 -428.64619853 1188.03566856 -428.64803214 1189.20068301 C-428.67679365 1207.43218241 -428.70648031 1225.6636803 -428.73628973 1243.895178 C-428.82211622 1296.39545238 -428.90112302 1348.89569674 -428.93481731 1401.39603424 C-428.93551327 1402.47523391 -428.93620923 1403.55443357 -428.93692627 1404.66633626 C-428.95207978 1428.35508703 -428.96371354 1452.04383817 -428.97201278 1475.73259229 C-428.97541395 1485.26356694 -428.979322 1494.79454137 -428.98340416 1504.32551575 C-428.98383871 1505.36865152 -428.98427327 1506.41178729 -428.98472099 1507.48653323 C-428.99898403 1541.11901499 -429.05453911 1574.75127365 -429.13166871 1608.38366533 C-429.20915039 1642.25176645 -429.2463069 1676.11965091 -429.22711184 1709.98784295 C-429.22447166 1714.66414907 -429.22229574 1719.3404553 -429.22039986 1724.01676178 C-429.22001141 1724.93348063 -429.21962296 1725.85019948 -429.21922275 1726.79469768 C-429.21426711 1741.33215678 -429.2531343 1755.86915857 -429.31012821 1770.40649295 C-429.36522609 1784.68858411 -429.37428546 1798.97008041 -429.33381358 1813.25222751 C-429.31146442 1821.63421995 -429.32499945 1830.01433021 -429.39082102 1838.3961044 C-429.43565724 1844.60731439 -429.41320164 1850.81652834 -429.36381968 1857.02766562 C-429.35448713 1859.53333777 -429.36724688 1862.03920741 -429.40405818 1864.54462653 C-430.1525461 1876.32904491 -430.1525461 1876.32904491 -426.50261979 1887.11375351 C-423.0537775 1890.29718717 -419.1331995 1891.76797512 -414.75 1893.375 C-412.56951334 1894.59052864 -410.40617398 1895.83786412 -408.26953125 1897.12890625 C-406.03500298 1898.40045846 -403.79928614 1899.66992382 -401.5625 1900.9375 C-399.09182403 1902.34265477 -396.62211894 1903.74951273 -394.15234375 1905.15625 C-393.53224426 1905.50917618 -392.91214478 1905.86210236 -392.27325439 1906.22572327 C-386.04361883 1909.77284074 -379.83252979 1913.35185156 -373.625 1916.9375 C-372.55983154 1917.55254395 -371.49466309 1918.16758789 -370.3972168 1918.80126953 C-366.11136336 1921.27655995 -361.82620586 1923.75305388 -357.54101562 1926.22949219 C-354.31931725 1928.09102672 -351.09728921 1929.95198839 -347.875 1931.8125 C-346.27591797 1932.73579102 -346.27591797 1932.73579102 -344.64453125 1933.67773438 C-336.06004403 1938.62953042 -327.45419707 1943.54324868 -318.84527588 1948.45236206 C-309.80528292 1953.60916608 -300.80474679 1958.83043769 -291.82324219 1964.08837891 C-284.20094222 1968.54416344 -276.54468689 1972.93897146 -268.875 1977.3125 C-254.40049631 1985.56665636 -239.96778154 1993.89217372 -225.54101562 2002.22949219 C-222.31931725 2004.09102672 -219.09728921 2005.95198839 -215.875 2007.8125 C-214.27591797 2008.73579102 -214.27591797 2008.73579102 -212.64453125 2009.67773438 C-204.06004403 2014.62953042 -195.45419707 2019.54324868 -186.84527588 2024.45236206 C-177.80528292 2029.60916608 -168.80474679 2034.83043769 -159.82324219 2040.08837891 C-152.20094222 2044.54416344 -144.54468689 2048.93897146 -136.875 2053.3125 C-122.40049631 2061.56665636 -107.96778154 2069.89217372 -93.54101562 2078.22949219 C-90.31931725 2080.09102672 -87.09728921 2081.95198839 -83.875 2083.8125 C-82.27591797 2084.73579102 -82.27591797 2084.73579102 -80.64453125 2085.67773438 C-72.06004403 2090.62953042 -63.45419707 2095.54324868 -54.84527588 2100.45236206 C-45.80528292 2105.60916608 -36.80474679 2110.83043769 -27.82324219 2116.08837891 C-20.20094222 2120.54416344 -12.54468689 2124.93897146 -4.875 2129.3125 C9.59950369 2137.56665636 24.03221846 2145.89217372 38.45898438 2154.22949219 C41.68068275 2156.09102672 44.90271079 2157.95198839 48.125 2159.8125 C49.72408203 2160.73579102 49.72408203 2160.73579102 51.35546875 2161.67773438 C59.93995597 2166.62953042 68.54580293 2171.54324868 77.15472412 2176.45236206 C86.19471708 2181.60916608 95.19525321 2186.83043769 104.17675781 2192.08837891 C111.79905778 2196.54416344 119.45531311 2200.93897146 127.125 2205.3125 C141.59950369 2213.56665636 156.03221846 2221.89217372 170.45898438 2230.22949219 C173.68068275 2232.09102672 176.90271079 2233.95198839 180.125 2235.8125 C181.72408203 2236.73579102 181.72408203 2236.73579102 183.35546875 2237.67773438 C191.93995597 2242.62953042 200.54580293 2247.54324868 209.15472412 2252.45236206 C218.19471708 2257.60916608 227.19525321 2262.83043769 236.17675781 2268.08837891 C244.38915175 2272.88911596 252.64261375 2277.61640258 260.90625 2282.328125 C270.44053205 2287.76433845 279.95382204 2293.23595106 289.45605469 2298.72802734 C296.82221837 2302.9823718 304.20412189 2307.20849055 311.59375 2311.421875 C321.82185335 2317.25368831 332.01590016 2323.1400223 342.17675781 2329.08837891 C349.79906091 2333.54416528 357.45545478 2337.93871951 365.125 2342.3125 C383.7144524 2352.91618953 402.29229864 2363.53732571 420.66357422 2374.51635742 C421.51838379 2375.02529541 422.37319336 2375.5342334 423.25390625 2376.05859375 C424.00486572 2376.50775146 424.7558252 2376.95690918 425.52954102 2377.41967773 C427.06772755 2378.45590889 427.06772755 2378.45590889 428.25 2378.375 C428.25 2230.865 428.25 2083.355 428.25 1931.375 C420 1926.755 411.75 1922.135 403.25 1917.375 C391.0625 1910.25 391.0625 1910.25 385.09375 1906.75 C378.57346253 1902.95732282 371.95653334 1899.35409566 365.32080078 1895.76855469 C358.27133798 1891.95331301 351.30359414 1888.01012237 344.35473633 1884.01513672 C337.51368483 1880.08578032 330.63828522 1876.2208847 323.75 1872.375 C315.15929984 1867.57630139 306.59572537 1862.73399709 298.05810547 1857.84155273 C291.67576932 1854.18542221 285.27950791 1850.554646 278.875 1846.9375 C277.914729 1846.39512695 276.95445801 1845.85275391 275.96508789 1845.29394531 C272.12616353 1843.12636969 268.28671686 1840.95972204 264.44677734 1838.79394531 C252.47050005 1832.0387441 240.5171383 1825.2450365 228.58486938 1818.41244507 C219.31578689 1813.10677719 210.01067424 1807.86827476 200.68408203 1802.66430664 C192.24705298 1797.94988837 183.85457439 1793.15990828 175.46923828 1788.35449219 C167.25506876 1783.64843407 159.01706246 1778.98770491 150.75 1774.375 C141.88539281 1769.42888796 133.05734587 1764.42207578 124.25 1759.375 C113.28704699 1753.09325638 102.28035493 1746.89317717 91.25 1740.73046875 C76.30966838 1732.3818846 61.43645659 1723.91638983 46.58432007 1715.41217041 C38.33119617 1710.68802181 30.0534479 1706.01026871 21.75 1701.375 C18.67773506 1699.65549117 15.60603164 1697.93498531 12.53466797 1696.21386719 C10.22491748 1694.92079147 7.91410249 1693.62976423 5.60205078 1692.34082031 C2.44710015 1690.58087555 -0.70207009 1688.81091501 -3.84814453 1687.03515625 C-5.05060275 1686.35843434 -6.25480337 1685.68479675 -7.4609375 1685.01464844 C-20.58574705 1677.71731371 -32.26549945 1670.2445499 -37.10470078 1655.35912748 C-38.55161274 1648.66801486 -38.12266317 1641.69130223 -38.06772137 1634.87720203 C-38.06436432 1633.07684099 -38.06234468 1631.27647704 -38.06153831 1629.47611305 C-38.05550291 1624.51909312 -38.03066366 1619.56231671 -38.00290511 1614.60537741 C-37.97613927 1609.21617619 -37.96714694 1603.82694167 -37.95605642 1598.43768948 C-37.93427951 1588.98895543 -37.90164193 1579.54030808 -37.86199379 1570.09163284 C-37.80324271 1556.04102457 -37.76217827 1541.99040483 -37.72583188 1527.93972259 C-37.70850686 1521.24393774 -37.69059943 1514.54815448 -37.67254031 1507.85237157 C-37.67072735 1507.17804628 -37.6689144 1506.50372098 -37.66704651 1505.80896158 C-37.63874977 1495.31578183 -37.60703712 1484.82261555 -37.57353914 1474.3294512 C-37.44536269 1434.04705344 -37.35972331 1393.76473587 -37.30304578 1353.48217602 C-37.29775618 1349.74163018 -37.29234464 1346.00108452 -37.28694 1342.26053885 C-37.26506753 1327.09806383 -37.2437703 1311.93558804 -37.2228266 1296.7731117 C-37.18071577 1266.30785761 -37.13786467 1235.84260548 -37.08900874 1205.37736133 C-37.08520412 1203.00160171 -37.08142779 1200.62584205 -37.07765346 1198.25008239 C-37.01929862 1161.65959515 -36.94174238 1125.06925705 -36.81335449 1088.47894287 C-36.81059487 1087.69194415 -36.80783524 1086.90494543 -36.804992 1086.09409827 C-36.76040671 1073.40460978 -36.71449723 1060.71512606 -36.66837274 1048.02564308 C-36.53551675 1011.4708997 -36.41627063 974.91630697 -36.37914753 938.36132336 C-36.37837726 937.60951472 -36.377607 936.85770608 -36.37681339 936.08311537 C-36.36086617 920.31994707 -36.350141 904.55677999 -36.34605237 888.79360417 C-36.34413176 881.41183766 -36.34114341 874.03007178 -36.33757973 866.64830589 C-36.33725027 865.92153989 -36.33692081 865.19477388 -36.33658136 864.44598466 C-36.3254581 841.04020581 -36.23680472 817.63550672 -36.10690056 794.23010913 C-35.97272467 769.99900045 -35.92259942 745.76924915 -35.97067633 721.53778014 C-35.99570951 707.56634704 -35.95350724 693.59885112 -35.8156105 679.62805622 C-35.73008436 670.29771369 -35.73152887 660.97000866 -35.80382852 651.63956086 C-35.84254564 646.31987725 -35.84327955 641.00767809 -35.73788514 635.68873135 C-34.41249191 615.52744115 -34.41249191 615.52744115 -41.1218691 597.35053788 C-46.77056535 592.52025858 -52.93694741 589.71890947 -59.93583492 587.36884167 C-63.73804445 586.02606533 -66.88440986 584.15800288 -70.3046875 582.03515625 C-72.4108958 580.83494979 -74.5176568 579.63571267 -76.625 578.4375 C-78.99527571 577.08678556 -81.36489749 575.7349266 -83.734375 574.3828125 C-84.61351059 573.88124886 -84.61351059 573.88124886 -85.51040649 573.36955261 C-94.87116231 568.0260529 -104.19973176 562.6265308 -113.53222656 557.23388672 C-118.93670645 554.11175395 -124.34347412 550.99358796 -129.75 547.875 C-131.9166775 546.62501878 -134.08334417 545.37501879 -136.25 544.125 C-137.85875 543.196875 -137.85875 543.196875 -139.5 542.25 C-175.25 521.625 -175.25 521.625 -178.49951172 519.75024414 C-180.66776264 518.4993552 -182.83605697 517.24854148 -185.00439453 515.99780273 C-190.39717915 512.88701665 -195.78922093 509.77495762 -201.1796875 506.66015625 C-212.98629484 499.83997363 -224.81027 493.0517674 -236.65472412 486.29763794 C-245.69471708 481.14083392 -254.69525321 475.91956231 -263.67675781 470.66162109 C-271.88915175 465.86088404 -280.14261375 461.13359742 -288.40625 456.421875 C-296.86820754 451.59707465 -305.31642932 446.74931361 -313.75 441.875 C-322.73540936 436.682595 -331.73645334 431.51833816 -340.75 426.375 C-353.02227219 419.3714398 -365.26707843 412.32100756 -377.50146484 405.25146484 C-380.82960554 403.32901712 -384.15877192 401.40835754 -387.48828125 399.48828125 C-388.59993652 398.84713379 -389.7115918 398.20598633 -390.85693359 397.54541016 C-393.0510059 396.2803044 -395.24533554 395.0156448 -397.43994141 393.75146484 C-402.48096792 390.84600751 -407.5159725 387.9313363 -412.53515625 384.98828125 C-413.42082275 384.47040039 -414.30648926 383.95251953 -415.21899414 383.41894531 C-416.86225658 382.45711292 -418.50349716 381.49181477 -420.14233398 380.52246094 C-423.70719847 378.20527324 -423.70719847 378.20527324 -427.75 377.375 Z M421.28125 380.12890625 C419.73244141 381.02802734 419.73244141 381.02802734 418.15234375 381.9453125 C417.02957031 382.60273438 415.90679688 383.26015625 414.75 383.9375 C413.57448406 384.62154988 412.39869853 385.30513667 411.22265625 385.98828125 C408.77629074 387.40982132 406.33110537 388.83336082 403.88671875 390.25830078 C398.35195033 393.48257139 392.8002144 396.67741885 387.25 399.875 C385.08063675 401.12614186 382.91136622 402.37744449 380.7421875 403.62890625 C379.1329541 404.55727295 379.1329541 404.55727295 377.49121094 405.50439453 C374.26698995 407.36519456 371.04355126 409.22734291 367.8203125 411.08984375 C356.05793427 417.88461564 344.27984493 424.65093156 332.48205566 431.38397217 C320.78932383 438.05785605 309.12488668 444.78022282 297.46777344 451.51611328 C290.97874904 455.26478034 284.4866305 459.00808667 277.99511719 462.75244141 C272.60251686 465.86318339 267.21062178 468.97513327 261.8203125 472.08984375 C250.01370516 478.91002637 238.18973 485.6982326 226.34527588 492.45236206 C218.28736788 497.04894223 210.25582214 501.6882416 202.25 506.375 C193.65477328 511.4068069 185.0268787 516.37889072 176.375 521.3125 C167.27920013 526.49942426 158.19287737 531.70181506 149.125 536.9375 C148.05894531 537.55302734 146.99289062 538.16855469 145.89453125 538.80273438 C142.67942477 540.65970194 139.46464622 542.51723579 136.25 544.375 C123.48307055 551.75308856 110.71033737 559.11993997 97.9012146 566.42453003 C85.54256821 573.47262978 73.22857743 580.59407166 60.95507812 587.78955078 C58.30993574 589.3398716 55.66293626 590.88698016 53.015625 592.43359375 C51.44780884 593.35137832 49.88009373 594.26933556 48.3125 595.1875 C47.60198486 595.60241699 46.89146973 596.01733398 46.15942383 596.44482422 C43.02485348 598.16485249 43.02485348 598.16485249 40.25 600.375 C40.15157189 602.49843218 40.12552894 604.62521486 40.1258015 606.75092703 C40.12452342 607.42927176 40.12324533 608.10761648 40.12192852 608.80651711 C40.11883051 611.11269571 40.12295005 613.4188077 40.12695217 615.72498417 C40.12621346 617.38894218 40.12503587 619.05290004 40.12345567 620.71685746 C40.12036559 625.33224382 40.12357909 629.9476084 40.12773381 634.56299315 C40.1311502 639.56788116 40.12880063 644.57276682 40.12715632 649.57765526 C40.12507633 658.36351674 40.12673696 667.14937146 40.13079453 675.93523216 C40.13681136 688.99963751 40.13713203 702.06403858 40.13625254 715.12844506 C40.13493631 737.10121615 40.13828159 759.0739847 40.14426994 781.04675484 C40.15018803 802.81361467 40.15404415 824.58047327 40.15512276 846.34733391 C40.15515717 847.02278622 40.15519158 847.69823852 40.15522704 848.39415908 C40.15554023 854.56317842 40.15582792 860.73219777 40.15608501 866.90121711 C40.15672449 882.2381987 40.15768386 897.57518027 40.15886021 912.91216183 C40.15891352 913.61065203 40.15896684 914.30914224 40.15902177 915.02879881 C40.16164467 949.02432663 40.16795279 983.01985362 40.17456055 1017.01538086 C40.17685216 1028.81579589 40.17912751 1040.61621093 40.18133545 1052.41662598 C40.1814724 1053.14846724 40.18160935 1053.8803085 40.18175045 1054.63432676 C40.18809198 1088.64195595 40.19181929 1122.64958529 40.19487024 1156.65721491 C40.19506831 1158.86442587 40.1952675 1161.07163682 40.19546692 1163.27884777 C40.19678668 1177.90588308 40.19806133 1192.53291838 40.19930578 1207.15995369 C40.20178243 1236.26528916 40.20452411 1265.37062461 40.20744783 1294.47596004 C40.20758707 1295.86210008 40.20772612 1297.24824013 40.20786499 1298.63438018 C40.21660037 1385.80653976 40.23132143 1472.97869842 40.25 1575.375 C42.16780091 1574.42309392 44.08480168 1573.46957572 46.00146484 1572.51538086 C47.60288834 1571.71915565 47.60288834 1571.71915565 49.23666382 1570.90684509 C52.87653985 1569.05649521 56.38258253 1567.04889422 59.875 1564.9375 C61.33919101 1564.06530953 62.80408264 1563.19429455 64.26953125 1562.32421875 C65.06053223 1561.85419434 65.8515332 1561.38416992 66.66650391 1560.89990234 C71.61131543 1557.98123926 76.58785292 1555.11741395 81.5625 1552.25 C82.66207031 1551.61594238 83.76164063 1550.98188477 84.89453125 1550.32861328 C93.63354654 1545.29489025 102.39155223 1540.29485315 111.1522522 1535.29901123 C119.21098741 1530.70197775 127.24336382 1526.06223496 135.25 1521.375 C143.84522672 1516.3431931 152.4731213 1511.37110928 161.125 1506.4375 C170.22079987 1501.25057574 179.30712263 1496.04818494 188.375 1490.8125 C189.97408203 1489.88920898 189.97408203 1489.88920898 191.60546875 1488.94726562 C194.82057523 1487.09029806 198.03535378 1485.23276421 201.25 1483.375 C215.19844368 1475.31410696 229.16003888 1467.27790574 243.15472412 1459.29763794 C251.21263212 1454.70105777 259.24417786 1450.0617584 267.25 1445.375 C277.02502765 1439.65251551 286.84786956 1434.0165656 296.6875 1428.40625 C304.55537405 1423.91944263 312.40825402 1419.40735242 320.25 1414.875 C329.27530846 1409.65857514 338.31927803 1404.47585025 347.375 1399.3125 C357.00118377 1393.82351589 366.59095966 1388.2755431 376.15258789 1382.67480469 C381.56627633 1379.50875765 386.99362908 1376.36862957 392.44140625 1373.26171875 C393.05503021 1372.91174835 393.66865417 1372.56177795 394.3008728 1372.20120239 C397.2646244 1370.51195018 400.2300121 1368.82567692 403.19726562 1367.14257812 C405.34013091 1365.92368901 407.47370022 1364.6882502 409.59572607 1363.43343204 C412.05442161 1362.00564367 414.53332489 1360.76783501 417.12515971 1359.6009427 C424.95744172 1355.8764224 424.95744172 1355.8764224 429.63217538 1348.92067211 C430.16750637 1344.56145415 430.2113382 1340.42064079 430.09571743 1336.0406332 C430.10682115 1334.36729696 430.12450997 1332.69399381 430.1481649 1331.02078792 C430.19417289 1326.41503698 430.14662965 1321.81425717 430.08399289 1317.20887731 C430.03244841 1312.20231617 430.0680465 1307.19625619 430.09265524 1302.18959528 C430.12376367 1293.41287085 430.09910661 1284.63767132 430.03808212 1275.86112404 C429.94759507 1262.8110391 429.94304089 1249.76191668 429.95621195 1236.71157523 C429.97592691 1214.75991552 429.92588508 1192.80885594 429.83595085 1170.85740471 C429.74710418 1149.11945309 429.68932274 1127.38178016 429.67315865 1105.64364815 C429.67238438 1104.63088263 429.67238438 1104.63088263 429.67159447 1103.5976572 C429.66689646 1097.43092606 429.6625811 1091.2641947 429.65872485 1085.09746297 C429.64913409 1069.76787735 429.63474437 1054.43829825 429.6170969 1039.10871983 C429.61589726 1038.06162433 429.61589726 1038.06162433 429.61467338 1036.99337539 C429.57535352 1003.03917981 429.48074142 969.08516821 429.3815918 935.13110352 C429.34721679 923.3487563 429.3130863 911.56640845 429.27996826 899.78405762 C429.27791402 899.05331195 429.27585979 898.32256629 429.2737433 897.56967681 C429.17857634 863.59707686 429.12269642 829.62444532 429.07694633 795.65174704 C429.07397538 793.44612722 429.07098749 791.24050741 429.06799615 789.03488761 C429.04819937 774.41809004 429.02907964 759.80129163 429.01041326 745.18449257 C428.97326604 716.10086412 428.93214082 687.0172417 428.88828255 657.9336226 C428.88619395 656.548595 428.88410813 655.16356738 428.88202511 653.77853977 C428.74983687 565.90675614 428.52632757 478.03517943 428.25 377.375 C425.37340442 377.375 423.76241452 378.68104957 421.28125 380.12890625 Z M974.25 641.375 C973.9525548 697.54682887 973.7234307 753.71857947 973.58615072 809.89104083 C973.5698912 816.52013528 973.55306504 823.14922818 973.53588867 829.77832031 C973.53247864 831.09807356 973.5290686 832.4178268 973.52555523 833.77757257 C973.46945244 855.15721923 973.36644829 876.53638927 973.24701365 897.91576797 C973.12551608 919.84705896 973.05325132 941.77811211 973.02684957 963.70972586 C973.00899649 977.24699384 972.95257874 990.78297974 972.84708593 1004.31985313 C972.77845672 1013.59805728 972.75757808 1022.87559705 972.77448209 1032.1540367 C972.7828236 1037.51071238 972.76989183 1042.86514558 972.70032883 1048.2214241 C972.63710396 1053.12542286 972.63382791 1058.02567047 972.67831437 1062.92984122 C972.68381231 1064.70393695 972.66726919 1066.47826575 972.62651863 1068.25190192 C972.5114126 1073.57093097 972.58494882 1078.28886232 974.25 1083.375 C978.18574727 1087.25942445 982.17497785 1089.16079334 987.25 1091.375 C989.42338127 1092.60318801 991.58555699 1093.85164925 993.73046875 1095.12890625 C995.96499702 1096.40045846 998.20071386 1097.66992382 1000.4375 1098.9375 C1002.90817597 1100.34265477 1005.37788106 1101.74951273 1007.84765625 1103.15625 C1008.46775574 1103.50917618 1009.08785522 1103.86210236 1009.72674561 1104.22572327 C1015.95638117 1107.77284074 1022.16747021 1111.35185156 1028.375 1114.9375 C1029.44016846 1115.55254395 1030.50533691 1116.16758789 1031.6027832 1116.80126953 C1035.88863664 1119.27655995 1040.17379414 1121.75305388 1044.45898438 1124.22949219 C1047.68068275 1126.09102672 1050.90271079 1127.95198839 1054.125 1129.8125 C1055.19105469 1130.42802734 1056.25710938 1131.04355469 1057.35546875 1131.67773438 C1065.93995597 1136.62953042 1074.54580293 1141.54324868 1083.15472412 1146.45236206 C1092.19471708 1151.60916608 1101.19525321 1156.83043769 1110.17675781 1162.08837891 C1117.79905778 1166.54416344 1125.45531311 1170.93897146 1133.125 1175.3125 C1147.59950369 1183.56665636 1162.03221846 1191.89217372 1176.45898438 1200.22949219 C1179.68068275 1202.09102672 1182.90271079 1203.95198839 1186.125 1205.8125 C1187.19105469 1206.42802734 1188.25710938 1207.04355469 1189.35546875 1207.67773438 C1197.93995597 1212.62953042 1206.54580293 1217.54324868 1215.15472412 1222.45236206 C1224.19471708 1227.60916608 1233.19525321 1232.83043769 1242.17675781 1238.08837891 C1249.79905778 1242.54416344 1257.45531311 1246.93897146 1265.125 1251.3125 C1279.59950369 1259.56665636 1294.03221846 1267.89217372 1308.45898438 1276.22949219 C1316.05262256 1280.61718404 1323.64955184 1284.99911494 1331.25 1289.375 C1331.86965637 1289.7319696 1332.48931274 1290.08893921 1333.12774658 1290.45672607 C1337.01721854 1292.69717259 1340.90847033 1294.93447704 1344.80206299 1297.16775513 C1346.05044393 1297.88432845 1347.29829551 1298.60182487 1348.54559326 1299.32028198 C1350.27761391 1300.31765753 1352.01180601 1301.31125933 1353.74609375 1302.3046875 C1354.73794678 1302.87429199 1355.7297998 1303.44389648 1356.75170898 1304.03076172 C1359.26556084 1305.47520741 1359.26556084 1305.47520741 1362.25 1306.375 C1362.25 1160.515 1362.25 1014.655 1362.25 864.375 C1353.67 859.425 1345.09 854.475 1336.25 849.375 C1332.00125 846.920625 1327.7525 844.46625 1323.375 841.9375 C1313.7159175 836.35995774 1304.03439835 830.82272055 1294.34527588 825.29763794 C1285.30528292 820.14083392 1276.30474679 814.91956231 1267.32324219 809.66162109 C1259.70094222 805.20583656 1252.04468689 800.81102854 1244.375 796.4375 C1229.90049631 788.18334364 1215.46778154 779.85782628 1201.04101562 771.52050781 C1197.81931725 769.65897328 1194.59728921 767.79801161 1191.375 765.9375 C1190.30894531 765.32197266 1189.24289062 764.70644531 1188.14453125 764.07226562 C1179.56004403 759.12046958 1170.95419707 754.20675132 1162.34527588 749.29763794 C1153.30528292 744.14083392 1144.30474679 738.91956231 1135.32324219 733.66162109 C1127.70094222 729.20583656 1120.04468689 724.81102854 1112.375 720.4375 C1097.90049631 712.18334364 1083.46778154 703.85782628 1069.04101562 695.52050781 C1065.81931725 693.65897328 1062.59728921 691.79801161 1059.375 689.9375 C1058.30894531 689.32197266 1057.24289062 688.70644531 1056.14453125 688.07226562 C1048.74219024 683.80236784 1041.32507423 679.55901406 1033.90176392 675.32574463 C1021.57397805 668.29551247 1009.29963462 661.17740218 997.04980469 654.01220703 C992.47370154 651.336296 987.89502968 648.66489041 983.3125 646 C982.50675537 645.52908936 981.70101074 645.05817871 980.87084961 644.57299805 C977.7397499 642.38197631 977.7397499 642.38197631 974.25 641.375 Z M1823.88671875 643.875 C1822.95150391 644.42414062 1822.01628906 644.97328125 1821.05273438 645.5390625 C1820.02470703 646.14492188 1818.99667969 646.75078125 1817.9375 647.375 C1808.74205815 652.76906728 1799.51398465 658.09970435 1790.25 663.375 C1781.55563267 668.32816374 1772.8850183 673.3187892 1764.25 678.375 C1754.47503358 684.09758797 1744.6521294 689.73343499 1734.8125 695.34375 C1726.94462595 699.83055737 1719.09174598 704.34264758 1711.25 708.875 C1702.22469154 714.09142486 1693.18072197 719.27414975 1684.125 724.4375 C1675.47304141 729.37096734 1666.84522495 734.34319413 1658.25 739.375 C1649.65477328 744.4068069 1641.0268787 749.37889072 1632.375 754.3125 C1623.27920013 759.49942426 1614.19287737 764.70181506 1605.125 769.9375 C1604.05894531 770.55302734 1602.99289063 771.16855469 1601.89453125 771.80273438 C1598.67942477 773.65970194 1595.46464622 775.51723579 1592.25 777.375 C1578.30155632 785.43589304 1564.33996112 793.47209426 1550.34527588 801.45236206 C1542.28736788 806.04894223 1534.25582214 810.6882416 1526.25 815.375 C1517.65477336 820.40680685 1509.02688353 825.37889913 1500.375 830.3125 C1491.13328233 835.58259145 1481.90144794 840.86890757 1472.6875 846.1875 C1471.71506348 846.74880615 1470.74262695 847.3101123 1469.74072266 847.88842773 C1467.789294 849.01557683 1465.86049653 850.18286487 1463.95698261 851.38917065 C1461.20267661 853.0135553 1458.61574172 853.86996991 1455.52909374 854.68131733 C1449.50784074 856.61035987 1444.85938826 859.03902543 1441.25 864.375 C1437.63926454 876.68374135 1438.80321787 890.332936 1439.04475319 903.0197233 C1439.12699391 908.43538502 1439.09902549 913.85062819 1439.08460999 919.26673889 C1439.07465828 928.64375191 1439.13414175 938.01824857 1439.24112892 947.39462852 C1439.39570727 960.95075292 1439.44504168 974.50566359 1439.46890076 988.06257377 C1439.51046029 1010.05827443 1439.63683406 1032.05263448 1439.81665039 1054.04760742 C1439.99111756 1075.41052133 1440.12557396 1096.77299996 1440.20629883 1118.13647461 C1440.21129057 1119.4538367 1440.21628232 1120.77119878 1440.22142533 1122.12848093 C1440.24622148 1128.73746116 1440.27023183 1135.34644396 1440.29385149 1141.95542848 C1440.49074259 1196.76287808 1440.82532297 1251.56887479 1441.25 1306.375 C1444.6279741 1305.04880825 1447.76778979 1303.61935047 1450.92578125 1301.828125 C1452.27192505 1301.06665161 1452.27192505 1301.06665161 1453.64526367 1300.28979492 C1454.60795166 1299.7404126 1455.57063965 1299.19103027 1456.5625 1298.625 C1457.57868408 1298.04790283 1458.59486816 1297.47080566 1459.6418457 1296.8762207 C1467.76846838 1292.24893336 1475.84817899 1287.54304853 1483.91772461 1282.81713867 C1491.62548867 1278.30788928 1499.36743169 1273.86031812 1507.125 1269.4375 C1516.18081119 1264.27430727 1525.22469269 1259.09142419 1534.25 1253.875 C1543.27530846 1248.65857514 1552.31927803 1243.47585025 1561.375 1238.3125 C1570.02695859 1233.37903266 1578.65477505 1228.40680587 1587.25 1223.375 C1595.84522672 1218.3431931 1604.4731213 1213.37110928 1613.125 1208.4375 C1622.22079987 1203.25057574 1631.30712263 1198.04818494 1640.375 1192.8125 C1641.44105469 1192.19697266 1642.50710937 1191.58144531 1643.60546875 1190.94726562 C1646.82057523 1189.09029806 1650.03535378 1187.23276421 1653.25 1185.375 C1667.19844368 1177.31410696 1681.16003888 1169.27790574 1695.15472412 1161.29763794 C1703.21263212 1156.70105777 1711.24417786 1152.0617584 1719.25 1147.375 C1727.84522672 1142.3431931 1736.4731213 1137.37110928 1745.125 1132.4375 C1757.43715773 1125.41643198 1769.7208838 1118.34730744 1781.99267578 1111.25585938 C1785.34660563 1109.31921753 1788.7023503 1107.38575427 1792.05859375 1105.453125 C1801.82514916 1099.82825669 1811.59052672 1094.20169525 1821.3125 1088.5 C1822.01511963 1088.08903076 1822.71773926 1087.67806152 1823.44165039 1087.25463867 C1826.52242011 1085.55507118 1826.52242011 1085.55507118 1829.25 1083.375 C1829.34872662 1081.0234057 1829.38179391 1078.70119353 1829.37304783 1076.34907436 C1829.3747786 1075.22795184 1829.3747786 1075.22795184 1829.37654433 1074.08418038 C1829.37921806 1071.54767065 1829.37468266 1069.01122278 1829.37025452 1066.47471619 C1829.37069006 1064.65069122 1829.37156467 1062.82666631 1829.37284368 1061.00264174 C1829.37509188 1055.96539755 1829.37106295 1050.92817442 1829.36606562 1045.89093292 C1829.36176593 1040.46826861 1829.3632072 1035.04560559 1829.3639679 1029.62294006 C1829.36449344 1020.21951451 1829.36134349 1010.81609586 1829.35573006 1001.41267204 C1829.34761914 987.81672992 1829.34500026 974.22079116 1829.34374207 960.62484688 C1829.3415509 938.56882506 1829.33488908 916.51280693 1829.32543945 894.45678711 C1829.31625974 873.0254722 1829.30917382 851.59415828 1829.30493164 830.1628418 C1829.30466892 828.84285247 1829.30440619 827.52286315 1829.30413551 826.16287415 C1829.30283052 819.5411853 1829.3015668 812.91949644 1829.30032361 806.29780757 C1829.28994899 751.32353583 1829.27232893 696.34926809 1829.25 641.375 C1827.29926567 641.375 1825.51018305 642.91775593 1823.88671875 643.875 Z M927.74609375 1155.34765625 C926.62638184 1155.99226807 925.50666992 1156.63687988 924.35302734 1157.30102539 C923.13112001 1158.01307226 921.90927933 1158.72523351 920.6875 1159.4375 C919.4217313 1160.16913488 918.15561298 1160.9001652 916.88916016 1161.63061523 C914.27971588 1163.13699983 911.67241531 1164.64699572 909.06689453 1166.16015625 C905.55801645 1168.19760496 902.04365882 1170.22540733 898.52734375 1172.25 C893.17144047 1175.33402198 887.81900053 1178.42398586 882.46777344 1181.51611328 C875.97874904 1185.26478034 869.4866305 1189.00808667 862.99511719 1192.75244141 C857.60251686 1195.86318339 852.21062178 1198.97513327 846.8203125 1202.08984375 C835.01370516 1208.91002637 823.18973 1215.6982326 811.34527588 1222.45236206 C803.28736788 1227.04894223 795.25582214 1231.6882416 787.25 1236.375 C778.65477328 1241.4068069 770.0268787 1246.37889072 761.375 1251.3125 C752.27920013 1256.49942426 743.19287737 1261.70181506 734.125 1266.9375 C732.52591797 1267.86079102 732.52591797 1267.86079102 730.89453125 1268.80273438 C727.67942477 1270.65970194 724.46464622 1272.51723579 721.25 1274.375 C707.30155632 1282.43589304 693.33996112 1290.47209426 679.34527588 1298.45236206 C671.28736788 1303.04894223 663.25582214 1307.6882416 655.25 1312.375 C646.65477328 1317.4068069 638.0268787 1322.37889072 629.375 1327.3125 C620.27920013 1332.49942426 611.19287737 1337.70181506 602.125 1342.9375 C601.05894531 1343.55302734 599.99289062 1344.16855469 598.89453125 1344.80273438 C595.67942477 1346.65970194 592.46464622 1348.51723579 589.25 1350.375 C575.30155632 1358.43589304 561.33996112 1366.47209426 547.34527588 1374.45236206 C539.28736788 1379.04894223 531.25582214 1383.6882416 523.25 1388.375 C514.65477328 1393.4068069 506.0268787 1398.37889072 497.375 1403.3125 C488.27920013 1408.49942426 479.19287737 1413.70181506 470.125 1418.9375 C468.52591797 1419.86079102 468.52591797 1419.86079102 466.89453125 1420.80273438 C463.67942477 1422.65970194 460.46464622 1424.51723579 457.25 1426.375 C443.34571421 1434.41037392 429.4296502 1442.42402998 415.48205566 1450.38397217 C403.78932383 1457.05785605 392.12488668 1463.78022282 380.46777344 1470.51611328 C373.97874904 1474.26478034 367.4866305 1478.00808667 360.99511719 1481.75244141 C355.60251686 1484.86318339 350.21062178 1487.97513327 344.8203125 1491.08984375 C333.01370516 1497.91002637 321.18973 1504.6982326 309.34527588 1511.45236206 C301.28736788 1516.04894223 293.25582214 1520.6882416 285.25 1525.375 C276.65477328 1530.4068069 268.0268787 1535.37889072 259.375 1540.3125 C250.27920013 1545.49942426 241.19287737 1550.70181506 232.125 1555.9375 C231.05894531 1556.55302734 229.99289062 1557.16855469 228.89453125 1557.80273438 C225.67942477 1559.65970194 222.46464622 1561.51723579 219.25 1563.375 C205.30155632 1571.43589304 191.33996112 1579.47209426 177.34527588 1587.45236206 C169.28736788 1592.04894223 161.25582214 1596.6882416 153.25 1601.375 C143.49026281 1607.08853317 133.68295819 1612.71597455 123.85864258 1618.31738281 C113.43043162 1624.26413306 103.0309163 1630.25962631 92.63671875 1636.265625 C88.51448355 1638.64726582 84.38638151 1641.01802097 80.25 1643.375 C83.61080522 1646.18665902 86.95470045 1648.46096689 90.80078125 1650.5546875 C92.41883667 1651.44256958 92.41883667 1651.44256958 94.06958008 1652.34838867 C95.22224365 1652.97592041 96.37490723 1653.60345215 97.5625 1654.25 C100.01252654 1655.59384099 102.45990047 1656.94244704 104.90625 1658.29296875 C105.52446121 1658.63409195 106.14267242 1658.97521515 106.77961731 1659.32667542 C112.76517657 1662.64029492 118.66866062 1666.08866698 124.5625 1669.5625 C133.01457586 1674.53561749 141.54818572 1679.31743851 150.17529297 1683.97949219 C158.15904111 1688.300852 166.03886303 1692.79041234 173.91015625 1697.3125 C179.46724585 1700.50497975 185.04412689 1703.66182459 190.625 1706.8125 C191.5850293 1707.35471191 192.54505859 1707.89692383 193.53417969 1708.45556641 C197.37331675 1710.62336055 201.21302824 1712.7901342 205.05322266 1714.95605469 C217.02949995 1721.7112559 228.9828617 1728.5049635 240.91513062 1735.33755493 C250.18421311 1740.64322281 259.48932576 1745.88172524 268.81591797 1751.08569336 C277.25294702 1755.80011163 285.64542561 1760.59009172 294.03076172 1765.39550781 C302.24493124 1770.10156593 310.48293754 1774.76229509 318.75 1779.375 C328.2121431 1784.65451424 337.62985739 1790.00809623 347.03076172 1795.39550781 C355.24493124 1800.10156593 363.48293754 1804.76229509 371.75 1809.375 C381.2121431 1814.65451424 390.62985739 1820.00809623 400.03076172 1825.39550781 C409.24441168 1830.6741878 418.49304649 1835.88716093 427.76806641 1841.05737305 C433.50758465 1844.26226641 439.22812779 1847.49773709 444.9296875 1850.76953125 C445.89452057 1851.32288651 445.89452057 1851.32288651 446.87884521 1851.88742065 C450.02244007 1853.69117381 453.16395445 1855.49842854 456.30273438 1857.31054688 C457.42744141 1857.95701172 458.55214844 1858.60347656 459.7109375 1859.26953125 C460.70915527 1859.84550049 461.70737305 1860.42146973 462.73583984 1861.01489258 C465.26159605 1862.47512171 465.26159605 1862.47512171 468.25 1863.375 C470.51068588 1862.42978078 470.51068588 1862.42978078 472.9140625 1860.90234375 C473.85830078 1860.33966797 474.80253906 1859.77699219 475.77539062 1859.19726562 C476.79826172 1858.57529297 477.82113281 1857.95332031 478.875 1857.3125 C481.063901 1856.00709499 483.2540437 1854.70377022 485.4453125 1853.40234375 C486.57356445 1852.73058105 487.70181641 1852.05881836 488.86425781 1851.36669922 C494.1103615 1848.28062236 499.4274844 1845.32668366 504.75 1842.375 C512.9727296 1837.80063502 521.13584586 1833.13927399 529.25 1828.375 C538.39913289 1823.00303207 547.62403131 1817.78423475 556.89453125 1812.625 C564.06353695 1808.62535548 571.17092763 1804.53151956 578.25 1800.375 C587.39913289 1795.00303207 596.62403131 1789.78423475 605.89453125 1784.625 C613.06353957 1780.62535401 620.17086585 1776.53141748 627.25 1772.375 C636.474351 1766.96049301 645.77014472 1761.68869306 655.11206055 1756.47998047 C664.24137742 1751.38875391 673.32094915 1746.21457525 682.38867188 1741.01464844 C687.26688227 1738.21925074 692.14934254 1735.43129125 697.03134155 1732.64251709 C700.02236328 1730.933845 703.01312061 1729.22471026 706.00390625 1727.515625 C707.21500526 1726.82356552 708.42610552 1726.13150823 709.63720703 1725.43945312 C710.53454559 1724.92668823 710.53454559 1724.92668823 711.45001221 1724.40356445 C715.55513509 1722.05777995 719.66025798 1719.71199544 723.76538086 1717.36621094 C724.34013153 1717.03778198 724.9148822 1716.70935303 725.50704956 1716.37097168 C884.74999994 1625.37500003 884.74999994 1625.37500003 886.49995422 1624.37503052 C887.66677849 1623.70827089 888.83359774 1623.0415025 890.00041199 1622.37472534 C892.91462646 1620.70940912 895.82892742 1619.04424463 898.7434082 1617.37939453 C904.02275664 1614.36345394 909.30143944 1611.34637659 914.57693481 1608.32369995 C917.53003016 1606.6317216 920.48362989 1604.94062536 923.4375 1603.25 C924.01850464 1602.91744202 924.59950928 1602.58488403 925.19812012 1602.24224854 C933.43785151 1597.52830102 941.70796842 1592.87132005 950 1588.25 C959.14445571 1583.15285402 968.20359092 1577.92501254 977.23144531 1572.62451172 C985.39118496 1567.84576913 993.63208107 1563.22323314 1001.89453125 1558.625 C1009.06353695 1554.62535548 1016.17092763 1550.53151956 1023.25 1546.375 C1032.39913289 1541.00303207 1041.62403131 1535.78423475 1050.89453125 1530.625 C1058.06353695 1526.62535548 1065.17092763 1522.53151956 1072.25 1518.375 C1081.39913289 1513.00303207 1090.62403131 1507.78423475 1099.89453125 1502.625 C1107.06353957 1498.62535401 1114.17086585 1494.53141748 1121.25 1490.375 C1130.474351 1484.96049301 1139.77014472 1479.68869306 1149.11206055 1474.47998047 C1158.24137742 1469.38875391 1167.32094915 1464.21457525 1176.38867188 1459.01464844 C1181.26688227 1456.21925074 1186.14934254 1453.43129125 1191.03134155 1450.64251709 C1194.02236328 1448.933845 1197.01312061 1447.22471026 1200.00390625 1445.515625 C1201.21500526 1444.82356552 1202.42610552 1444.13150823 1203.63720703 1443.43945312 C1204.23543274 1443.09760986 1204.83365845 1442.7557666 1205.45001221 1442.40356445 C1211.60769653 1438.8848877 1211.60769653 1438.8848877 1217.76538086 1435.36621094 C1218.34013153 1435.03778198 1218.9148822 1434.70935303 1219.50704956 1434.37097168 C1235.25469971 1425.37231445 1251.00234985 1416.37365723 1266.75 1407.375 C1267.32737411 1407.04506546 1267.90474823 1406.71513092 1268.49961853 1406.37519836 C1269.66753423 1405.70783105 1270.8354725 1405.04050324 1272.00343323 1404.37321472 C1274.90117572 1402.71758892 1277.79844705 1401.06115195 1280.69506836 1399.40356445 C1286.1705802 1396.27122059 1291.64951053 1393.14551129 1297.14126587 1390.04171753 C1299.74051364 1388.57218535 1302.3377401 1387.09910142 1304.93481445 1385.62573242 C1306.17566867 1384.92310336 1307.41751536 1384.22222382 1308.66040039 1383.52319336 C1310.38155694 1382.55502817 1312.09906765 1381.5803902 1313.81640625 1380.60546875 C1315.28509155 1379.77631958 1315.28509155 1379.77631958 1316.78344727 1378.93041992 C1318.94629501 1377.56651782 1320.55537035 1376.27071763 1322.25 1374.375 C1321.15667358 1373.77196045 1321.15667358 1373.77196045 1320.04125977 1373.15673828 C1295.41614333 1359.56123807 1295.41614333 1359.56123807 1284.72998047 1353.21191406 C1278.49464532 1349.50766533 1272.22038271 1345.87296937 1265.9375 1342.25 C1264.83672119 1341.61521729 1263.73594238 1340.98043457 1262.60180664 1340.32641602 C1253.86392699 1335.29357329 1245.1072115 1330.29414816 1236.3477478 1325.29901123 C1227.30692659 1320.14175557 1218.30556088 1314.9200389 1209.32324219 1309.66162109 C1201.70094222 1305.20583656 1194.04468689 1300.81102854 1186.375 1296.4375 C1171.90049631 1288.18334364 1157.46778154 1279.85782628 1143.04101562 1271.52050781 C1139.81931725 1269.65897328 1136.59728921 1267.79801161 1133.375 1265.9375 C1132.30894531 1265.32197266 1131.24289062 1264.70644531 1130.14453125 1264.07226562 C1121.56004403 1259.12046958 1112.95419707 1254.20675132 1104.34527588 1249.29763794 C1095.30528292 1244.14083392 1086.30474679 1238.91956231 1077.32324219 1233.66162109 C1069.70094222 1229.20583656 1062.04468689 1224.81102854 1054.375 1220.4375 C1039.90049631 1212.18334364 1025.46778154 1203.85782628 1011.04101562 1195.52050781 C1007.81931725 1193.65897328 1004.59728921 1191.79801161 1001.375 1189.9375 C999.77591797 1189.01420898 999.77591797 1189.01420898 998.14453125 1188.07226562 C992.51482404 1184.82487749 986.87944577 1181.58777306 981.234375 1178.3671875 C980.64771561 1178.03244919 980.06105621 1177.69771088 979.45661926 1177.35282898 C977.0950253 1176.00565797 974.73328193 1174.65875507 972.37045288 1173.31375122 C965.97171727 1169.67122528 959.59122722 1166.00210012 953.25390625 1162.25390625 C952.14740723 1161.60107666 951.0409082 1160.94824707 949.90087891 1160.27563477 C947.80468791 1159.03578923 945.71174402 1157.79043247 943.62255859 1156.53881836 C942.6939502 1155.9897583 941.7653418 1155.44069824 940.80859375 1154.875 C939.99704834 1154.3903125 939.18550293 1153.905625 938.34936523 1153.40625 C934.02353616 1151.28131664 931.60957772 1153.10852392 927.74609375 1155.34765625 Z M1356.8515625 1445.91015625 C1355.91119141 1446.46445313 1354.97082031 1447.01875 1354.00195312 1447.58984375 C1352.97005859 1448.19957031 1351.93816406 1448.80929687 1350.875 1449.4375 C1341.90034363 1454.71098863 1332.86617695 1459.84884054 1323.75 1464.875 C1314.14165285 1470.17672422 1304.62820055 1475.6146146 1295.16796875 1481.17578125 C1288.07838852 1485.33400268 1280.93193905 1489.3786613 1273.75 1493.375 C1265.5279741 1497.950664 1257.3641857 1502.61070748 1249.25 1507.375 C1240.10086711 1512.74696793 1230.87596869 1517.96576525 1221.60546875 1523.125 C1214.43646305 1527.12464452 1207.32907237 1531.21848044 1200.25 1535.375 C1191.10086711 1540.74696793 1181.87596869 1545.96576525 1172.60546875 1551.125 C1165.43646305 1555.12464452 1158.32907237 1559.21848044 1151.25 1563.375 C1142.10086711 1568.74696793 1132.87596869 1573.96576525 1123.60546875 1579.125 C1116.43646305 1583.12464452 1109.32907237 1587.21848044 1102.25 1591.375 C1093.09945939 1596.74779449 1083.87331625 1601.9677244 1074.60107422 1607.12719727 C1067.47371733 1611.10315635 1060.41060908 1615.17663998 1053.375 1619.3125 C1043.77434496 1624.95399163 1034.07047748 1630.38712614 1024.32128906 1635.76708984 C1015.86248188 1640.44743587 1007.5016336 1645.27686334 999.16796875 1650.17578125 C992.07838852 1654.33400268 984.93193905 1658.3786613 977.75 1662.375 C969.5279741 1666.950664 961.3641857 1671.61070748 953.25 1676.375 C944.10086711 1681.74696793 934.87596869 1686.96576525 925.60546875 1692.125 C918.43646305 1696.12464452 911.32907237 1700.21848044 904.25 1704.375 C895.10086711 1709.74696793 885.87596869 1714.96576525 876.60546875 1720.125 C869.43645936 1724.12464659 862.32916232 1728.21862972 855.25 1732.375 C846.18815741 1737.69339275 837.05807301 1742.87371109 827.88012695 1747.98876953 C820.03903143 1752.362516 812.22969078 1756.78987167 804.4375 1761.25 C803.85504517 1761.58336365 803.27259033 1761.91672729 802.67248535 1762.26019287 C799.71406468 1763.95373714 796.75610134 1765.64807826 793.79833984 1767.34277344 C788.53378943 1770.35868289 783.265245 1773.36760211 777.99697876 1776.37701416 C775.08115361 1778.04271971 772.16559013 1779.70888314 769.25 1781.375 C768.08333459 1782.04166886 766.91666792 1782.70833552 765.75 1783.375 C765.1725 1783.705 764.595 1784.035 764 1784.375 C674.74999998 1835.37500001 674.74999998 1835.37500001 673.00004578 1836.37496948 C671.83322151 1837.04172911 670.66640226 1837.7084975 669.49958801 1838.37527466 C666.58537354 1840.04059088 663.67107258 1841.70575537 660.7565918 1843.37060547 C655.47724336 1846.38654606 650.19856056 1849.40362341 644.92306519 1852.42630005 C641.96996984 1854.1182784 639.01637011 1855.80937464 636.0625 1857.5 C635.48149536 1857.83255798 634.90049072 1858.16511597 634.30187988 1858.50775146 C626.06214849 1863.22169898 617.79203158 1867.87867995 609.5 1872.5 C600.35554429 1877.59714598 591.29640908 1882.82498746 582.26855469 1888.12548828 C575.14413661 1892.29789593 567.96411554 1896.35993445 560.75 1900.375 C549.62675117 1906.56886404 538.49825053 1912.79106634 527.64216083 1919.44589865 C525.09808229 1920.89270073 522.67695348 1922.09741519 520.01413161 1923.27133596 C511.97661662 1926.86017864 511.97661662 1926.86017864 506.26884596 1933.2270532 C504.71280507 1938.54594849 505.04186517 1944.02660465 505.20567322 1949.50942993 C505.1982533 1951.35776479 505.18335595 1953.2060821 505.16165739 1955.05430448 C505.1237244 1960.11911901 505.19148908 1965.17779736 505.27688444 1970.24182963 C505.35041459 1975.70727444 505.32544743 1981.1723832 505.31254578 1986.63818359 C505.30363845 1996.10284861 505.35689666 2005.56551894 505.45258904 2015.02968216 C505.59084968 2028.71284962 505.6350329 2042.3950542 505.65638489 2056.07884447 C505.69357664 2078.28013257 505.80652176 2100.48045592 505.9675293 2122.68115234 C506.12373661 2144.24489836 506.24412168 2165.80835991 506.31616211 2187.37255859 C506.31839805 2188.03759227 506.320634 2188.70262594 506.3229377 2189.38781215 C506.34757735 2196.72925076 506.37123847 2204.07069226 506.39449871 2211.41213536 C506.57068624 2266.73382421 506.87006733 2322.05436119 507.25 2377.375 C510.78064211 2375.99072638 514.05355979 2374.46520174 517.36328125 2372.609375 C518.84501831 2371.78010498 518.84501831 2371.78010498 520.35668945 2370.93408203 C521.41460693 2370.33708496 522.47252441 2369.74008789 523.5625 2369.125 C524.67262451 2368.50093262 525.78274902 2367.87686523 526.92651367 2367.23388672 C535.33587771 2362.49130308 543.68691436 2357.65253894 552.01489258 2352.76855469 C559.72854242 2348.24829446 567.48158834 2343.80011343 575.25 2339.375 C583.94418163 2334.42150554 592.61497675 2329.4312137 601.25 2324.375 C609.8451729 2319.3431021 618.47312222 2314.37110876 627.125 2309.4375 C636.22079987 2304.25057574 645.30712263 2299.04818494 654.375 2293.8125 C655.44105469 2293.19697266 656.50710938 2292.58144531 657.60546875 2291.94726562 C660.82057523 2290.09029806 664.03535378 2288.23276421 667.25 2286.375 C681.19844368 2278.31410696 695.16003888 2270.27790574 709.15472412 2262.29763794 C717.21263212 2257.70105777 725.24417786 2253.0617584 733.25 2248.375 C741.84522672 2243.3431931 750.4731213 2238.37110928 759.125 2233.4375 C768.22079987 2228.25057574 777.30712263 2223.04818494 786.375 2217.8125 C787.44105469 2217.19697266 788.50710938 2216.58144531 789.60546875 2215.94726562 C792.82057523 2214.09029806 796.03535378 2212.23276421 799.25 2210.375 C813.19844368 2202.31410696 827.16003888 2194.27790574 841.15472412 2186.29763794 C849.21263212 2181.70105777 857.24417786 2177.0617584 865.25 2172.375 C873.84522672 2167.3431931 882.4731213 2162.37110928 891.125 2157.4375 C900.22079987 2152.25057574 909.30712263 2147.04818494 918.375 2141.8125 C919.44105469 2141.19697266 920.50710938 2140.58144531 921.60546875 2139.94726562 C924.82057523 2138.09029806 928.03535378 2136.23276421 931.25 2134.375 C945.15428579 2126.33962608 959.0703498 2118.32597002 973.01794434 2110.36602783 C984.71067617 2103.69214395 996.37511332 2096.96977718 1008.03222656 2090.23388672 C1014.52125096 2086.48521966 1021.0133695 2082.74191333 1027.50488281 2078.99755859 C1032.89748314 2075.88681661 1038.28937822 2072.77486673 1043.6796875 2069.66015625 C1055.48629484 2062.83997363 1067.31027 2056.0517674 1079.15472412 2049.29763794 C1087.21263212 2044.70105777 1095.24417786 2040.0617584 1103.25 2035.375 C1111.84522672 2030.3431931 1120.4731213 2025.37110928 1129.125 2020.4375 C1138.22079987 2015.25057574 1147.30712263 2010.04818494 1156.375 2004.8125 C1157.44105469 2004.19697266 1158.50710938 2003.58144531 1159.60546875 2002.94726562 C1162.82057523 2001.09029806 1166.03535378 1999.23276421 1169.25 1997.375 C1183.19844368 1989.31410696 1197.16003888 1981.27790574 1211.15472412 1973.29763794 C1219.21263212 1968.70105777 1227.24417786 1964.0617584 1235.25 1959.375 C1243.84522672 1954.3431931 1252.4731213 1949.37110928 1261.125 1944.4375 C1270.22079987 1939.25057574 1279.30712263 1934.04818494 1288.375 1928.8125 C1289.97408203 1927.88920898 1289.97408203 1927.88920898 1291.60546875 1926.94726562 C1294.82057523 1925.09029806 1298.03535378 1923.23276421 1301.25 1921.375 C1318.23949175 1911.55666621 1335.25367302 1901.78324396 1352.29760742 1892.05981445 C1355.61584316 1890.16622768 1358.93286128 1888.27050784 1362.25 1886.375 C1362.25 1740.185 1362.25 1593.995 1362.25 1443.375 C1360.29000371 1443.375 1358.47874774 1444.94558768 1356.8515625 1445.91015625 Z " fill="#FF2C1F" transform="translate(505.75,7.625)"/>
</svg>
