<?xml version="1.0" encoding="UTF-8"?>
<svg version="1.1" xmlns="http://www.w3.org/2000/svg" width="900" height="650">
<path d="M0 0 C6.18585337 -0.39210874 9.41427593 0.26917736 14.8125 3.625 C16.03978396 4.36944763 17.26765456 5.11292895 18.49609375 5.85546875 C19.39110596 6.40726807 19.39110596 6.40726807 20.30419922 6.97021484 C22.61804963 8.37531433 24.98882857 9.65983657 27.375 10.9375 C31.26259278 13.0392119 35.11719887 15.19207094 38.96142578 17.37158203 C45.55260469 21.10755353 52.16161659 24.72875409 59 28 C59 28.66 59 29.32 59 30 C59.99 30.33 60.98 30.66 62 31 C63.86476233 33.83902951 64.25070009 36.10494917 64.25447559 39.46065426 C64.26030779 40.35380083 64.26613998 41.2469474 64.27214891 42.16715902 C64.26836958 43.14428887 64.26459026 44.12141872 64.26069641 45.12815857 C64.26452196 46.16935429 64.26834751 47.21055001 64.27228898 48.28329712 C64.28263391 51.7832353 64.27862396 55.28300988 64.2746582 58.78295898 C64.27900383 61.28772128 64.28418648 63.79248224 64.29014587 66.29724121 C64.30216836 72.40115066 64.30468537 78.50499948 64.30234561 84.60891848 C64.30056341 89.56969334 64.30230999 94.53045484 64.30657005 99.4912281 C64.30716524 100.19695965 64.30776043 100.90269119 64.30837366 101.62980853 C64.30958539 103.06344874 64.31079953 104.49708895 64.31201603 105.93072916 C64.32289527 119.37881204 64.32072724 132.82686985 64.31463119 146.27495415 C64.30946143 158.58038673 64.32071831 170.88574017 64.33972941 183.1911571 C64.35909645 195.823724 64.36736582 208.45625344 64.36360615 221.0888353 C64.36169241 228.1821335 64.36419845 235.27536433 64.37832069 242.36865044 C64.3914636 249.03758133 64.38898992 255.70632786 64.37590981 262.37526703 C64.37353645 264.82587041 64.37630568 267.27648485 64.38453293 269.72707558 C64.39493772 273.06652264 64.38694985 276.40543054 64.3742218 279.74485779 C64.38159609 280.71975692 64.38897037 281.69465605 64.39656812 282.69909757 C64.35698501 287.61917415 64.23118662 291.01758457 61 295 C55.77483739 299.59076097 49.2315986 302.44845393 43.02099609 305.4621582 C39.3000312 307.28626956 36.01591114 309.25641057 32.73828125 311.76953125 C29.72042252 313.90576833 26.41487047 315.52888771 23.15625 317.265625 C19.54386101 319.25065064 16.02297625 321.36166947 12.5 323.5 C7.25476183 326.67935224 1.95735376 329.70203769 -3.44921875 332.6015625 C-6.88672046 334.48613465 -10.22703484 336.51771541 -13.578125 338.55078125 C-17.33178823 340.79692489 -21.14622294 342.93065668 -25 345 C-25.6703125 345.36738281 -26.340625 345.73476563 -27.03125 346.11328125 C-30.35321974 347.60948587 -33.48234155 347.58829805 -37 347 C-43.15442026 344.65689555 -48.76032631 341.02705348 -54.36328125 337.60546875 C-57.24501416 335.8508136 -60.14941129 334.13957084 -63.0625 332.4375 C-63.98160156 331.89996094 -64.90070313 331.36242187 -65.84765625 330.80859375 C-68.28433752 329.41059694 -70.73097684 328.04253889 -73.19140625 326.6875 C-79.42755831 323.23325996 -85.53199533 319.55842895 -91.65234375 315.90429688 C-97.19721283 312.60935006 -102.78886277 309.43741171 -108.47216797 306.38696289 C-111.94323389 304.48246941 -115.32345458 302.44007468 -118.703125 300.37890625 C-120.77660953 299.13411026 -122.87548063 297.96693924 -125 296.8125 C-128 295 -128 295 -130 292 C-130.26564884 289.91408825 -130.26564884 289.91408825 -130.28761292 287.46562195 C-130.30047836 286.53619781 -130.31334381 285.60677368 -130.32659912 284.64918518 C-130.33040588 283.6314653 -130.33421265 282.61374542 -130.33813477 281.56518555 C-130.34967087 280.49173889 -130.36120697 279.41829224 -130.37309265 278.31231689 C-130.40746187 274.75376959 -130.4259135 271.19539578 -130.44140625 267.63671875 C-130.44830915 266.42234446 -130.45521206 265.20797016 -130.46232414 263.95679665 C-130.49818317 257.53084807 -130.52171103 251.10498763 -130.53540039 244.67895508 C-130.5519585 238.03722402 -130.61039334 231.39658183 -130.67854404 224.75516033 C-130.72329173 219.6516317 -130.73689214 214.54835866 -130.74201775 209.44465065 C-130.74992142 206.9961776 -130.76959714 204.54771331 -130.80124092 202.09943199 C-130.84260605 198.67310992 -130.8398677 195.24948321 -130.82641602 191.82299805 C-130.85945328 190.30552727 -130.85945328 190.30552727 -130.89315796 188.75740051 C-130.80361889 182.04618609 -130.80361889 182.04618609 -128.51588249 179.06791115 C-125.10892887 176.05748174 -121.3654627 174.0223776 -117.265625 172.10546875 C-112.9757581 170.01230955 -108.91541043 167.4999141 -104.81005859 165.06982422 C-102.80943361 163.88736689 -100.80536802 162.71088425 -98.80078125 161.53515625 C-89.68647885 156.18698063 -89.68647885 156.18698063 -80.625 150.75 C-76.39618431 148.19837562 -72.07279446 145.84842293 -67.7265625 143.50390625 C-64.22732712 141.57381224 -60.81855241 139.50989198 -57.40234375 137.4375 C-54.37938702 135.62864134 -51.31501937 133.91095948 -48.21484375 132.23828125 C-46.69842502 131.39047748 -45.21142311 130.4884536 -43.75390625 129.54296875 C-43.01011719 129.07503906 -42.26632812 128.60710937 -41.5 128.125 C-40.8503125 127.69445312 -40.200625 127.26390625 -39.53125 126.8203125 C-34.56221511 125.20997712 -30.06423336 126.0455077 -25.37060547 128.21582031 C-22.59517423 129.76324232 -19.88692422 131.38613649 -17.1875 133.0625 C-15.35232653 134.18604957 -13.51264888 135.30228419 -11.66796875 136.41015625 C-10.86641357 136.90652588 -10.0648584 137.40289551 -9.23901367 137.91430664 C-6.81486149 139.29087308 -6.81486149 139.29087308 -3 139 C-2.99668985 138.30793331 -2.99337971 137.61586662 -2.98996925 136.90282822 C-2.90877513 120.0690788 -2.81669451 103.2354278 -2.71247292 86.40180588 C-2.66233526 78.26121655 -2.61589248 70.12063736 -2.578125 61.97998047 C-2.54520037 54.8851997 -2.50536657 47.79049727 -2.45720994 40.69580293 C-2.4319496 36.93866196 -2.41016697 33.18157293 -2.39665604 29.42436981 C-2.38144975 25.23169178 -2.35081957 21.03926338 -2.31884766 16.84667969 C-2.31668747 15.59871109 -2.31452728 14.35074249 -2.31230164 13.06495667 C-2.30113815 11.92354721 -2.28997467 10.78213776 -2.2784729 9.60614014 C-2.27017676 8.11836626 -2.27017676 8.11836626 -2.26171303 6.60053635 C-1.9935495 3.93590396 -1.36024537 2.28362839 0 0 Z M-38.625 202.875 C-39.40488281 203.32359375 -40.18476562 203.7721875 -40.98828125 204.234375 C-41.98214844 204.81703125 -42.97601562 205.3996875 -44 206 C-45.41007418 206.81784985 -46.82023771 207.63554566 -48.23046875 208.453125 C-49.75820438 209.34307761 -51.28554473 210.23370912 -52.8125 211.125 C-53.92455811 211.77251221 -53.92455811 211.77251221 -55.05908203 212.43310547 C-55.76790527 212.84963379 -56.47672852 213.26616211 -57.20703125 213.6953125 C-57.8410083 214.06672363 -58.47498535 214.43813477 -59.12817383 214.82080078 C-59.74587646 215.20993652 -60.3635791 215.59907227 -61 216 C-61.72292236 216.37842041 -62.44584473 216.75684082 -63.19067383 217.14672852 C-65.97518413 219.99886962 -65.68828871 223.17219761 -65.7421875 226.95703125 C-65.76024445 227.73761398 -65.77830139 228.51819672 -65.79690552 229.32243347 C-65.82590796 230.97399567 -65.84368361 232.62578759 -65.85107422 234.27758789 C-65.87484861 236.79646077 -65.97308319 239.30547029 -66.07421875 241.82226562 C-66.47480431 250.11752957 -66.47480431 250.11752957 -63.02172852 257.28955078 C-60.40806808 258.86153679 -57.85390575 259.93422081 -55 261 C-53.47449882 261.86850208 -51.96646921 262.76864527 -50.48046875 263.703125 C-49.04972945 264.55250507 -47.61874258 265.40146826 -46.1875 266.25 C-45.46369141 266.683125 -44.73988281 267.11625 -43.99414062 267.5625 C-42.60918254 268.38209163 -41.2158188 269.18770828 -39.81298828 269.97631836 C-38.35133773 270.80162145 -36.92168074 271.68344179 -35.50390625 272.58203125 C-31.22099894 273.29696273 -28.259604 270.70562979 -24.75 268.4375 C-23.22958703 267.49671613 -21.7087576 266.55660496 -20.1875 265.6171875 C-19.46304688 265.16182617 -18.73859375 264.70646484 -17.9921875 264.23730469 C-15.01066639 262.38554623 -11.94201161 260.71022532 -8.859375 259.03515625 C-8.24578125 258.69355469 -7.6321875 258.35195313 -7 258 C-6.15179687 257.64848877 -5.30359375 257.29697754 -4.4296875 256.93481445 C-1.62352471 255.13165679 -1.62352471 255.13165679 -1.32128906 251.43408203 C-1.27477371 249.95927555 -1.25811939 248.48333325 -1.265625 247.0078125 C-1.25609802 246.22485809 -1.24657104 245.44190369 -1.23675537 244.63522339 C-1.22459426 242.97935366 -1.22542765 241.32334497 -1.23828125 239.66748047 C-1.24993493 237.13911732 -1.19781341 234.6174728 -1.140625 232.08984375 C-1.1367386 230.47917136 -1.13661563 228.86848459 -1.140625 227.2578125 C-1.12018127 226.50557404 -1.09973755 225.75333557 -1.07867432 224.978302 C-1.14562838 221.92999137 -1.35891279 219.65658484 -3.54014587 217.42262268 C-5.31131165 216.14278482 -7.08142697 215.04274325 -9 214 C-10.06927734 213.35611328 -10.06927734 213.35611328 -11.16015625 212.69921875 C-11.78792969 212.36535156 -12.41570312 212.03148437 -13.0625 211.6875 C-15.93259955 210.14091786 -18.77158075 208.55815478 -21.58203125 206.90625 C-22.20779053 206.54055908 -22.8335498 206.17486816 -23.47827148 205.7980957 C-24.72671956 205.0670891 -25.97241842 204.33136348 -27.21508789 203.59057617 C-31.73949681 200.95666282 -34.06061105 200.2382016 -38.625 202.875 Z " fill="#323232" transform="translate(601,50)"/>
<path d="M0 0 C0.85577637 0.49266357 1.71155273 0.98532715 2.59326172 1.49291992 C3.48255371 1.9939624 4.3718457 2.49500488 5.28808594 3.01123047 C11.17864844 6.34352243 17.0239042 9.74663528 22.78076172 13.30541992 C29.30084022 17.32096033 35.87744216 20.98595137 42.78076172 24.30541992 C42.78076172 24.96541992 42.78076172 25.62541992 42.78076172 26.30541992 C43.60060547 26.53745117 44.42044922 26.76948242 45.26513672 27.00854492 C49.5181879 28.57744825 53.16383781 30.7144357 57.03076172 33.05541992 C57.7800293 33.50280518 58.52929688 33.95019043 59.30126953 34.41113281 C61.46427264 35.70402938 63.62282251 37.0040951 65.78076172 38.30541992 C66.82232422 38.92803711 67.86388672 39.5506543 68.93701172 40.19213867 C71.22147544 41.55800026 73.50183382 42.93035252 75.78076172 44.30541992 C76.61091797 44.75014648 77.44107422 45.19487305 78.29638672 45.65307617 C81.34443367 47.68031495 82.83952881 49.16302343 84.78076172 52.30541992 C85.37744683 55.73509564 85.33750771 59.12583667 85.31420898 62.60009766 C85.32282455 63.63482208 85.33144012 64.66954651 85.34031677 65.73562622 C85.36300663 69.153677 85.35623177 72.57090989 85.34716797 75.98901367 C85.35240234 78.36646265 85.35867813 80.74390954 85.36595154 83.12135315 C85.37636149 88.10378797 85.37178568 93.0859373 85.35717773 98.06835938 C85.33999317 104.45206973 85.36347917 110.83487977 85.39866734 117.21848965 C85.42063253 122.12817851 85.41920181 127.0376517 85.41090202 131.94737434 C85.41008196 134.30089365 85.4169558 136.65442871 85.43167305 139.00790215 C85.44910083 142.29961274 85.43458907 145.58970216 85.41186523 148.88134766 C85.42940353 150.33800087 85.42940353 150.33800087 85.44729614 151.82408142 C85.38504079 156.25850573 85.24136911 159.32897462 82.38438416 162.85145569 C80.03757539 165.06336809 77.95625928 166.73189621 75.15576172 168.30541992 C74.28693359 168.80041992 73.41810547 169.29541992 72.52294922 169.80541992 C68.85512661 171.81175024 65.18682569 173.81665583 61.50732422 175.80151367 C58.00396516 177.7338822 54.59119566 179.800188 51.17138672 181.87573242 C48.21734772 183.64236359 45.21107879 185.30042238 42.19482422 186.95776367 C39.36747 188.53614102 36.57440061 190.16813535 33.78076172 191.80541992 C30.40522818 193.78330469 27.02502211 195.73941278 23.59326172 197.61791992 C19.91354794 199.63841731 16.30662527 201.76771764 12.70092773 203.91625977 C9.07513261 206.07072348 5.43366617 208.19727606 1.78076172 210.30541992 C1.1766748 210.65411133 0.57258789 211.00280273 -0.04980469 211.36206055 C-1.6350363 212.2621458 -3.23912687 213.12878447 -4.84423828 213.99291992 C-5.72337891 214.47116211 -6.60251953 214.9494043 -7.50830078 215.44213867 C-11.76243575 216.79684159 -15.16714091 216.26724612 -19.20849609 214.37304688 C-21.3590917 213.18186549 -23.44626711 211.91963097 -25.53173828 210.61791992 C-26.28084473 210.16384766 -27.02995117 209.70977539 -27.80175781 209.24194336 C-29.94721031 207.93972841 -32.08379139 206.62395442 -34.21923828 205.30541992 C-36.00911576 204.21913306 -37.80041084 203.13517159 -39.59423828 202.05541992 C-40.35478516 201.59651367 -41.11533203 201.13760742 -41.89892578 200.66479492 C-45.38220329 198.62408689 -48.93997635 196.72578234 -52.49267578 194.80932617 C-56.0026827 192.87329083 -59.42176305 190.80273718 -62.84814453 188.72338867 C-64.97123157 187.45373366 -67.1117493 186.24245804 -69.28173828 185.05541992 C-80.09465038 179.11024228 -90.65550612 172.67940117 -101.21923828 166.30541992 C-102.07001953 165.88131836 -102.92080078 165.4572168 -103.79736328 165.02026367 C-107.00927891 162.74602018 -107.78362198 160.98663791 -109.21923828 157.30541992 C-109.64404426 153.95547637 -109.62939837 150.63768743 -109.60742188 147.2644043 C-109.61267883 146.26854813 -109.61793579 145.27269196 -109.62335205 144.24665833 C-109.63652558 140.96400133 -109.6278231 137.68183162 -109.61767578 134.39916992 C-109.61969727 132.11283271 -109.62260933 129.82649614 -109.62637329 127.54016113 C-109.63079307 122.75205334 -109.62437656 117.96411362 -109.61035156 113.17602539 C-109.59326009 107.04252493 -109.60310309 100.90941832 -109.62106895 94.77593231 C-109.63191602 90.05585774 -109.62845617 85.33587635 -109.62068558 80.61579895 C-109.61868613 78.35439507 -109.62113385 76.0929827 -109.62812424 73.83158875 C-109.63575367 70.66964346 -109.62411301 67.50833359 -109.60742188 64.34643555 C-109.61349457 63.4143074 -109.61956726 62.48217926 -109.62582397 61.52180481 C-109.5677917 55.57940382 -108.68058811 51.35944606 -104.84033203 46.59448242 C-102.77835285 44.95483633 -100.64651654 43.83969468 -98.28173828 42.68041992 C-96.99976563 42.04233398 -96.99976563 42.04233398 -95.69189453 41.39135742 C-93.52298867 40.43882057 -91.53075285 39.78810278 -89.21923828 39.30541992 C-89.21923828 38.64541992 -89.21923828 37.98541992 -89.21923828 37.30541992 C-88.39939453 36.90967773 -87.57955078 36.51393555 -86.73486328 36.10620117 C-82.71696517 34.04814447 -78.84961941 31.79670662 -74.96923828 29.49291992 C-74.21562012 29.04787109 -73.46200195 28.60282227 -72.68554688 28.14428711 C-68.72529069 25.80270368 -64.77870262 23.44013545 -60.84423828 21.05541992 C-56.61542259 18.50379554 -52.29203275 16.15384285 -47.94580078 13.80932617 C-45.28978942 12.34433423 -42.68901344 10.81344173 -40.09423828 9.24291992 C-26.67128141 1.12522696 -26.67128141 1.12522696 -20.21923828 -0.69458008 C-20.21923828 -1.35458008 -20.21923828 -2.01458008 -20.21923828 -2.69458008 C-12.42715062 -5.92544569 -7.01682798 -3.91483085 0 0 Z " fill="#66A456" transform="translate(344.21923828125,179.694580078125)"/>
<path d="M0 0 C2.2621143 1.3362614 4.46965346 2.73445098 6.67138672 4.16796875 C8.26910491 5.17774613 9.8680597 6.18556964 11.46826172 7.19140625 C12.23460938 7.67577148 13.00095703 8.16013672 13.79052734 8.65917969 C17.2688695 10.81600688 20.86478519 12.73074041 24.47607422 14.65234375 C27.8908719 16.5070262 31.19725122 18.52785338 34.51904297 20.54296875 C38.26679549 22.78552636 42.09156076 24.88221304 45.92138672 26.98046875 C51.81785559 30.21922263 57.6576109 33.5424275 63.45654297 36.953125 C66.05695988 38.4816496 68.67224387 39.98228419 71.29248047 41.4765625 C72.81467323 42.35276497 74.33680894 43.22906655 75.85888672 44.10546875 C76.58076172 44.5130542 77.30263672 44.92063965 78.04638672 45.34057617 C82.76845611 48.0750736 87.40142296 50.94054124 89.92138672 55.98046875 C90.01909313 57.79592323 90.05208469 59.61499563 90.05509949 61.43307495 C90.06149696 63.17025787 90.06149696 63.17025787 90.06802368 64.9425354 C90.0675705 66.21946259 90.06711731 67.49638977 90.06665039 68.81201172 C90.06964136 70.16540622 90.07304374 71.51879987 90.076828 72.87219238 C90.08567918 76.55404783 90.0880066 80.23588006 90.08864379 83.91774511 C90.08959219 86.98933666 90.09326975 90.06092276 90.09681588 93.13251221 C90.1049649 100.37887161 90.10739973 107.62521858 90.10668945 114.87158203 C90.10608872 122.3503525 90.11663859 129.82905082 90.13243312 137.30780303 C90.14550323 143.72484136 90.15087356 150.14185609 90.15023404 156.55890763 C90.14997887 160.39317809 90.15284038 164.22738447 90.16341209 168.06164169 C90.17308405 171.66821001 90.17317851 175.27465289 90.16589546 178.88122559 C90.16434898 180.83660488 90.17270292 182.79198412 90.18133545 184.74734497 C90.17714096 185.91110657 90.17294647 187.07486816 90.16862488 188.27389526 C90.16916965 189.28526991 90.16971441 190.29664455 90.17027569 191.33866692 C89.91188959 194.08127487 89.46624886 195.70893239 87.92138672 197.98046875 C84.34483915 199.19619225 82.58125458 199.26613769 79.09716797 197.7578125 C77.67984375 196.84708984 77.67984375 196.84708984 76.23388672 195.91796875 C75.19103516 195.26828125 74.14818359 194.61859375 73.07373047 193.94921875 C72.03345703 193.29953125 70.99318359 192.64984375 69.92138672 191.98046875 C68.05480389 190.94432481 66.18010707 189.9226196 64.29638672 188.91796875 C59.93375123 186.56164557 55.68933882 184.05466749 51.45263672 181.48046875 C48.80819463 179.91339196 46.12678759 178.43956135 43.42138672 176.98046875 C25.74047858 167.41168182 25.74047858 167.41168182 24.35215759 163.29089355 C23.79708086 160.31375852 23.77244542 157.46879475 23.74780273 154.43945312 C23.74111572 153.79180496 23.73442871 153.1441568 23.72753906 152.47688293 C23.713527 151.07516835 23.70162083 149.67343147 23.69159126 148.27168274 C23.67513006 146.05225469 23.65189198 143.8329925 23.62669373 141.61364746 C23.55604743 135.30517888 23.49575614 128.99664443 23.44458008 122.68798828 C23.41277209 118.82534736 23.37149814 114.96290117 23.32438469 111.10041809 C23.30838283 109.63006592 23.29605286 108.159669 23.28747749 106.68925476 C23.27530959 104.63313016 23.25115615 102.57746307 23.22436523 100.52148438 C23.20890404 98.76753357 23.20890404 98.76753357 23.19313049 96.97814941 C22.92869421 94.0610797 22.51158487 92.4080621 20.92138672 89.98046875 C18.94333304 88.40032949 18.94333304 88.40032949 16.56201172 87.0703125 C15.25876953 86.2978418 15.25876953 86.2978418 13.92919922 85.50976562 C13.01912109 84.98447266 12.10904297 84.45917969 11.17138672 83.91796875 C10.27677734 83.38880859 9.38216797 82.85964844 8.46044922 82.31445312 C5.96067967 80.84519329 3.44380108 79.41036904 0.92138672 77.98046875 C-0.15626953 77.34238281 -1.23392578 76.70429688 -2.34423828 76.046875 C-5.92558847 74.65014843 -7.39504867 74.82935481 -11.07861328 75.98046875 C-14.50513513 77.57177881 -17.78792099 79.37703471 -21.07861328 81.23046875 C-21.95517578 81.70871094 -22.83173828 82.18695313 -23.73486328 82.6796875 C-32.60548267 87.22824597 -32.60548267 87.22824597 -38.07861328 94.98046875 C-38.18642112 97.15165975 -38.23481131 99.3259595 -38.25219727 101.49975586 C-38.26222778 102.48563942 -38.26222778 102.48563942 -38.27246094 103.49143982 C-38.28649685 104.91718135 -38.29839555 106.34294517 -38.30840874 107.76872063 C-38.3248385 110.02587365 -38.34807649 112.28286147 -38.37330627 114.53993225 C-38.44403164 120.95679477 -38.50421365 127.37372403 -38.55541992 133.79077148 C-38.58722804 137.71709621 -38.6285057 141.64322939 -38.67561531 145.56939888 C-38.69162148 147.06487138 -38.70394946 148.56038797 -38.71252251 150.05592155 C-38.72468988 152.14807445 -38.74884426 154.23977761 -38.77563477 156.33178711 C-38.78594223 157.52186874 -38.79624969 158.71195038 -38.80686951 159.93809509 C-39.15029314 163.78297808 -39.89282822 165.98493052 -42.85595703 168.47265625 C-47.83450397 171.65964652 -52.8912913 174.61221862 -58.10986328 177.390625 C-67.00506344 182.15423877 -75.67776399 187.26563715 -84.34619141 192.42773438 C-85.75481445 193.26401367 -85.75481445 193.26401367 -87.19189453 194.1171875 C-88.03534424 194.61951904 -88.87879395 195.12185059 -89.74780273 195.6394043 C-96.39039348 199.46131181 -96.39039348 199.46131181 -101.07861328 198.98046875 C-102.06861328 198.32046875 -103.05861328 197.66046875 -104.07861328 196.98046875 C-104.44775677 194.48547173 -104.44775677 194.48547173 -104.43937683 191.27316284 C-104.44350082 190.05877533 -104.44762482 188.84438782 -104.45187378 187.59320068 C-104.44125567 186.24035425 -104.43035124 184.88751003 -104.41918945 183.53466797 C-104.41834359 182.11567198 -104.41881752 180.69667467 -104.42051697 179.27767944 C-104.42137997 175.41830254 -104.40370526 171.55920368 -104.3827951 167.69989157 C-104.36407881 163.66933687 -104.36228185 159.63877626 -104.35871887 155.60818481 C-104.34938351 147.9725072 -104.32474966 140.33695798 -104.2946704 132.70133698 C-104.26117267 124.00981748 -104.24465205 115.31829195 -104.2295841 106.626724 C-104.19820133 88.74456604 -104.14541198 70.86252771 -104.07861328 52.98046875 C-103.41861328 52.98046875 -102.75861328 52.98046875 -102.07861328 52.98046875 C-101.74861328 51.99046875 -101.41861328 51.00046875 -101.07861328 49.98046875 C-98.81075813 48.42612939 -96.5820396 47.03131515 -94.20361328 45.66796875 C-93.52468018 45.26989014 -92.84574707 44.87181152 -92.14624023 44.46166992 C-87.35689665 41.66934432 -82.50739142 38.99471759 -77.62158203 36.375 C-74.22170324 34.51055034 -70.92311488 32.49358365 -67.60986328 30.48046875 C-64.96542119 28.91339196 -62.28401415 27.43956135 -59.57861328 25.98046875 C-55.12788029 23.57958039 -50.79166675 21.03351693 -46.46923828 18.41015625 C-43.51519928 16.64352508 -40.50893035 14.98546629 -37.49267578 13.328125 C-34.66532157 11.74974765 -31.87225218 10.11775332 -29.07861328 8.48046875 C-7.92614238 -3.88766392 -7.92614238 -3.88766392 0 0 Z " fill="#323232" transform="translate(104.07861328125,175.01953125)"/>
<path d="M0 0 C3.02789277 1.24057052 5.69340447 2.91631106 8.4375 4.6875 C9.94622034 5.61912834 11.4553302 6.5501262 12.96484375 7.48046875 C13.67237793 7.92438965 14.37991211 8.36831055 15.10888672 8.82568359 C17.20189292 10.12536857 19.33066036 11.33254716 21.5 12.5 C30.60199744 17.4856945 39.50220686 22.86953824 48.375 28.25 C54.76414891 32.10099386 61.30854463 35.70095689 68 39 C68 39.66 68 40.32 68 41 C68.72316406 41.10699219 69.44632813 41.21398437 70.19140625 41.32421875 C73.23360849 42.056209 75.29021798 43.16056256 77.9375 44.8125 C78.80375 45.35261719 79.67 45.89273438 80.5625 46.44921875 C81.7690625 47.21685547 81.7690625 47.21685547 83 48 C83.928125 48.56654297 83.928125 48.56654297 84.875 49.14453125 C87.98633308 51.09689276 90.16749182 52.81054122 92 56 C92.26843212 58.66850944 92.37399445 61.09487765 92.328125 63.7578125 C92.32625183 64.50207489 92.32437866 65.24633728 92.32244873 66.01315308 C92.31574232 67.58156841 92.3018558 69.14996741 92.28125 70.71826172 C92.25001909 73.12352985 92.24026951 75.52814268 92.234375 77.93359375 C92.2252075 79.45834136 92.21483253 80.98308228 92.203125 82.5078125 C92.19887512 83.22865021 92.19462524 83.94948792 92.19024658 84.69216919 C92.11723992 89.76552017 92.11723992 89.76552017 91 92 C90.34 92 89.68 92 89 92 C89 92.66 89 93.32 89 94 C88.32759277 94.38631592 87.65518555 94.77263184 86.96240234 95.1706543 C73.05628108 103.16472655 59.18395682 111.20946064 45.38671875 119.390625 C44.61295898 119.84808105 43.83919922 120.30553711 43.04199219 120.77685547 C41.38508506 121.76933571 39.7495514 122.79743669 38.12109375 123.8359375 C34.97935706 125.56013185 32.50875873 125.38986208 29 125 C27.30737305 123.9050293 27.30737305 123.9050293 26 122 C25.65942383 118.90551758 25.65942383 118.90551758 25.70703125 115.14453125 C25.71127609 114.48289474 25.71552094 113.82125824 25.71989441 113.13957214 C25.73666307 111.0301309 25.77430901 108.92165154 25.8125 106.8125 C25.82754932 105.38087319 25.8412373 103.94923138 25.85351562 102.51757812 C25.8865597 99.01140712 25.93832833 95.50579746 26 92 C25.38753418 91.69529785 24.77506836 91.3905957 24.14404297 91.07666016 C21.77760018 89.88831892 19.45109616 88.64056599 17.125 87.375 C16.16464844 86.85550781 15.20429687 86.33601563 14.21484375 85.80078125 C11.89992845 84.50409115 9.63765366 83.18033947 7.37890625 81.79296875 C6.45924072 81.23826904 6.45924072 81.23826904 5.52099609 80.67236328 C4.32145546 79.94624987 3.12988034 79.20676902 1.94775391 78.45263672 C-0.92589456 76.72911342 -2.74080102 75.99123011 -6.1171875 76.10546875 C-9.0409545 77.0127081 -11.24320996 78.09679182 -13.8125 79.75 C-17.06678215 81.79247739 -20.31985204 83.77451767 -23.6875 85.625 C-24.41324219 86.02589844 -25.13898438 86.42679687 -25.88671875 86.83984375 C-27.28317904 87.60647722 -28.68159075 88.36956797 -30.08203125 89.12890625 C-33.65077792 90.92582595 -33.65077792 90.92582595 -36 94 C-36.28233828 98.67394938 -36.3136299 103.34860148 -36.35009766 108.03027344 C-36.3666628 109.58999548 -36.39396089 111.14964142 -36.43212891 112.70898438 C-36.48692798 114.96003496 -36.50877188 117.20930961 -36.5234375 119.4609375 C-36.55744156 120.5033107 -36.55744156 120.5033107 -36.59213257 121.56674194 C-36.57614753 125.23443189 -36.30478156 126.69135637 -33.68798828 129.34130859 C-32.35743408 130.16236084 -32.35743408 130.16236084 -31 131 C-30.39607422 131.3805957 -29.79214844 131.76119141 -29.16992188 132.15332031 C-28.60853516 132.45850586 -28.04714844 132.76369141 -27.46875 133.078125 C-26.50980835 133.60647949 -26.50980835 133.60647949 -25.53149414 134.14550781 C-24.86110107 134.50999023 -24.19070801 134.87447266 -23.5 135.25 C-17.17642441 138.74237298 -11.01516312 142.41093341 -4.8828125 146.23046875 C-1.73959112 148.15984447 1.45376615 149.95829091 4.69140625 151.72265625 C7.48814766 153.27009185 10.24278837 154.88322395 13 156.5 C16.37553354 158.47788477 19.75573961 160.43399286 23.1875 162.3125 C28.44196213 165.20389507 33.59454014 168.26979297 38.74707031 171.33813477 C42.58716057 173.61749408 46.44004416 175.75451151 50.4375 177.75 C53.3687 179.36957354 53.98872085 179.98133106 55.8125 183 C56 186 56 186 54.4296875 188.45703125 C51.68212292 191.33269772 48.83411961 192.96746781 45.3125 194.6875 C39.47621414 197.66026541 33.80760591 200.82382374 28.1875 204.1875 C22.95260038 207.3065374 17.71394284 210.26606517 12.21875 212.91015625 C9.01631222 214.48318467 5.91908926 216.23137106 2.8125 217.984375 C-1.1830894 220.22328286 -4.4701934 220.88019939 -9 220 C-13.19849331 217.97765926 -17.06706095 215.4913837 -21 213 C-22.49244265 212.15320642 -23.99181054 211.3184186 -25.5 210.5 C-30.07972365 207.97783335 -34.58284429 205.33025284 -39.09375 202.6875 C-42.26004417 200.84900661 -45.45687071 199.07428598 -48.6640625 197.30859375 C-51.42306277 195.76299996 -54.14821595 194.16422277 -56.875 192.5625 C-62.52119744 189.25513403 -68.24536135 186.11345192 -74 183 C-76.16226505 181.81498641 -78.31887758 180.62141839 -80.46875 179.4140625 C-82.48214895 178.28929333 -84.50363484 177.18458703 -86.53125 176.0859375 C-87.79188994 175.39102989 -89.05230637 174.69571665 -90.3125 174 C-90.91167236 173.6798291 -91.51084473 173.3596582 -92.12817383 173.02978516 C-97.05056991 170.28565496 -100.20159099 167.39522702 -102 162 C-102.09235444 160.59209931 -102.13055591 159.1802559 -102.13371277 157.76933289 C-102.13797775 156.90722198 -102.14224274 156.04511108 -102.14663696 155.15687561 C-102.14618378 154.21396164 -102.14573059 153.27104767 -102.14526367 152.29956055 C-102.14862228 151.30414246 -102.1519809 150.30872437 -102.15544128 149.28314209 C-102.16495926 145.9843217 -102.16689491 142.68555203 -102.16796875 139.38671875 C-102.17118105 137.09609455 -102.1745451 134.80547056 -102.17805481 132.5148468 C-102.18404842 127.70886764 -102.1858945 122.90290647 -102.18530273 118.09692383 C-102.18520117 111.93988458 -102.19884652 105.7829608 -102.21607494 99.62594891 C-102.2271969 94.89302542 -102.22922187 90.16012981 -102.22869301 85.4271946 C-102.22987309 83.15741389 -102.23429645 80.88763246 -102.24202538 78.61786461 C-102.2518278 75.44136871 -102.24894595 72.26512301 -102.24291992 69.08862305 C-102.24853943 68.15178177 -102.25415894 67.21494049 -102.25994873 66.24971008 C-102.23684276 61.45404329 -101.97730113 57.46543924 -100 53 C-98.22265625 51.3125 -98.22265625 51.3125 -96.0625 50 C-95.258125 49.505 -94.45375 49.01 -93.625 48.5 C-90.02955354 46.44545917 -86.40663987 44.45083409 -82.75390625 42.5 C-80.1222753 41.06660101 -77.55961823 39.55767576 -75 38 C-71.54698697 35.90196677 -68.0562298 33.91796663 -64.5 32 C-60.049267 29.59911164 -55.71305347 27.05304818 -51.390625 24.4296875 C-48.436586 22.66305633 -45.43031707 21.00499754 -42.4140625 19.34765625 C-39.58670829 17.7692789 -36.79363889 16.13728457 -34 14.5 C-29.03772338 11.59433232 -24.0375253 8.77245097 -19 6 C-17.35391604 5.08378346 -15.70807947 4.16712232 -14.0625 3.25 C-9.22461898 0.5537559 -5.66228736 -0.82407717 0 0 Z " fill="#323232" transform="translate(808,175)"/>
<path d="M0 0 C2.3779108 1.46192653 4.81763804 2.78616056 7.28222656 4.09570312 C11.70188136 6.46337534 15.99571598 8.99809377 20.28222656 11.59570312 C24.46540291 14.1305676 28.65031185 16.60948792 32.96972656 18.90820312 C39.25813286 22.27396182 45.32607671 26.00093134 51.42382812 29.69677734 C55.96524056 32.44001039 60.51738768 35.07675744 65.21972656 37.53320312 C70.39869705 40.29315605 73.50479692 43.17955866 76.78222656 48.09570312 C77.87169475 53.56982943 77.9248158 58.94532281 77.91162109 64.5 C77.91424957 65.87455101 77.91424957 65.87455101 77.91693115 67.27687073 C77.92131263 70.28941777 77.91842474 73.30190554 77.91503906 76.31445312 C77.91571317 78.41760265 77.91668408 80.52075211 77.91793823 82.62390137 C77.91941019 87.02515405 77.91727678 91.4263864 77.91259766 95.82763672 C77.90690069 101.45980193 77.91018237 107.09191948 77.91617012 112.72408295 C77.91978927 117.06500607 77.91863091 121.40591796 77.91604233 125.74684143 C77.91537681 127.82320664 77.91618834 129.89957288 77.91852188 131.97593689 C77.92107062 134.88112071 77.91717651 137.7862281 77.91162109 140.69140625 C77.91364532 141.54356216 77.91566956 142.39571808 77.91775513 143.2736969 C77.8891706 151.37164275 77.6426957 157.15150942 71.91748047 163.20800781 C68.29589612 166.40971033 64.26113672 168.54411152 59.96972656 170.72070312 C58.17480552 171.66869178 56.38052516 172.61789459 54.58691406 173.56835938 C53.74354492 174.00937988 52.90017578 174.45040039 52.03125 174.90478516 C48.73317154 176.65120577 45.55670898 178.56881953 42.37597656 180.51757812 C38.80650328 182.68936609 35.19944748 184.7955856 31.59472656 186.90820312 C26.00928599 190.1837034 20.44836419 193.49587901 14.90722656 196.84570312 C9.78290359 199.93955827 4.60967678 202.9012937 -0.69433594 205.67773438 C-3.24735628 207.04775854 -3.24735628 207.04775854 -5.55371094 208.79492188 C-12.19971626 213.53102866 -19.02526162 214.79400648 -27.06054688 213.63085938 C-33.41154981 212.05532764 -38.84830167 208.06895018 -44.19140625 204.43847656 C-46.14970408 203.14080933 -48.13762215 201.95311776 -50.17871094 200.79101562 C-50.78884033 200.43974609 -51.39896973 200.08847656 -52.02758789 199.7265625 C-52.60597412 199.39462891 -53.18436035 199.06269531 -53.78027344 198.72070312 C-56.97167969 196.88476562 -56.97167969 196.88476562 -59.21777344 195.09570312 C-59.21777344 193.77570313 -59.21777344 192.45570313 -59.21777344 191.09570312 C-57.18584508 190.0556211 -55.14172146 189.03934203 -53.09277344 188.03320312 C-51.95582031 187.46472656 -50.81886719 186.89625 -49.64746094 186.31054688 C-45.83141108 184.95884812 -44.05647293 184.9393411 -40.21777344 186.09570312 C-37.97949219 187.33007812 -37.97949219 187.33007812 -35.90527344 188.84570312 C-32.79916954 191.00373821 -29.70391325 193.13571162 -26.46777344 195.09570312 C-25.77167969 195.52882813 -25.07558594 195.96195313 -24.35839844 196.40820312 C-22.16972519 197.32924952 -22.16972519 197.32924952 -19.74121094 196.39257812 C-17.28664551 195.13109868 -14.93599824 193.80336136 -12.59277344 192.34570312 C-9.0158742 190.15923059 -5.4092931 188.08264005 -1.71777344 186.09570312 C2.73295956 183.69481476 7.06917309 181.1487513 11.39160156 178.52539062 C14.3372209 176.76379475 17.33318579 175.10848254 20.34472656 173.46289062 C24.34476174 171.21928115 28.25849014 168.8277863 32.18066406 166.45117188 C34.78222656 165.09570312 34.78222656 165.09570312 37.78222656 165.09570312 C37.78222656 164.43570313 37.78222656 163.77570313 37.78222656 163.09570312 C38.43707031 162.74378906 39.09191406 162.391875 39.76660156 162.02929688 C41.13558594 161.28873047 41.13558594 161.28873047 42.53222656 160.53320312 C43.41394531 160.05753906 44.29566406 159.581875 45.20410156 159.09179688 C45.98281868 158.62428261 45.98281868 158.62428261 46.77726746 158.14732361 C48.78222656 157.09570312 48.78222656 157.09570312 51.70185852 156.11549377 C55.5417302 154.53674769 57.91118787 153.12357326 60.78222656 150.09570312 C63.15810766 143.44106232 62.44491376 135.8314687 62.34082031 128.87695312 C62.34636824 126.7737909 62.35562593 124.67063549 62.36842346 122.56750488 C62.38158479 118.16514619 62.35199284 113.76571854 62.29174805 109.36376953 C62.21776232 103.72955784 62.24675943 98.1015054 62.30741787 92.4673233 C62.34334105 88.12591399 62.32626494 83.7859481 62.2931385 79.44456482 C62.2833089 77.36821337 62.28944865 75.29172117 62.31204033 73.21546936 C62.8501502 62.01095176 62.8501502 62.01095176 58.37844849 52.31201172 C55.55328429 50.48316686 52.93332617 49.25156042 49.78222656 48.09570312 C48.39410602 47.34875575 47.0157919 46.58264621 45.65722656 45.78320312 C44.94179688 45.39390625 44.22636719 45.00460937 43.48925781 44.60351562 C39.73909946 42.51468284 36.04317415 40.33698759 32.34472656 38.15820312 C31.59932617 37.71919678 30.85392578 37.28019043 30.0859375 36.82788086 C26.17933107 34.52260395 22.28591765 32.1977414 18.40722656 29.84570312 C14.17591267 27.29257135 9.84998088 24.94123354 5.50097656 22.59570312 C2.8878478 21.15397691 0.33258442 19.64528764 -2.21777344 18.09570312 C-11.66419938 11.62831487 -11.66419938 11.62831487 -22.21777344 8.09570312 C-24.76021129 9.0743277 -24.76021129 9.0743277 -27.34277344 10.65820312 C-28.31472656 11.21636719 -29.28667969 11.77453125 -30.28808594 12.34960938 C-33.76155058 14.4197943 -37.2307975 16.49602154 -40.68652344 18.59570312 C-43.33096553 20.16277992 -46.01237257 21.63661052 -48.71777344 23.09570312 C-53.16850643 25.49659149 -57.50471996 28.04265495 -61.82714844 30.66601562 C-64.77276778 32.4276115 -67.76873267 34.08292371 -70.78027344 35.72851562 C-74.78030861 37.9721251 -78.69403702 40.36361995 -82.61621094 42.74023438 C-85.21777344 44.09570312 -85.21777344 44.09570312 -88.21777344 44.09570312 C-88.21777344 44.75570312 -88.21777344 45.41570312 -88.21777344 46.09570312 C-89.96728912 47.05492034 -91.71740588 48.01304129 -93.46777344 48.97070312 C-94.44230469 49.504375 -95.41683594 50.03804688 -96.42089844 50.58789062 C-98.66951665 51.80013452 -100.93008408 52.96042657 -103.21777344 54.09570312 C-103.63589928 66.42125028 -103.95516695 78.74509756 -104.15039253 91.07630634 C-104.24412794 96.80350957 -104.37107616 102.52584421 -104.57568359 108.25024414 C-104.77213685 113.781503 -104.87904551 119.30810167 -104.92556381 124.8425808 C-104.95867962 126.94708883 -105.02336746 129.051357 -105.12091446 131.15386391 C-105.94399983 142.32258912 -105.94399983 142.32258912 -101.46181488 152.05550766 C-96.52796041 156.04315385 -91.00892647 158.60531029 -85.21777344 161.09570312 C-84.11015656 161.66537308 -83.00253967 162.23504303 -81.86135864 162.82197571 C-77.20359223 165.06617225 -72.32372508 165.25042893 -67.21777344 165.09570312 C-66.88777344 164.10570312 -66.55777344 163.11570312 -66.21777344 162.09570312 C-65.55777344 162.09570312 -64.89777344 162.09570312 -64.21777344 162.09570312 C-64.20968658 160.84733673 -64.20159973 159.59897034 -64.19326782 158.31277466 C-64.11591041 146.56982114 -64.02819781 134.82698498 -63.93024635 123.08418465 C-63.88021949 117.04654378 -63.83389016 111.00892095 -63.79589844 104.97119141 C-63.75912621 99.1485886 -63.71278856 93.3261345 -63.65970993 87.50365829 C-63.64112299 85.27805047 -63.62603108 83.05241072 -63.61442947 80.82675552 C-63.59764042 77.71849463 -63.56862355 74.61057754 -63.53662109 71.50244141 C-63.53446091 70.57455811 -63.53230072 69.6466748 -63.53007507 68.69067383 C-63.51891159 67.84650909 -63.50774811 67.00234436 -63.49624634 66.13259888 C-63.4879502 65.02921268 -63.4879502 65.02921268 -63.47948647 63.90353584 C-63.21777344 62.09570312 -63.21777344 62.09570312 -61.21777344 60.09570312 C-58.24902344 59.83007812 -58.24902344 59.83007812 -54.71777344 59.84570312 C-53.55246094 59.84054687 -52.38714844 59.83539063 -51.18652344 59.83007812 C-48.21777344 60.09570312 -48.21777344 60.09570312 -46.21777344 62.09570312 C-46.00815534 65.2019524 -45.92415237 68.2197196 -45.92724609 71.32788086 C-45.92052887 72.28586075 -45.91381165 73.24384064 -45.90689087 74.23085022 C-45.88781941 77.41371793 -45.88398095 80.59637549 -45.88183594 83.77929688 C-45.87541034 85.99211209 -45.86868216 88.20492645 -45.86166382 90.41773987 C-45.84966536 95.06749437 -45.84598523 99.71717446 -45.84716797 104.36694336 C-45.84737038 110.30507431 -45.82015997 116.24272248 -45.78562355 122.1807394 C-45.76329555 126.75775813 -45.75933237 131.33466222 -45.76038742 135.91172981 C-45.75803682 138.09924025 -45.74924397 140.28675411 -45.73372269 142.47421074 C-45.57698771 166.86379086 -45.57698771 166.86379086 -52.40527344 176.03320312 C-60.87059914 182.24110864 -68.76959292 183.32365545 -79.21777344 182.09570312 C-85.95543619 180.29899306 -92.1595377 177.53243161 -97.91699219 173.59960938 C-99.86904789 172.32364766 -101.82276749 171.1862889 -103.86230469 170.06054688 C-112.4079413 165.28590147 -117.96258455 161.86126978 -121.21777344 152.09570312 C-121.31366519 150.74533967 -121.35686014 149.39081862 -121.36494446 148.03707886 C-121.37209976 147.21296005 -121.37925507 146.38884125 -121.3866272 145.53974915 C-121.3893161 144.63895126 -121.392005 143.73815338 -121.39477539 142.81005859 C-121.40134659 141.85847366 -121.40791779 140.90688873 -121.41468811 139.9264679 C-121.43442463 136.77194134 -121.44608605 133.61746246 -121.45605469 130.46289062 C-121.46013021 129.38465153 -121.46420574 128.30641243 -121.46840477 127.19549942 C-121.48926946 121.48580364 -121.50356809 115.77613191 -121.51293945 110.06640625 C-121.52398984 104.1785799 -121.55837308 98.29113294 -121.59811115 92.40344048 C-121.62430439 87.86855382 -121.63263384 83.33375706 -121.63622093 78.79880142 C-121.64108179 76.62916636 -121.6526814 74.45953518 -121.67125893 72.28997421 C-121.69570185 69.24558576 -121.69467542 66.20217213 -121.68774414 63.15771484 C-121.7005542 62.26906235 -121.71336426 61.38040985 -121.7265625 60.46482849 C-121.67185581 53.83873338 -120.40116467 47.2872931 -115.55627918 42.42992973 C-113.53500389 40.79647735 -111.43326916 39.45703182 -109.21777344 38.09570312 C-108.67121094 37.75539063 -108.12464844 37.41507812 -107.56152344 37.06445312 C-101.45116125 33.27181453 -95.26791444 29.65093753 -88.94433594 26.22460938 C-83.19748788 23.10592011 -77.54569135 19.83967122 -71.90527344 16.53320312 C-70.87708496 15.93258057 -69.84889648 15.33195801 -68.78955078 14.71313477 C-63.55488171 11.65150579 -58.33066736 8.57320681 -53.12011719 5.47070312 C-52.14792236 4.89263916 -51.17572754 4.3145752 -50.17407227 3.71899414 C-48.3477547 2.63158164 -46.52323253 1.54114534 -44.70092773 0.44702148 C-26.54367991 -10.36697767 -17.84428272 -11.20391411 0 0 Z " fill="#659D60" transform="translate(466.2177734375,387.904296875)"/>
<path d="M0 0 C0 0.66 0 1.32 0 2 C0.7425 2.226875 1.485 2.45375 2.25 2.6875 C6.70361864 4.81309071 8.45585766 7.95202216 10.6875 12.25 C12.16923059 16.48351598 12.96341215 20.5088409 13 25 C12.67 25.66 12.34 26.32 12 27 C7.05 27 2.1 27 -3 27 C-3.70125 25.4325 -4.4025 23.865 -5.125 22.25 C-7.48277345 17.51435845 -9.29671683 15.35164158 -14 13 C-18.52821851 11.49059383 -23.00589722 11.73370879 -27.75 11.6875 C-28.72710937 11.65849609 -29.70421875 11.62949219 -30.7109375 11.59960938 C-37.06268122 11.54396742 -40.80505431 12.28831066 -46 16 C-47.20561184 16.98267859 -47.20561184 16.98267859 -47.09765625 18.84765625 C-47.08605469 19.57855469 -47.07445312 20.30945313 -47.0625 21.0625 C-47.041875 22.361875 -47.02125 23.66125 -47 25 C-39.16764656 28.70271045 -31.6195429 30.03932543 -23.0625 31.0625 C-0.568924 33.83336009 -0.568924 33.83336009 9 40 C9 40.66 9 41.32 9 42 C10.485 42.495 10.485 42.495 12 43 C16.21207999 48.67010769 16.51588777 55.12579543 16 62 C15.22153227 66.78580732 13.94188162 71.07749117 11 75 C10.34 75 9.68 75 9 75 C8.505 76.485 8.505 76.485 8 78 C-4.34747437 87.37041533 -21.14952916 88.41172834 -36.01171875 86.53125 C-46.67308619 84.94831743 -58.13440875 81.95697913 -64.88671875 72.9140625 C-68.43397421 66.8152724 -69.49869509 60.98173127 -69 54 C-68 53 -68 53 -64.62109375 52.90234375 C-63.22652923 52.90901631 -61.83198257 52.92097468 -60.4375 52.9375 C-59.72658203 52.94201172 -59.01566406 52.94652344 -58.28320312 52.95117188 C-56.52209987 52.96299136 -54.76103964 52.98092737 -53 53 C-52.35309078 54.6037331 -51.70751236 56.20800306 -51.0625 57.8125 C-50.70285156 58.70582031 -50.34320313 59.59914063 -49.97265625 60.51953125 C-49.26386514 62.3270909 -48.6139753 64.15807409 -48 66 C-45.87726597 66.9969134 -45.87726597 66.9969134 -43.3125 67.625 C-42.46300781 67.86476563 -41.61351562 68.10453125 -40.73828125 68.3515625 C-29.69416617 70.96685937 -17.67188637 71.36651229 -7 67 C-4.6384715 65.1019864 -3.24048565 63.92127222 -2.46875 60.96484375 C-2.43133177 56.72347879 -2.43133177 56.72347879 -4.6796875 53.3515625 C-11.80653087 49.20023623 -20.92417065 48.8150779 -29 48 C-54.27120438 45.39863048 -54.27120438 45.39863048 -62.7265625 36.1015625 C-67.02782778 29.63764987 -66.93126903 22.50336758 -66 15 C-64.26860548 8.31101001 -59.61097089 3.7919769 -54 0 C-38.76975491 -7.86538479 -15.30884414 -7.65442207 0 0 Z " fill="#659D60" transform="translate(495,451)"/>
<path d="M0 0 C4.13397609 1.37799203 4.4877016 3.26935386 6.4765625 7.09765625 C6.80298233 7.718647 7.12940216 8.33963776 7.4657135 8.97944641 C8.16431363 10.31090593 8.85857466 11.64464937 9.54891968 12.98040771 C10.99030649 15.76932626 12.45197508 18.54741688 13.91294861 21.32611084 C14.63312892 22.69620353 15.35226135 24.06684755 16.07032776 25.43804932 C18.52981589 30.13031167 21.05438772 34.77754273 23.6875 39.375 C27.3083149 45.71793209 30.78684046 52.13222624 34.25 58.5625 C39.17783295 67.7073721 44.23811001 76.76757891 49.37670898 85.79541016 C54.09348813 94.10651278 58.59504644 102.52017985 63 111 C59.53616411 112.16238659 59.06319237 112.0272107 55.42578125 110.4609375 C50.25631118 107.67470913 45.22251112 104.64531074 40.1875 101.625 C33.69832665 97.73785347 27.18018781 93.9545322 20.51342773 90.37866211 C17.07142764 88.4906607 13.72663618 86.45432757 10.37109375 84.41796875 C8.24800671 83.14831373 6.10748899 81.93703812 3.9375 80.75 C-6.87541209 74.80482235 -17.43626784 68.37398125 -28 62 C-28.91265625 61.51402344 -29.8253125 61.02804687 -30.765625 60.52734375 C-31.50296875 60.02332031 -32.2403125 59.51929688 -33 59 C-33 55.25702195 -31.9689244 54.07305316 -29.9375 50.9375 C-25.63239151 44.15650086 -21.62311366 37.2154402 -17.625 30.25 C-11.80995136 20.13054021 -5.94503031 10.04360415 0 0 Z " fill="#3E863C" transform="translate(271,284)"/>
<path d="M0 0 C2.81334856 1.40667428 2.9188574 3.09754793 4 6 C8.38788005 15.31629604 13.40345413 24.31756631 18.625 33.1875 C21.28166196 37.71603319 23.71536511 42.27670989 26 47 C27.08118653 49.16773874 28.16464316 51.33434627 29.25 53.5 C30.16666667 55.33333333 31.08333333 57.16666667 32 59 C31.34 59 30.68 59 30 59 C29.73678955 59.70455322 29.4735791 60.40910645 29.20239258 61.13500977 C27.92074945 64.18883354 26.40860411 66.96658865 24.76171875 69.83984375 C24.11227295 70.97566895 23.46282715 72.11149414 22.79370117 73.28173828 C22.0919435 74.50050371 21.38986987 75.71908727 20.6875 76.9375 C19.96912194 78.18731714 19.25077917 79.43715458 18.5324707 80.68701172 C16.71156509 83.85177179 14.88488381 87.01315776 13.05615234 90.17340088 C12.04340978 91.92492346 11.03336282 93.67800383 10.0234375 95.43115234 C8.25283847 98.50053021 6.47235039 101.56389257 4.6875 104.625 C4.15535889 105.54788818 3.62321777 106.47077637 3.07495117 107.42163086 C2.57970947 108.2647583 2.08446777 109.10788574 1.57421875 109.9765625 C1.14713623 110.70955566 0.72005371 111.44254883 0.2800293 112.19775391 C-1 114 -1 114 -4 116 C-5.65942801 113.08489929 -6.25151598 110.99447822 -6.26069641 107.64907837 C-6.26778122 106.7855928 -6.27486603 105.92210724 -6.28216553 105.03245544 C-6.27968811 104.09313675 -6.27721069 103.15381805 -6.2746582 102.18603516 C-6.27976913 101.19047104 -6.28488007 100.19490692 -6.29014587 99.16917419 C-6.30405404 95.87574259 -6.30308404 92.58251999 -6.30078125 89.2890625 C-6.30466774 86.99986696 -6.30900231 84.71067215 -6.31376648 82.42147827 C-6.3212315 77.62145654 -6.32093551 72.82150835 -6.31567383 68.02148438 C-6.30988139 61.87225141 -6.32680361 55.72331986 -6.3500185 49.57413673 C-6.36475583 44.84549196 -6.36562748 40.11691975 -6.36250877 35.38825607 C-6.36302207 33.12126443 -6.36826129 30.85426873 -6.37832069 28.58729935 C-6.39066633 25.41558551 -6.38390408 22.24445845 -6.37231445 19.07275391 C-6.37995819 18.13748367 -6.38760193 17.20221344 -6.39547729 16.23860168 C-6.34660537 10.18300918 -5.51088749 5.78987499 -1.3125 1.125 C-0.879375 0.75375 -0.44625 0.3825 0 0 Z " fill="#569D4A" transform="translate(241,225)"/>
<path d="M0 0 C5.41650316 2.20416096 10.29265268 5.63911221 15.140625 8.87109375 C17.00971548 16.25991598 17.12534805 25.52055818 15.140625 32.87109375 C10.94661939 38.75999647 3.00485978 41.52647159 -3.859375 42.87109375 C-6.12109375 42.0859375 -6.12109375 42.0859375 -8.546875 40.80859375 C-9.33449219 40.40511719 -10.12210938 40.00164062 -10.93359375 39.5859375 C-11.89910156 39.02003906 -12.86460937 38.45414062 -13.859375 37.87109375 C-15.00164551 37.31083496 -15.00164551 37.31083496 -16.16699219 36.73925781 C-22.39048259 33.32113675 -22.39048259 33.32113675 -23.66186523 29.3894043 C-23.92807164 26.45907222 -23.89263402 23.68353554 -23.734375 20.74609375 C-23.73566406 19.75738281 -23.73695313 18.76867187 -23.73828125 17.75 C-23.55590968 10.65670569 -23.55590968 10.65670569 -20.66015625 7.390625 C-19.73589844 6.88917969 -18.81164062 6.38773437 -17.859375 5.87109375 C-16.92738281 5.32066406 -15.99539063 4.77023437 -15.03515625 4.203125 C-14.09027344 3.70167969 -13.14539063 3.20023437 -12.171875 2.68359375 C-11.21925781 2.17441406 -10.26664063 1.66523438 -9.28515625 1.140625 C-5.51623056 -0.83184013 -4.18612215 -1.27518427 0 0 Z " fill="#669D61" transform="translate(806.859375,264.12890625)"/>
<path d="M0 0 C4.75982924 2.62772498 7.04616381 6.26349144 8.75 11.375 C9.33016442 17.29267707 8.24425964 21.61949872 4.75 26.375 C0.28678055 30.39883515 -5.35294163 31.60543567 -11.25 31.375 C-16.77667607 29.96991286 -19.9712425 27.3621967 -23.1484375 22.7578125 C-25.6984167 17.24190004 -24.96613042 11.56317627 -23.125 5.9375 C-17.54457764 -1.68907722 -8.47827976 -3.81918771 0 0 Z M-15.25 5.375 C-14.39535156 5.43558594 -13.54070313 5.49617188 -12.66015625 5.55859375 C-11.55542969 5.64238281 -10.45070313 5.72617187 -9.3125 5.8125 C-8.21035156 5.89371094 -7.10820313 5.97492188 -5.97265625 6.05859375 C-3.25 6.375 -3.25 6.375 -2.25 7.375 C-1.88239269 9.70317964 -1.54758419 12.0368385 -1.25 14.375 C-2.24 14.87 -2.24 14.87 -3.25 15.375 C-2.26 18.015 -1.27 20.655 -0.25 23.375 C2.26759754 21.26346658 3.61845006 19.73676233 4.75 16.625 C4.75 12.11292895 3.29946363 9.05304785 0.75 5.375 C-2.19554066 2.75674163 -4.53913101 2.18266043 -8.375 2 C-12.40993802 2.39047787 -12.81986275 2.52223019 -15.25 5.375 Z M-16.25 5.375 C-18.82767438 8.57756514 -20.16422871 10.77460097 -20.75 14.875 C-20.14519026 19.1086682 -19.03945399 21.14510591 -16.25 24.375 C-12.66042047 26.84782146 -10.87771833 27.40638592 -6.5 27.1875 C-3.18747447 26.65547164 -3.18747447 26.65547164 -1.25 24.375 C-2.9 24.375 -4.55 24.375 -6.25 24.375 C-6.25 22.065 -6.25 19.755 -6.25 17.375 C-7.24 17.375 -8.23 17.375 -9.25 17.375 C-9.25 19.685 -9.25 21.995 -9.25 24.375 C-10.9 24.045 -12.55 23.715 -14.25 23.375 C-14.58 17.435 -14.91 11.495 -15.25 5.375 C-15.58 5.375 -15.91 5.375 -16.25 5.375 Z M-9.25 9.375 C-9.25 10.365 -9.25 11.355 -9.25 12.375 C-8.26 12.375 -7.27 12.375 -6.25 12.375 C-6.25 11.385 -6.25 10.395 -6.25 9.375 C-7.24 9.375 -8.23 9.375 -9.25 9.375 Z " fill="#5D9558" transform="translate(579.25,423.625)"/>
<path d="M0 0 C1.95803507 -0.05389087 3.91648909 -0.09274217 5.875 -0.125 C7.51082031 -0.15980469 7.51082031 -0.15980469 9.1796875 -0.1953125 C12 0 12 0 14 2 C14.125 5.5 14.125 5.5 14 9 C14 12.04200046 14.55486342 14.99532806 15 18 C13.02 18 11.04 18 9 18 C9 16.02 9 14.04 9 12 C8.01 12 7.02 12 6 12 C6 14.31 6 16.62 6 19 C4.33388095 19.042721 2.66617115 19.04063832 1 19 C0 18 0 18 -0.11352539 16.23413086 C-0.10828857 15.48526611 -0.10305176 14.73640137 -0.09765625 13.96484375 C-0.09443359 13.15595703 -0.09121094 12.34707031 -0.08789062 11.51367188 C-0.07951172 10.66353516 -0.07113281 9.81339844 -0.0625 8.9375 C-0.05798828 8.08349609 -0.05347656 7.22949219 -0.04882812 6.34960938 C-0.03700373 4.23304337 -0.01906769 2.11651315 0 0 Z M6 4 C6 4.99 6 5.98 6 7 C6.99 7 7.98 7 9 7 C9 6.01 9 5.02 9 4 C8.01 4 7.02 4 6 4 Z " fill="#639B5E" transform="translate(564,429)"/>
</svg>
