<?xml version="1.0" encoding="UTF-8"?>
<svg version="1.1" xmlns="http://www.w3.org/2000/svg" width="1280" height="691">
<path d="M0 0 C2.03555829 -0.00701943 4.07111635 -0.01410627 6.10667419 -0.02125549 C12.57762974 -0.04066604 19.04854953 -0.04568938 25.51953125 -0.046875 C27.17148121 -0.04753778 27.17148121 -0.04753778 28.85680389 -0.04821396 C60.18670994 -0.05481078 91.40530423 -0.02061865 122.62219238 2.94665527 C125.50487864 3.21948395 128.3885275 3.47996112 131.27246094 3.73925781 C186.97116764 8.80129279 242.027883 17.79057162 296.33203125 31.203125 C297.01013855 31.37050171 297.68824585 31.53787842 298.38690186 31.71032715 C319.64553899 36.98099876 340.52382205 43.39458718 361.33203125 50.203125 C362.51812988 50.59113281 363.70422852 50.97914062 364.92626953 51.37890625 C439.33098039 75.95254088 518.46166784 112.42592938 573.640625 169.51171875 C575.31826892 171.18936267 577.06442656 172.69479696 578.89453125 174.203125 C582.06675331 176.86807732 584.71716973 179.79766321 587.39453125 182.953125 C589.58220406 185.49364827 591.86108115 187.93591615 594.14453125 190.390625 C607.81390805 205.4248715 618.73563334 222.3490405 628.33203125 240.203125 C628.93789062 241.30785156 629.54375 242.41257812 630.16796875 243.55078125 C652.04804364 285.0833216 656.3108464 334.31079269 642.9296875 379.15234375 C632.45058372 412.80577976 614.12930738 441.89641888 590.4453125 467.87109375 C588.55826588 469.95347236 586.72144892 472.06815564 584.89453125 474.203125 C578.27032378 481.79336273 570.98893539 488.67377866 563.33203125 495.203125 C562.37296875 496.05132813 561.41390625 496.89953125 560.42578125 497.7734375 C490.77263303 559.08244636 399.7198287 596.07619693 82.33203125 654.203125 C81.60574524 654.24072937 80.87945923 654.27833374 80.13116455 654.31707764 C70.53419616 654.80386181 60.940103 655.07672379 51.33203125 655.203125 C50.11368591 655.21956055 50.11368591 655.21956055 48.87072754 655.23632812 C-44.56827069 656.4241305 -138.20284216 648.23929508 -291.66796875 609.203125 C-293.07762087 608.75434474 -294.48728944 608.30561615 -295.89697266 607.85693359 C-347.34302899 591.42687759 -397.50493765 570.40736649 -443.66796875 542.203125 C-444.52455078 541.68121582 -445.38113281 541.15930664 -446.26367188 540.62158203 C-462.23261054 530.84107239 -477.52449605 520.21704745 -492.10400391 508.46289062 C-493.5715566 507.28078449 -495.04722637 506.10877559 -496.5234375 504.9375 C-514.64521174 490.39824101 -532.63801549 473.74780864 -546.66796875 455.203125 C-547.43496094 454.25308594 -548.20195313 453.30304688 -548.9921875 452.32421875 C-574.4636249 420.37495896 -594.467325 379.44144045 -594.90625 337.91796875 C-594.91604385 337.14791 -594.92583771 336.37785126 -594.93592834 335.5844574 C-595.1090824 318.43423252 -594.91739959 301.93198005 -590.66796875 285.203125 C-590.46429687 284.37329102 -590.260625 283.54345703 -590.05078125 282.68847656 C-577.57783374 233.23939918 -543.20996119 186.61080527 -503.34765625 155.32421875 C-500.90346699 153.3895325 -498.54563534 151.37924505 -496.19580078 149.33178711 C-472.27160686 128.59185418 -444.4215555 112.24748306 -416.66796875 97.203125 C-415.40847412 96.51694092 -415.40847412 96.51694092 -414.12353516 95.81689453 C-375.49970857 74.87678531 -334.52576418 59.15433135 -292.72033691 45.85620117 C-290.77456815 45.23704558 -288.83011526 44.61375912 -286.88574219 43.99023438 C-211.12548726 19.86695277 -132.16264194 8.01596901 -53.08203125 2 C-52.22498093 1.93356796 -51.3679306 1.86713593 -50.48490906 1.7986908 C-33.65880185 0.55298314 -16.86890178 0.03609682 0 0 Z " fill="#7579B0" transform="translate(612.66796875,17.796875)"/>
<path d="M0 0 C1.78927077 -0.00404599 3.57853832 -0.00987263 5.36779785 -0.01739502 C9.11026538 -0.02622108 12.85187126 -0.01344864 16.59423828 0.01464844 C21.37960649 0.04883473 26.16295561 0.02914086 30.94824982 -0.00678635 C34.64079873 -0.02851952 38.3328728 -0.02154384 42.0254364 -0.00601959 C43.78920229 -0.00203128 45.55301199 -0.00687903 47.31672668 -0.02089691 C62.8021566 -0.11697867 62.8021566 -0.11697867 67.41601562 3.72167969 C71.47310723 8.86077118 71.30205491 12.39142461 70.84375 18.796875 C70.10710447 23.58251759 69.17237395 28.31540012 68.19387817 33.0567627 C67.37722662 37.0144988 66.59156477 40.97843626 65.80078125 44.94140625 C65.63817307 45.75157196 65.47556488 46.56173767 65.30802917 47.39645386 C63.56844983 56.09408143 61.97621048 64.81729291 60.40625 73.546875 C60.07350571 75.39619125 60.07350571 75.39619125 59.73403931 77.28286743 C59.10358996 80.78747321 58.47358071 84.29215799 57.84375 87.796875 C58.97768944 87.79354408 58.97768944 87.79354408 60.13453674 87.79014587 C67.32605795 87.76994829 74.51756503 87.75480295 81.7091074 87.74506283 C85.40463553 87.73988672 89.10013986 87.73288731 92.7956543 87.72143555 C96.37481349 87.7104162 99.95395006 87.7045587 103.53312492 87.70199776 C105.53507611 87.69930299 107.53701845 87.69152278 109.53895569 87.68357849 C122.02185505 87.6828303 134.42212939 88.19797572 146.71875 90.484375 C147.64929199 90.65662598 148.57983398 90.82887695 149.53857422 91.00634766 C170.36861854 95.09675355 190.83270052 103.56933854 203.9921875 120.92578125 C209.99887891 130.23995463 215.57464163 141.46805471 214.84375 152.796875 C215.50375 152.796875 216.16375 152.796875 216.84375 152.796875 C216.93914063 151.67796875 217.03453125 150.5590625 217.1328125 149.40625 C217.91864403 142.35306735 219.37349255 135.40868813 220.74511719 128.45117188 C221.21473588 126.06725183 221.67812668 123.68218549 222.140625 121.296875 C223.01832048 116.79202893 223.92084756 112.29267062 224.84375 107.796875 C224.97938354 107.13327972 225.11501709 106.46968445 225.25476074 105.78598022 C225.63029706 103.97351758 226.02171393 102.16436648 226.4140625 100.35546875 C226.63078613 99.35056396 226.84750977 98.34565918 227.07080078 97.31030273 C228.5857502 92.38408534 231.65289103 90.59078098 235.84375 87.796875 C238.56375313 87.54239941 238.56375313 87.54239941 241.92068481 87.53617859 C243.19287369 87.52909378 244.46506256 87.52200897 245.77580261 87.51470947 C247.18923986 87.51700365 248.60267676 87.5195134 250.01611328 87.5222168 C251.50306962 87.51786955 252.99002372 87.51268636 254.47697449 87.50672913 C258.52589208 87.49330489 262.57471646 87.49276601 266.62365198 87.49529243 C270.01889729 87.49636339 273.41412386 87.4914737 276.80936515 87.486687 C284.84623163 87.47557244 292.88305142 87.47516032 300.91992188 87.48120117 C309.15098204 87.48719464 317.38186925 87.4750536 325.6128999 87.4536311 C332.71309103 87.43584577 339.81322807 87.43004143 346.91344059 87.43326885 C351.13795012 87.43506085 355.36233734 87.43266199 359.58682632 87.41855431 C401.20808461 87.29179198 443.52074302 89.99074932 474.84375 120.796875 C475.60429688 121.54453125 476.36484375 122.2921875 477.1484375 123.0625 C498.66081767 145.54256509 502.46161887 173.89316689 501.94140625 203.71435547 C501.73718889 210.16047637 500.94042147 216.4403716 499.84375 222.796875 C499.67230469 223.94929687 499.50085937 225.10171875 499.32421875 226.2890625 C493.55037316 260.33612617 475.86340481 288.77722019 451.84375 312.796875 C451.27914062 313.40789062 450.71453125 314.01890625 450.1328125 314.6484375 C427.04915514 339.24933055 392.30603517 351.28068394 359.46875 354.484375 C358.82551788 354.54791168 358.18228577 354.61144836 357.51956177 354.6769104 C330.49048523 357.21957295 302.96116081 356.04484696 275.84375 355.796875 C275.65474121 357.71983398 275.65474121 357.71983398 275.46191406 359.68164062 C274.89862754 364.73225425 273.97212124 369.66473097 272.953125 374.640625 C272.76826538 375.56012436 272.58340576 376.47962372 272.39294434 377.42698669 C271.79738658 380.38447806 271.19615284 383.34077081 270.59375 386.296875 C269.76995287 390.35008202 268.94722588 394.40350522 268.125 398.45703125 C267.82363129 399.93944054 267.82363129 399.93944054 267.51617432 401.45179749 C266.39394709 406.9943389 265.32050502 412.54102761 264.3125 418.10546875 C264.10012695 419.2553125 263.88775391 420.40515625 263.66894531 421.58984375 C263.29907455 423.61188767 262.94308729 425.63654694 262.60449219 427.6640625 C261.53225011 433.42498445 260.1703541 436.75491591 255.84375 440.796875 C251.69430845 442.9528233 247.79250789 443.0933178 243.21118164 443.08740234 C242.08337532 443.09747818 242.08337532 443.09747818 240.93278503 443.10775757 C238.45642422 443.12669844 235.98033491 443.13065952 233.50390625 443.1328125 C231.77664581 443.13924231 230.04938646 443.14597081 228.3221283 443.15298462 C224.70504226 443.16494698 221.08805168 443.16866643 217.47094727 443.16748047 C212.84280831 443.16727715 208.21528247 443.19459746 203.58728886 443.22902489 C200.02100325 443.25129171 196.45486538 443.25531811 192.88851738 443.25426102 C191.18251873 443.2566166 189.47651598 443.26543778 187.77058601 443.28092575 C185.38186097 443.3005854 182.99446057 443.29474916 180.60571289 443.28271484 C179.90578217 443.29395386 179.20585144 443.30519287 178.48471069 443.31677246 C173.49750897 443.25312443 170.70615301 441.88094009 166.84375 438.796875 C162.93793039 434.35232165 162.56847396 430.61781635 162.84375 424.796875 C163.37611543 421.28885906 164.10830439 417.8297858 164.84375 414.359375 C165.29590225 412.15761969 165.74769812 409.95579117 166.19921875 407.75390625 C166.45493652 406.51850098 166.7106543 405.2830957 166.97412109 404.01025391 C168.54088744 396.43272337 170.07732098 388.8490406 171.60668945 381.2638855 C172.15097932 378.57293306 172.70134462 375.8832691 173.25195312 373.19360352 C173.59143999 371.51454513 173.93064521 369.83542976 174.26953125 368.15625 C174.42867508 367.38637253 174.58781891 366.61649506 174.75178528 365.82328796 C175.49740793 362.09694534 176.03301449 358.60095042 175.84375 354.796875 C174.85375 355.126875 173.86375 355.456875 172.84375 355.796875 C170.36633324 355.90798154 167.91626881 355.96448085 165.43823242 355.97387695 C164.68665359 355.98044815 163.93507477 355.98701935 163.16072083 355.99378967 C160.67355243 356.01349968 158.18644434 356.02517987 155.69921875 356.03515625 C154.84891901 356.03923178 153.99861927 356.0433073 153.12255287 356.04750633 C148.62231312 356.06835688 144.12210377 356.08266321 139.62182617 356.09204102 C134.97797236 356.10310579 130.33459766 356.13750915 125.6909132 356.17721272 C122.11606465 356.203378 118.54133031 356.21173274 114.96639442 356.21532249 C113.2548022 356.22018838 111.54321507 356.23180248 109.83171654 356.25036049 C107.43324338 356.27475177 105.03601081 356.2737875 102.63745117 356.2668457 C101.58284195 356.28606079 101.58284195 356.28606079 100.50692749 356.30566406 C94.63580963 356.24391467 91.35313209 353.96013542 87.03125 350.234375 C83.89065587 346.43260316 84.48810769 341.42645076 84.84375 336.796875 C85.69335835 331.32406329 86.79811781 325.9097489 87.90625 320.484375 C88.22616848 318.88494699 88.54516109 317.28533354 88.86328125 315.68554688 C89.52393338 312.36694809 90.18853457 309.04917711 90.85595703 305.73193359 C92.24061956 298.83429725 93.57670602 291.92731288 94.91329956 285.02023315 C95.63817159 281.27613167 96.36592541 277.53259097 97.09375 273.7890625 C97.31036537 272.67448921 97.31036537 272.67448921 97.53135681 271.53739929 C98.40257849 267.0571042 99.27778914 262.57760816 100.15615845 258.09870911 C100.88668354 254.3733572 101.61560472 250.64769273 102.34375 246.921875 C102.48613098 246.19356476 102.62851196 245.46525452 102.77520752 244.71487427 C105.50216104 230.74383007 108.08786875 216.74775544 110.62304688 202.74072266 C110.76473297 201.96226486 110.90641907 201.18380707 111.05239868 200.38175964 C111.31743233 198.92532183 111.58070238 197.46856156 111.84188843 196.01142883 C112.35753651 193.18352267 112.93298609 190.52916673 113.84375 187.796875 C113.93810979 185.79866772 113.97365301 183.79730297 113.96875 181.796875 C113.97261719 180.2190625 113.97261719 180.2190625 113.9765625 178.609375 C113.96728635 175.71560622 113.96728635 175.71560622 112.84375 172.796875 C106.7655452 169.7577726 101.49849798 168.69073444 94.76831055 168.59155273 C93.56744308 168.57160751 92.36657562 168.55166229 91.12931824 168.53111267 C89.84269791 168.51440018 88.55607758 168.49768768 87.23046875 168.48046875 C85.89239388 168.45987865 84.55432521 168.43888165 83.21626282 168.41749573 C79.70646206 168.36248725 76.19660468 168.31298506 72.68670654 168.26464844 C69.10033165 168.21427772 65.51403827 168.1586732 61.92773438 168.10351562 C54.8998104 167.99619397 47.87181321 167.89469207 40.84375 167.796875 C40.86501953 168.83811523 40.88628906 169.87935547 40.90820312 170.95214844 C40.85227073 174.2886008 40.53013874 177.07389561 39.8125 180.3125 C39.58312744 181.37605713 39.35375488 182.43961426 39.11743164 183.53540039 C38.73445923 185.27358032 38.73445923 185.27358032 38.34375 187.046875 C37.7864698 189.65420444 37.23203899 192.26191189 36.68359375 194.87109375 C36.53635361 195.57129135 36.38911346 196.27148895 36.2374115 196.99290466 C34.30849994 206.25267275 32.61725221 215.55740385 30.90625 224.859375 C28.42331883 238.32954645 25.90801993 251.79144985 23.28125 265.234375 C23.13940277 265.96050995 22.99755554 266.6866449 22.85140991 267.43478394 C22.13920135 271.07864993 21.42565364 274.72225198 20.71142578 278.36572266 C19.50785994 284.50801751 18.31279135 290.65196174 17.11889648 296.79614258 C16.52635074 299.844751 15.93063819 302.89271375 15.33227539 305.94018555 C13.98757644 312.80275942 12.67626872 319.6665035 11.46875 326.5546875 C11.25557129 327.74368652 11.04239258 328.93268555 10.82275391 330.15771484 C10.43561712 332.32999976 10.06167295 334.50470192 9.70458984 336.68212891 C8.62294651 342.68197931 7.19667976 348.30412951 2.84375 352.796875 C-1.74428548 355.55825843 -5.55558465 356.23526109 -10.81054688 356.20092773 C-11.92394188 356.21122261 -11.92394188 356.21122261 -13.05982971 356.22172546 C-15.49841776 356.23993528 -17.93635896 356.23616497 -20.375 356.23046875 C-22.07841195 356.23503292 -23.78182205 356.24033919 -25.48522949 356.24635315 C-29.0493113 356.25527246 -32.61316888 356.25287411 -36.17724609 356.24291992 C-40.73701407 356.2314236 -45.29600837 356.25165749 -49.85567474 356.28083706 C-53.37136726 356.29921032 -56.88687466 356.29890452 -60.40260315 356.29319954 C-62.08347154 356.2930465 -63.76435262 356.29907607 -65.44517517 356.31149101 C-67.79792426 356.32642353 -70.14924767 356.31570949 -72.50195312 356.29858398 C-73.19096207 356.30825195 -73.87997101 356.31791992 -74.58985901 356.32788086 C-80.39805934 356.23966224 -83.69235188 353.9209251 -87.96875 350.234375 C-91.10143574 346.44217647 -90.41283013 341.41548748 -90.15625 336.796875 C-89.74094927 333.5989245 -89.12703873 330.45840403 -88.4765625 327.30078125 C-88.30373749 326.42719467 -88.13091248 325.55360809 -87.95285034 324.65354919 C-87.40365142 321.8871561 -86.84269244 319.1233063 -86.28125 316.359375 C-85.91197544 314.50992219 -85.54347941 312.66031375 -85.17578125 310.81054688 C-84.49452192 307.39037618 -83.80910409 303.97110781 -83.11767578 300.55297852 C-82.88398285 299.39066208 -82.88398285 299.39066208 -82.64556885 298.2048645 C-82.30047394 296.50661618 -81.94801114 294.80985693 -81.590271 293.11422729 C-81.406922 292.23340485 -81.223573 291.3525824 -81.03466797 290.44506836 C-80.86659637 289.65023544 -80.69852478 288.85540253 -80.52536011 288.03648376 C-80.04783909 285.51738567 -80.04783909 285.51738567 -80.15625 281.796875 C-80.58292969 282.48910156 -81.00960938 283.18132812 -81.44921875 283.89453125 C-87.22861751 292.9389924 -93.94535895 300.8718677 -101.15625 308.796875 C-102.20619141 309.95703125 -102.20619141 309.95703125 -103.27734375 311.140625 C-127.71519109 336.78722608 -160.63084583 349.59586627 -195.15625 353.796875 C-195.8911113 353.89111755 -196.6259726 353.98536011 -197.38310242 354.0824585 C-214.28952575 356.20904657 -231.19014394 356.0363915 -248.19329834 355.9342041 C-252.03574365 355.91338454 -255.87821714 355.90453491 -259.72070312 355.89453125 C-267.19929317 355.87337073 -274.67774781 355.83944465 -282.15625 355.796875 C-282.21452469 356.51752136 -282.27279938 357.23816772 -282.33283997 357.98065186 C-282.76823028 363.0988077 -283.26640653 368.097001 -284.35546875 373.125 C-284.59225342 374.23963623 -284.82903809 375.35427246 -285.07299805 376.50268555 C-285.32734619 377.67226807 -285.58169434 378.84185059 -285.84375 380.046875 C-286.3873896 382.59984109 -286.92898339 385.1532435 -287.46875 387.70703125 C-287.60758102 388.36254471 -287.74641205 389.01805817 -287.88945007 389.69343567 C-288.90717195 394.52927562 -289.86005054 399.37537822 -290.78125 404.23046875 C-290.91304153 404.92345062 -291.04483307 405.6164325 -291.18061829 406.33041382 C-291.81515462 409.67443871 -292.44293365 413.01950224 -293.06323242 416.36621094 C-296.78993347 436.06653483 -296.78993347 436.06653483 -301.15625 439.859375 C-305.68591837 442.78478582 -309.32127476 442.95829127 -314.54589844 442.98974609 C-315.29587097 442.99792358 -316.04584351 443.00610107 -316.81854248 443.01452637 C-319.30089527 443.03934102 -321.78319098 443.0558871 -324.265625 443.0703125 C-325.11467659 443.07563618 -325.96372818 443.08095985 -326.83850861 443.08644485 C-331.33341061 443.11316058 -335.828285 443.13253968 -340.32324219 443.14697266 C-344.03833667 443.16030706 -347.75288126 443.18815218 -351.46777344 443.22900391 C-355.95817125 443.27838069 -360.44807064 443.30309984 -364.93872833 443.31019974 C-366.64672537 443.31690259 -368.35471171 443.33209959 -370.06255341 443.35609055 C-372.45862843 443.38782661 -374.85279212 443.38776707 -377.24902344 443.38037109 C-377.94850098 443.39677643 -378.64797852 443.41318176 -379.36865234 443.43008423 C-384.88866189 443.36067868 -388.19686931 441.40206393 -392.15625 437.796875 C-396.06907965 432.31473585 -394.52195683 424.29754529 -393.60498047 418.02734375 C-392.85378213 413.76636414 -391.9737178 409.53274483 -391.09375 405.296875 C-390.77351803 403.7111837 -390.45453385 402.12523997 -390.13671875 400.5390625 C-389.47729128 397.25291354 -388.81257868 393.96790132 -388.14404297 390.68359375 C-386.74814402 383.80508329 -385.41804811 376.91394165 -384.08670044 370.02270508 C-383.36293602 366.28016829 -382.63433454 362.53857327 -381.90625 358.796875 C-381.61456047 357.29687945 -381.32289379 355.79687945 -381.03125 354.296875 C-379.28125 345.296875 -379.28125 345.296875 -378.84378052 343.04705811 C-378.55199906 341.54645029 -378.26023067 340.04583994 -377.96847534 338.54522705 C-377.241172 334.80450564 -376.51364445 331.0638281 -375.78564453 327.32324219 C-374.45064341 320.46257292 -373.11758317 313.60154797 -371.79243469 306.7389679 C-368.9506448 292.02277644 -366.09284044 277.31530562 -362.99511719 262.65039062 C-360.64767416 251.4819056 -358.51399322 240.27184602 -356.36199951 229.06445312 C-354.97253785 221.83129924 -353.56642945 214.601403 -352.15911865 207.3717041 C-351.7167448 205.09907356 -351.27459661 202.82639923 -350.83251953 200.55371094 C-350.23753331 197.49494161 -349.64247909 194.43618552 -349.04736328 191.37744141 C-347.72822615 184.59709456 -346.40996826 177.81657677 -345.09164429 171.03607178 C-344.65791714 168.80544896 -344.22411185 166.57484136 -343.7902832 164.34423828 C-342.43967762 157.39959705 -341.0896082 150.45485291 -339.74145508 143.50973511 C-339.11406277 140.27785191 -338.48636326 137.04602841 -337.85864258 133.81420898 C-337.56340563 132.29373074 -337.26831429 130.77322421 -336.97338867 129.25268555 C-336.83457275 128.53701416 -336.69575684 127.82134277 -336.55273438 127.08398438 C-336.41657715 126.38201935 -336.28041992 125.68005432 -336.14013672 124.95681763 C-335.74093821 122.90483039 -335.33837621 120.8535232 -334.93554688 118.80224609 C-334.40478962 116.09447469 -333.89291806 113.38395897 -333.39257812 110.67041016 C-333.14196815 109.34406776 -332.89131872 108.01773282 -332.640625 106.69140625 C-332.42631836 105.5310083 -332.21201172 104.37061035 -331.99121094 103.17504883 C-330.4616499 96.98658799 -328.70811002 92.40558401 -323.15625 88.796875 C-319.86888631 87.7010871 -317.44500484 87.66557498 -313.98320007 87.65643311 C-312.04317108 87.64786789 -312.04317108 87.64786789 -310.06394958 87.63912964 C-308.62686167 87.63788417 -307.18977364 87.6367591 -305.75268555 87.63574219 C-304.24115884 87.63111305 -302.72963331 87.62608826 -301.21810913 87.62069702 C-297.10330492 87.6075624 -292.98851705 87.60112361 -288.87369514 87.59668636 C-286.29435811 87.59375158 -283.71502549 87.58964556 -281.13569069 87.58518219 C-273.04225424 87.57149181 -264.94882794 87.56183807 -256.85538071 87.5579803 C-247.55981305 87.55352418 -238.26439424 87.53609775 -228.96887177 87.5069797 C-221.76003153 87.48519631 -214.55123258 87.4752669 -207.34235984 87.47393918 C-203.05030678 87.47290107 -198.75839329 87.46721179 -194.46637535 87.44911957 C-156.43910171 87.29804541 -118.42076654 89.95481422 -88.15625 115.796875 C-86.91488281 116.74820313 -86.91488281 116.74820313 -85.6484375 117.71875 C-71.66537335 129.37860913 -61.29328778 148.91575965 -58.15625 166.796875 C-57.82625 167.126875 -57.49625 167.456875 -57.15625 167.796875 C-56.93485352 166.59377686 -56.71345703 165.39067871 -56.48535156 164.15112305 C-55.6453278 159.58996406 -54.80209749 155.02940228 -53.95800781 150.46899414 C-53.59648669 148.51342082 -53.23577951 146.55769681 -52.87597656 144.60180664 C-50.75487062 133.07495858 -48.51954397 121.58570697 -46.07177734 110.1237793 C-44.7428737 103.88573005 -43.54126587 97.62376493 -42.34375 91.359375 C-41.96116195 89.37140054 -41.57856679 87.38342744 -41.19569397 85.39550781 C-40.79347385 83.30655467 -40.39185187 81.21748705 -39.99023438 79.12841797 C-37.40282774 65.67994738 -34.7834477 52.23762162 -32.15625 38.796875 C-31.90423828 37.50668457 -31.65222656 36.21649414 -31.39257812 34.88720703 C-30.71335627 31.41884991 -30.02960605 27.95142554 -29.34375 24.484375 C-29.149021 23.48937988 -28.95429199 22.49438477 -28.75366211 21.46923828 C-28.39792541 19.68193942 -28.03097577 17.89681479 -27.64990234 16.11474609 C-27.21758811 14.08487897 -26.83328198 12.04490882 -26.45703125 10.00390625 C-21.69817078 -1.72889989 -10.70307078 -0.08506727 0 0 Z " fill="#FBFBFB" transform="translate(595.15625,99.203125)"/>
<path d="M0 0 C1.21224243 -0.00426498 2.42448486 -0.00852997 3.67346191 -0.01292419 C5.02970889 -0.0125746 6.38595585 -0.01211302 7.74220276 -0.0115509 C9.16140329 -0.01454125 10.580603 -0.01794349 11.99980164 -0.02172852 C15.87066659 -0.03059812 19.74150947 -0.03290822 23.6123836 -0.0335443 C26.03656478 -0.0342546 28.46074034 -0.03638882 30.88492012 -0.03904152 C39.36062603 -0.04831362 47.83631617 -0.0523752 56.31202698 -0.05158997 C64.17733019 -0.05099275 72.04256402 -0.06146912 79.90784973 -0.07733363 C86.67837449 -0.09049645 93.44887687 -0.09577004 100.21941429 -0.09513456 C104.25423586 -0.09488157 108.28899617 -0.09761929 112.32380486 -0.10831261 C151.41516327 -0.20466132 190.15628741 2.0279696 219.98268127 30.25871277 C238.06647552 48.74717934 242.84485201 72.67065803 242.71559143 97.61979675 C242.01165073 138.03020448 224.87138524 174.81174854 196.42018127 203.13371277 C158.98257296 238.69111062 111.9924457 242.04223953 62.89302063 241.47703552 C57.85661232 241.42481744 52.82006653 241.40282838 47.78346252 241.37785339 C37.99535743 241.32508337 28.2078378 241.24037164 18.42018127 241.13371277 C18.29085205 242.20963181 18.16152283 243.28555084 18.02827454 244.39407349 C17.85271423 245.83195934 17.67702799 247.26982983 17.50123596 248.70768738 C17.41671173 249.41369835 17.3321875 250.11970932 17.24510193 250.84711456 C16.42141427 257.54638459 15.10775631 264.10277395 13.67018127 270.69621277 C13.13716926 273.20495364 12.60598535 275.71408346 12.07643127 278.22355652 C11.80443909 279.51116882 11.5324469 280.79878113 11.25221252 282.12541199 C9.81735161 288.98842256 8.49582378 295.87394108 7.17018127 302.75871277 C6.9242926 304.03174255 6.67840393 305.30477234 6.42506409 306.61637878 C5.04693457 313.78217703 3.72567622 320.95349055 2.42018127 328.13371277 C-21.33981873 328.13371277 -45.09981873 328.13371277 -69.57981873 328.13371277 C-67.8434329 318.29419309 -66.10951054 308.47228697 -64.18333435 298.67082214 C-63.97511047 297.60964172 -63.97511047 297.60964172 -63.76268005 296.52702332 C-63.61983582 295.79910583 -63.47699158 295.07118835 -63.32981873 294.32121277 C-63.02431721 292.75809357 -62.71898278 291.19494171 -62.4138031 289.63175964 C-61.78293144 286.40100286 -61.15135906 283.17038429 -60.51927185 279.93986511 C-59.17814114 273.0825649 -57.8458588 266.22354645 -56.51329041 259.36457825 C-55.78586526 255.62087889 -55.05780865 251.87730233 -54.32981873 248.13371277 C-54.03814906 246.63371335 -53.7464824 245.13371335 -53.45481873 243.63371277 C-43.53815206 192.63371277 -33.62148539 141.63371277 -23.70481873 90.63371277 C-23.56045883 89.89128326 -23.41609894 89.14885376 -23.2673645 88.38392639 C-22.97555614 86.8832122 -22.68373687 85.38250012 -22.39190674 83.88179016 C-21.66481888 80.14273459 -20.93791754 76.40364296 -20.21141052 72.66447449 C-18.87435872 65.78398331 -17.53567095 58.90382525 -16.19041443 52.02493286 C-15.42350443 48.10303085 -14.65786448 44.18088126 -13.89231873 40.25871277 C-13.74510376 39.50528595 -13.59788879 38.75185913 -13.44621277 37.9756012 C-11.44731897 27.73706993 -9.50496447 17.49123256 -7.73338318 7.21037292 C-6.46927465 0.01023045 -6.46927465 0.01023045 0 0 Z " fill="#010101" transform="translate(283.57981872558594,199.8662872314453)"/>
<path d="M0 0 C1.20501663 -0.00571014 2.41003326 -0.01142029 3.65156555 -0.01730347 C4.99987783 -0.0185491 6.34819022 -0.01967414 7.69650269 -0.02069092 C9.10759105 -0.02531762 10.51867816 -0.03034208 11.92976379 -0.03573608 C15.78029916 -0.04890019 19.63081703 -0.05531599 23.4813714 -0.05974674 C25.89554102 -0.06267874 28.3097059 -0.06678439 30.72387314 -0.07125092 C38.29993453 -0.08495327 45.87598504 -0.09459931 53.45205796 -0.09845281 C62.15052494 -0.10290233 70.84883233 -0.12029212 79.54725087 -0.1494534 C86.29237618 -0.17126532 93.03745734 -0.18116779 99.78261745 -0.18249393 C103.79807406 -0.18353068 107.81338127 -0.18918881 111.8288002 -0.20731354 C129.58575109 -0.28290728 146.88731659 0.21544178 164.4538269 3.14044189 C165.87719535 3.35721006 167.30085348 3.57208844 168.72485352 3.78466797 C191.44336101 7.33237339 212.06614134 19.97747437 226.2663269 37.89044189 C243.27269464 61.71787546 244.74611921 93.50859706 240.13864136 121.70147705 C234.5023289 150.69080069 221.67167674 175.80997454 201.4538269 197.14044189 C200.76643433 197.88463379 200.76643433 197.88463379 200.06515503 198.64385986 C182.26623124 217.84329658 160.73563959 229.74831348 135.4538269 236.14044189 C134.3710144 236.43563721 133.2882019 236.73083252 132.1725769 237.03497314 C116.08429534 241.15861097 99.51261824 241.43452993 83.00460815 241.33575439 C81.12604424 241.33201062 79.24747833 241.32917013 77.36891174 241.32717896 C72.49469326 241.31964967 67.6205996 241.30009728 62.74642944 241.277771 C57.74461555 241.25707779 52.74278091 241.24812777 47.74093628 241.23809814 C37.97851252 241.21683792 28.21618021 241.18283654 18.4538269 241.14044189 C18.36960983 241.9846595 18.36960983 241.9846595 18.28369141 242.84593201 C17.76216558 247.83004389 17.04345148 252.70829449 16.0710144 257.62872314 C15.86837982 258.66259911 15.86837982 258.66259911 15.66165161 259.71736145 C15.22072406 261.96322858 14.77475408 264.20806266 14.3288269 266.45294189 C14.01837365 268.030501 13.70832208 269.6081392 13.39865112 271.18585205 C12.75131807 274.4820665 12.10224124 277.77793032 11.45187378 281.07354736 C9.96880273 288.5948103 8.50391141 296.1196113 7.04031372 303.64468384 C6.58652386 305.97590094 6.13137039 308.30684853 5.67599487 310.63775635 C5.39616857 312.07353934 5.11638135 313.50932996 4.8366394 314.94512939 C4.59316772 316.19278076 4.34969604 317.44043213 4.09884644 318.72589111 C3.50751022 321.8562576 2.97755762 324.99805761 2.4538269 328.14044189 C-21.3061731 328.14044189 -45.0661731 328.14044189 -69.5461731 328.14044189 C-68.25593359 318.46364558 -66.85077127 309.13514533 -64.7961731 299.64044189 C-64.25673914 297.09001404 -63.71903537 294.53921974 -63.18289185 291.98809814 C-63.04632675 291.33958389 -62.90976166 290.69106964 -62.76905823 290.02290344 C-61.30746958 283.05562838 -59.95184982 276.06884194 -58.6086731 269.07794189 C-58.24068604 267.16404663 -58.24068604 267.16404663 -57.86526489 265.21148682 C-57.48529263 263.23416871 -57.1055191 261.25681305 -56.72618103 259.27937317 C-55.34663997 252.09058554 -53.94877461 244.90538181 -52.55004883 237.7203064 C-52.10724261 235.44559345 -51.66468082 233.17083309 -51.22219849 230.89605713 C-50.62729527 227.83769439 -50.03232347 224.779345 -49.43728638 221.7210083 C-48.11852301 214.9425826 -46.80062383 208.16398886 -45.48266602 201.38540649 C-44.75387106 197.63707796 -44.02501918 193.88876049 -43.2961731 190.14044189 C-43.00450616 188.64044195 -42.71283949 187.14044195 -42.4211731 185.64044189 C-38.0461731 163.14044189 -38.0461731 163.14044189 -33.6711731 140.64044189 C-33.52678299 139.89785629 -33.38239288 139.15527069 -33.23362732 138.3901825 C-32.94212522 136.89104483 -32.65061115 135.39190949 -32.35908508 133.89277649 C-31.62730204 130.12960182 -30.89573081 126.3663862 -30.1645813 122.60308838 C-28.88351696 116.01036315 -27.60149556 109.41784187 -26.31071472 102.82701111 C-25.61725177 99.28587252 -24.92514001 95.74447075 -24.2336731 92.20294189 C-24.09512909 91.49348419 -23.95658508 90.78402649 -23.81384277 90.05307007 C-21.84579069 79.96162907 -19.92249512 69.86214745 -18.0227356 59.75762939 C-17.69312584 58.00527229 -17.69312584 58.00527229 -17.3568573 56.21751404 C-16.26715987 50.42103371 -15.18034047 44.62403291 -14.09768677 38.82623291 C-12.24068309 28.90686388 -10.35762844 18.99470821 -8.30789185 9.11309814 C-8.14400467 8.31294785 -7.98011749 7.51279755 -7.81126404 6.68840027 C-6.48850148 0.41781577 -6.35465855 0.01794755 0 0 Z " fill="#010101" transform="translate(841.5461730957031,199.85955810546875)"/>
<path d="M0 0 C23.43 0 46.86 0 71 0 C68.75056689 14.62131519 68.75056689 14.62131519 67.51953125 20.87890625 C67.38585648 21.56267838 67.2521817 22.2464505 67.11445618 22.95094299 C66.68296037 25.15529241 66.24783473 27.35890583 65.8125 29.5625 C65.50675576 31.11893016 65.20125938 32.67540903 64.89599609 34.23193359 C64.42036931 36.65711157 63.94456682 39.08225323 63.46777344 41.50720215 C62.30399989 47.43045863 61.15819245 53.35702591 60.01953125 59.28515625 C59.54234639 61.76344859 59.06494576 64.24169927 58.5874939 66.71994019 C58.27993482 68.31930828 57.97330972 69.91885627 57.66763306 71.51858521 C57.24203077 73.74468476 56.8128231 75.97006095 56.3828125 78.1953125 C56.01760498 80.09821045 56.01760498 80.09821045 55.64501953 82.03955078 C55 85 55 85 54 87 C54.92167465 86.99333817 55.8433493 86.98667633 56.79295349 86.97981262 C65.60010781 86.91899053 74.40718877 86.87367187 83.2145071 86.84456348 C87.73937074 86.82909422 92.26405686 86.80821231 96.78881836 86.77368164 C177.6318235 86.17333854 177.6318235 86.17333854 202 110 C211.94890002 122.41972574 215.35580297 134.33053687 215.375 150.0625 C215.39949219 151.06087891 215.42398437 152.05925781 215.44921875 153.08789062 C215.51846629 171.98092909 210.51926 190.98262606 206.76773071 209.40570068 C205.65590994 214.86645583 204.557713 220.32995967 203.45703125 225.79296875 C203.13363014 227.39510223 203.13363014 227.39510223 202.80369568 229.02960205 C200.37742218 241.05907343 198.05505549 253.10752406 195.74169922 265.15917969 C194.91029341 269.46453724 194.06737365 273.76755157 193.22265625 278.0703125 C192.75756511 280.44425236 192.29263521 282.81822376 191.82772827 285.19219971 C191.53561562 286.6812555 191.24272456 288.17015891 190.94888306 289.65887451 C188.43268702 302.41049138 186.22814302 315.18817761 184 328 C160.24 328 136.48 328 112 328 C113.12427199 313.38446407 113.12427199 313.38446407 114.41796875 307.3828125 C114.55538483 306.73216324 114.6928009 306.08151398 114.8343811 305.41114807 C115.12689502 304.029721 115.42299675 302.64904908 115.7225647 301.26913452 C116.3716252 298.27587285 117.00038154 295.27843963 117.63035583 292.28111267 C117.95502363 290.73639407 118.28051461 289.19184827 118.60682678 287.6474762 C121.24716734 275.13329331 123.61469092 262.56479204 126 250 C126.18580627 249.02135986 126.37161255 248.04271973 126.56304932 247.03442383 C128.087247 239.00278584 129.60710159 230.97033067 131.125 222.9375 C131.33710114 221.81564301 131.54920227 220.69378601 131.76773071 219.53793335 C132.9911013 213.06336762 134.20755973 206.5875581 135.41687012 200.11035156 C135.99800265 197.01065367 136.58714359 193.91254734 137.17675781 190.81445312 C137.54264242 188.86464424 137.90821706 186.91477715 138.2734375 184.96484375 C138.52518234 183.65857277 138.52518234 183.65857277 138.78201294 182.32591248 C140.48599345 173.13977642 142.27043105 161.99187724 138.3125 153.1875 C133.26784153 146.23405184 127.17730917 144.04432729 119 142 C110.90318132 140.82155265 102.84577844 140.87157679 94.68359375 140.90234375 C93.21672107 140.90421239 91.74984777 140.90563419 90.28297424 140.90663147 C86.45094025 140.91042152 82.61894508 140.92022118 78.78692627 140.93133545 C74.86511765 140.9416257 70.94330265 140.94614529 67.02148438 140.95117188 C59.34763869 140.96184714 51.67382482 140.97888057 44 141 C39.17283429 165.03103037 34.37161404 189.06527119 29.74462891 213.13574219 C28.50672115 219.55987462 27.25668897 225.98164371 26.00689697 232.4034729 C25.56269852 234.68647967 25.11893782 236.96957114 24.67529297 239.25268555 C23.34906851 246.07627879 22.0208378 252.89945595 20.68305969 259.72079468 C19.95404414 263.43860341 19.22680559 267.15675869 18.5 270.875 C18.35770966 271.60219238 18.21541931 272.32938477 18.06881714 273.07861328 C16.33835432 281.93473496 14.65827114 290.79860926 13.0390625 299.67578125 C12.87794983 300.5579834 12.71683716 301.44018555 12.55084229 302.34912109 C11.76786207 306.64228928 10.99038659 310.93636178 10.22070312 315.23193359 C9.94148927 316.77312702 9.66219667 318.31430619 9.3828125 319.85546875 C9.25709869 320.56713699 9.13138489 321.27880524 9.00186157 322.01203918 C8.11319062 326.88680938 8.11319062 326.88680938 7 328 C4.82194281 328.09429342 2.6407872 328.11742538 0.46069336 328.11352539 C-0.22220261 328.11367142 -0.90509857 328.11381744 -1.60868835 328.1139679 C-3.87587614 328.11326876 -6.14298274 328.1054764 -8.41015625 328.09765625 C-9.97814387 328.09579207 -11.54613207 328.09436817 -13.11412048 328.09336853 C-17.24876503 328.08954334 -21.38337466 328.07971306 -25.51800537 328.06866455 C-29.73400398 328.05845044 -33.95000822 328.05387091 -38.16601562 328.04882812 C-46.44402647 328.03809079 -54.7220089 328.02101436 -63 328 C-62.51593347 322.08050684 -61.99765807 316.24243927 -60.8359375 310.41015625 C-60.60463135 309.23300049 -60.3733252 308.05584473 -60.13500977 306.84301758 C-59.88420654 305.59544678 -59.63340332 304.34787598 -59.375 303.0625 C-59.10740606 301.70934416 -58.84041369 300.35606925 -58.57397461 299.00268555 C-58.00958716 296.13867362 -57.44249031 293.27521727 -56.87353516 290.41210938 C-55.56155399 283.7992996 -54.28198831 277.18018868 -52.99884033 270.56173706 C-52.26250919 266.7661143 -51.5237472 262.9709648 -50.78515625 259.17578125 C-50.48713133 257.64404503 -50.189117 256.11230675 -49.89111328 254.58056641 C-49.74377747 253.82326233 -49.59644165 253.06595825 -49.44464111 252.28570557 C-48.27482822 246.27220891 -47.10571758 240.25857565 -45.93649292 234.2449646 C-45.20769797 230.49663606 -44.47884608 226.7483186 -43.75 223 C-43.45833306 221.50000005 -43.16666639 220.00000005 -42.875 218.5 C-31.5 160 -31.5 160 -20.125 101.5 C-19.98063004 100.75752518 -19.83626007 100.01505035 -19.68751526 99.25007629 C-19.39579882 97.74982177 -19.10408129 96.24956746 -18.81236267 94.74931335 C-18.08394861 91.00320932 -17.35555338 87.25710163 -16.62719727 83.51098633 C-15.30576877 76.71465266 -13.98420713 69.91834502 -12.66192627 63.12217712 C-12.21547729 60.8274751 -11.7691096 58.53275728 -11.32275391 56.23803711 C-10.73808635 53.23228331 -10.15308235 50.22659525 -9.56787109 47.22094727 C-8.12359946 39.80002871 -6.68652984 32.37780592 -5.26171875 24.953125 C-4.84815757 22.80187385 -4.43447843 20.6506454 -4.02078247 18.49942017 C-3.63402451 16.48451527 -3.24947298 14.46919749 -2.86499023 12.45385742 C-2.63368408 11.25092041 -2.40237793 10.0479834 -2.1640625 8.80859375 C-1.86169678 7.22776001 -1.86169678 7.22776001 -1.55322266 5.61499023 C-1 3 -1 3 0 0 Z " fill="#010101" transform="translate(582,113)"/>
<path d="M0 0 C8.03365739 -0.07025083 16.06718137 -0.12318485 24.10107231 -0.15543652 C27.83360706 -0.1709343 31.56592806 -0.19187201 35.29833984 -0.22631836 C85.87177911 -0.680452 85.87177911 -0.680452 102.0625 12.98046875 C111.01879145 22.31595802 112.39137143 32.42621701 112.375 44.8125 C112.37367065 46.60868774 112.37367065 46.60868774 112.37231445 48.44116211 C112.24011099 58.43829391 110.78553002 67.43363594 108 77 C107.74992188 77.95519531 107.49984375 78.91039062 107.2421875 79.89453125 C102.13323205 98.53928245 92.11918299 116.1535182 75 126 C57.33172173 134.72127557 39.70283678 137.35555685 20.19140625 137.1953125 C18.84521193 137.19156705 17.49901483 137.18872736 16.15281677 137.18673706 C12.66604643 137.17922084 9.17945158 137.15968105 5.69274902 137.1373291 C2.11224744 137.11660647 -1.46828343 137.1076798 -5.04882812 137.09765625 C-12.03262267 137.07641936 -19.01630284 137.04243537 -26 137 C-24.76615919 125.96300242 -22.99962063 115.135297 -20.8125 104.25 C-20.50201403 102.68240844 -20.1921326 101.11469703 -19.8828125 99.546875 C-19.24271073 96.30487467 -18.6000693 93.06339377 -17.95556641 89.82226562 C-16.5931023 82.96012195 -15.26273221 76.09177219 -13.93136597 69.22354126 C-13.50012839 67.00066181 -13.06777438 64.77800255 -12.63500977 62.55541992 C-11.27919117 55.59183458 -9.92687446 48.6276125 -8.58520508 41.6612854 C-7.95879286 38.40978336 -7.33065397 35.15861588 -6.70239258 31.9074707 C-6.40644997 30.37345629 -6.11133183 28.83928253 -5.81713867 27.30493164 C-5.40629731 25.16250003 -4.99247966 23.02066077 -4.578125 20.87890625 C-4.22862793 19.06241577 -4.22862793 19.06241577 -3.87207031 17.20922852 C-2.71633149 11.44361299 -1.33996841 5.72495139 0 0 Z " fill="#777BB3" transform="translate(339,252)"/>
<path d="M0 0 C1.13661575 -0.00960754 2.27323151 -0.01921509 3.44429016 -0.02911377 C4.68881454 -0.03336365 5.93333893 -0.03761353 7.21557617 -0.04199219 C8.49849045 -0.04769226 9.78140472 -0.05339233 11.10319519 -0.05926514 C13.83800654 -0.06980531 16.57278836 -0.07562338 19.30761719 -0.07910156 C22.07435686 -0.08343349 24.84077537 -0.09710663 27.60742188 -0.12011719 C81.1137585 -0.55657275 81.1137585 -0.55657275 96.59838867 13.94238281 C106.37553852 24.36031838 107.15481475 35.38864419 106.96948242 49.01660156 C106.16024988 74.37923152 97.82476934 99.99986131 79.69604492 118.16113281 C79.13272461 118.73605469 78.5694043 119.31097656 77.98901367 119.90332031 C69.6840214 127.70314274 58.4919324 131.31813228 47.69604492 134.16113281 C46.70056641 134.43393066 45.70508789 134.70672852 44.67944336 134.98779297 C30.47583985 138.24989409 15.87586002 137.50218459 1.39300537 137.36712646 C-2.30150163 137.33602671 -5.99607271 137.32264929 -9.69067383 137.30761719 C-16.89527276 137.27577412 -24.0995595 137.22480803 -31.30395508 137.16113281 C-30.80133581 130.85053376 -30.15883416 124.68688455 -28.92114258 118.47753906 C-28.71891586 117.44994728 -28.71891586 117.44994728 -28.51260376 116.40159607 C-28.07318333 114.17455686 -27.62605558 111.94914159 -27.17895508 109.72363281 C-26.86390677 108.13325581 -26.54946617 106.54275831 -26.2355957 104.95214844 C-25.58461527 101.6556181 -24.93105316 98.35961557 -24.27563477 95.06396484 C-22.90739895 88.17366523 -21.57111087 81.27719158 -20.23431396 74.3807373 C-19.51394259 70.6653742 -18.79182163 66.9503515 -18.06958008 63.23535156 C-17.92600067 62.49664825 -17.78242126 61.75794495 -17.63449097 60.99685669 C-16.72230033 56.30585391 -15.80679935 51.61550751 -14.88916016 46.92556763 C-14.26077354 43.71330781 -13.63352263 40.50082665 -13.00634766 37.28833008 C-12.71182486 35.78138422 -12.41676782 34.27454265 -12.12109375 32.76782227 C-11.70665749 30.6557127 -11.29380053 28.54330464 -10.88208008 26.43066406 C-10.75091797 25.75818634 -10.61975586 25.08570862 -10.48461914 24.39285278 C-9.77614986 20.72431578 -9.10441026 17.05173016 -8.4699707 13.36962891 C-8.33451843 12.5842424 -8.19906616 11.7988559 -8.05950928 10.9896698 C-7.80015675 9.47300089 -7.54451733 7.95569122 -7.29302979 6.43769836 C-6.26458422 0.40045341 -6.06559358 0.04127766 0 0 Z " fill="#777BB3" transform="translate(902.303955078125,251.8388671875)"/>
<path d="M0 0 C1.13661575 -0.00960754 2.27323151 -0.01921509 3.44429016 -0.02911377 C4.68881454 -0.03336365 5.93333893 -0.03761353 7.21557617 -0.04199219 C8.49849045 -0.04769226 9.78140472 -0.05339233 11.10319519 -0.05926514 C13.83800654 -0.06980531 16.57278836 -0.07562338 19.30761719 -0.07910156 C22.07435686 -0.08343349 24.84077537 -0.09710663 27.60742188 -0.12011719 C81.1137585 -0.55657275 81.1137585 -0.55657275 96.59838867 13.94238281 C106.37553852 24.36031838 107.15481475 35.38864419 106.96948242 49.01660156 C106.16024988 74.37923152 97.82476934 99.99986131 79.69604492 118.16113281 C79.13272461 118.73605469 78.5694043 119.31097656 77.98901367 119.90332031 C69.6840214 127.70314274 58.4919324 131.31813228 47.69604492 134.16113281 C46.70056641 134.43393066 45.70508789 134.70672852 44.67944336 134.98779297 C30.47583985 138.24989409 15.87586002 137.50218459 1.39300537 137.36712646 C-2.30150163 137.33602671 -5.99607271 137.32264929 -9.69067383 137.30761719 C-16.89527276 137.27577412 -24.0995595 137.22480803 -31.30395508 137.16113281 C-30.80133581 130.85053376 -30.15883416 124.68688455 -28.92114258 118.47753906 C-28.71891586 117.44994728 -28.71891586 117.44994728 -28.51260376 116.40159607 C-28.07318333 114.17455686 -27.62605558 111.94914159 -27.17895508 109.72363281 C-26.86390677 108.13325581 -26.54946617 106.54275831 -26.2355957 104.95214844 C-25.58461527 101.6556181 -24.93105316 98.35961557 -24.27563477 95.06396484 C-22.90739895 88.17366523 -21.57111087 81.27719158 -20.23431396 74.3807373 C-19.51394259 70.6653742 -18.79182163 66.9503515 -18.06958008 63.23535156 C-17.92600067 62.49664825 -17.78242126 61.75794495 -17.63449097 60.99685669 C-16.72230033 56.30585391 -15.80679935 51.61550751 -14.88916016 46.92556763 C-14.26077354 43.71330781 -13.63352263 40.50082665 -13.00634766 37.28833008 C-12.71182486 35.78138422 -12.41676782 34.27454265 -12.12109375 32.76782227 C-11.70665749 30.6557127 -11.29380053 28.54330464 -10.88208008 26.43066406 C-10.75091797 25.75818634 -10.61975586 25.08570862 -10.48461914 24.39285278 C-9.77614986 20.72431578 -9.10441026 17.05173016 -8.4699707 13.36962891 C-8.33451843 12.5842424 -8.19906616 11.7988559 -8.05950928 10.9896698 C-7.80015675 9.47300089 -7.54451733 7.95569122 -7.29302979 6.43769836 C-6.26458422 0.40045341 -6.06559358 0.04127766 0 0 Z M5.69604492 14.16113281 C1.4675225 33.05368817 -2.51995293 51.9628935 -6.12245178 70.98612976 C-7.11999616 76.23757262 -8.15564029 81.48102009 -9.19848633 86.72363281 C-9.68068109 89.15923413 -10.1624258 91.59492406 -10.64404297 94.03063965 C-10.95434264 95.5942453 -11.26646065 97.15749141 -11.58056641 98.72033691 C-13.27823621 107.17429228 -14.79747178 115.53353168 -15.30395508 124.16113281 C-9.83116493 124.23673455 -4.35869531 124.2903998 1.11450195 124.32592773 C2.96644398 124.34077776 4.81835245 124.36106308 6.67016602 124.38745117 C29.99691012 124.71090521 54.99898818 123.27254529 72.94604492 106.41113281 C80.34038742 98.54069583 84.19889976 89.25289457 87.69604492 79.16113281 C87.99510742 78.30519531 88.29416992 77.44925781 88.60229492 76.56738281 C91.98477095 66.14935666 92.8901042 55.74517905 93.00854492 44.84863281 C93.02618896 43.91760742 93.04383301 42.98658203 93.06201172 42.02734375 C93.05548333 35.3921223 92.34718782 29.67723745 88.22338867 24.20800781 C76.53325676 14.67207711 62.0282578 13.83433394 47.49291992 13.96582031 C45.68721527 13.97006516 45.68721527 13.97006516 43.84503174 13.97439575 C40.04526317 13.98548379 36.24574081 14.01056675 32.44604492 14.03613281 C29.85099627 14.04617733 27.25594388 14.05530059 24.66088867 14.06347656 C18.33919178 14.08538573 12.01763595 14.11874795 5.69604492 14.16113281 Z " fill="#FBFBFB" transform="translate(902.303955078125,251.8388671875)"/>
<path d="M0 0 C8.03365739 -0.07025083 16.06718137 -0.12318485 24.10107231 -0.15543652 C27.83360706 -0.1709343 31.56592806 -0.19187201 35.29833984 -0.22631836 C85.87177911 -0.680452 85.87177911 -0.680452 102.0625 12.98046875 C111.01879145 22.31595802 112.39137143 32.42621701 112.375 44.8125 C112.37367065 46.60868774 112.37367065 46.60868774 112.37231445 48.44116211 C112.24011099 58.43829391 110.78553002 67.43363594 108 77 C107.74992188 77.95519531 107.49984375 78.91039062 107.2421875 79.89453125 C102.13323205 98.53928245 92.11918299 116.1535182 75 126 C57.33172173 134.72127557 39.70283678 137.35555685 20.19140625 137.1953125 C18.84521193 137.19156705 17.49901483 137.18872736 16.15281677 137.18673706 C12.66604643 137.17922084 9.17945158 137.15968105 5.69274902 137.1373291 C2.11224744 137.11660647 -1.46828343 137.1076798 -5.04882812 137.09765625 C-12.03262267 137.07641936 -19.01630284 137.04243537 -26 137 C-24.76615919 125.96300242 -22.99962063 115.135297 -20.8125 104.25 C-20.50201403 102.68240844 -20.1921326 101.11469703 -19.8828125 99.546875 C-19.24271073 96.30487467 -18.6000693 93.06339377 -17.95556641 89.82226562 C-16.5931023 82.96012195 -15.26273221 76.09177219 -13.93136597 69.22354126 C-13.50012839 67.00066181 -13.06777438 64.77800255 -12.63500977 62.55541992 C-11.27919117 55.59183458 -9.92687446 48.6276125 -8.58520508 41.6612854 C-7.95879286 38.40978336 -7.33065397 35.15861588 -6.70239258 31.9074707 C-6.40644997 30.37345629 -6.11133183 28.83928253 -5.81713867 27.30493164 C-5.40629731 25.16250003 -4.99247966 23.02066077 -4.578125 20.87890625 C-4.22862793 19.06241577 -4.22862793 19.06241577 -3.87207031 17.20922852 C-2.71633149 11.44361299 -1.33996841 5.72495139 0 0 Z M11 14 C8.34409128 27.22781803 5.6983556 40.45694403 3.14431763 53.70483398 C0.99166212 64.86978726 -1.19824694 76.02628642 -3.44921875 87.171875 C-3.65602264 88.19762634 -3.86282654 89.22337769 -4.07589722 90.2802124 C-5.09754105 95.34633127 -6.12320867 100.41157976 -7.15527344 105.47558594 C-7.52945711 107.32744159 -7.90348808 109.1793281 -8.27734375 111.03125 C-8.45198654 111.88064148 -8.62662933 112.73003296 -8.80656433 113.60516357 C-8.9644191 114.39094788 -9.12227386 115.17673218 -9.28491211 115.98632812 C-9.42368271 116.66828247 -9.56245331 117.35023682 -9.70542908 118.05285645 C-10.09972106 120.33094969 -10.09972106 120.33094969 -10 124 C-4.20575662 124.07533521 1.58818878 124.12914886 7.3828125 124.16479492 C9.34542825 124.17968749 11.30801192 124.20000834 13.27050781 124.22631836 C35.65377059 124.51842338 60.74212172 123.21621189 78 107 C93.61786649 89.55596064 99.80831608 63.62840732 99.28515625 40.609375 C98.78737035 34.30863296 97.7143656 29.26901329 93.875 24.1875 C81.94569232 15.11085285 68.88367782 13.5129851 54.1640625 13.70703125 C52.9186972 13.71127609 51.67333191 13.71552094 50.39022827 13.71989441 C46.46825205 13.73649558 42.54681714 13.77411235 38.625 13.8125 C35.94272144 13.82929314 33.26042851 13.84146205 30.578125 13.85351562 C24.0519031 13.88633801 17.52599024 13.936348 11 14 Z " fill="#FAFAFB" transform="translate(339,252)"/>
</svg>
