<?xml version="1.0" encoding="UTF-8"?>
<svg version="1.1" xmlns="http://www.w3.org/2000/svg" width="600" height="600">
<path d="M0 0 C2.55305458 0.01078376 5.10541279 -0.00001427 7.65844727 -0.01269531 C41.36080366 -0.04368254 73.78318064 10.38874265 98.35571289 34.26074219 C99.22196289 35.08574219 100.08821289 35.91074219 100.98071289 36.76074219 C119.17502512 55.9126498 124.21109747 75.03413351 123.64086914 101.08886719 C123.27256523 110.92057839 121.9704253 120.56459109 120.35571289 130.26074219 C120.18410645 131.31052246 120.0125 132.36030273 119.83569336 133.44189453 C117.39996385 148.01056085 113.94383632 161.88109676 109.16381836 175.85058594 C108.20773775 178.7020747 107.34613657 181.57510768 106.49243164 184.45849609 C103.45390269 194.65668808 99.4210194 204.43773765 95.35571289 214.26074219 C94.97906494 215.18701416 94.60241699 216.11328613 94.21435547 217.06762695 C91.07238275 224.73459636 87.63655932 232.23297893 84.04321289 239.69824219 C83.47143311 240.88675781 82.89965332 242.07527344 82.31054688 243.29980469 C78.88531092 250.33704607 75.31929655 257.06869932 71.05102539 263.63183594 C68.78804566 267.14101879 66.84503753 270.79256146 64.87524414 274.47167969 C62.15280956 279.46864188 59.24661039 284.35990116 56.35571289 289.26074219 C65.34491934 295.25354649 80.8878885 293.12470067 91.04345703 291.18334961 C92.06427368 290.97415894 92.06427368 290.97415894 93.10571289 290.76074219 C98.95168721 289.58262962 104.63741165 288.85266137 110.60571289 288.69824219 C111.30921875 288.65957031 112.01272461 288.62089844 112.73754883 288.58105469 C116.74608975 288.55766991 118.25425741 289.17169881 121.29321289 291.83886719 C124.86775506 297.76935761 124.43245393 303.56652981 123.35571289 310.26074219 C119.8329537 318.36546857 111.43743449 323.47816688 104.35571289 328.26074219 C103.42887695 328.89109375 102.50204102 329.52144531 101.54711914 330.17089844 C95.74765233 333.83075613 89.82062038 336.37696155 83.35571289 338.57324219 C82.64463379 338.81582764 81.93355469 339.05841309 81.20092773 339.30834961 C70.40111096 342.76531744 59.69003392 343.56978604 48.42553711 343.46655273 C46.33052661 343.44801938 44.23595404 343.44604573 42.14086914 343.44628906 C31.04735726 343.40581443 31.04735726 343.40581443 27.35571289 342.26074219 C27.3118042 343.12022461 27.26789551 343.97970703 27.22265625 344.86523438 C26.60522694 355.48867117 25.33420435 365.96752724 23.91821289 376.51074219 C23.47879374 379.80719778 23.04264971 383.10406632 22.60961914 386.40136719 C22.50274277 387.21319458 22.39586639 388.02502197 22.28575134 388.8614502 C21.53277446 394.66855429 20.89341157 400.48212529 20.30102539 406.30761719 C18.85726027 420.42193075 16.80586604 434.23416139 11.98071289 447.63574219 C11.71299072 448.38984375 11.44526855 449.14394531 11.16943359 449.92089844 C9.05759493 455.40958499 6.04157999 459.71005206 2.35571289 464.26074219 C1.87223389 464.88916016 1.38875488 465.51757812 0.890625 466.16503906 C-5.64592816 474.60058325 -14.95220485 479.3133866 -24.64428711 483.26074219 C-25.47138184 483.61676514 -26.29847656 483.97278809 -27.15063477 484.33959961 C-35.79082557 487.67709753 -43.98767718 487.94018487 -53.12573242 487.89208984 C-55.64148087 487.88574926 -58.1525511 487.93289885 -60.66772461 487.98339844 C-73.86705614 488.08662752 -83.75220102 484.96720653 -93.55444336 475.64355469 C-106.94649169 460.37411641 -111.5022885 442.689546 -112.76928711 423.01074219 C-112.8542041 421.69912109 -112.93912109 420.3875 -113.02661133 419.03613281 C-114.3743675 395.82731468 -113.81127539 372.49672562 -113.64428711 349.26074219 C-114.72677734 349.88142578 -115.80926758 350.50210937 -116.92456055 351.14160156 C-118.3674761 351.96277301 -119.8105166 352.78372493 -121.25366211 353.60449219 C-122.31979736 354.21695801 -122.31979736 354.21695801 -123.4074707 354.84179688 C-128.9483009 357.98435729 -134.51886843 360.46166817 -140.64428711 362.26074219 C-141.2246875 362.43508789 -141.80508789 362.60943359 -142.40307617 362.7890625 C-147.53096031 363.86826426 -152.92592712 363.48917872 -158.14428711 363.51074219 C-159.36116211 363.53136719 -160.57803711 363.55199219 -161.83178711 363.57324219 C-175.08106199 363.62986302 -186.72284338 360.97261878 -197.64428711 353.26074219 C-201.16696138 349.5846302 -203.33637227 346.18520993 -204.14428711 341.13574219 C-203.55146856 337.72703555 -202.69902092 334.55678535 -201.64428711 331.26074219 C-202.42803711 332.25074219 -203.21178711 333.24074219 -204.01928711 334.26074219 C-205.31866211 335.74574219 -205.31866211 335.74574219 -206.64428711 337.26074219 C-207.30428711 337.26074219 -207.96428711 337.26074219 -208.64428711 337.26074219 C-208.89178711 337.83308594 -209.13928711 338.40542969 -209.39428711 338.99511719 C-210.8374491 341.6108483 -212.52644933 343.40847675 -214.64428711 345.51074219 C-215.69616211 346.57035156 -215.69616211 346.57035156 -216.76928711 347.65136719 C-218.64428711 349.26074219 -218.64428711 349.26074219 -220.64428711 349.26074219 C-220.64428711 349.92074219 -220.64428711 350.58074219 -220.64428711 351.26074219 C-229.57572771 356.68965706 -238.55684146 357.61090006 -248.98413086 355.87011719 C-268.43890212 349.66368709 -279.74731066 326.16391532 -288.57543945 309.37426758 C-291.60861898 303.45941819 -294.12359673 297.34256628 -296.58227539 291.17138672 C-297.39850081 289.12517879 -298.22940349 287.0853877 -299.06225586 285.04589844 C-301.96867965 277.86837181 -304.56167463 270.68879357 -306.75854492 263.25585938 C-307.57872699 260.48243226 -308.45658795 257.73743147 -309.36303711 254.99121094 C-314.19715063 240.07436246 -318.13341568 224.96314682 -321.95678711 209.76074219 C-322.21717773 208.73443695 -322.47756836 207.70813171 -322.74584961 206.65072632 C-325.7533797 194.76265195 -328.40082205 182.95957941 -330.20895386 170.82829285 C-330.55532546 168.78542883 -330.95708679 166.75197472 -331.37771606 164.72309875 C-333.33703856 155.2622238 -334.11897669 146.17698192 -334.11303711 136.49121094 C-334.1201757 135.03501611 -334.12787973 133.57882396 -334.1361084 132.12263489 C-334.14941228 129.0965693 -334.15118658 126.070764 -334.14526367 123.04467773 C-334.1405494 119.98535905 -334.15443946 116.92707513 -334.1862793 113.86791992 C-334.35825313 97.14463663 -334.50462179 81.17546773 -328.64428711 65.26074219 C-328.29849609 64.28371338 -327.95270508 63.30668457 -327.59643555 62.30004883 C-326.73815862 60.04540772 -325.80126185 57.87774302 -324.76928711 55.69824219 C-324.26220215 54.59295166 -324.26220215 54.59295166 -323.74487305 53.46533203 C-320.12115027 45.78649091 -315.73578682 39.19354551 -309.64428711 33.26074219 C-308.83991211 32.43574219 -308.03553711 31.61074219 -307.20678711 30.76074219 C-300.54428711 24.26074219 -300.54428711 24.26074219 -297.64428711 24.26074219 C-297.14928711 22.77574219 -297.14928711 22.77574219 -296.64428711 21.26074219 C-294.51294749 19.81155252 -292.47503285 18.58396329 -290.20678711 17.38574219 C-289.54445068 17.03495605 -288.88211426 16.68416992 -288.19970703 16.32275391 C-271.89473135 8.08600507 -253.49600305 5.83803141 -235.45678711 5.88574219 C-234.71473022 5.88595367 -233.97267334 5.88616516 -233.20812988 5.88638306 C-219.38548112 5.92542695 -206.18424995 7.41118817 -192.64428711 10.26074219 C-191.17499756 10.55754883 -191.17499756 10.55754883 -189.67602539 10.86035156 C-179.24521083 12.98327051 -169.19226297 15.41107967 -159.32397461 19.44042969 C-154.17303025 21.01724939 -150.9078668 18.43865067 -146.33178711 16.01074219 C-130.21281508 7.72835918 -114.28298652 4.88222248 -96.26928711 4.94824219 C-95.51861969 4.9464093 -94.76795227 4.94457642 -93.99453735 4.94268799 C-84.89543452 4.92793497 -76.28654592 5.37521073 -67.33178711 7.13574219 C-59.02874384 8.71249832 -52.62802374 7.63746594 -44.70947266 4.72314453 C-30.58961103 -0.36955263 -14.83529652 -0.07424073 0 0 Z M-175.02709961 299.28027344 C-180.49088614 304.8452412 -185.62814072 310.49398364 -190.49584961 316.60058594 C-193.73710204 320.61384576 -197.18108805 324.43895576 -200.64428711 328.26074219 C-200.31428711 328.92074219 -199.98428711 329.58074219 -199.64428711 330.26074219 C-199.06678711 329.68324219 -198.48928711 329.10574219 -197.89428711 328.51074219 C-191.27393263 323.92741986 -183.24496578 322.39150455 -175.52001953 320.4543457 C-162.60071407 317.79216879 -162.60071407 317.79216879 -152.19897461 310.45996094 C-150.92063178 308.39063036 -150.92063178 308.39063036 -149.64428711 305.26074219 C-149.31428711 304.60074219 -148.98428711 303.94074219 -148.64428711 303.26074219 C-149.23854492 303.16277344 -149.83280273 303.06480469 -150.44506836 302.96386719 C-156.34304767 301.89984604 -161.72178378 300.26328307 -167.29663086 298.06542969 C-170.88940568 296.83396278 -172.07831492 296.78105756 -175.02709961 299.28027344 Z " fill="#E9ECEF" transform="translate(405.644287109375,58.7392578125)"/>
<path d="M0 0 C0.66902344 0.13390137 1.33804688 0.26780273 2.02734375 0.40576172 C23.64317279 4.75104899 43.53505235 15.47062635 60 30 C61.31291016 31.14855469 61.31291016 31.14855469 62.65234375 32.3203125 C65.12968026 34.51825015 67.57198587 36.74780758 70 39 C70.60328125 39.54914063 71.2065625 40.09828125 71.828125 40.6640625 C80.2289544 48.63307356 86.77991616 58.4418027 93.125 68.0625 C93.85348145 69.15183838 93.85348145 69.15183838 94.59667969 70.26318359 C95.04172852 70.95105957 95.48677734 71.63893555 95.9453125 72.34765625 C96.34250488 72.95617432 96.73969727 73.56469238 97.14892578 74.19165039 C98 76 98 76 98 80 C98.66 80 99.32 80 100 80 C101.49335898 83.34802174 102.96705758 86.7043576 104.4375 90.0625 C104.85837891 91.00544922 105.27925781 91.94839844 105.71289062 92.91992188 C107.92720624 98.00399054 109.57713334 102.45660247 110 108 C108.72125 107.83757812 107.4425 107.67515625 106.125 107.5078125 C101.07050369 106.9481793 96.08120544 106.85154828 91 106.875 C90.16210938 106.87113281 89.32421875 106.86726563 88.4609375 106.86328125 C75.67806434 106.88306898 65.48293068 108.74836031 56 118 C47.91212873 128.48427757 49.10523982 143.54136197 50.328125 156.0234375 C51.39321221 163.69664644 54.68510283 170.95868973 57.5 178.125 C57.79519531 178.88425781 58.09039062 179.64351562 58.39453125 180.42578125 C61.12903692 187.42467021 64.05697617 194.28561062 67.4375 201 C67.76878906 201.66281982 68.10007812 202.32563965 68.44140625 203.00854492 C70.64125774 207.38302479 72.9015335 211.72275213 75.19140625 216.05078125 C75.73804932 217.08654297 76.28469238 218.12230469 76.84790039 219.18945312 C77.93915835 221.25231286 79.03590434 223.31227982 80.13842773 225.36914062 C80.63930908 226.31595703 81.14019043 227.26277344 81.65625 228.23828125 C82.10806641 229.08430908 82.55988281 229.93033691 83.02539062 230.80200195 C84 233 84 233 84 236 C84.66 236 85.32 236 86 236 C86.29777344 236.96873047 86.29777344 236.96873047 86.6015625 237.95703125 C90.31657676 248.32220463 96.88967024 256.46899318 103.56713867 265.10571289 C107.00395536 269.64929113 107.00395536 269.64929113 106.9765625 272.078125 C106 274 106 274 103.5234375 274.984375 C101.44161406 275.49062487 99.35828654 275.99073316 97.2734375 276.484375 C92.39460428 278.74330971 89.52618175 281.20126582 87 286 C85.86334292 290.98406096 85.43929581 295.91555919 85.10598755 301.00939941 C84.81119202 305.47645137 84.40771591 309.93444809 84.0234375 314.39453125 C83.94535355 315.33497284 83.86726959 316.27541443 83.78681946 317.24435425 C82.86581387 328.11951014 81.48098081 338.93027949 80.0625 349.75 C79.93350311 350.73633423 79.80450623 351.72266846 79.67160034 352.7388916 C79.15641441 356.67055044 78.63942666 360.60195337 78.116745 364.53262329 C77.39422872 369.96857162 76.69558186 375.40660469 76.02400208 380.84907532 C69.96848367 429.78905719 69.96848367 429.78905719 52.71484375 444.15234375 C41.60154566 451.71578259 28.41657173 456.40784362 15 457 C14.29601074 457.03786621 13.59202148 457.07573242 12.86669922 457.11474609 C-5.89763279 458.03073923 -5.89763279 458.03073923 -14 452 C-15.051875 451.25556641 -15.051875 451.25556641 -16.125 450.49609375 C-25.97031676 442.75782395 -33.30620482 429.30268134 -35.109375 416.9765625 C-35.34206964 414.86139438 -35.55547558 412.7440194 -35.75 410.625 C-35.86214844 409.61050781 -35.97429687 408.59601563 -36.08984375 407.55078125 C-37.77202245 391.34249475 -38.13568222 375.02825013 -38.10753441 358.74462509 C-38.10389498 354.22552892 -38.12989224 349.70653956 -38.15039062 345.1875 C-38.17471826 339.50412189 -38.19028232 333.82111875 -38.17504883 328.13769531 C-38.16334105 323.47713598 -38.18087062 318.81746743 -38.21749306 314.15704727 C-38.22603777 312.40219155 -38.22413772 310.64724898 -38.210989 308.89242172 C-38.13949751 298.6054791 -38.4672097 290.53508536 -45 282 C-49.12538543 277.87461457 -53.17381837 275.9108783 -59 275.8125 C-62.09337603 275.88866267 -64.98861394 276.24715349 -68 277 C-68 277.66 -68 278.32 -68 279 C-68.66 279 -69.32 279 -70 279 C-70.36482377 268.33903877 -66.46926767 258.63455134 -62.27734375 248.9765625 C-60.97777571 245.94821128 -59.79125377 242.89446898 -58.625 239.8125 C-56.92532 235.32858229 -55.12594818 230.90239528 -53.25585938 226.48803711 C-46.45698548 210.35830704 -45.76646833 194.83459671 -45.75 177.4375 C-45.74899292 176.69287506 -45.74798584 175.94825012 -45.74694824 175.18106079 C-45.77230168 144.00644467 -45.77230168 144.00644467 -59.69921875 117.25390625 C-69.36534794 108.51035772 -82.04867634 109.26218497 -94.39990234 109.78662109 C-105.71219518 110.71497264 -115.78239537 116.69933307 -125.515625 122.109375 C-129 124 -129 124 -132 125 C-132.2260479 107.79524285 -132.2260479 107.79524285 -131 100 C-130.505 99.505 -130.505 99.505 -130 99 C-129.7430334 97.25386555 -129.52145528 95.50252819 -129.3125 93.75 C-127.19809185 79.42251793 -122.58928785 65.33020422 -117 52 C-116.34 52 -115.68 52 -115 52 C-114.85498047 50.96359375 -114.85498047 50.96359375 -114.70703125 49.90625 C-111.96439942 38.63266945 -103.41464859 29.33701998 -95.39599609 21.38525391 C-94.19859361 20.19706543 -93.02808171 18.9818845 -91.86328125 17.76171875 C-68.07070189 -5.5634229 -30.71394583 -6.6949991 0 0 Z " fill="#336993" transform="translate(340,76)"/>
<path d="M0 0 C0.6875235 0.07850189 1.375047 0.15700378 2.08340454 0.23788452 C11.64795023 1.34966883 20.69595274 3.3184497 29.875 6.25 C30.79265137 6.54165039 31.71030273 6.83330078 32.65576172 7.13378906 C35.02739219 7.90368574 37.38990799 8.69551646 39.75 9.5 C40.54535156 9.768125 41.34070313 10.03625 42.16015625 10.3125 C44.06607564 10.95546076 45.97069384 11.60227682 47.875 12.25 C47.875 16.25 47.875 16.25 45.8203125 18.484375 C44.88960937 19.31453125 43.95890625 20.1446875 43 21 C18.43296672 44.19421661 8.96673023 84.78801117 6.875 117.25 C6.78169882 121.59139611 6.79302711 125.92886717 6.83040047 130.27098274 C6.84814543 132.4065279 6.85820139 134.54199465 6.86631775 136.67759705 C6.89044979 142.74208984 6.92586565 148.80647698 6.97094727 154.87084961 C7.19075048 185.50326762 7.19075048 185.50326762 5.34008789 198.84204102 C4.75385359 203.13770746 4.52524298 207.35624077 4.5625 211.6875 C4.56886475 212.43499512 4.57522949 213.18249023 4.58178711 213.95263672 C4.72107372 220.10657242 5.63906671 225.48573226 7.875 231.25 C8.10606445 231.86085449 8.33712891 232.47170898 8.57519531 233.10107422 C13.23011742 245.21265456 19.03290515 254.65820653 29.40625 262.77734375 C30.875 264.25 30.875 264.25 30.875 267.25 C29.25637475 269.015773 27.62770763 270.62597218 25.875 272.25 C20.91913977 276.94761442 16.60992257 281.9690273 12.33203125 287.2890625 C9.75360026 290.3962973 7.06429597 293.36001271 4.3125 296.3125 C-0.44283551 301.42218364 -4.80274011 306.77329035 -9.125 312.25 C-14.15629602 318.58364477 -18.88034389 324.44818541 -27.2421875 325.7265625 C-34.63844184 326.05110946 -39.54824809 325.14412046 -45.125 320.25 C-45.82882813 319.65316406 -46.53265625 319.05632812 -47.2578125 318.44140625 C-59.72530182 306.95133334 -69.22482866 289.81558244 -75.07470703 274.02368164 C-76.28540112 270.82640236 -77.58683441 267.67148559 -78.8828125 264.5078125 C-82.25267051 256.16673477 -85.08618793 247.67427759 -87.875 239.125 C-88.59727306 236.9228654 -89.32092794 234.72119756 -90.04620361 232.52005005 C-90.49118626 231.16838812 -90.9343078 229.81611145 -91.37518311 228.46310425 C-92.25362992 225.78505357 -93.16677767 223.14635639 -94.22070312 220.53173828 C-95.53923735 217.20478879 -96.15866456 213.74404858 -96.875 210.25 C-98.33274012 203.37729212 -100.1170581 196.66853327 -102.125 189.9375 C-104.35434307 182.3637942 -106.12045684 174.83361519 -107.5090332 167.06396484 C-108.54683307 161.26145364 -109.68056611 155.48736157 -110.890625 149.71875 C-111.04789566 148.9671611 -111.20516632 148.2155722 -111.36720276 147.44120789 C-112.0034537 144.4048834 -112.64073879 141.3688201 -113.28707886 138.33462524 C-120.54042914 104.25555098 -121.31755247 64.20802605 -102.8125 33.4375 C-90.27731163 14.95015436 -72.84669569 4.2123908 -51.15625 -0.0234375 C-49.81271733 -0.26682773 -48.46898858 -0.50913999 -47.125 -0.75 C-46.17238281 -0.94207031 -45.21976562 -1.13414063 -44.23828125 -1.33203125 C-29.60639383 -3.29641262 -14.5811795 -1.73375105 0 0 Z " fill="#336993" transform="translate(197.125,75.75)"/>
<path d="M0 0 C1.15628906 0.42925781 2.31257813 0.85851562 3.50390625 1.30078125 C18.13615135 7.10463266 29.83906609 16.09563928 41 27 C41.8353125 27.7734375 42.670625 28.546875 43.53125 29.34375 C54.62444952 39.84531221 59.67224535 52.05817962 60.203125 67.28515625 C60.51181315 86.10721805 57.47049531 104.34344881 53.49853516 122.69189453 C53.17913755 124.17063351 52.86574935 125.65069102 52.56005859 127.13232422 C48.49808532 146.81438849 41.57992356 165.91812098 33.5625 184.3125 C30.05810039 192.36950915 30.05810039 192.36950915 27.0625 200.625 C24.37907918 208.33373617 20.17007859 215.42217496 16.29931641 222.58203125 C15.08164557 224.84806131 13.8854217 227.12362197 12.69921875 229.40625 C8.88078792 236.74465184 4.92839292 243.98456994 0.75 251.125 C0.34974609 251.81158691 -0.05050781 252.49817383 -0.46289062 253.20556641 C-3.09190395 257.64720376 -5.9499354 261.83590471 -9 266 C-15.58638743 259.59162304 -15.58638743 259.59162304 -17 257 C-17 251.9157813 -14.54467121 247.97102423 -12.2734375 243.56640625 C-3.03201813 224.94182795 -4.94800022 196.53937047 -9.546875 176.6328125 C-11.82693646 163.38486918 -9.98325095 149.33317981 -8 136.1875 C-4.6714104 113.81506038 -5.78371237 97.45891686 -17.046875 77.4765625 C-18.20638923 75.41262717 -19.33429247 73.32953701 -20.390625 71.2109375 C-36.36174476 39.36490954 -68.10829577 12.48831727 -101.5625 0.75 C-102.366875 0.5025 -103.17125 0.255 -104 0 C-103.67 -0.66 -103.34 -1.32 -103 -2 C-69.80868188 -12.63212654 -32.57293684 -12.49423112 0 0 Z " fill="#346A93" transform="translate(459,76)"/>
<path d="M0 0 C2.55305458 0.01078376 5.10541279 -0.00001427 7.65844727 -0.01269531 C41.36080366 -0.04368254 73.78318064 10.38874265 98.35571289 34.26074219 C99.22196289 35.08574219 100.08821289 35.91074219 100.98071289 36.76074219 C119.17502512 55.9126498 124.21109747 75.03413351 123.64086914 101.08886719 C123.27256523 110.92057839 121.9704253 120.56459109 120.35571289 130.26074219 C120.18410645 131.31052246 120.0125 132.36030273 119.83569336 133.44189453 C117.39996385 148.01056085 113.94383632 161.88109676 109.16381836 175.85058594 C108.20773775 178.7020747 107.34613657 181.57510768 106.49243164 184.45849609 C103.45390269 194.65668808 99.4210194 204.43773765 95.35571289 214.26074219 C94.97906494 215.18701416 94.60241699 216.11328613 94.21435547 217.06762695 C91.07238275 224.73459636 87.63655932 232.23297893 84.04321289 239.69824219 C83.47143311 240.88675781 82.89965332 242.07527344 82.31054688 243.29980469 C78.88531092 250.33704607 75.31929655 257.06869932 71.05102539 263.63183594 C68.78804566 267.14101879 66.84503753 270.79256146 64.87524414 274.47167969 C62.15280956 279.46864188 59.24661039 284.35990116 56.35571289 289.26074219 C65.34491934 295.25354649 80.8878885 293.12470067 91.04345703 291.18334961 C92.06427368 290.97415894 92.06427368 290.97415894 93.10571289 290.76074219 C98.95168721 289.58262962 104.63741165 288.85266137 110.60571289 288.69824219 C111.30921875 288.65957031 112.01272461 288.62089844 112.73754883 288.58105469 C116.74608975 288.55766991 118.25425741 289.17169881 121.29321289 291.83886719 C124.86775506 297.76935761 124.43245393 303.56652981 123.35571289 310.26074219 C119.8329537 318.36546857 111.43743449 323.47816688 104.35571289 328.26074219 C103.42887695 328.89109375 102.50204102 329.52144531 101.54711914 330.17089844 C95.74765233 333.83075613 89.82062038 336.37696155 83.35571289 338.57324219 C82.64463379 338.81582764 81.93355469 339.05841309 81.20092773 339.30834961 C70.40111096 342.76531744 59.69003392 343.56978604 48.42553711 343.46655273 C46.33052661 343.44801938 44.23595404 343.44604573 42.14086914 343.44628906 C31.04735726 343.40581443 31.04735726 343.40581443 27.35571289 342.26074219 C27.3118042 343.12022461 27.26789551 343.97970703 27.22265625 344.86523438 C26.60522694 355.48867117 25.33420435 365.96752724 23.91821289 376.51074219 C23.47879374 379.80719778 23.04264971 383.10406632 22.60961914 386.40136719 C22.50274277 387.21319458 22.39586639 388.02502197 22.28575134 388.8614502 C21.53277446 394.66855429 20.89341157 400.48212529 20.30102539 406.30761719 C18.85726027 420.42193075 16.80586604 434.23416139 11.98071289 447.63574219 C11.71299072 448.38984375 11.44526855 449.14394531 11.16943359 449.92089844 C9.05759493 455.40958499 6.04157999 459.71005206 2.35571289 464.26074219 C1.87223389 464.88916016 1.38875488 465.51757812 0.890625 466.16503906 C-5.64592816 474.60058325 -14.95220485 479.3133866 -24.64428711 483.26074219 C-25.47138184 483.61676514 -26.29847656 483.97278809 -27.15063477 484.33959961 C-35.79082557 487.67709753 -43.98767718 487.94018487 -53.12573242 487.89208984 C-55.64148087 487.88574926 -58.1525511 487.93289885 -60.66772461 487.98339844 C-73.86705614 488.08662752 -83.75220102 484.96720653 -93.55444336 475.64355469 C-106.94649169 460.37411641 -111.5022885 442.689546 -112.76928711 423.01074219 C-112.8542041 421.69912109 -112.93912109 420.3875 -113.02661133 419.03613281 C-114.3743675 395.82731468 -113.81127539 372.49672562 -113.64428711 349.26074219 C-114.72677734 349.88142578 -115.80926758 350.50210937 -116.92456055 351.14160156 C-118.3674761 351.96277301 -119.8105166 352.78372493 -121.25366211 353.60449219 C-122.31979736 354.21695801 -122.31979736 354.21695801 -123.4074707 354.84179688 C-128.9483009 357.98435729 -134.51886843 360.46166817 -140.64428711 362.26074219 C-141.2246875 362.43508789 -141.80508789 362.60943359 -142.40307617 362.7890625 C-147.53096031 363.86826426 -152.92592712 363.48917872 -158.14428711 363.51074219 C-159.36116211 363.53136719 -160.57803711 363.55199219 -161.83178711 363.57324219 C-175.08106199 363.62986302 -186.72284338 360.97261878 -197.64428711 353.26074219 C-201.16696138 349.5846302 -203.33637227 346.18520993 -204.14428711 341.13574219 C-203.55146856 337.72703555 -202.69902092 334.55678535 -201.64428711 331.26074219 C-202.42803711 332.25074219 -203.21178711 333.24074219 -204.01928711 334.26074219 C-205.31866211 335.74574219 -205.31866211 335.74574219 -206.64428711 337.26074219 C-207.30428711 337.26074219 -207.96428711 337.26074219 -208.64428711 337.26074219 C-208.89178711 337.83308594 -209.13928711 338.40542969 -209.39428711 338.99511719 C-210.8374491 341.6108483 -212.52644933 343.40847675 -214.64428711 345.51074219 C-215.69616211 346.57035156 -215.69616211 346.57035156 -216.76928711 347.65136719 C-218.64428711 349.26074219 -218.64428711 349.26074219 -220.64428711 349.26074219 C-220.64428711 349.92074219 -220.64428711 350.58074219 -220.64428711 351.26074219 C-229.57572771 356.68965706 -238.55684146 357.61090006 -248.98413086 355.87011719 C-268.43890212 349.66368709 -279.74731066 326.16391532 -288.57543945 309.37426758 C-291.60861898 303.45941819 -294.12359673 297.34256628 -296.58227539 291.17138672 C-297.39850081 289.12517879 -298.22940349 287.0853877 -299.06225586 285.04589844 C-301.96867965 277.86837181 -304.56167463 270.68879357 -306.75854492 263.25585938 C-307.57872699 260.48243226 -308.45658795 257.73743147 -309.36303711 254.99121094 C-314.19715063 240.07436246 -318.13341568 224.96314682 -321.95678711 209.76074219 C-322.21717773 208.73443695 -322.47756836 207.70813171 -322.74584961 206.65072632 C-325.7533797 194.76265195 -328.40082205 182.95957941 -330.20895386 170.82829285 C-330.55532546 168.78542883 -330.95708679 166.75197472 -331.37771606 164.72309875 C-333.33703856 155.2622238 -334.11897669 146.17698192 -334.11303711 136.49121094 C-334.1201757 135.03501611 -334.12787973 133.57882396 -334.1361084 132.12263489 C-334.14941228 129.0965693 -334.15118658 126.070764 -334.14526367 123.04467773 C-334.1405494 119.98535905 -334.15443946 116.92707513 -334.1862793 113.86791992 C-334.35825313 97.14463663 -334.50462179 81.17546773 -328.64428711 65.26074219 C-328.29849609 64.28371338 -327.95270508 63.30668457 -327.59643555 62.30004883 C-326.73815862 60.04540772 -325.80126185 57.87774302 -324.76928711 55.69824219 C-324.26220215 54.59295166 -324.26220215 54.59295166 -323.74487305 53.46533203 C-320.12115027 45.78649091 -315.73578682 39.19354551 -309.64428711 33.26074219 C-308.83991211 32.43574219 -308.03553711 31.61074219 -307.20678711 30.76074219 C-300.54428711 24.26074219 -300.54428711 24.26074219 -297.64428711 24.26074219 C-297.14928711 22.77574219 -297.14928711 22.77574219 -296.64428711 21.26074219 C-294.51294749 19.81155252 -292.47503285 18.58396329 -290.20678711 17.38574219 C-289.54445068 17.03495605 -288.88211426 16.68416992 -288.19970703 16.32275391 C-271.89473135 8.08600507 -253.49600305 5.83803141 -235.45678711 5.88574219 C-234.71473022 5.88595367 -233.97267334 5.88616516 -233.20812988 5.88638306 C-219.38548112 5.92542695 -206.18424995 7.41118817 -192.64428711 10.26074219 C-191.17499756 10.55754883 -191.17499756 10.55754883 -189.67602539 10.86035156 C-179.24521083 12.98327051 -169.19226297 15.41107967 -159.32397461 19.44042969 C-154.17303025 21.01724939 -150.9078668 18.43865067 -146.33178711 16.01074219 C-130.21281508 7.72835918 -114.28298652 4.88222248 -96.26928711 4.94824219 C-95.51861969 4.9464093 -94.76795227 4.94457642 -93.99453735 4.94268799 C-84.89543452 4.92793497 -76.28654592 5.37521073 -67.33178711 7.13574219 C-59.02874384 8.71249832 -52.62802374 7.63746594 -44.70947266 4.72314453 C-30.58961103 -0.36955263 -14.83529652 -0.07424073 0 0 Z M-52.24584961 11.20996094 C-57.91037625 12.96140653 -61.14999677 13.40176649 -66.95678711 11.88574219 C-76.63024026 9.38861435 -85.8159065 9.0517026 -95.76928711 9.01074219 C-96.99905273 8.99011719 -98.22881836 8.96949219 -99.49584961 8.94824219 C-115.8350357 8.87959015 -138.02864686 12.35428876 -150.51538086 24.00683594 C-153.8429719 25.96675653 -155.93239222 25.13742088 -159.64428711 24.26074219 C-162.10476885 23.43663422 -164.53121968 22.54200786 -166.96118164 21.63183594 C-200.05065453 9.42942443 -245.2005146 2.50869417 -278.53491211 16.76464844 C-300.83386067 27.4939164 -315.60686004 42.98783999 -324.0480957 66.68823242 C-324.30671387 67.43403564 -324.56533203 68.17983887 -324.83178711 68.94824219 C-325.06978027 69.61734619 -325.30777344 70.2864502 -325.55297852 70.97583008 C-330.08577062 84.69649966 -331.25691659 98.84784178 -331.20678711 113.19824219 C-331.20696838 114.00934448 -331.20714966 114.82044678 -331.20733643 115.65612793 C-331.15197324 133.30453756 -328.4433294 150.07336573 -324.64428711 167.26074219 C-324.37213379 168.49937012 -324.09998047 169.73799805 -323.81958008 171.01416016 C-322.57538422 176.61115292 -321.28415899 182.19447643 -319.94116211 187.76855469 C-318.89976359 192.10575952 -318.00803208 196.43593742 -317.20678711 200.82324219 C-314.44133406 215.1969742 -309.87151109 229.26122683 -305.64428711 243.26074219 C-305.34006836 244.28941406 -305.03584961 245.31808594 -304.72241211 246.37792969 C-299.11078955 265.0656916 -292.71062669 283.86015737 -283.68725586 301.20605469 C-282.76941836 303.01422894 -281.9771816 304.88499909 -281.20678711 306.76074219 C-274.73044138 321.26775663 -263.67933279 339.12795794 -249.08959961 346.44824219 C-241.56180005 348.94949188 -233.96311704 347.76703892 -226.87866211 344.50683594 C-219.09001918 340.16316969 -214.09945852 333.15100085 -208.64428711 326.26074219 C-203.28704704 319.58537626 -197.78077774 313.1216232 -191.98803711 306.81933594 C-189.96875693 304.61495507 -187.9829798 302.38952584 -186.01928711 300.13574219 C-185.47272461 299.51570313 -184.92616211 298.89566406 -184.36303711 298.25683594 C-183.08507085 296.7726524 -181.83999628 295.2600188 -180.61303711 293.73339844 C-179.92209961 292.89679688 -179.23116211 292.06019531 -178.51928711 291.19824219 C-177.89795898 290.42351562 -177.27663086 289.64878906 -176.63647461 288.85058594 C-174.64428711 287.26074219 -174.64428711 287.26074219 -172.31225586 287.35839844 C-169.19727556 288.41192764 -166.13677179 289.54299627 -163.08178711 290.76074219 C-157.13407332 293.12607576 -152.8096703 294.39297461 -146.39428711 294.32324219 C-144.77780273 294.30970703 -144.77780273 294.30970703 -143.12866211 294.29589844 C-142.30881836 294.28429687 -141.48897461 294.27269531 -140.64428711 294.26074219 C-140.95660279 301.02014583 -142.56130031 304.43719688 -147.01928711 309.44824219 C-147.49495117 310.03798828 -147.97061523 310.62773437 -148.46069336 311.23535156 C-156.45144353 320.46887908 -168.54366052 322.47320893 -179.94702148 324.93261719 C-186.2168856 326.37673176 -191.6163763 328.10609558 -196.64428711 332.26074219 C-198.09576614 335.16370024 -198.01667736 337.03335998 -197.64428711 340.26074219 C-193.89304032 346.59905572 -188.38208677 348.77375331 -181.64428711 351.26074219 C-180.78319336 351.58300781 -179.92209961 351.90527344 -179.03491211 352.23730469 C-165.12916883 356.5376357 -147.96338336 356.04141117 -134.64428711 350.26074219 C-133.64526367 349.85984375 -132.64624023 349.45894531 -131.61694336 349.04589844 C-123.87650007 345.60902207 -113.59496509 339.16209815 -109.64428711 331.26074219 C-109.63620026 332.04238739 -109.6281134 332.82403259 -109.61978149 333.62936401 C-109.54066713 341.12662176 -109.45306656 348.62371639 -109.35676003 356.12077141 C-109.30756776 359.97175649 -109.26125745 363.82272367 -109.22241211 367.67382812 C-110.88990922 420.96165008 -110.88990922 420.96165008 -89.50756836 467.63574219 C-77.31211436 478.27160983 -66.97157079 480.09474101 -51.39086914 479.45166016 C-34.6523754 478.28814886 -16.72836318 472.20430575 -4.64428711 460.26074219 C7.33319345 446.08102318 11.14820141 429.97852471 13.18774414 411.95214844 C14.02903757 404.68122955 14.99967395 397.43156006 16.01196289 390.18261719 C16.23527031 388.58127678 16.23527031 388.58127678 16.46308899 386.94758606 C17.08026444 382.53150827 17.69939566 378.11572083 18.32397461 373.70068359 C20.36544467 359.2433054 22.11536276 344.80981806 23.35571289 330.26074219 C24.35030518 330.74679932 25.34489746 331.23285645 26.36962891 331.73364258 C30.26972992 333.39711425 33.92557207 333.71251991 38.13305664 333.69433594 C38.8620668 333.69957779 39.59107697 333.70481964 40.34217834 333.71022034 C41.88093808 333.71661102 43.41974687 333.71534199 44.95849609 333.70678711 C47.25655803 333.69837634 49.55204278 333.72691278 51.84985352 333.75878906 C74.85691294 333.86721662 96.85257813 325.66253507 113.80102539 309.87792969 C117.07146118 306.47601909 119.14514396 303.79488723 119.79321289 299.07324219 C119.29344657 295.86045868 118.9221987 295.15675419 116.35571289 293.26074219 C109.40047121 292.16930426 102.48754325 293.34606315 95.66821289 294.76074219 C88.09313683 296.27646776 80.63502025 296.62853988 72.91821289 296.69824219 C71.82871338 296.72015625 70.73921387 296.74207031 69.61669922 296.76464844 C61.13391492 296.74390338 54.43959088 294.98332751 47.35571289 290.26074219 C48.74844633 286.46674421 50.50698959 283.23399502 52.66821289 279.82324219 C53.38711023 278.66919591 54.10443904 277.51417168 54.82055664 276.35839844 C55.22000488 275.71402832 55.61945313 275.0696582 56.03100586 274.40576172 C65.98275332 258.29148727 74.7394079 241.98432702 82.39086914 224.65917969 C83.61797639 221.8830268 84.88827607 219.13906046 86.22290039 216.41308594 C91.89472376 204.63719194 96.32035715 192.44519866 100.66821289 180.13574219 C101.12148956 178.86789383 101.12148956 178.86789383 101.58392334 177.57443237 C105.50166569 166.57922472 108.65616654 155.67036766 110.95700073 144.22595215 C111.52505247 141.42608537 112.14910991 138.63919387 112.76977539 135.85058594 C118.25139553 110.50925422 124.3203845 79.98634825 111.14086914 55.99121094 C108.0382737 51.24566561 104.33228487 47.28135848 100.35571289 43.26074219 C99.10274414 41.91689453 99.10274414 41.91689453 97.82446289 40.54589844 C90.97953042 33.36878542 83.59281241 27.72784364 75.35571289 22.26074219 C74.51395508 21.68453125 73.67219727 21.10832031 72.80493164 20.51464844 C62.90513626 14.10889849 51.36848709 10.70385849 40.10571289 7.51074219 C39.06253906 7.2128479 39.06253906 7.2128479 37.99829102 6.90893555 C26.23146794 3.70815131 14.67841134 2.8548076 2.54321289 2.88574219 C1.77591858 2.88595367 1.00862427 2.88616516 0.21807861 2.88638306 C-17.95747037 2.93618231 -34.92566651 5.65998145 -52.24584961 11.20996094 Z M-175.02709961 299.28027344 C-180.49088614 304.8452412 -185.62814072 310.49398364 -190.49584961 316.60058594 C-193.73710204 320.61384576 -197.18108805 324.43895576 -200.64428711 328.26074219 C-200.31428711 328.92074219 -199.98428711 329.58074219 -199.64428711 330.26074219 C-199.06678711 329.68324219 -198.48928711 329.10574219 -197.89428711 328.51074219 C-191.27393263 323.92741986 -183.24496578 322.39150455 -175.52001953 320.4543457 C-162.60071407 317.79216879 -162.60071407 317.79216879 -152.19897461 310.45996094 C-150.92063178 308.39063036 -150.92063178 308.39063036 -149.64428711 305.26074219 C-149.31428711 304.60074219 -148.98428711 303.94074219 -148.64428711 303.26074219 C-149.23854492 303.16277344 -149.83280273 303.06480469 -150.44506836 302.96386719 C-156.34304767 301.89984604 -161.72178378 300.26328307 -167.29663086 298.06542969 C-170.88940568 296.83396278 -172.07831492 296.78105756 -175.02709961 299.28027344 Z " fill="#040404" transform="translate(405.644287109375,58.7392578125)"/>
<path d="M0 0 C0.75611572 -0.02610352 1.51223145 -0.05220703 2.29125977 -0.07910156 C10.26879301 -0.10340479 16.59922352 3.29868991 22.41015625 8.6484375 C34.23215011 22.01243056 34.30223298 48.84252331 34.25317383 65.56079102 C34.25000734 67.80729527 34.27361032 70.05248447 34.29882812 72.29882812 C34.36201635 86.12503703 31.99515296 98.70833786 27.0625 111.6875 C26.73636719 112.58533203 26.41023438 113.48316406 26.07421875 114.40820312 C24.40522279 118.9054004 22.57116518 123.20868486 20.37890625 127.4765625 C18.04893882 132.01892609 16.30596671 136.58203128 14.75 141.4375 C14.50314453 142.17548828 14.25628906 142.91347656 14.00195312 143.67382812 C12.30833962 148.8449947 11.02823869 154.04555797 9.9375 159.375 C-3.61109349 160.42618398 -15.50295866 158.00045563 -26.5 149.625 C-40.14288116 137.53868918 -49.84180538 123.42198293 -51.25341797 104.86523438 C-51.61693023 96.73824649 -51.42864131 88.67486759 -50.57104492 80.58447266 C-49.55283548 70.88304371 -48.92462868 61.42227263 -49.25390625 51.6640625 C-49.28145996 50.70212982 -49.30901367 49.74019714 -49.33740234 48.74911499 C-49.45369453 44.82922234 -49.57716668 40.91246689 -49.7824707 36.99609375 C-50.6089225 20.39672144 -50.6089225 20.39672144 -46.73193359 15.328125 C-43.90521589 13.23558903 -41.28867039 11.75577306 -38.0625 10.375 C-36.83865601 9.75915039 -36.83865601 9.75915039 -35.59008789 9.13085938 C-33.45119539 8.06978326 -31.29774063 7.21321523 -29.0625 6.375 C-27.7321875 5.85292969 -27.7321875 5.85292969 -26.375 5.3203125 C-23.62227172 4.27274646 -20.85775357 3.30264656 -18.0625 2.375 C-17.38058594 2.14554688 -16.69867188 1.91609375 -15.99609375 1.6796875 C-10.74720708 0.22109277 -5.41498052 0.10767335 0 0 Z " fill="#346993" transform="translate(257.0625,188.625)"/>
<path d="M0 0 C0.87043945 0.00644531 1.74087891 0.01289063 2.63769531 0.01953125 C8.83885675 0.09349218 14.96606915 0.44616159 21.125 1.1875 C21.38062811 9.93654966 20.68833337 18.02898401 19.125 26.625 C16.27669777 43.85321246 16.64066185 59.68888197 19.04150391 76.92822266 C21.91044194 98.62916419 22.20829711 120.17644587 10.125 139.1875 C7.125 138.1875 7.125 138.1875 5.50390625 135.36328125 C4.8900433 134.07950106 4.28531545 132.79133109 3.6875 131.5 C0.37641113 124.60559125 -3.1773857 117.88217683 -6.875 111.1875 C-11.76791838 102.28961464 -16.45070786 93.32688282 -20.875 84.1875 C-21.32101562 83.300625 -21.76703125 82.41375 -22.2265625 81.5 C-31.03885441 63.30688121 -40.52856398 38.42292215 -35.03125 18.0625 C-31.76972894 10.83426413 -26.04152778 5.48851068 -18.875 2.1875 C-12.61608267 0.23965689 -6.51221951 -0.10061367 0 0 Z " fill="#356A94" transform="translate(428.875,186.8125)"/>
<path d="M0 0 C4.11054264 0.85404855 7.26466355 2.60474542 10.3125 5.48046875 C11.79224652 7.82041394 12.46675937 9.79399851 13.3125 12.48046875 C13.8075 13.96546875 13.8075 13.96546875 14.3125 15.48046875 C15.14123092 20.70462063 14.68656502 24.54883455 11.8125 29.04296875 C3.3033183 40.42152568 -8.18817787 49.0819415 -22.328125 52.03125 C-37.36543707 54.04205336 -55.08280783 53.81455567 -67.6875 44.48046875 C-68.3475 43.82046875 -69.0075 43.16046875 -69.6875 42.48046875 C-69.6875 40.60546875 -69.6875 40.60546875 -68.6875 38.48046875 C-63.90107274 34.62286305 -59.60512144 33.56968897 -53.625 32.54296875 C-36.94783307 29.31725146 -26.37486252 24.10492159 -16.36254883 10.1875 C-11.92948719 4.11205537 -7.88589737 -0.49286859 0 0 Z " fill="#356B94" transform="translate(282.6875,355.51953125)"/>
<path d="M0 0 C14.40305298 7.45060184 34.75229375 4.25933081 50.25 1.16796875 C54.92070119 0.32189894 59.20893683 0.27119856 63.9375 0.5 C63.82275454 4.28660009 62.53513861 6.23869388 60 8.875 C42.63117649 25.11643537 19.67004919 31.84623455 -3.6875 31.875 C-4.74195313 31.89949219 -5.79640625 31.92398438 -6.8828125 31.94921875 C-14.02835571 31.97574923 -19.69259606 30.80347354 -26.0625 27.5 C-28.30605351 25.25644649 -27.43254108 19.83526247 -27.44970703 16.72753906 C-27.33313025 10.86726341 -26.33462961 6.74964472 -22.0625 2.5 C-14.43213404 -3.8033458 -8.42446045 -4.37106243 0 0 Z " fill="#376C95" transform="translate(456.0625,356.5)"/>
<path d="M0 0 C1.30453125 -0.02835938 2.6090625 -0.05671875 3.953125 -0.0859375 C8.4762632 0.46316775 10.23310793 1.61172766 13.75 4.375 C13.47608098 7.6620282 12.93168017 9.16493231 10.75 11.6875 C6.64062941 13.99902096 3.3575065 14.420731 -1.25 13.375 C-5.1369599 11.20032541 -7.70067022 8.79679473 -9.3125 4.625 C-9.15872947 -0.91073899 -4.31230204 0.04227747 0 0 Z " fill="#F9FBFC" transform="translate(259.25,203.625)"/>
<path d="M0 0 C0.99 0.66 1.98 1.32 3 2 C2.71346097 5.3429554 1.99496782 7.00691925 0 9.75 C-3.941321 12.70599075 -7.13790273 13.16765853 -12 13 C-15.95971687 11.98900846 -16.69015792 11.46476311 -19 8 C-19.0625 5.5 -19.0625 5.5 -18 3 C-12.42574808 -0.5142023 -6.4754919 -0.79396955 0 0 Z " fill="#F4F7F9" transform="translate(428,199)"/>
<path d="M0 0 C0.66 0.33 1.32 0.66 2 1 C-3.28 6.28 -8.56 11.56 -14 17 C-14.66 16.67 -15.32 16.34 -16 16 C-14.27538679 14.07906479 -12.54557391 12.163278 -10.8125 10.25 C-10.32974609 9.71117188 -9.84699219 9.17234375 -9.34960938 8.6171875 C-6.43837795 5.41287909 -3.47293499 2.6158121 0 0 Z " fill="#D6D6D6" transform="translate(110,85)"/>
<path d="M0 0 C2.29633824 3.44450737 2.54016485 5.93812283 3 10 C0.03 9.67 -2.94 9.34 -6 9 C-6 8.67 -6 8.34 -6 8 C-3.69 8 -1.38 8 1 8 C0.67 5.36 0.34 2.72 0 0 Z " fill="#769AB6" transform="translate(447,174)"/>
</svg>
