<?xml version="1.0" encoding="UTF-8"?>
<svg version="1.1" xmlns="http://www.w3.org/2000/svg" width="400" height="300">
<path d="M0 0 C17.35863121 -0.56238741 34.71439689 -0.98465623 52.0800724 -1.24349213 C60.14503232 -1.36691406 68.20431379 -1.53487902 76.265625 -1.81054688 C83.29822615 -2.05092043 90.32671762 -2.20484143 97.36331213 -2.25812387 C101.08683359 -2.28925958 104.79860991 -2.36142875 108.51832962 -2.53752136 C131.05155607 -3.56359599 131.05155607 -3.56359599 137.60297966 2.34927177 C142.12382589 8.11078339 145.12327546 14.41107633 147.83483982 21.18062401 C149.35559422 24.8604429 151.25540682 28.11114609 153.33203125 31.50390625 C154.49265936 33.52316636 155.65283569 35.54268623 156.8125 37.5625 C161.30055433 45.37228774 165.81351236 53.16061129 170.5637207 60.81469727 C173 64.78867235 173 64.78867235 173 67 C173.66 67 174.32 67 175 67 C175.26393555 66.29399658 175.52787109 65.58799316 175.79980469 64.8605957 C177.07073408 61.83140942 178.56762793 59.07919805 180.203125 56.23046875 C180.84717285 55.10560059 181.4912207 53.98073242 182.15478516 52.82177734 C182.85304659 51.61026884 183.55145491 50.39884498 184.25 49.1875 C184.96811498 47.93711438 185.68604899 46.68662481 186.40380859 45.43603516 C193.20967184 33.59024657 200.04298658 21.75768991 207 10 C207.33663414 9.19803066 207.67326828 8.39606133 208.02010345 7.56978989 C209.42102366 4.61339853 210.74910306 2.38470374 213 0 C217.34290369 -1.46359775 221.52746767 -1.26698632 226.07373047 -1.13525391 C227.39133865 -1.13671417 228.70894684 -1.13817444 230.06648254 -1.13967896 C233.66862681 -1.14254194 237.26742348 -1.08387323 240.8687911 -1.01393938 C244.6362405 -0.95131007 248.40377174 -0.94554336 252.17166138 -0.9336853 C259.30143407 -0.90263642 266.4296685 -0.82062452 273.55876458 -0.72019041 C281.67703195 -0.60831041 289.79537387 -0.5534083 297.91422057 -0.50323606 C314.61038009 -0.39878457 331.30499358 -0.22296182 348 0 C346.73685859 2.37974015 345.47243185 4.75878256 344.20727539 7.13745117 C343.85350075 7.80427666 343.4997261 8.47110214 343.13523102 9.15813446 C340.04591827 14.96246267 336.78228086 20.65164334 333.4375 26.3125 C332.21557657 28.39419721 330.99424294 30.47624071 329.7734375 32.55859375 C328.84096191 34.14776611 328.84096191 34.14776611 327.88964844 35.76904297 C324.75753357 41.12439285 321.65949655 46.49928772 318.5625 51.875 C317.94044678 52.95434814 317.31839355 54.03369629 316.67749023 55.14575195 C315.41519376 57.33632735 314.1530683 59.52700131 312.89111328 61.71777344 C309.76319852 67.14659942 306.63141552 72.57319281 303.5 78 C302.24998121 80.16665583 300.99998122 82.3333225 299.75 84.5 C297.25 88.83333333 294.75 93.16666667 292.25 97.5 C291.63116943 98.57266113 291.01233887 99.64532227 290.37475586 100.75048828 C289.12564482 102.91557071 287.87645871 105.08060982 286.62719727 107.24560547 C283.48797691 112.68615706 280.35009437 118.12747216 277.21484375 123.5703125 C271.19252671 134.02206199 265.15330663 144.46299548 259.0625 154.875 C253.98724877 163.55262241 248.97741233 172.26605568 244 181 C238.4599827 190.72115617 232.86625191 200.40894658 227.21655273 210.06689453 C221.06233258 220.59084625 214.97630004 231.15380137 208.89111328 241.71777344 C205.14856359 248.21336316 201.40099757 254.70606042 197.65380859 261.19897461 C194.71817241 266.28625032 191.78383388 271.37426104 188.85409546 276.4649353 C187.46671905 278.87543748 186.07860376 281.28551376 184.69042969 283.69555664 C183.70826185 285.40143968 182.72716615 287.10793986 181.74609375 288.81445312 C180.85664063 290.35842773 180.85664063 290.35842773 179.94921875 291.93359375 C179.42674561 292.84165771 178.90427246 293.74972168 178.3659668 294.68530273 C177.30022034 296.49126201 176.16319248 298.25521129 175 300 C171.22983584 298.74327861 170.99288597 297.70437669 169.13671875 294.27734375 C168.58701416 293.27646729 168.03730957 292.27559082 167.47094727 291.24438477 C166.88240967 290.15311279 166.29387207 289.06184082 165.6875 287.9375 C164.4211316 285.63178953 163.15285461 283.32712644 161.8828125 281.0234375 C161.39751823 280.1402459 161.39751823 280.1402459 160.90242004 279.23921204 C157.71876177 273.45653569 154.40554125 267.75404915 151.0625 262.0625 C149.89562073 260.07173919 148.72895613 258.08085253 147.5625 256.08984375 C146.97855469 255.0932373 146.39460937 254.09663086 145.79296875 253.06982422 C142.69562962 247.7667275 139.62886142 242.44605065 136.5625 237.125 C135.93996338 236.04484619 135.31742676 234.96469238 134.67602539 233.85180664 C133.41423174 231.66203666 132.15259466 229.47217645 130.89111328 227.28222656 C127.76319852 221.85340058 124.63141552 216.42680719 121.5 211 C120.24998121 208.83334417 118.99998122 206.6666775 117.75 204.5 C117.13125 203.4275 116.5125 202.355 115.875 201.25 C95.25 165.5 95.25 165.5 93.37475586 162.24951172 C92.12564482 160.08442929 90.87645871 157.91939018 89.62719727 155.75439453 C86.48797691 150.31384294 83.35009437 144.87252784 80.21484375 139.4296875 C74.19252671 128.97793801 68.15330663 118.53700452 62.0625 108.125 C56.64078822 98.85500223 51.29795085 89.54168248 45.98077393 80.21154785 C40.78328518 71.0937264 35.52824513 62.01115483 30.22753906 52.95288086 C25.23313751 44.41450086 20.29106344 35.84651441 15.35693359 27.27319336 C11.21798798 20.08890816 7.04137614 12.9284341 2.79199219 5.80883789 C0 1.10593302 0 1.10593302 0 0 Z " fill="#4CB987" transform="translate(26,0)"/>
<path d="M0 0 C8.23105065 -0.56007509 16.45399848 -0.98422017 24.69947243 -1.24349213 C28.53083485 -1.36807235 32.34906577 -1.53613171 36.17285156 -1.81054688 C60.71752316 -3.52570819 60.71752316 -3.52570819 67.68991089 2.21456909 C72.31998813 7.90133874 75.17141945 14.28965315 77.82531738 21.08099365 C79.33273152 24.82681519 81.22138132 28.06490695 83.33203125 31.50390625 C84.49265936 33.52316636 85.65283569 35.54268623 86.8125 37.5625 C91.30055433 45.37228774 95.81351236 53.16061129 100.5637207 60.81469727 C103 64.78867235 103 64.78867235 103 67 C103.66 67 104.32 67 105 67 C105.26393555 66.29399658 105.52787109 65.58799316 105.79980469 64.8605957 C107.07073408 61.83140942 108.56762793 59.07919805 110.203125 56.23046875 C110.84717285 55.10560059 111.4912207 53.98073242 112.15478516 52.82177734 C112.85304659 51.61026884 113.55145491 50.39884498 114.25 49.1875 C114.96811498 47.93711438 115.68604899 46.68662481 116.40380859 45.43603516 C123.20967184 33.59024657 130.04298658 21.75768991 137 10 C137.49873123 8.75342117 137.49873123 8.75342117 138.00753784 7.48165894 C139.39563093 4.45410382 140.62073545 2.34424892 143 0 C147.90825283 -1.40667629 152.74971822 -1.16794099 157.8046875 -0.9765625 C159.25337835 -0.95789291 160.70213267 -0.94366691 162.15090942 -0.9336853 C165.95024318 -0.89563951 169.74570617 -0.79755532 173.54351807 -0.68664551 C177.42431259 -0.58403543 181.30573776 -0.53861152 185.1875 -0.48828125 C192.79342481 -0.38127851 200.39616858 -0.21080061 208 0 C199.55945775 15.96456424 199.55945775 15.96456424 195.4375 22.8125 C191.1717483 29.98814308 186.97925881 37.20393812 182.8125 44.4375 C182.17497803 45.54391846 181.53745605 46.65033691 180.88061523 47.7902832 C179.57206705 50.06173458 178.26371905 52.33330128 176.95556641 54.60498047 C173.80667946 60.0716998 170.65316736 65.53574887 167.5 71 C166.2499765 73.16665311 164.99997653 75.33331979 163.75 77.5 C152.5 97 152.5 97 141.25 116.5 C140.63084717 117.5732251 140.01169434 118.6464502 139.3737793 119.75219727 C138.1279423 121.91159395 136.88201182 124.07093669 135.63598633 126.23022461 C132.44651047 131.75767597 129.25883115 137.28615121 126.07421875 142.81640625 C122.95370033 148.23496277 119.82615391 153.64941447 116.6953125 159.06201172 C115.0918951 161.84074516 113.49816527 164.62482273 111.90625 167.41015625 C111.00032871 168.98196034 110.09410279 170.5535889 109.1875 172.125 C108.5836145 173.1914978 108.5836145 173.1914978 107.9675293 174.27954102 C107.03447159 175.88694033 106.02546941 177.44992203 105 179 C104.34 179 103.68 179 103 179 C39.25 68.5 39.25 68.5 37.37451172 65.24902344 C36.12628966 63.08552524 34.87791761 60.92211357 33.62939453 58.75878906 C30.47594744 53.29434983 27.32523904 47.82836355 24.1796875 42.359375 C17.48238349 30.72234912 10.74693283 19.11239792 3.85888672 7.58691406 C3.34986816 6.73194336 2.84084961 5.87697266 2.31640625 4.99609375 C1.86724854 4.24513428 1.41809082 3.4941748 0.95532227 2.72045898 C0 1 0 1 0 0 Z " fill="#435466" transform="translate(96,0)"/>
</svg>
